<?xml version="1.0" encoding="utf-8"?>
<!-- Generator: Adobe Illustrator 16.0.4, SVG Export Plug-In . SVG Version: 6.00 Build 0)  -->
<!DOCTYPE svg PUBLIC "-//W3C//DTD SVG 1.1//EN" "http://www.w3.org/Graphics/SVG/1.1/DTD/svg11.dtd">
<svg version="1.1" id="Õ_xBA__x2264__x201E__1" xmlns="http://www.w3.org/2000/svg" xmlns:xlink="http://www.w3.org/1999/xlink"
	 x="0px" y="0px" width="156.074px" height="43.965px" viewBox="0 0 156.074 43.965"
	 style="enable-background:new 0 0 156.074 43.965;" xml:space="preserve">
<style type="text/css">
<![CDATA[
	.st0{fill-rule:evenodd;clip-rule:evenodd;fill:#FFFFFF;stroke:#60C9DD;stroke-width:1.4173;stroke-miterlimit:22.9256;}
	.st1{fill-rule:evenodd;clip-rule:evenodd;fill:#808285;}
	.st2{fill-rule:evenodd;clip-rule:evenodd;fill:#6D6E71;stroke:#6D6E71;stroke-width:1.4173;stroke-miterlimit:22.9256;}
	.st3{fill:#6D6E71;}
	.st4{fill-rule:evenodd;clip-rule:evenodd;fill:#6D6E71;}
]]>
</style>
<g>
	<path class="st4" d="M18.206,39.566h1.946v2.04h-1.954c-0.108,0.057-1.291,0.403-2.569,1.447c-1.278,1.044-2.358,1.069-2.973,0.684
		c-0.615-0.385-0.535-1.026-0.535-1.026v-4.85c0,0-0.108-0.694,0.502-1.166c0.611-0.472,1.733-0.335,2.641,0.52
		C16.173,38.069,18.206,39.566,18.206,39.566z"/>
	<path class="st4" d="M21.203,39.299h-1.946v2.307h1.954c0.107,0.057,1.29,0.403,2.569,1.447c1.278,1.044,2.358,1.069,2.973,0.684
		c0.614-0.385,0.535-1.026,0.535-1.026v-4.008c0,0,0.108-0.695-0.502-1.166c-0.611-0.472-1.449-0.465-2.736,0.292
		C22.762,38.586,21.203,39.299,21.203,39.299z"/>
	<path class="st4" d="M18.387,39.042h2.635c0.103,0,0.186,0.069,0.186,0.153v2.492c0,0.084-0.083,0.153-0.186,0.153h-2.635
		c-0.102,0-0.186-0.069-0.186-0.153v-2.492C18.201,39.111,18.285,39.042,18.387,39.042z"/>
	<path class="st0" d="M9.382,15.548c-0.21-0.052-0.441-0.092-0.695-0.115c-2.481-0.224-7.283-3.296-7.935,1.913
		c-0.261,2.087,0.725,4.504,1.218,6.359c0.493,1.855,0.58,3.965,0.377,4.962c-0.203,0.997-0.029,1.762,0.928,2.203
		c0.957,0.44,4.221-0.428,4.221-0.428l0-0.005c1.303,1.951,3.454,3.493,6.626,4.257c0,0-0.637,1.882-2.383,2.371
		c-1.746,0.489-3.842,0.302-5.27-0.848c-1.146-0.922-1.543-2.215-1.711-3.065c-0.063-0.318-0.187-0.487-0.318-0.568
		c-0.149-0.092-0.39-0.099-0.562-0.015c-0.224,0.109-0.218,0.232-0.414,0.337c-0.197,0.105-0.459,0.096-0.666-0.005
		c-0.143-0.07-0.271-0.212-0.4-0.297c-0.249-0.167-0.848-0.081-0.831,0.595c0.034,1.332,0.487,4.934,4.539,7.091
		c4.986,2.655,11.107,0.885,13.656-0.755c2.548-1.64,3.518-2.941,4.017-3.722c0.499-0.781,0.526-0.937,0.526-0.937
		c0.882-0.174,1.695-0.397,2.44-0.664c0.882-0.316,1.67-0.693,2.369-1.121c1.188-0.728,2.116-1.606,2.816-2.586
		c0.264,0.064,3.288,0.786,4.203,0.365c0.957-0.441,1.131-1.206,0.928-2.203c-0.203-0.997-0.116-3.107,0.377-4.962
		c0.493-1.855,1.479-4.272,1.218-6.359c-0.651-5.209-5.453-2.137-7.934-1.913c-0.288,0.026-0.547,0.074-0.779,0.137
		c-3.522-4.184-9.17-6.68-15.159-4.179C12.678,12.271,10.835,13.748,9.382,15.548z"/>
	<circle class="st1" cx="14.708" cy="24.388" r="1.342"/>
	<circle class="st1" cx="24.702" cy="24.388" r="1.342"/>
	<path class="st2" d="M11.792,0.709h16.042c0.39,0,0.744,0.271,0.709,0.598l-1.067,10.095h3.63c0.351,0,0.637,0.426,0.637,0.947v0
		c0,0.521-0.287,0.947-0.637,0.947h-4.477H12.595H8.301c-0.351,0-0.637-0.426-0.637-0.947v0c0-0.521,0.287-0.947,0.637-0.947h3.494
		L11.083,1.307C11.06,0.979,11.402,0.709,11.792,0.709z"/>
	<path class="st3" d="M55.188,42.165h-0.521v-2.907h-2.946c-0.049,1.043-0.41,2.063-1.08,3.057c-0.149-0.15-0.312-0.261-0.485-0.336
		c0.472-0.671,0.77-1.306,0.894-1.902c0.149-0.596,0.224-1.54,0.224-2.831v-3.318h7.38v7.156c0.025,0.72-0.359,1.081-1.155,1.081
		c-0.348,0.026-0.722,0.037-1.12,0.037c0-0.173-0.037-0.359-0.111-0.558c0.248,0.024,0.622,0.037,1.118,0.037
		c0.521,0.025,0.771-0.186,0.746-0.633v-1.789h-2.944V42.165L55.188,42.165z M58.132,34.413h-2.944v1.937h2.944V34.413
		L58.132,34.413z M55.188,36.835v1.937h2.944v-1.937H55.188L55.188,36.835z M51.796,37.246c0,0.223-0.013,0.522-0.037,0.894
		c0,0.297,0,0.509,0,0.633h2.908v-1.937h-2.871V37.246L51.796,37.246z M51.796,34.413v1.937h2.871v-1.937H51.796L51.796,34.413z
		 M68.603,35.157h0.56v5.405c-0.026,0.622,0.284,0.921,0.932,0.896h1.826c0.646,0.025,1.02-0.237,1.119-0.782
		c0.075-0.323,0.137-0.746,0.186-1.268c0.075,0.024,0.175,0.049,0.299,0.075c0.124,0.049,0.211,0.086,0.261,0.111
		c-0.025,0.273-0.075,0.609-0.149,1.007c-0.024,0.173-0.049,0.297-0.075,0.372c-0.148,0.671-0.669,1.007-1.565,1.007h-2.05
		c-0.896,0-1.342-0.434-1.342-1.304V35.157L68.603,35.157z M74.716,39.444l0.558-0.261c-0.223-0.496-0.571-1.229-1.043-2.198
		c-0.248-0.472-0.422-0.821-0.522-1.045l-0.521,0.224C73.709,37.208,74.219,38.302,74.716,39.444L74.716,39.444z M67.224,36.201
		l0.521,0.149c-0.323,1.242-0.646,2.46-0.969,3.654c-0.175-0.075-0.361-0.137-0.56-0.187C66.54,38.922,66.875,37.716,67.224,36.201
		L67.224,36.201z M71.548,36.164l0.522-0.299c-0.473-0.819-0.883-1.49-1.231-2.012c-0.148-0.224-0.261-0.397-0.336-0.521
		l-0.483,0.261C70.691,34.661,71.2,35.519,71.548,36.164L71.548,36.164z M82.613,34.338h2.349v6.932h-0.485v-0.708h-1.379v0.783
		h-0.485V34.338L82.613,34.338z M86.117,36.053h2.574v3.765h-2.574V36.053L86.117,36.053z M85.632,34.114v0.447h4.324v6.336
		c0.025,0.523-0.261,0.771-0.857,0.746c-0.398,0-0.832,0-1.304,0c0.049,0.1,0.075,0.224,0.075,0.374
		c0.024,0.073,0.037,0.124,0.037,0.148c0.596,0,1.043-0.011,1.342-0.036c0.819,0.026,1.217-0.372,1.193-1.193v-6.375h0.857v-0.447
		H85.632L85.632,34.114z M83.098,34.785v5.33h1.379v-5.33H83.098L83.098,34.785z M86.602,36.5v2.871h1.603V36.5H86.602L86.602,36.5z
		 M103.671,33.63l0.447-0.224c0.124,0.173,0.323,0.46,0.597,0.857c0.075,0.149,0.137,0.248,0.186,0.299l-0.446,0.223h2.385v3.988
		h-0.521v-0.447h-3.803c-0.026,1.59-0.447,2.895-1.268,3.915c-0.026-0.026-0.062-0.05-0.112-0.075
		c-0.149-0.124-0.261-0.199-0.335-0.224c0.522-0.695,0.857-1.366,1.007-2.012c0.148-0.622,0.223-1.567,0.223-2.833v-2.311h2.386
		C104.167,34.387,103.919,34.002,103.671,33.63L103.671,33.63z M102.515,35.27v1.863c0,0.248,0,0.485,0,0.708h3.803V35.27H102.515
		L102.515,35.27z M98.301,38.848c0.125-0.024,0.324-0.075,0.596-0.15c0.325-0.099,0.573-0.173,0.746-0.222v2.683
		c0.025,0.349-0.149,0.511-0.521,0.485c-0.099,0-0.249-0.013-0.447-0.037c-0.124,0-0.211,0-0.261,0
		c0.024,0.049,0.049,0.148,0.075,0.297c0.024,0.1,0.037,0.173,0.037,0.224c0.199,0,0.423,0,0.671,0
		c0.646,0.024,0.956-0.286,0.932-0.932v-2.907c0.15-0.051,0.359-0.113,0.633-0.188c0.299-0.073,0.511-0.124,0.634-0.148
		c-0.025-0.199-0.038-0.361-0.038-0.485c-0.398,0.099-0.808,0.211-1.23,0.336v-2.2h1.193v-0.447h-1.193v-1.752h-0.485v1.752h-1.229
		v0.447h1.229v2.349c-0.199,0.049-0.496,0.124-0.894,0.223c-0.25,0.075-0.423,0.124-0.522,0.149L98.301,38.848L98.301,38.848z
		 M117.271,36.276c-0.125-0.124-0.261-0.236-0.411-0.336c0.671-0.746,1.244-1.603,1.715-2.572l0.523,0.111
		c-0.051,0.124-0.149,0.299-0.299,0.522c-0.075,0.175-0.137,0.299-0.186,0.374h4.325v0.447l-0.597,1.268
		c-0.149-0.075-0.312-0.137-0.485-0.186l0.559-1.082h-4.062C118.029,35.294,117.668,35.779,117.271,36.276L117.271,36.276z
		 M116.563,39.519h0.485v1.417c0,0.372,0.249,0.558,0.746,0.558h1.862c0.597,0.025,0.932-0.173,1.007-0.597
		c0.051-0.173,0.1-0.459,0.149-0.857c0-0.026,0-0.049,0-0.075c0.149,0.075,0.323,0.15,0.521,0.224
		c-0.049,0.274-0.111,0.558-0.186,0.857c-0.149,0.646-0.622,0.956-1.417,0.932h-2.087c-0.72,0-1.082-0.323-1.082-0.97V39.519
		L116.563,39.519z M116.414,33.332c-0.571,1.069-1.292,2.037-2.162,2.907c0.173,0.173,0.286,0.31,0.335,0.41
		c0.323-0.349,0.633-0.722,0.932-1.12v3.244h0.522v-3.877c0.049-0.099,0.149-0.248,0.299-0.447c0.248-0.398,0.434-0.697,0.558-0.896
		L116.414,33.332L116.414,33.332z M119.917,35.457v2.198c0.025,0.349-0.186,0.523-0.633,0.523c-0.224,0-0.498,0-0.82,0
		c0.075,0.148,0.111,0.31,0.111,0.483c0.299,0,0.56,0,0.784,0c0.721,0,1.067-0.323,1.043-0.969v-2.236H119.917L119.917,35.457z
		 M118.464,36.164c-0.597,0.72-1.155,1.304-1.678,1.751c0.051,0.025,0.113,0.075,0.188,0.149c0.098,0.075,0.16,0.136,0.186,0.186
		c0.62-0.571,1.192-1.167,1.714-1.79L118.464,36.164L118.464,36.164z M121.11,36.649l0.335-0.336c0.423,0.347,1.02,0.881,1.79,1.602
		l-0.373,0.374C122.117,37.543,121.533,36.996,121.11,36.649L121.11,36.649z M121.521,39.444l0.372-0.261
		c0.573,0.647,1.056,1.231,1.454,1.753l-0.447,0.261C122.527,40.675,122.068,40.091,121.521,39.444L121.521,39.444z M115.332,39.371
		l0.448,0.186c-0.324,0.795-0.634,1.454-0.932,1.976l-0.485-0.186C114.735,40.75,115.058,40.091,115.332,39.371L115.332,39.371z
		 M118.091,39.371c0.473,0.398,0.881,0.783,1.229,1.155l0.374-0.336c-0.398-0.398-0.821-0.782-1.268-1.155L118.091,39.371
		L118.091,39.371z M130.685,34.935h0.97c0.199-0.596,0.347-1.105,0.447-1.528l0.521,0.111c-0.149,0.498-0.299,0.97-0.447,1.417h1.9
		v7.157h-0.521v-0.746h-2.386v0.821h-0.485V34.935L130.685,34.935z M134.898,36.947c-0.049-0.024-0.124-0.073-0.224-0.148
		c-0.099-0.051-0.173-0.087-0.223-0.113c0.545-0.894,1.018-1.989,1.416-3.28l0.521,0.111c-0.148,0.447-0.323,0.906-0.521,1.379
		h3.095c0,0.124,0,0.323,0,0.596c-0.051,2.213-0.113,3.914-0.188,5.107c0.026,0.97-0.509,1.466-1.602,1.492
		c-0.498,0-0.983,0-1.454,0c0-0.026-0.013-0.062-0.038-0.111c-0.025-0.199-0.062-0.336-0.111-0.41
		c0.348,0.024,0.857,0.037,1.528,0.037c0.795,0.025,1.193-0.335,1.193-1.082c0.049-0.62,0.086-1.925,0.111-3.913
		c0.025-0.573,0.037-0.983,0.037-1.231h-2.758C135.357,36.102,135.097,36.624,134.898,36.947L134.898,36.947z M131.17,38.364v2.572
		h2.386v-2.572H131.17L131.17,38.364z M131.17,35.382v2.535h2.386v-2.535H131.17L131.17,35.382z M135.308,37.394
		c0.497,0.622,0.981,1.281,1.454,1.977l0.41-0.299c-0.299-0.447-0.722-1.007-1.268-1.678c-0.1-0.124-0.175-0.222-0.224-0.297
		L135.308,37.394L135.308,37.394z M146.822,40.414c-0.124-0.199-0.225-0.361-0.299-0.485c1.542-0.423,2.784-1.069,3.728-1.939
		c-0.098-0.199-0.224-0.373-0.372-0.522c-0.97,0.596-2.026,1.056-3.17,1.379c-0.023-0.049-0.086-0.137-0.186-0.261
		c-0.049-0.099-0.086-0.173-0.111-0.222c1.591-0.398,2.908-1.007,3.951-1.827h-2.758v-0.447h6.486v0.447h-3.019
		c-0.25,0.224-0.521,0.436-0.821,0.635c0.323,0.372,0.622,0.819,0.896,1.341c1.118-0.496,2.074-0.969,2.87-1.416l0.299,0.409
		c-0.547,0.299-1.144,0.597-1.789,0.896c0.447,1.343,1.354,2.249,2.721,2.721c-0.1,0.125-0.211,0.261-0.335,0.411
		c-1.392-0.547-2.324-1.516-2.796-2.907c-0.248,0.099-0.509,0.21-0.783,0.336c0.174,0.496,0.261,0.994,0.261,1.49
		c0.024,1.144-0.423,1.714-1.343,1.714c-0.348,0-0.72,0-1.118,0c-0.025-0.075-0.049-0.186-0.074-0.335
		c-0.049-0.075-0.075-0.137-0.075-0.186c0.175,0,0.398,0.013,0.671,0.037c0.224,0,0.385,0,0.485,0
		c0.671,0.051,0.994-0.347,0.969-1.193c0-0.323-0.037-0.633-0.111-0.93c-1.043,1.093-2.46,1.914-4.25,2.459
		c-0.075-0.148-0.173-0.31-0.299-0.483c1.789-0.448,3.256-1.268,4.399-2.46c-0.025-0.049-0.062-0.137-0.111-0.261
		c-0.075-0.199-0.149-0.348-0.224-0.447C149.642,39.183,148.412,39.867,146.822,40.414L146.822,40.414z M150.4,33.479l0.485-0.186
		c0.099,0.149,0.223,0.41,0.373,0.782c0.074,0.149,0.124,0.261,0.149,0.335l-0.411,0.15h4.026v1.379H154.5v-0.932h-7.343v0.932
		h-0.485v-1.379h4.25c-0.049-0.124-0.137-0.31-0.261-0.56C150.561,33.778,150.475,33.604,150.4,33.479z"/>
	<g>
		<path class="st4" d="M61.97,12.816c0,0-1.474,1.164-1.513,1.675c-0.01,0.135,0.66,0.891,1.354,1.771
			c1.916,2.436,5.512,6.961,6.204,7.769c0.942,1.099,0.677,1.208,0.677,1.208l-1.921,1.302c0,0-0.093,0.292,0.012,0.414
			c0.105,0.123,1.022,1.276,1.223,1.483c0.201,0.206,0.15,0.202,0.285,0.111c0.134-0.092,2.654-1.938,2.896-2.098
			c0.242-0.159,1.772-2.777,1.985-3.219c0.212-0.442,0.317-0.32-0.059-0.73c-0.376-0.412-0.292-0.341-0.401-0.248
			c-0.109,0.094-1.475,1.136-1.555,1.181c-0.08,0.045-0.43,0.132-0.522-0.002c-0.092-0.135-8.047-10.115-8.047-10.115
			S62.335,12.774,61.97,12.816z"/>
		<path class="st4" d="M50.486,8.422h21.719c0.478,0,0.869,0.39,0.869,0.865v1.18c0,0.475-0.392,0.865-0.869,0.865H50.486
			c-0.478,0-0.869-0.389-0.869-0.865v-1.18C49.617,8.812,50.008,8.422,50.486,8.422z"/>
		<path class="st4" d="M62.614,4.782v8.757c0,0.475-0.392,0.865-0.869,0.865h-1.383c-0.478,0-0.869-0.389-0.869-0.865V4.782
			c0-0.476,0.391-0.865,0.869-0.865h1.383C62.223,3.918,62.614,4.307,62.614,4.782z"/>
		<path class="st4" d="M62.46,13.53L51.754,27.029c-0.296,0.373-0.846,0.453-1.219,0.156l-0.803-0.639
			c-0.373-0.297-0.453-0.839-0.157-1.213l10.706-13.499c0.296-0.374,0.846-0.453,1.219-0.156l0.803,0.639
			C62.677,12.614,62.757,13.157,62.46,13.53z"/>
		<path class="st4" d="M80.076,8.808h20.106c0.423,0,0.769,0.3,0.769,0.665v0.908c0,0.366-0.346,0.666-0.769,0.666H80.076
			c-0.423,0-0.769-0.299-0.769-0.666V9.473C79.307,9.107,79.653,8.808,80.076,8.808z"/>
		<path class="st4" d="M83.001,6.406l-4.121,4.687c-0.313,0.355-0.905,0.407-1.319,0.141l-0.652-0.42
			c-0.414-0.267-0.476-0.785-0.163-1.141l4.121-4.687c0.313-0.356,0.904-0.408,1.318-0.141l0.652,0.42
			C83.253,5.532,83.314,6.051,83.001,6.406z"/>
		<path class="st4" d="M82.154,5.621h14.065c0.407,0,0.741,0.289,0.741,0.641v0.875c0,0.352-0.334,0.641-0.741,0.641H82.154
			c-0.407,0-0.741-0.288-0.741-0.641V6.261C81.414,5.909,81.747,5.621,82.154,5.621z"/>
		<path class="st4" d="M80.076,13.201h20.106c0.423,0,0.769,0.299,0.769,0.665v0.908c0,0.366-0.346,0.665-0.769,0.665H80.076
			c-0.423,0-0.769-0.299-0.769-0.665v-0.908C79.307,13.5,79.653,13.201,80.076,13.201z"/>
		<path class="st4" d="M78.029,14.791v-4.304c0-0.357,0.346-0.648,0.769-0.648h1.049c0.422,0,0.769,0.292,0.769,0.648v4.304
			c0,0.357-0.346,0.649-0.769,0.649h-1.049C78.375,15.44,78.029,15.148,78.029,14.791z"/>
		<path class="st4" d="M98.364,14.791v-4.304c0-0.357,0.346-0.648,0.769-0.648h1.049c0.423,0,0.769,0.292,0.769,0.648v4.304
			c0,0.357-0.346,0.649-0.769,0.649h-1.049C98.71,15.44,98.364,15.148,98.364,14.791z"/>
		<path class="st4" d="M87.906,27.007V16.627c0-0.366,0.347-0.665,0.769-0.665h1.049c0.422,0,0.769,0.3,0.769,0.665v10.381
			c0,0.365-0.346,0.665-0.769,0.665h-1.049C88.252,27.672,87.906,27.373,87.906,27.007z"/>
		<path class="st4" d="M96.642,7.494L77.438,22.377c-0.335,0.26-0.951,0.498-1.251,0.208l-0.469-0.454
			c-0.3-0.29-0.477-0.736-0.14-0.996L94.782,6.253c0.336-0.261,0.79-0.355,1.151-0.122l0.568,0.367
			C96.863,6.732,96.978,7.235,96.642,7.494z"/>
		<path class="st4" d="M89.593,17.833l-10.9,8.185c-0.34,0.255-0.832,0.276-1.16,0.009l-0.518-0.42
			c-0.328-0.267-0.351-0.747-0.01-1.003l10.9-8.185c0.34-0.256,0.831-0.276,1.159-0.009l0.517,0.42
			C89.911,17.096,89.933,17.577,89.593,17.833z"/>
		<path class="st4" d="M91.399,20.485l4.392,4.043l0.293,0.27l2.396,2.204c0.308,0.284,0.812,0.316,1.157,0.066l0.544-0.394
			c0.646-0.494,0.702-1.324,0.393-1.608l-2.17-2.073l-0.938,0.282l-4.42-4.069c-0.309-0.284-0.68-0.367-1.026-0.117l-0.544,0.394
			C91.13,19.734,91.091,20.201,91.399,20.485z"/>
		<path class="st4" d="M96.422,18.122l-13.111,9.435c-0.346,0.249-0.833,0.274-1.16,0.006l-0.516-0.421
			c-0.327-0.267-0.354-0.754-0.007-1.003l13.11-9.435c0.347-0.25,0.832-0.274,1.16-0.006l0.516,0.422
			C96.743,17.387,96.769,17.873,96.422,18.122z"/>
		<path class="st4" d="M110.657,6.505l-3.866,4.343c-0.293,0.33-0.849,0.378-1.237,0.131l-0.612-0.389
			c-0.388-0.248-0.446-0.728-0.152-1.057l3.865-4.343c0.293-0.33,0.848-0.378,1.237-0.131l0.611,0.389
			C110.894,5.695,110.951,6.176,110.657,6.505z"/>
		<path class="st4" d="M122.774,6.505l-3.866,4.343c-0.293,0.33-0.849,0.378-1.237,0.131l-0.611-0.389
			c-0.389-0.248-0.446-0.728-0.153-1.057l3.865-4.343c0.294-0.33,0.848-0.378,1.237-0.131l0.612,0.389
			C123.01,5.695,123.067,6.176,122.774,6.505z"/>
		<path class="st4" d="M108.809,6.84h20.214c0.382,0,0.695,0.268,0.695,0.594v0.811c0,0.326-0.313,0.594-0.695,0.594h-20.214
			c-0.382,0-0.695-0.267-0.695-0.594V7.434C108.114,7.107,108.427,6.84,108.809,6.84z"/>
		<path class="st4" d="M107.486,11.929h20.825c0.396,0,0.721,0.278,0.721,0.617v0.842c0,0.338-0.325,0.616-0.721,0.616h-20.825
			c-0.396,0-0.722-0.277-0.722-0.616v-0.842C106.765,12.206,107.089,11.929,107.486,11.929z"/>
		<path class="st4" d="M105.566,16.508v-3.989c0-0.331,0.325-0.601,0.722-0.601h0.984c0.396,0,0.721,0.271,0.721,0.601v3.989
			c0,0.33-0.325,0.601-0.721,0.601h-0.984C105.891,17.109,105.566,16.839,105.566,16.508z"/>
		<path class="st4" d="M127.191,16.508v-3.989c0-0.331,0.325-0.601,0.721-0.601h0.984c0.396,0,0.721,0.271,0.721,0.601v3.989
			c0,0.33-0.325,0.601-0.721,0.601h-0.984C127.516,17.109,127.191,16.839,127.191,16.508z"/>
		<path class="st4" d="M110.039,14.993h15.017c0.396,0,0.721,0.278,0.721,0.617v0.841c0,0.339-0.325,0.616-0.721,0.616h-15.017
			c-0.396,0-0.721-0.277-0.721-0.616V15.61C109.317,15.271,109.642,14.993,110.039,14.993z"/>
		<path class="st4" d="M110.039,18.648h15.017c0.396,0,0.721,0.278,0.721,0.616v0.842c0,0.339-0.325,0.617-0.721,0.617h-15.017
			c-0.396,0-0.721-0.277-0.721-0.617v-0.842C109.317,18.925,109.642,18.648,110.039,18.648z"/>
		<path class="st4" d="M113.268,22.37h13.221c0.433,0,0.787,0.263,0.787,0.583v0.795c0,0.32-0.355,0.583-0.787,0.583h-12.981
			c-0.236,0-0.37,0.376-0.515,0.577c-0.12,0.166-0.512,0.181-0.512,0.036v-1.992C112.481,22.632,112.835,22.37,113.268,22.37z"/>
		<path class="st4" d="M110.104,25.753h16.384c0.433,0,0.787,0.278,0.787,0.616v0.842c0,0.338-0.355,0.616-0.787,0.616h-16.384
			c-0.432,0-0.787-0.278-0.787-0.616V26.37C109.317,26.031,109.672,25.753,110.104,25.753z"/>
		<path class="st4" d="M108.792,26.958V15.975c0-0.331,0.325-0.601,0.721-0.601h0.984c0.396,0,0.721,0.271,0.721,0.601v10.983
			c0,0.33-0.324,0.601-0.721,0.601h-0.984C109.117,27.559,108.792,27.288,108.792,26.958z"/>
		<path class="st4" d="M123.318,19.874v-3.899c0-0.331,0.325-0.601,0.721-0.601h0.984c0.396,0,0.721,0.271,0.721,0.601v3.899
			c0,0.33-0.324,0.601-0.721,0.601h-0.984C123.643,20.475,123.318,20.204,123.318,19.874z"/>
		<path class="st4" d="M124.967,26.444v-3.529c0-0.299,0.312-0.544,0.691-0.544h0.943c0.379,0,0.691,0.245,0.691,0.544v3.529
			c0,0.299-0.311,0.544-0.691,0.544h-0.943C125.278,26.988,124.967,26.743,124.967,26.444z"/>
		<path class="st4" d="M110.867,11.104l-2.238-2.48c-0.296-0.327-0.197-0.815,0.176-1.08l0.588-0.417
			c0.373-0.264,0.918-0.189,1.206,0.145l2.238,2.48c0.288,0.333,0.198,0.815-0.176,1.08l-0.588,0.417
			C111.7,11.513,111.155,11.437,110.867,11.104z"/>
		<path class="st4" d="M123.343,11.104l-2.238-2.48c-0.295-0.327-0.197-0.815,0.176-1.08l0.588-0.417
			c0.374-0.264,0.918-0.189,1.206,0.145l2.238,2.48c0.288,0.333,0.197,0.815-0.176,1.08l-0.588,0.417
			C124.176,11.513,123.631,11.437,123.343,11.104z"/>
		<path class="st4" d="M142.325,5.691l2.32,2.877c0.286,0.354,0.823,0.407,1.199,0.141l0.593-0.42
			c0.376-0.267,0.433-0.784,0.148-1.14l-2.32-2.878c-0.285-0.355-0.822-0.407-1.199-0.14l-0.593,0.419
			C142.096,4.818,142.04,5.336,142.325,5.691z"/>
		<path class="st4" d="M136.568,10.751h15.589c0.384,0,0.699,0.299,0.699,0.665v0.907c0,0.365-0.315,0.665-0.699,0.665h-15.589
			c-0.384,0-0.699-0.299-0.699-0.665v-0.907C135.869,11.05,136.184,10.751,136.568,10.751z"/>
		<path class="st4" d="M143.45,27.772V16.757c0-0.388,0.315-0.706,0.699-0.706h0.954c0.384,0,0.699,0.318,0.699,0.706v11.015
			c0,0.388-0.314,0.706-0.699,0.706h-0.954C143.764,28.478,143.45,28.161,143.45,27.772z"/>
		<path class="st4" d="M146.562,12.447l-11.591,7.839c-0.323,0.223-0.968,0.54-1.2,0.24l-0.364-0.47
			c-0.232-0.299-0.452-0.709-0.128-0.932l11.591-7.84c0.326-0.221,0.718-0.333,1.046-0.114l0.517,0.344
			C146.763,11.733,146.867,12.204,146.562,12.447z"/>
		<path class="st4" d="M144.983,17.92l-9.624,6.579c-0.309,0.255-0.803,0.382-1.102,0.115l-0.423-0.526
			c-0.298-0.266-0.319-0.746-0.009-1.002l9.624-6.579c0.333-0.228,0.755-0.276,1.054-0.009l0.47,0.42
			C145.273,17.185,145.292,17.665,144.983,17.92z"/>
		<path class="st4" d="M146.625,20.569l6.438,6.509c0.28,0.283,0.738,0.316,1.052,0.066l0.495-0.394c0.313-0.25,0.35-0.716,0.069-1
			l-6.438-6.509c-0.281-0.284-0.737-0.316-1.052-0.066l-0.495,0.394C146.381,19.819,146.346,20.285,146.625,20.569z"/>
		<path class="st4" d="M146.05,21.792l-8.925,6.115c-0.314,0.249-0.757,0.273-1.054,0.006l-0.404-0.486
			c-0.297-0.267-0.322-0.753-0.006-1.002l8.86-6.05c0.333-0.228,0.756-0.274,1.055-0.006l0.469,0.421
			C146.341,21.058,146.364,21.543,146.05,21.792z"/>
		<path class="st4" d="M134.621,6.687h20.186c0.384,0,0.699,0.299,0.699,0.665v0.907c0,0.365-0.315,0.664-0.699,0.664h-20.186
			c-0.384,0-0.699-0.299-0.699-0.664V7.351C133.922,6.985,134.236,6.687,134.621,6.687z"/>
		<path class="st4" d="M132.76,11.621V7.323c0-0.356,0.315-0.648,0.699-0.648h0.955c0.384,0,0.699,0.292,0.699,0.648v4.299
			c0,0.356-0.314,0.648-0.699,0.648h-0.955C133.075,12.27,132.76,11.978,132.76,11.621z"/>
		<path class="st4" d="M153.722,11.621V7.323c0-0.356,0.315-0.648,0.699-0.648h0.955c0.384,0,0.699,0.292,0.699,0.648v4.299
			c0,0.356-0.314,0.648-0.699,0.648h-0.955C154.037,12.27,153.722,11.978,153.722,11.621z"/>
		<path class="st4" d="M141.285,15.091l2.304,2.64c0.3,0.343,0.823,0.407,1.199,0.14l0.593-0.42
			c0.376-0.266,0.433-0.784,0.148-1.139l-2.305-2.64c-0.285-0.355-0.822-0.407-1.199-0.141l-0.593,0.419
			C141.056,14.219,141,14.736,141.285,15.091z"/>
		<path class="st4" d="M154.413,15.373c0,0-0.373-1.073-2.031-1.033c-1.465,0.035-2.42,0.765-2.744,1.663
			c-0.324,0.897,0.003,1.242-0.174,1.433c-0.178,0.191-4.874,3.211-5.423,3.525c-0.55,0.314-0.808,0.578-0.539,1.234
			c0.27,0.656-0.194,1.503,0.378,1.418c0.072-0.011,0.396-0.377,0.749-0.623c1.324-0.921,5.582-3.591,5.764-3.692
			c0.117-0.064,0.246,0.037,0.496,0.122c0.218,0.074,0.912,0.39,0.982,0.384c0.236-0.02,0.348-0.015,0.402-0.105
			c0.025-0.041,0-0.065,0.036-0.185c0.015-0.048,0.164-0.05,0.239-0.064c0.544-0.102,1.194-0.291,1.803-0.962
			c0.608-0.671,0.595-1.404,0.372-1.354c-0.223,0.049-1.968,0.408-1.968,0.408s-0.113-0.217-0.146-0.429
			c-0.033-0.213-0.313-1.076-0.219-1.208c0.095-0.131,1.967-0.409,1.967-0.409S154.462,15.472,154.413,15.373z"/>
		<path class="st4" d="M113.268,24.321h13.221c0.433,0,0.787-0.263,0.787-0.583v-0.795c0-0.32-0.355-0.583-0.787-0.583h-12.981
			c-0.236,0-0.37-0.377-0.515-0.577c-0.12-0.166-0.512-0.181-0.512-0.036v1.992C112.481,24.058,112.835,24.321,113.268,24.321z"/>
		<path class="st4" d="M103.186,17.622l3.066-2.552c0.254-0.212,0.669-0.135,0.923,0.169l0.63,0.756
			c0.254,0.305,0.253,0.728,0,0.939l-3.066,2.552c-0.253,0.211-0.669,0.135-0.923-0.17l-0.63-0.756
			C102.932,18.256,102.932,17.833,103.186,17.622z"/>
	</g>
</g>
</svg>
