<?xml version="1.0" encoding="UTF-8"?>
<!DOCTYPE svg PUBLIC "-//W3C//DTD SVG 1.1//EN" "http://www.w3.org/Graphics/SVG/1.1/DTD/svg11.dtd">
<!-- Creator: CorelDRAW -->
<svg xmlns="http://www.w3.org/2000/svg" xml:space="preserve" width="33.476mm" height="32.4606mm" style="shape-rendering:geometricPrecision; text-rendering:geometricPrecision; image-rendering:optimizeQuality; fill-rule:evenodd; clip-rule:evenodd"
viewBox="0 0 0.265728 0.257668"
 xmlns:xlink="http://www.w3.org/1999/xlink">
 <defs>
  <style type="text/css">
   <![CDATA[
    .str1 {stroke:#605D5C;stroke-width:0.00396893}
    .str0 {stroke:#48B6D3;stroke-width:0.00396893}
    .fil2 {fill:#72706F}
    .fil1 {fill:white}
    .fil4 {fill:#48B6D3}
    .fil0 {fill:#605D5C}
    .fil3 {fill:#48B6D3;fill-rule:nonzero}
   ]]>
  </style>
 </defs>
 <g id="图层_x0020_1">
  <metadata id="CorelCorpID_0Corel-Layer"/>
  <path class="fil0" d="M0.128181 0.123467l0.00608358 0 0 0.00637648 -0.00610818 0c-0.000336565,0.000177808 -0.00403402,0.00125894 -0.00803153,0.00452458 -0.00399671,0.00326564 -0.00737348,0.00334184 -0.00929444,0.00213846 -0.00192176,-0.00120259 -0.0016733,-0.00320769 -0.0016733,-0.00320769l0 -0.0151637c0,0 -0.000338947,-0.00217101 0.0015709,-0.00364665 0.00191064,-0.00147565 0.00541997,-0.00104621 0.00825776,0.00162647 0.00283699,0.00267268 0.00919522,0.00735205 0.00919522,0.00735205z"/>
  <path class="fil0" d="M0.137547 0.122633l-0.00608358 0 0 0.00721075 0.00610818 0c0.000336565,0.000177808 0.00403482,0.00125894 0.00803153,0.00452458 0.00399671,0.00326564 0.00737427,0.00334184 0.00929524,0.00213846 0.00192096,-0.00120259 0.00167251,-0.00320769 0.00167251,-0.00320769l0 -0.0125315c0,0 0.000338947,-0.00217101 -0.0015709,-0.00364665 -0.00191064,-0.00147565 -0.00452776,-0.00145342 -0.00855225,0.000914442 -0.0040237,0.00236786 -0.00890072,0.00459761 -0.00890072,0.00459761z"/>
  <path class="fil0" d="M0.128744 0.12183l0.0082395 0c0.000319896,0 0.000581845,0.000215116 0.000581845,0.000477065l0 0.00779101c0,0.000261949 -0.000261949,0.000477065 -0.000581845,0.000477065l-0.0082395 0c-0.000319896,0 -0.000581845,-0.000215116 -0.000581845,-0.000477065l0 -0.00779101c0,-0.000261949 0.000261949,-0.000477065 0.000581845,-0.000477065z"/>
  <path class="fil1 str0" d="M0.100592 0.0483789c-0.000657255,-0.000162726 -0.00138039,-0.000288938 -0.00217418,-0.000360379 -0.00775688,-0.000700119 -0.0227682,-0.0103049 -0.024805,0.00598118 -0.000816012,0.00652413 0.00226626,0.014081 0.00380779,0.0198804 0.00154153,0.00579861 0.00181301,0.012395 0.00117877,0.0155122 -0.000635029,0.0031172 -9.04916e-005,0.00550888 0.00290049,0.00688689 0.00299178,0.00137643 0.0131975,-0.00133674 0.0131975,-0.00133674l-1.58757e-006 -1.66695e-005c0.0040745,0.00609787 0.0107971,0.0109185 0.0207178,0.0133078 0,0 -0.00199161,0.00588434 -0.00744968,0.00741238 -0.00545807,0.00152804 -0.0120116,0.000944606 -0.0164766,-0.00265125 -0.00357998,-0.00288303 -0.00482384,-0.00692578 -0.00534853,-0.009581 -0.000196859,-0.000994614 -0.000583433,-0.00152248 -0.000995408,-0.0017757 -0.000466746,-0.000287351 -0.00121926,-0.000311164 -0.00175586,-4.76272e-005 -0.000697738,0.000341328 -0.000680275,0.000724727 -0.00129308,0.00105335 -0.000613597,0.000329421 -0.00143675,0.000300051 -0.00208131,-1.42882e-005 -0.000446902,-0.000218291 -0.000849351,-0.000662018 -0.00124942,-0.000929524 -0.000779498,-0.000520724 -0.00265283,-0.000253218 -0.00259965,0.00186063 0.000105574,0.004165 0.00152407,0.0154249 0.0141889,0.0221681 0.0155884,0.00830062 0.0347266,0.00276714 0.0426938,-0.00235993 0.00796723,-0.00512627 0.0109979,-0.00919522 0.0125569,-0.0116361 0.0015582,-0.00244089 0.00164552,-0.00292907 0.00164552,-0.00292907 0.00275841,-0.000543744 0.00529852,-0.00124148 0.00762908,-0.00207575 0.00275682,-0.000986676 0.00521994,-0.00216465 0.00740603,-0.00350457 0.00371254,-0.00227499 0.00661541,-0.0050207 0.00880547,-0.00808551 0.000825538,0.000200828 0.0102779,0.00245756 0.013138,0.00114146 0.00299257,-0.00137801 0.00353632,-0.00376969 0.00290129,-0.00688689 -0.000634235,-0.0031172 -0.000361966,-0.00971356 0.00117877,-0.0155122 0.00154153,-0.0057994 0.0046238,-0.0133562 0.00380779,-0.0198804 -0.00203686,-0.0162861 -0.0170481,-0.0066813 -0.024805,-0.00598118 -0.000900947,8.176e-005 -0.0017114,0.000232579 -0.00243692,0.000428645 -0.0110114,-0.0130808 -0.0286684,-0.0208861 -0.0473922,-0.0130657 -0.00658604,0.00275047 -0.0123466,0.00736872 -0.0168894,0.0129975z"/>
  <path class="fil2" d="M0.117241 0.0718186c0.00231627,0 0.00419516,0.00187889 0.00419516,0.00419516 0,0.00231706 -0.00187889,0.00419516 -0.00419516,0.00419516 -0.00231706,0 -0.00419516,-0.0018781 -0.00419516,-0.00419516 0,-0.00231627 0.0018781,-0.00419516 0.00419516,-0.00419516z"/>
  <path class="fil2" d="M0.148487 0.0718186c0.00231627,0 0.00419516,0.00187889 0.00419516,0.00419516 0,0.00231706 -0.00187889,0.00419516 -0.00419516,0.00419516 -0.00231706,0 -0.00419516,-0.0018781 -0.00419516,-0.00419516 0,-0.00231627 0.0018781,-0.00419516 0.00419516,-0.00419516z"/>
  <path class="fil0 str1" d="M0.108128 0.00198447l0.0501554 0c0.00122005,0 0.00232659,0.000846176 0.00221784,0.00187175l-0.00333549 0.0315594 0.0113503 0c0.00109542,0 0.00199161,0.00133277 0.00199161,0.00296241l0 0c0,0.00162964 -0.000896185,0.00296241 -0.00199161,0.00296241l-0.0139968 0 -0.0438813 0 -0.0134261 0c-0.00109542,0 -0.00199161,-0.00133277 -0.00199161,-0.00296241l0 0c0,-0.00162964 0.000896185,-0.00296241 0.00199161,-0.00296241l0.0109225 0 -0.00222419 -0.0315594c-7.22345e-005,-0.00102716 0.000998583,-0.00187175 0.00221784,-0.00187175z"/>
  <path class="fil3" d="M0.0422786 0.257382l-0.000996995 0 0 -0.0055565 -0.00562874 0c-9.44606e-005,0.00199399 -0.000784261,0.00394274 -0.00206384,0.00584227 -0.000285763,-0.000285763 -0.000596133,-0.000498498 -0.000927142,-0.000641379 0.000902535,-0.00128276 0.00147089,-0.00249566 0.00170823,-0.00363554 0.000285763,-0.00113988 0.000428645,-0.00294177 0.000428645,-0.00541045l0 -0.00633997 0.0141032 0 0 0.0136746c4.8421e-005,0.00137722 -0.000686625,0.00206702 -0.00220673,0.00206702 -0.000665193,4.8421e-005 -0.0013796,6.98532e-005 -0.00214005,6.98532e-005 0,-0.000331009 -6.98532e-005,-0.000686625 -0.000212735,-0.00106685 0.000474684,4.52458e-005 0.00118909,6.98532e-005 0.00213687,6.98532e-005 0.000996995,4.8421e-005 0.00147406,-0.000355616 0.00142564,-0.00120973l0 -0.00341963 -0.00562636 0 0 0.0055565zm0.00562636 -0.0148144l-0.00562636 0 0 0.00370222 0.00562636 0 0 -0.00370222zm-0.00562636 0.00462857l0 0.00370222 0.00562636 0 0 -0.00370222 -0.00562636 0zm-0.00648285 0.000784261c0,0.000425469 -2.46074e-005,0.000996995 -6.98532e-005,0.00170823 0,0.000568351 0,0.000973182 0,0.00120973l0.00555571 0 0 -0.00370222 -0.00548586 0 0 0.000784261zm0 -0.00541283l0 0.00370222 0.00548586 0 0 -0.00370222 -0.00548586 0zm0.0321182 0.00142246l0.00107002 0 0 0.010328c-4.92147e-005,0.0011883 0.000543744,0.00175982 0.00178046,0.0017114l0.00348948 0c0.00123434,4.8421e-005 0.00194875,-0.000453252 0.00213687,-0.00149549 0.000142882,-0.000616772 0.000261949,-0.00142564 0.000355616,-0.00242264 0.000142882,4.60396e-005 0.000334184,9.44606e-005 0.000571526,0.000142882 0.000237342,9.44606e-005 0.000404037,0.000164314 0.000498498,0.000212735 -4.8421e-005,0.000523105 -0.000142882,0.00116448 -0.000285763,0.00192414 -4.52458e-005,0.000331009 -9.36668e-005,0.000568351 -0.000142882,0.000711232 -0.000282588,0.00128276 -0.00127958,0.00192414 -0.00299099,0.00192414l-0.00391733 0c-0.0017114,0 -0.00256552,-0.000829507 -0.00256552,-0.00249249l0 -0.0105439zm0.0116837 0.00819108c-0.000950956,-0.00218212 -0.00192414,-0.00427374 -0.00292113,-0.00626694l0.000996995 -0.000428645c0.000191302,0.000428645 0.000523105,0.00109384 0.000996995,0.00199637 0.000902535,0.00185111 0.00156852,0.00325294 0.00199399,0.00420072l-0.00106685 0.000498498zm-0.0143191 -0.00619709l0.000996995 0.000285763c-0.000617566,0.00237342 -0.00123434,0.0047016 -0.00185111,0.00698135 -0.000334184,-0.000142882 -0.0006898,-0.000261156 -0.00107002,-0.000355616 0.000616772,-0.0017114 0.00125815,-0.00401497 0.00192414,-0.0069115zm0.00826411 -6.98532e-005c-0.000665193,-0.00123434 -0.00163837,-0.00287271 -0.00292034,-0.00491512l0.000923967 -0.000498498c0.000142882,0.000236548 0.000357998,0.000568351 0.000641379,0.000996995 0.000665193,0.000996995 0.00144945,0.00227975 0.00235199,0.0038451l-0.000996995 0.000571526zm0.0211457 -0.00348948l0.00448965 0 0 0.0132459 -0.000927142 0 0 -0.00135261 -0.00263537 0 0 0.00149549 -0.000927142 0 0 -0.0133888zm0.00669638 0.00327596l0.00491751 0 0 0.00719488 -0.00491751 0 0 -0.00719488zm-0.000927142 -0.0037046l0.0108296 0 0 0.000854114 -0.00163837 0 0 0.0121822c4.60396e-005,0.00156852 -0.000714408,0.00232817 -0.00227975,0.00227975 -0.000571526,4.8421e-005 -0.00142564,6.98532e-005 -0.00256552,6.98532e-005 0,-4.52458e-005 -2.38136e-005,-0.000142882 -6.98532e-005,-0.000282588 0,-0.000285763 -4.8421e-005,-0.000523105 -0.000142882,-0.000714408 0.000903329,0 0.00173284,0 0.00249249,0 0.00113988,4.8421e-005 0.00168759,-0.000425469 0.00163837,-0.00142564l0 -0.0121092 -0.00826411 0 0 -0.000854114zm-0.0048421 0.00128276l0 0.0101851 0.00263537 0 0 -0.0101851 -0.00263537 0zm0.00669638 0.00327596l0 0.00548665 0.00306322 0 0 -0.00548665 -0.00306322 0zm0.0326191 -0.00548268l0.000854114 -0.000428645c0.000237342,0.000331009 0.000617566,0.000877928 0.00113988,0.00163837 0.000142882,0.000285763 0.000261949,0.00047389 0.000355616,0.000571526l-0.000854114 0.000425469 0.00455951 0 0 0.00761955 -0.000996995 0 0 -0.000854114 -0.00726711 0c-4.92147e-005,0.0030402 -0.000854114,0.0055319 -0.00242264,0.00748064 -4.92147e-005,-4.8421e-005 -0.000119068,-9.44606e-005 -0.000212735,-0.000142882 -0.000285763,-0.000237342 -0.000498498,-0.000380224 -0.000641379,-0.000428645 0.000996995,-0.001328 0.00163837,-0.00261076 0.00192414,-0.0038451 0.000282588,-0.0011883 0.000425469,-0.00299416 0.000425469,-0.00541362l0 -0.00441583 0.00455871 0c-0.00047389,-0.000760447 -0.000947781,-0.00149549 -0.00142246,-0.00220673zm-0.00220911 0.00313387l0 0.00355854c0,0.000474684 0,0.000927142 0,0.00135261l0.00726711 0 0 -0.00491116 -0.00726711 0zm-0.00805217 0.00683529l-0.000139706 -0.000996995c0.000188127,-4.8421e-005 0.00051993,-0.000142882 0.000996995,-0.000285763 0.000759653,-0.000188127 0.001328,-0.000331009 0.00170823,-0.000425469l0 -0.00448886 -0.00234961 0 0 -0.000854114 0.00234961 0 0 -0.00334978 0.000927142 0 0 0.00334978 0.00227975 0 0 0.000854114 -0.00227975 0 0 0.0042031c0.000804899,-0.000236548 0.00158916,-0.000452458 0.00234961,-0.000641379 0,0.000237342 2.38136e-005,0.000547712 7.30283e-005,0.000927142 -0.000237342,4.60396e-005 -0.000641379,0.000142882 -0.00121291,0.000282588 -0.000523105,0.000142882 -0.000923967,0.000261949 -0.00120973,0.000358791l0 0.0055565c4.52458e-005,0.00123434 -0.000546919,0.0018265 -0.00178126,0.00178126 -0.00047389,0 -0.000902535,0 -0.00128276,0 0,-9.76357e-005 -2.46074e-005,-0.000237342 -6.98532e-005,-0.000428645 -4.8421e-005,-0.000285763 -9.76357e-005,-0.00047389 -0.000142882,-0.000568351 9.44606e-005,0 0.000261156,0 0.000498498,0 0.000380224,4.52458e-005 0.000665193,6.98532e-005 0.000854114,6.98532e-005 0.000711232,4.8421e-005 0.00104542,-0.000261156 0.000996995,-0.000927142l0 -0.00512786c-0.000331803,9.44606e-005 -0.000805693,0.000237342 -0.00142564,0.000425469 -0.00051993,0.000142882 -0.00089936,0.000240517 -0.00113988,0.000285763zm0.0362522 -0.00491433c-0.000237342,-0.000237342 -0.000498498,-0.000450077 -0.000784261,-0.000641379 0.00128276,-0.00142564 0.0023766,-0.00306401 0.00327675,-0.00491512l0.000999377 0.000212735c-9.68419e-005,0.000237342 -0.000285763,0.000571526 -0.000571526,0.000996995 -0.000142088,0.000334184 -0.000261156,0.000571526 -0.000355616,0.000714408l0.0082649 0 0 0.000854114 -0.00113988 0.00242264c-0.000285763,-0.000142882 -0.00059534,-0.000261949 -0.000927142,-0.000355616l0.00106685 -0.00206702 -0.00776244 0c-0.000617566,0.000902535 -0.00130737,0.00182968 -0.00206702,0.00277825zm-0.00135261 0.00619709l0.000927142 0 0 0.0027084c0,0.000711232 0.00047389,0.00106685 0.00142485,0.00106685l0.00355934 0c0.00113988,4.8421e-005 0.00178126,-0.000331009 0.00192414,-0.00113988 9.76357e-005,-0.000331009 0.000192096,-0.000878721 0.000285763,-0.00163837 0,-4.8421e-005 0,-9.44606e-005 0,-0.000142882 0.000285763,0.000142882 0.000617566,0.000285763 0.000996995,0.000428645 -9.44606e-005,0.000523105 -0.000212735,0.00106685 -0.000355616,0.00163837 -0.000285763,0.00123434 -0.0011883,0.0018265 -0.0027084,0.00178126l-0.00398719 0c-0.00137722,0 -0.00206702,-0.000616772 -0.00206702,-0.00185428l0 -0.0028481zm-0.000285763 -0.0118234l0.000927142 0.000425469c-0.000237342,0.000380224 -0.000592958,0.000950956 -0.00106685,0.0017114 -0.000285763,0.00037943 -0.000477859,0.000665193 -0.000571526,0.000854114l0 0.00740999 -0.000996995 0 0 -0.00620026c-0.000571526,0.000759653 -0.00116448,0.00147406 -0.00178126,0.00213925 -9.44606e-005,-0.000191302 -0.00031037,-0.000452458 -0.000641379,-0.000784261 0.00166219,-0.00166219 0.00303941,-0.0035133 0.00413086,-0.00555571zm0.00669559 0.00406101l0.000927142 0 0 0.00427295c4.60396e-005,0.00123434 -0.000616772,0.00185111 -0.00199399,0.00185111 -0.000428645,0 -0.000927142,0 -0.00149787,0 0,-0.000331009 -6.98532e-005,-0.000641379 -0.000212735,-0.000923967 0.000616772,0 0.00113908,0 0.00156773,0 0.000854114,0 0.00125894,-0.000334184 0.00120973,-0.00100017l0 -0.00419992zm-0.00277746 0.00135261l0.000783467 0.000568351c-0.000996202,0.0011883 -0.00209083,0.00232817 -0.00327596,0.00341884 -4.92147e-005,-9.36668e-005 -0.000167489,-0.000212735 -0.000355616,-0.000355616 -0.000142882,-0.000142882 -0.000261949,-0.000236548 -0.000358791,-0.000285763 0.00100017,-0.000854114 0.00206702,-0.00196938 0.0032069,-0.00334581zm0.00505721 0.000926348l0.000641379 -0.000641379c0.000808868,0.000662811 0.00194875,0.00168441 0.00341963,0.00306084l-0.000711232 0.000714408c-0.00142564,-0.00142564 -0.00254091,-0.00247106 -0.00334978,-0.00313387zm0.000784261 0.00534059l0.000711232 -0.000498498c0.00109463,0.00123751 0.0020186,0.00235278 0.00277825,0.00334978l-0.000854114 0.000498498c-0.000711232,-0.000996995 -0.00158995,-0.00211227 -0.00263537,-0.00334978zm-0.0118266 -0.000139706l0.000857289 0.000355616c-0.000619947,0.0015201 -0.00121291,0.00277825 -0.00178126,0.00377525l-0.000927142 -0.000355616c0.000711232,-0.00113988 0.001328,-0.00239803 0.00185111,-0.00377525zm0.00527392 0l0.000640585 -0.000641379c0.000854114,0.000711232 0.00166298,0.00144707 0.00242264,0.00220673l-0.000714408 0.000641379c-0.000665193,-0.000711232 -0.00144628,-0.00144707 -0.00234881,-0.00220673zm0.024066 -0.00847684l0.00185428 0c0.00037943,-0.00113988 0.000662811,-0.00211306 0.000854114,-0.00292113l0.000996995 0.000212735c-0.000285763,0.000950956 -0.000571526,0.00185428 -0.000854114,0.0027084l0.00363237 0 0 0.0136777 -0.000996995 0 0 -0.00142564 -0.00455951 0 0 0.00156852 -0.000927142 0 0 -0.0138206zm0.00805137 0.00384431c-9.36668e-005,-4.52458e-005 -0.000236548,-0.000139706 -0.000427851,-0.000282588 -0.000188921,-9.68419e-005 -0.000331803,-0.000166695 -0.000426263,-0.00021591 0.00104304,-0.00170823 0.00194557,-0.00379906 0.00270522,-0.00626694l0.000996995 0.000212735c-0.000282588,0.000854114 -0.000616772,0.00173204 -0.000996995,0.00263537l0.00591529 0c0,0.000236548 0,0.000616772 0,0.00113988 -9.76357e-005,0.00422771 -0.00021591,0.00747985 -0.000358791,0.0097596 4.8421e-005,0.00185428 -0.000972388,0.00280286 -0.00306084,0.00285128 -0.000950956,0 -0.0018781,0 -0.00277825,0 0,-4.8421e-005 -2.38136e-005,-0.000119068 -7.30283e-005,-0.000212735 -4.8421e-005,-0.000380224 -0.000118274,-0.000641379 -0.000212735,-0.000784261 0.000665987,4.52458e-005 0.00163837,6.98532e-005 0.00292113,6.98532e-005 0.0015201,4.8421e-005 0.00227975,-0.000641379 0.00227975,-0.00206702 9.44606e-005,-0.00118512 0.000164314,-0.00367761 0.000212735,-0.00747747 4.8421e-005,-0.00109384 6.98532e-005,-0.0018781 6.98532e-005,-0.00235199l-0.00527074 0c-0.000616772,0.00137643 -0.00111527,0.00237342 -0.00149549,0.00299019zm-0.00712423 0.0027084l0 0.00491512 0.00455951 0 0 -0.00491512 -0.00455951 0zm0 -0.00569859l0 0.00484448 0.00455951 0 0 -0.00484448 -0.00455951 0zm0.00790849 0.00384431l0.000711232 -0.000568351c9.44606e-005,0.000142882 0.000237342,0.000331803 0.000428645,0.000568351 0.00104304,0.00128276 0.00185111,0.00235278 0.00242264,0.0032069l-0.000784261 0.000571526c-0.000902535,-0.00133118 -0.00182968,-0.00258933 -0.00277825,-0.00377842zm0.022003 0.00577241c-0.000237342,-0.000380224 -0.000428645,-0.0006898 -0.000571526,-0.000927142 0.00294495,-0.000808074 0.00531916,-0.00204241 0.00712502,-0.00370539 -0.000188921,-0.00037943 -0.000428645,-0.000711232 -0.000711232,-0.000996995 -0.00185428,0.00113988 -0.00387288,0.0020186 -0.00605818,0.00263537 -4.52458e-005,-9.36668e-005 -0.000164314,-0.000261156 -0.000355616,-0.000498498 -9.44606e-005,-0.000188127 -0.000164314,-0.000331009 -0.000212735,-0.000425469 0.00303941,-0.000759653 0.0055565,-0.00192414 0.00755049,-0.00349187l-0.00527074 0 0 -0.000854114 0.012395 0 0 0.000854114 -0.00576924 0c-0.000477065,0.000427851 -0.000996995,0.000832682 -0.00156773,0.00121211 0.000616772,0.000711232 0.0011883,0.00156535 0.00171061,0.00256234 0.00213687,-0.000947781 0.00396417,-0.00185111 0.00548347,-0.00270522l0.000571526 0.000781879c-0.00104542,0.000570732 -0.00218529,0.00113908 -0.00341963,0.00171061 0.000854114,0.00256552 0.00258695,0.00429835 0.00520089,0.00520089 -0.000191302,0.000237342 -0.000404037,0.000498498 -0.000641379,0.000784261 -0.00265998,-0.00104542 -0.00444044,-0.00289653 -0.00534377,-0.0055565 -0.00047389,0.000188921 -0.000972388,0.000401656 -0.00149549,0.000641379 0.000331803,0.000948574 0.000498498,0.00189953 0.000498498,0.0028481 4.60396e-005,0.00218529 -0.000808074,0.00327675 -0.00256472,0.00327675 -0.000665987,0 -0.00137722,0 -0.00213687,0 -4.92147e-005,-0.000142882 -9.44606e-005,-0.000355616 -0.000142882,-0.000641379 -9.44606e-005,-0.000142882 -0.000142882,-0.000261156 -0.000142882,-0.000355616 0.000334184,0 0.000759653,2.46074e-005 0.00128276,6.98532e-005 0.000428645,0 0.000735046,0 0.000927142,0 0.00128196,9.76357e-005 0.00189953,-0.000662811 0.00185032,-0.00227975 0,-0.000616772 -6.98532e-005,-0.00120973 -0.000212735,-0.00177808 -0.0019932,0.00208845 -0.0047016,0.00365697 -0.00812123,0.00469921 -0.000142882,-0.000282588 -0.000331009,-0.000592958 -0.000571526,-0.000923967 0.00341963,-0.000857289 0.0062217,-0.00242264 0.00840699,-0.00470239 -4.8421e-005,-9.36668e-005 -0.000118274,-0.000261156 -0.000212735,-0.000498498 -0.000142882,-0.00037943 -0.000284969,-0.000665193 -0.000427851,-0.000854114 -0.00166298,0.00156535 -0.00401259,0.00287271 -0.007052,0.00391813zm0.00683926 -0.0132523l0.000926348 -0.000355616c0.000188921,0.000285763 0.000425469,0.000784261 0.000711232,0.00149549 0.000142882,0.000285763 0.000237342,0.000498498 0.000285763,0.000641379l-0.000784261 0.000285763 0.00769338 0 0 0.00263537 -0.000996995 0 0 -0.00178126 -0.0140333 0 0 0.00178126 -0.000927142 0 0 -0.00263537 0.00812123 0c-9.36668e-005,-0.000237342 -0.000261156,-0.000592958 -0.000498498,-0.00107002 -0.000191302,-0.000425469 -0.000355616,-0.000759653 -0.000497704,-0.000996995z"/>
  <g id="_199186128">
   <path id="_199189248" class="fil4" d="M0.0313212 0.181927c0,0 -0.00367047,0.0028997 -0.0037681,0.00417055 -2.61949e-005,0.000338153 0.00164472,0.00221943 0.00337042,0.00441424 0.00477224,0.00606691 0.0137309,0.0173403 0.0154542,0.0193517 0.00234723,0.00273777 0.0016868,0.00300686 0.0016868,0.00300686l-0.00478574 0.00324262c0,0 -0.000230992,0.000726314 3.09577e-005,0.00103192 0.000261949,0.000305608 0.00254726,0.00317832 0.00304655,0.00369269 0.000500085,0.000514373 0.000373873,0.000504848 0.000708851,0.000277031 0.000334978,-0.000227817 0.00661065,-0.0048286 0.00721234,-0.00522629 0.00060169,-0.000397687 0.00441504,-0.00691864 0.0049437,-0.00802042 0.000528662,-0.00110178 0.000791405,-0.000795374 -0.000145263,-0.00181936 -0.000936668,-0.00102398 -0.000727902,-0.000849351 -0.000999377,-0.000616772 -0.000272269,0.000233373 -0.00367523,0.00282985 -0.00387447,0.00294098 -0.000198447,0.000111924 -0.00107241,0.000330215 -0.00130022,-4.76272e-006 -0.000227817,-0.000334978 -0.0200447,-0.0251964 -0.0200447,-0.0251964 0,0 -0.000626297,-0.00134864 -0.00153598,-0.00124466z"/>
   <path id="_199189176" class="fil4" d="M0.00271713 0.170983l0.0540981 0c0.00119147,0 0.00216545,0.000970007 0.00216545,0.00215354l0 0.00293939c0,0.00118354 -0.000975563,0.00215354 -0.00216545,0.00215354l-0.0540981 0c-0.00118989,0 -0.00216465,-0.000969213 -0.00216465,-0.00215354l0 -0.00293939c0,-0.00118433 0.000973976,-0.00215354 0.00216465,-0.00215354z"/>
   <path id="_199189104" class="fil4" d="M0.032927 0.161917l0 0.0218125c0,0.00118274 -0.000975563,0.00215354 -0.00216545,0.00215354l-0.00344503 0c-0.00118989,0 -0.00216545,-0.000969213 -0.00216545,-0.00215354l0 -0.0218125c0,-0.00118512 0.000973976,-0.00215354 0.00216545,-0.00215354l0.00344503 0c0.00119147,0 0.00216545,0.000970007 0.00216545,0.00215354z"/>
   <path id="_199189032" class="fil4" d="M0.0325444 0.183705l-0.026668 0.0336248c-0.000736634,0.000929524 -0.00210671,0.00112876 -0.00303623,0.000388161l-0.00200034 -0.00159313c-0.000929524,-0.000739809 -0.00112797,-0.00209083 -0.000390543,-0.00302036l0.026668 -0.0336256c0.000737427,-0.000930317 0.00210671,-0.00112797 0.00303623,-0.000388161l0.00200113 0.00159313c0.000929524,0.000740603 0.00112718,0.00209163 0.000389749,0.00302115z"/>
   <path id="_199188960" class="fil4" d="M0.0764234 0.171943l0.0500839 0c0.00105335,0 0.00191541,0.000746953 0.00191541,0.00165743l0 0.0022615c0,0.000910473 -0.000862846,0.00165743 -0.00191541,0.00165743l-0.0500839 0c-0.00105256,0 -0.0019162,-0.000745365 -0.0019162,-0.00165743l0 -0.0022615c0,-0.00091206 0.000862052,-0.00165743 0.0019162,-0.00165743z"/>
   <path id="_199188888" class="fil4" d="M0.0837111 0.165961l-0.010266 0.0116734c-0.000778704,0.000885865 -0.00225356,0.00101605 -0.00328469,0.000350853l-0.00162488 -0.00104621c-0.00103113,-0.000665193 -0.00118512,-0.00195589 -0.000404831,-0.00284175l0.0102652 -0.0116742c0.000779498,-0.000885865 0.00225197,-0.00101605 0.00328469,-0.000350853l0.00162488 0.001047c0.00103272,0.000665193 0.00118433,0.00195589 0.000405625,0.00284175z"/>
   <path id="_199188816" class="fil4" d="M0.0815996 0.164004l0.0350338 0c0.00101525,0 0.00184476,0.00071917 0.00184476,0.0015963l0 0.00217736c0,0.000877134 -0.000831094,0.0015963 -0.00184476,0.0015963l-0.0350338 0c-0.00101366,0 -0.00184476,-0.000718376 -0.00184476,-0.0015963l0 -0.00217736c0,-0.000877928 0.000829507,-0.0015963 0.00184476,-0.0015963z"/>
   <path id="_199188744" class="fil4" d="M0.0764234 0.182886l0.0500839 0c0.00105335,0 0.00191541,0.000746953 0.00191541,0.00165743l0 0.00226229c0,0.000910473 -0.000862846,0.00165663 -0.00191541,0.00165663l-0.0500839 0c-0.00105256,0 -0.0019162,-0.000745365 -0.0019162,-0.00165663l0 -0.00226229c0,-0.000911267 0.000862052,-0.00165743 0.0019162,-0.00165743z"/>
   <path id="_199188672" class="fil4" d="M0.0713241 0.186847l0 -0.0107217c0,-0.000888247 0.000862846,-0.00161535 0.00191541,-0.00161535l0.00261394 0c0.00105256,0 0.0019162,0.000727902 0.0019162,0.00161535l0 0.0107217c0,0.000887453 -0.000862052,0.00161535 -0.0019162,0.00161535l-0.00261394 0c-0.00105335,0 -0.00191541,-0.000726314 -0.00191541,-0.00161535z"/>
   <path id="_199188600" class="fil4" d="M0.121977 0.186847l0 -0.0107217c0,-0.000888247 0.000863639,-0.00161535 0.00191541,-0.00161535l0.00261473 0c0.00105256,0 0.00191541,0.000727902 0.00191541,0.00161535l0 0.0107217c0,0.000887453 -0.000862052,0.00161535 -0.00191541,0.00161535l-0.00261473 0c-0.00105335,0 -0.00191541,-0.000726314 -0.00191541,-0.00161535z"/>
   <path id="_199188528" class="fil4" d="M0.0959267 0.217276l0 -0.0258568c0,-0.000911267 0.000863639,-0.00165663 0.0019162,-0.00165663l0.00261394 0c0.00105177,0 0.00191541,0.000746953 0.00191541,0.00165663l0 0.0258568c0,0.000910473 -0.000862052,0.00165743 -0.00191541,0.00165743l-0.00261394 0c-0.00105415,0 -0.0019162,-0.000745365 -0.0019162,-0.00165743z"/>
   <path id="_199188456" class="fil4" d="M0.117688 0.168672l-0.0478367 0.0370714c-0.000834269,0.000646142 -0.00236866,0.00123989 -0.00311561,0.000516755l-0.00116766 -0.00112956c-0.000746953,-0.000722345 -0.0011875,-0.00183206 -0.00035006,-0.00248058l0.0478367 -0.0370706c0.000836651,-0.000648523 0.001967,-0.000885072 0.00286716,-0.000303226l0.00141611 0.000915235c0.000900154,0.000581845 0.00118433,0.00183365 0.00035006,0.00248058z"/>
   <path id="_199188384" class="fil4" d="M0.100128 0.194423l-0.0271507 0.0203884c-0.00084697,0.000636617 -0.00207178,0.000686625 -0.00288859,2.2226e-005l-0.00128911 -0.00104621c-0.000816806,-0.000664399 -0.000873959,-0.00186222 -2.54012e-005,-0.00249963l0.0271507 -0.0203884c0.000848557,-0.000636617 0.0020694,-0.000687419 0.00288859,-2.2226e-005l0.00128911 0.001047c0.000819187,0.000665193 0.000872371,0.00186302 2.54012e-005,0.00249884z"/>
   <path id="_199188312" class="fil4" d="M0.104628 0.201029l0.01094 0.0100708 0.000731077 0.000672337 0.0059661 0.00549141c0.000767591,0.000707263 0.00202257,0.000787436 0.00288224,0.000165108l0.00135499 -0.000981914c0.00161059,-0.00122878 0.00174871,-0.00329818 0.000979532,-0.00400624l-0.00540489 -0.00516279 -0.0023377 0.000701707 -0.0110098 -0.0101343c-0.000769179,-0.000708057 -0.00169473,-0.000915235 -0.00255599,-0.00029132l-0.00135579 0.000981914c-0.000861258,0.000623916 -0.000957306,0.00178602 -0.000189715,0.00249328z"/>
   <path id="_199188240" class="fil4" d="M0.11714 0.195144l-0.0326572 0.0235016c-0.000862052,0.000620741 -0.00207337,0.000681862 -0.00288859,1.58757e-005l-0.00128593 -0.00105018c-0.000814425,-0.000665987 -0.000881103,-0.0018773 -1.74633e-005,-0.00249884l0.032658 -0.0235016c0.000863639,-0.000621535 0.00207099,-0.000682656 0.00288779,-1.58757e-005l0.00128593 0.00105018c0.000816806,0.000667574 0.000879515,0.00187889 1.74633e-005,0.00249884z"/>
   <path id="_199188168" class="fil4" d="M0.152597 0.166208l-0.00962863 0.0108193c-0.000730283,0.000819981 -0.00211306,0.000940637 -0.00308068,0.000324659l-0.00152407 -0.000970007c-0.000967625,-0.000615978 -0.0011113,-0.00181221 -0.000380224,-0.00263378l0.00962863 -0.0108185c0.000731871,-0.000821569 0.00211306,-0.00094143 0.00308148,-0.000325452l0.00152328 0.000970007c0.000968419,0.000616772 0.0011113,0.00181301 0.000380224,0.00263378z"/>
   <path id="_199188096" class="fil4" d="M0.182779 0.166208l-0.00962863 0.0108193c-0.000731077,0.000819981 -0.00211385,0.000940637 -0.00308148,0.000324659l-0.00152407 -0.000970007c-0.000966832,-0.000615978 -0.0011113,-0.00181221 -0.000380224,-0.00263378l0.00962863 -0.0108185c0.000731871,-0.000821569 0.00211306,-0.00094143 0.00308148,-0.000325452l0.00152407 0.000970007c0.000968419,0.000616772 0.00111051,0.00181301 0.000380224,0.00263378z"/>
   <path id="_199188024" class="fil4" d="M0.147993 0.167041l0.050353 0c0.00095175,0 0.00172966,0.00066678 0.00172966,0.00147882l0 0.0020186c0,0.000812837 -0.000779498,0.00147882 -0.00172966,0.00147882l-0.050353 0c-0.000950162,0 -0.00172966,-0.000665193 -0.00172966,-0.00147882l0 -0.0020186c0,-0.000812837 0.00077791,-0.00147882 0.00172966,-0.00147882z"/>
   <path id="_199187952" class="fil4" d="M0.144699 0.179717l0.0518723 0c0.000988264,0 0.00179634,0.000692182 0.00179634,0.00153598l0 0.00209639c0,0.000843795 -0.000809662,0.00153598 -0.00179634,0.00153598l-0.0518723 0c-0.00098747,0 -0.00179713,-0.000691388 -0.00179713,-0.00153598l0 -0.00209639c0,-0.000844588 0.000808074,-0.00153598 0.00179713,-0.00153598z"/>
   <path id="_199187880" class="fil4" d="M0.139916 0.191124l0 -0.00993582c0,-0.00082395 0.000809662,-0.00149787 0.00179713,-0.00149787l0.00245201 0c0.000986676,0 0.00179634,0.000674718 0.00179634,0.00149787l0 0.00993582c0,0.000823156 -0.000808074,0.00149787 -0.00179634,0.00149787l-0.00245201 0c-0.000988264,0 -0.00179713,-0.000673924 -0.00179713,-0.00149787z"/>
   <path id="_199187808" class="fil4" d="M0.193782 0.191124l0 -0.00993582c0,-0.00082395 0.000809662,-0.00149787 0.00179713,-0.00149787l0.00245201 0c0.000986676,0 0.00179634,0.000674718 0.00179634,0.00149787l0 0.00993582c0,0.000823156 -0.000808074,0.00149787 -0.00179634,0.00149787l-0.00245201 0c-0.000988264,0 -0.00179713,-0.000673924 -0.00179713,-0.00149787z"/>
   <path id="_199187736" class="fil4" d="M0.151058 0.187349l0.037404 0c0.000989058,0 0.00179713,0.000692975 0.00179713,0.00153598l0 0.00209639c0,0.000843001 -0.000810456,0.00153598 -0.00179713,0.00153598l-0.037404 0c-0.000986676,0 -0.00179713,-0.000691388 -0.00179713,-0.00153598l0 -0.00209639c0,-0.000844588 0.000808868,-0.00153598 0.00179713,-0.00153598z"/>
   <path id="_199187664" class="fil4" d="M0.151058 0.196454l0.037404 0c0.000989058,0 0.00179713,0.000692182 0.00179713,0.00153598l0 0.0020956c0,0.000843795 -0.000810456,0.00153598 -0.00179713,0.00153598l-0.037404 0c-0.000986676,0 -0.00179713,-0.000691388 -0.00179713,-0.00153598l0 -0.0020956c0,-0.000845382 0.000808868,-0.00153598 0.00179713,-0.00153598z"/>
   <path id="_199187592" class="fil4" d="M0.159101 0.205726l0.0329318 0c0.00107876,0 0.00196065,0.000654874 0.00196065,0.00145183l0 0.00198129c0,0.000796961 -0.000884278,0.00145183 -0.00196065,0.00145183l-0.0323349 0c-0.000587402,0 -0.000920792,0.000938255 -0.00128117,0.00143755 -0.000298464,0.000414356 -0.00127641,0.000452458 -0.00127641,9.04916e-005l0 -0.00496116c0,-0.000798549 0.000881896,-0.00145183 0.00196065,-0.00145183z"/>
   <path id="_199187520" class="fil4" d="M0.151221 0.214152l0.0408117 0c0.00107876,0 0.00196065,0.000692182 0.00196065,0.00153598l0 0.00209639c0,0.000843001 -0.000884278,0.00153518 -0.00196065,0.00153518l-0.0408117 0c-0.00107637,0 -0.00196065,-0.000690594 -0.00196065,-0.00153518l0 -0.00209639c0,-0.000844588 0.00088269,-0.00153598 0.00196065,-0.00153598z"/>
   <path id="_199187448" class="fil4" d="M0.147952 0.217152l0 -0.0273578c0,-0.000823156 0.000810456,-0.00149708 0.00179713,-0.00149708l0.00245201 0c0.000986676,0 0.00179634,0.000674718 0.00179634,0.00149708l0 0.0273578c0,0.000822362 -0.000808074,0.00149708 -0.00179634,0.00149708l-0.00245201 0c-0.000988264,0 -0.00179713,-0.000673924 -0.00179713,-0.00149708z"/>
   <path id="_199187376" class="fil4" d="M0.184135 0.199506l0 -0.00971197c0,-0.000823156 0.000809662,-0.00149708 0.00179713,-0.00149708l0.00245201 0c0.000986676,0 0.00179634,0.000674718 0.00179634,0.00149708l0 0.00971197c0,0.000822362 -0.000808074,0.00149787 -0.00179634,0.00149787l-0.00245201 0c-0.000989058,0 -0.00179713,-0.000673924 -0.00179713,-0.00149787z"/>
   <path id="_199187304" class="fil4" d="M0.188243 0.215873l0 -0.00879198c0,-0.000745365 0.000775529,-0.00135499 0.00172093,-0.00135499l0.00234802 0c0.000945399,0 0.00172093,0.000610422 0.00172093,0.00135499l0 0.00879198c0,0.000744571 -0.000773942,0.00135499 -0.00172093,0.00135499l-0.00234802 0c-0.000946987,0 -0.00172093,-0.000609628 -0.00172093,-0.00135499z"/>
   <path id="_199187232" class="fil4" d="M0.153121 0.177662l-0.00557476 -0.00617883c-0.000736634,-0.000816012 -0.000491354,-0.0020313 0.000438964,-0.00268935l0.00146374 -0.00103748c0.000930317,-0.000658843 0.00228769,-0.000471509 0.00300448,0.000359585l0.00557476 0.00617883c0.000716789,0.000831094 0.000492147,0.00202971 -0.000438964,0.00268935l-0.00146374 0.00103748c-0.000931111,0.000659636 -0.00228849,0.000470715 -0.00300448,-0.000359585z"/>
   <path id="_199187160" class="fil4" d="M0.184198 0.177662l-0.00557476 -0.00617883c-0.00073584,-0.000816012 -0.000491354,-0.0020313 0.000438964,-0.00268935l0.00146454 -0.00103748c0.000930317,-0.000658843 0.00228769,-0.000471509 0.00300448,0.000359585l0.00557476 0.00617883c0.000716789,0.000831094 0.000492147,0.00202971 -0.000438964,0.00268935l-0.00146454 0.00103748c-0.000931111,0.000659636 -0.00228769,0.000470715 -0.00300448,-0.000359585z"/>
   <path id="_199187088" class="fil4" d="M0.231478 0.16418l0.00577956 0.00716789c0.000711232,0.000881896 0.00204876,0.00101446 0.00298702,0.000350853l0.00147644 -0.00104542c0.000938255,-0.000664399 0.00107796,-0.00195351 0.000369111,-0.00283858l-0.00578035 -0.00716868c-0.000708851,-0.000885072 -0.00204797,-0.00101446 -0.00298622,-0.00035006l-0.00147724 0.00104542c-0.000939049,0.000664399 -0.00107637,0.00195351 -0.000368317,0.00283858z"/>
   <path id="_199187016" class="fil4" d="M0.217139 0.176783l0.0388304 0c0.0009581,0 0.00174157,0.000746159 0.00174157,0.00165504l0 0.00225912c0,0.000909679 -0.000785055,0.00165504 -0.00174157,0.00165504l-0.0388304 0c-0.000956512,0 -0.00174157,-0.000744571 -0.00174157,-0.00165504l0 -0.00225912c0,-0.000910473 0.000783467,-0.00165504 0.00174157,-0.00165504z"/>
   <path id="_199186944" class="fil4" d="M0.23428 0.219182l0 -0.0274372c0,-0.000967625 0.000785055,-0.00175824 0.00174157,-0.00175824l0.00237739 0c0.000956512,0 0.00174157,0.000792199 0.00174157,0.00175824l0 0.0274372c0,0.000966038 -0.000783467,0.00175824 -0.00174157,0.00175824l-0.00237739 0c-0.000957306,0 -0.00174157,-0.000791405 -0.00174157,-0.00175824z"/>
   <path id="_199186872" class="fil4" d="M0.242034 0.181008l-0.0288716 0.0195271c-0.000803312,0.000554857 -0.00241152,0.00134388 -0.0029886,0.000597721l-0.00090571 -0.00117083c-0.000577876,-0.000746159 -0.00112638,-0.00176538 -0.000318308,-0.00232262l0.0288708 -0.0195271c0.000813631,-0.000550888 0.0017884,-0.000828713 0.00260679,-0.000284175l0.00128831 0.000857289c0.000818394,0.000544537 0.00107637,0.00171696 0.000318308,0.00232262z"/>
   <path id="_199186800" class="fil4" d="M0.238101 0.194641l-0.0239731 0.0163885c-0.000769973,0.000635029 -0.00199955,0.000950162 -0.00274253,0.000287351l-0.00105494 -0.00131054c-0.000742984,-0.000663605 -0.000795374,-0.00185984 -2.38136e-005,-0.00249566l0.0239731 -0.0163885c0.000828713,-0.000566763 0.00188127,-0.000687419 0.00262584,-2.2226e-005l0.00117163 0.00104542c0.000744571,0.000664399 0.000792992,0.00186063 2.38136e-005,0.00249566z"/>
   <path id="_199186728" class="fil4" d="M0.242192 0.201238l0.0160353 0.0162147c0.000697738,0.000705676 0.0018392,0.000786642 0.00262108,0.000164314l0.00123196 -0.000980326c0.000781879,-0.000622328 0.000872371,-0.00178284 0.000173045,-0.0024909l-0.0160361 -0.0162139c-0.000699326,-0.000708057 -0.00183682,-0.00078823 -0.00262029,-0.000164314l-0.00123275 0.000980326c-0.000782673,0.000623122 -0.000870783,0.00178443 -0.000172252,0.00249011z"/>
   <path id="_199186656" class="fil4" d="M0.240757 0.204286l-0.0222316 0.015232c-0.000783467,0.000619153 -0.00188445,0.000680275 -0.00262584,1.50819e-005l-0.00100731 -0.00121052c-0.000740603,-0.000665193 -0.00080093,-0.00187492 -1.58757e-005,-0.00249566l0.0220696 -0.01507c0.000829507,-0.000566763 0.00188365,-0.000682656 0.00262664,-1.58757e-005l0.00116845 0.00104859c0.000742984,0.00066678 0.000799343,0.00187651 1.58757e-005,0.00249646z"/>
   <path id="_199186584" class="fil4" d="M0.212289 0.166659l0.0502816 0c0.0009581,0 0.00174157,0.000746159 0.00174157,0.00165584l0 0.00225832c0,0.000909679 -0.000785055,0.00165504 -0.00174157,0.00165504l-0.0502816 0c-0.000956512,0 -0.00174157,-0.000744571 -0.00174157,-0.00165504l0 -0.00225832c0,-0.000910473 0.000783467,-0.00165584 0.00174157,-0.00165584z"/>
   <path id="_199186512" class="fil4" d="M0.207654 0.178952l0 -0.0107082c0,-0.000888247 0.000784261,-0.00161377 0.00174157,-0.00161377l0.0023766 0c0.000956512,0 0.00174157,0.000727108 0.00174157,0.00161377l0 0.0107082c0,0.000885865 -0.000783467,0.00161297 -0.00174157,0.00161297l-0.0023766 0c-0.0009581,0 -0.00174157,-0.000725521 -0.00174157,-0.00161297z"/>
   <path id="_199186440" class="fil4" d="M0.259867 0.178952l0 -0.0107082c0,-0.000888247 0.000785055,-0.00161377 0.00174157,-0.00161377l0.00237739 0c0.000956512,0 0.00174157,0.000727108 0.00174157,0.00161377l0 0.0107082c0,0.000885865 -0.000784261,0.00161297 -0.00174157,0.00161297l-0.00237739 0c-0.0009581,0 -0.00174157,-0.000725521 -0.00174157,-0.00161297z"/>
   <path id="_199186368" class="fil4" d="M0.228887 0.187595l0.00574066 0.00657493c0.000746159,0.000855702 0.00204876,0.00101446 0.00298622,0.000350853l0.00147724 -0.00104542c0.000937461,-0.000663605 0.00107796,-0.00195351 0.000369111,-0.00283858l-0.00574066 -0.00657493c-0.000709645,-0.000885072 -0.00204797,-0.00101525 -0.00298702,-0.00035006l-0.00147724 0.00104462c-0.000938255,0.000664399 -0.00107637,0.0019543 -0.000368317,0.00283858z"/>
   <path id="_199186296" class="fil4" d="M0.261589 0.188296c0,0 -0.00092873,-0.00267188 -0.0050588,-0.00257266 -0.00364983,8.73165e-005 -0.00602881,0.00190588 -0.00683529,0.00414118 -0.000807281,0.0022353 7.93786e-006,0.00309497 -0.000434995,0.00357045 -0.000442933,0.000474684 -0.0121402,0.00799819 -0.0135094,0.00878166 -0.00136849,0.000782673 -0.00201145,0.00143913 -0.0013407,0.00307275 0.000670749,0.00163361 -0.000483416,0.00374588 0.000943018,0.00353235 0.000177808,-2.61949e-005 0.000984295,-0.000938255 0.0018646,-0.00155106 0.00329818,-0.00229325 0.0139032,-0.00894518 0.0143572,-0.00919522 0.000292113,-0.000161139 0.000612803,9.12854e-005 0.00123434,0.000302433 0.000543744,0.000184158 0.00227182,0.000971594 0.00244804,0.000956512 0.000586608,-5.08023e-005 0.000865227,-3.7308e-005 0.00100176,-0.000261949 6.19153e-005,-0.000102398 -1.58757e-006,-0.00016352 9.04916e-005,-0.000461984 3.57204e-005,-0.000118274 0.000407212,-0.000124624 0.00059534,-0.000159551 0.00135499,-0.000253218 0.00297511,-0.000723933 0.00448965,-0.00239565 0.00151454,-0.00167251 0.00148279,-0.00349822 0.000927936,-0.00337518 -0.00055565,0.000123831 -0.00490163,0.00101684 -0.00490163,0.00101684 0,0 -0.000281794,-0.000540568 -0.000365142,-0.00107002 -8.33475e-005,-0.000530249 -0.000781086,-0.00268141 -0.000544537,-0.00300766 0.000235754,-0.000326246 0.00490004,-0.00101843 0.00490004,-0.00101843 0,0 0.000261949,-5.79464e-005 0.000138119,-0.000304814z"/>
   <path id="_199186224" class="fil4" d="M0.159101 0.210584l0.0329318 0c0.00107876,0 0.00196065,-0.00065408 0.00196065,-0.00145183l0 -0.00198129c0,-0.000796961 -0.000884278,-0.00145183 -0.00196065,-0.00145183l-0.0323349 0c-0.000587402,0 -0.000920792,-0.000937461 -0.00128117,-0.00143755 -0.000298464,-0.000413563 -0.00127641,-0.000451664 -0.00127641,-8.96978e-005l0 0.00496037c0,0.000798549 0.000881896,0.00145183 0.00196065,0.00145183z"/>
   <path id="_199186152" class="fil4" d="M0.133988 0.193898l0.00763543 -0.00635743c0.000633441,-0.000527074 0.00166933,-0.000335772 0.00230039,0.000422294l0.00156932 0.00188445c0.00063106,0.00075886 0.00063106,0.00181301 -7.93786e-007,0.00233929l-0.00763622 0.00635743c-0.000631854,0.00052628 -0.00166854,0.000336565 -0.00230039,-0.000423088l-0.00156932 -0.00188445c-0.000631854,-0.000759653 -0.000631854,-0.00181142 1.58757e-006,-0.00233849z"/>
  </g>
 </g>
</svg>
