<?xml version="1.0" encoding="UTF-8"?>
<!DOCTYPE svg PUBLIC "-//W3C//DTD SVG 1.1//EN" "http://www.w3.org/Graphics/SVG/1.1/DTD/svg11.dtd">
<!-- Creator: CorelDRAW -->
<svg xmlns="http://www.w3.org/2000/svg" xml:space="preserve" width="84.7838mm" height="72.3188mm" style="shape-rendering:geometricPrecision; text-rendering:geometricPrecision; image-rendering:optimizeQuality; fill-rule:evenodd; clip-rule:evenodd"
viewBox="0 0 1.72536 1.4717"
 xmlns:xlink="http://www.w3.org/1999/xlink">
 <defs>
  <style type="text/css">
   <![CDATA[
    .fil6 {fill:#B5F1ED;fill-opacity:0.580392}
    .fil0 {fill:#0099BF;fill-opacity:0.580392}
    .fil2 {fill:#48B6D3;fill-opacity:0.580392}
    .fil4 {fill:#65BED7;fill-opacity:0.580392}
    .fil1 {fill:#0099BF;fill-rule:nonzero;fill-opacity:0.580392}
    .fil3 {fill:#48B6D3;fill-rule:nonzero;fill-opacity:0.580392}
    .fil5 {fill:#65BED7;fill-rule:nonzero;fill-opacity:0.580392}
   ]]>
  </style>
 </defs>
 <g id="图层_x0020_1">
  <metadata id="CorelCorpID_0Corel-Layer"/>
  <g id="_199134512">
   <path id="_199277888" class="fil0" d="M0.821316 1.41697l0.000164836 0.0129753 0.0081136 0 0 0.0390926c0,0 0,0.00233009 0.00211031,0.00249696 0.00211031,0.000164836 0.081307,0.000164836 0.081307,0.000164836 0,0 0.0011335,-0.000162801 0.00186611,-0.00191088 0.00073057,-0.00174808 0.000288972,-0.00127799 0.000288972,-0.00127799l0.000124136 -0.0388281 0.00781242 0 2.03501e-006 -0.0128043 -0.0484069 -0.0355354c0,0 -0.00163005,-0.000980877 -0.00401101,-0.000341882 -0.002383,0.000643065 -0.00271674,0.00136956 -0.00271674,0.00136956l-0.0466547 0.0345993zm0.0712988 -0.0325867l0 0.0031502 0.0171023 0.0125805 0 -0.0154722c0,0 -0.000122101,-0.00192919 -0.00144079,-0.00218357 -0.00131462,-0.000258447 -0.014532,-6.51205e-005 -0.014532,-6.51205e-005 0,0 -0.00150388,0.000708185 -0.00112943,0.00199024zm-0.0177575 0.0548213l0.0152646 0 0 0.0156187 -0.0152646 0 0 -0.0156187zm-0.0201975 0l0.0152667 0 0 0.0156187 -0.0152667 0 0 -0.0156187zm0.0201975 -0.0212659l0.0152646 0 0 0.0156248 -0.0152646 0 0 -0.0156248zm-0.0201975 0l0.0152667 0 0 0.0156248 -0.0152667 0 0 -0.0156248zm0.0177433 -0.0184026l-0.0305374 0.0210563 0.000166871 0.0406453 0.0604827 0 8.54706e-005 -0.039988 -0.0301976 -0.0217136z"/>
   <path id="_199277816" class="fil0" d="M0.847675 0.907556l0.000319497 0.0184413 0.0160115 0 0 0.0760912c0,0 0,0.00422673 0.00416364,0.00452791 0.00416161,0.000303217 0.160432,0.000303217 0.160432,0.000303217 0,0 0.00224462,-0.000295077 0.00368541,-0.0034697 0.00143876,-0.00317462 0.000569804,-0.00231585 0.000569804,-0.00231585l0.000250307 -0.0756211 0.0154112 0 4.07003e-006 -0.0181238 -0.0955195 -0.0645161c0,0 -0.00321736,-0.00178471 -0.00791417,-0.000620679 -0.00469681,0.00116403 -0.00535412,0.00248882 -0.00535412,0.00248882l-0.09206 0.0628148zm0.133031 0.024992l0 0.0321878c0,0.00572246 -0.00496951,0.010401 -0.011044,0.010401l-0.043126 0c-0.00607452,0 -0.011044,-0.0046785 -0.011044,-0.010401l0 -0.0321878 0.00660159 0 -0.000148556 -0.00840868 0 -0.000264552c0,-0.0137893 0.0119781,-0.0250653 0.0266261,-0.0250653l0 0c0.0146419,0 0.0266221,0.011276 0.0266221,0.0250653l0 0.000264552 0 0.00840868 0.00551285 0zm-0.032607 0.00841479c0.00426946,0 0.00772492,0.00325602 0.00772492,0.00727111 0,0.002092 -0.000942212,0.00398456 -0.00245016,0.00531342l0 0.00524627c2.23852e-005,0.000181116 3.45952e-005,0.000374443 3.45952e-005,0.000563699 0,0.00275948 -0.00237893,0.00499596 -0.00530935,0.00499596 -0.00289379,0 -0.00525441,-0.00218357 -0.00530732,-0.00490642l-7.12255e-005 0 0 -0.00599515c-0.0014469,-0.00131665 -0.00234434,-0.00317055 -0.00234434,-0.00521778 0,-0.00401508 0.00345749,-0.00727111 0.00772288,-0.00727111zm0.0167441 -0.0168235l0 -0.000164836c0,-0.008427 -0.00732198,-0.0153216 -0.016272,-0.0153216l0 0c-0.0089561,0 -0.0162801,0.00689463 -0.0162801,0.0153216l0 0.000164836 0.000278797 0.00840868 0.0321471 0 0.000126171 -0.00840868zm0.0235187 -0.0757473l0 0.00571432 0.0337487 0.0228512 0 -0.0280954c0,0 -0.000250307,-0.00350023 -0.00284495,-0.00397031 -0.00259668,-0.000459913 -0.0286815,-0.000111926 -0.0286815,-0.000111926 0,0 -0.00296502,0.00128206 -0.00222224,0.00361215zm-0.0398904 0.0249574l-0.0602527 0.0376559 0.000329672 0.0769175 0.11935 0 0.000162801 -0.0754543 -0.0595893 -0.0391191z"/>
   <g>
    <path id="_199277744" class="fil1" d="M1.10325 0.695694c-0.00334556,0 -0.00605824,-0.00254987 -0.00605824,-0.00570415 0,-0.0031502 0.00271267,-0.00569601 0.00605824,-0.00569601 0.00333335,0 0.0060501,0.0025458 0.0060501,0.00569601 0,0.00315427 -0.00271674,0.00570415 -0.0060501,0.00570415zm0.039054 -0.0196908l-0.0186468 -0.0934804 -0.0122345 0 0 0.0774628 -0.015985 0 0 -0.0774628 -0.0122304 0 -0.0186489 0.0934804c0,0 0.015692,0.0171145 0.0157001,0.0171328 -0.0176476,0.0177697 -0.0399372,0.0495587 -0.0399372,0.0969786 0,0.00876481 0.00754583,0.0158751 0.0168581,0.0158751 0.00930612,0 0.0168601,-0.00711034 0.0168601,-0.0158751 0,-0.0355436 0.0158589,-0.0595527 0.0288524,-0.0733175l0 -1.62801e-005c0,0 0.0155536,-0.0157734 0.0260787,-0.0262293 0.00461745,-0.00457878 0.0133334,-0.0145483 0.0133334,-0.0145483z"/>
    <path id="_199277672" class="fil1" d="M1.1306 0.697387l-0.0230872 0.023421c0.0121612,0.0142227 0.0253156,0.0369355 0.0253156,0.0693085 0,0.00876277 0.00754583,0.0158731 0.016854,0.0158731 0.00931223,0 0.0168601,-0.00711034 0.0168601,-0.0158731 0,-0.0439177 -0.0191006,-0.0743493 -0.0359424,-0.0927295z"/>
   </g>
   <g>
    <path id="_199277576" class="fil1" d="M0.793507 0.436696c0.00308101,0.00362843 0.00245219,0.00892354 -0.0014062,0.0118194l-0.0273587 0.0205516c-0.00385432,0.00289379 -0.00947096,0.00229957 -0.0125499,-0.00132276l-0.00455029 -0.00536226 -0.0498497 0.0374707 -0.00552303 -0.00650187 0.0498721 -0.0374728 -0.00454012 -0.00535209c-0.00146928,-0.00174401 -0.00215305,-0.00396624 -0.0018946,-0.00618644 0.000268622,-0.00221613 0.001453,-0.00424504 0.003313,-0.00563089l0.0273404 -0.0205475c0.00185797,-0.00139195 0.00422062,-0.00203298 0.00657513,-0.00178267 0.00235451,0.000248272 0.00451163,0.0013716 0.00598498,0.00311154l0.00453401 0.00534802 0.0171369 -0.0128633 0.00550471 0.00649984 -0.0171185 0.0128694 0.00452994 0.00535209zm0.0293714 0.0127656c0.0146012,-0.0109748 0.0170046,-0.0310197 0.00533784,-0.0447805l-0.00843514 -0.0099614c-0.0116708,-0.0137567 -0.0329591,-0.0159993 -0.0475705,-0.00503056l-0.123167 0.0925484 0.0506597 0.0597684 0.123175 -0.0925443z"/>
    <path id="_199277504" class="fil1" d="M0.699408 0.435021l-0.00242981 -0.00287751c-0.00172976,-0.00203298 -0.00436104,-0.00320922 -0.00712459,-0.00316648 -0.00276762,4.68053e-005 -0.00535412,0.00128816 -0.00701673,0.00337405l-0.0114266 0.0143855 -0.0174299 0.00729756c-0.00252952,0.00105821 -0.0043936,0.00315631 -0.00504684,0.00568787 -0.00065731,0.00252952 -3.45952e-005,0.00520353 0.00169313,0.00724262l0.00243795 0.00287548 0.0463434 -0.0348191z"/>
    <polygon id="_199277432" class="fil1" points="0.62987,0.50508 0.635498,0.581813 0.689255,0.541424 0.647324,0.491959 "/>
   </g>
   <path id="_199277336" class="fil2" d="M1.03888 0.341227l0.174242 0c0.00880551,0 0.0160095,0.0067827 0.0160095,0.0150734l0 0.0980816c0,0.00828861 -0.00720395,0.0150754 -0.0160095,0.0150754l-0.00702691 0c0.00354093,4.27353e-005 0.00642047,0.00277983 0.00642047,0.00611522l0 0.00413108c0,0.00336388 -0.00292635,0.00612336 -0.00649984,0.00612336l-0.160029 0c-0.00357145,0 -0.00650187,-0.00275337 -0.00650187,-0.00612336l0 -0.00413108c0,-0.00333539 0.00288362,-0.00607248 0.00641844,-0.00611522l-0.00702284 0c-0.00880754,0 -0.0160135,-0.00678677 -0.0160135,-0.0150754l0 -0.0980816c0,-0.00829065 0.00720599,-0.0150734 0.0160135,-0.0150734zm0.0100794 0.0162394l0.154081 0c0.00344731,0 0.00626378,0.00265569 0.00626378,0.00589544l0 0.0839606c0,0.00323974 -0.00281646,0.00589747 -0.00626378,0.00589747l-0.154081 0c-0.00344324,0 -0.00626378,-0.00265773 -0.00626378,-0.00589747l0 -0.0839606c0,-0.00324381 0.0028185,-0.00589544 0.00626378,-0.00589544z"/>
   <path id="_199277264" class="fil0" d="M0.763153 0.643124l0 0.144057c0,0.00728332 -0.0063289,0.0132378 -0.0140579,0.0132378l-0.0779594 0c-0.00773509,0 -0.014064,-0.00595649 -0.014064,-0.0132378l0 -0.144057c0,-0.00728128 0.0063289,-0.0132418 0.014064,-0.0132418l0.0779594 0c0.00773509,0 0.0140579,0.00596056 0.0140579,0.0132418zm-0.0518135 0.135166c0.00402119,0 0.00727925,0.0030688 0.00727925,0.00685189 0,0.00378513 -0.00325806,0.00685189 -0.00727925,0.00685189 -0.00401915,0 -0.00727925,-0.00306677 -0.00727925,-0.00685189 0,-0.00378309 0.00326009,-0.00685189 0.00727925,-0.00685189zm0.0404825 -0.130748l0 0.118582c0,0.00284088 -0.00248068,0.00515062 -0.00549861,0.00517301l-0.070788 0.000547419c-0.00301793,2.44202e-005 -0.00550064,-0.00232806 -0.00550064,-0.00517301l0 -0.118582c0,-0.00284088 0.00247254,-0.00515062 0.00550064,-0.00517504l0.070788 -0.000549454c0.00302403,-2.23852e-005 0.00549861,0.00233009 0.00549861,0.00517708z"/>
   <path id="_199277192" class="fil3" d="M0.906107 0.229303l0.0528412 0 0 -0.00523609c0,-0.012206 -0.0104966,-0.0220962 -0.0234576,-0.0220962l-0.0649373 0 0 0.0273323 0.00794266 0 0.0028592 0.00269029c0.000535209,0.000506719 0.000838426,0.00119455 0.000838426,0.00191291 0,0.000716325 -0.000303217,0.00140823 -0.000844531,0.00191088l-0.00170534 0.0016097c-0.000541314,0.000506719 -0.000840461,0.00119862 -0.000840461,0.00191088 0,0.00071836 0.000299147,0.00141027 0.000838426,0.00191698l0.00171348 0.0016097c0.00111722,0.00105617 0.00111722,0.00277169 0,0.00382786l-0.00171145 0.0016097c-0.00112333,0.00105414 -0.00112333,0.00276355 0,0.00382379l0.00171145 0.0016097c0.000535209,0.000508754 0.000838426,0.00119659 0.000838426,0.00191291 0,0.00071836 -0.000303217,0.00140416 -0.000844531,0.00191291l-0.00177046 0.00166871c-0.00108263,0.00102361 -0.00113147,0.00264959 -0.000109891,0.00372001 0.00176639,0.00185186 0.00356128,0.00389909 0.00356128,0.00389909l-0.0124767 0 0 0.00788365 -0.0107673 0 0 0.011565 0.0107673 0 0 0.00787551 0.00757839 0 0.00322346 0.00303624c0.00111722,0.00105617 0.00111722,0.00276762 0,0.00382583l-0.00212863 0.00200652c-0.000325602,0.000307287 -0.000421248,0.000763131 -0.000246237,0.00115996 0.000175011,0.000392758 0.000584049,0.00065731 0.00104396,0.00065731l0.0260828 0 0 -0.0106859 0.0122671 0 0 0.0967711c0,0.00593003 0.00510382,0.0107408 0.0114063,0.0107408l0.00836188 0c0.00630041,0 0.0114103,-0.00481281 0.0114103,-0.0107408l0 -0.0967711 0.00939566 0 0 -0.0273241 -0.00939566 0 0 -0.0106431 -0.0311785 0 0 0.0106431 -0.0122671 0 0 -0.037546z"/>
   <g>
    <path id="_199277120" class="fil0" d="M1.28455 0.356799l0 -0.0908532c0,-0.00160156 0.00137567,-0.00290397 0.00307694,-0.00290397l0.0374544 0c0.0016972,0 0.00308101,0.00130241 0.00308101,0.00290397l0 0.0918077c0,0.0122386 -0.00887673,0.0221918 -0.0218744,0.0221918 -0.0110562,-4.07003e-006 -0.021738,-0.0127412 -0.021738,-0.0231463z"/>
    <path id="_199277048" class="fil0" d="M1.26691 0.266109l0 -0.0186326c0,-0.00160359 0.00138381,-0.00289583 0.00308305,-0.00289583l0.0287059 0c0.00170127,0 0.00308101,0.00129223 0.00308101,0.00289583l0 0.0064103 0.0121205 0 0 -0.0064103c0,-0.00160359 0.00138381,-0.00289583 0.00308101,-0.00289583l0.0257958 0c0.00169924,0 0.00307694,0.00129223 0.00307694,0.00289583l0 0.0186326c0,0.00160156 -0.0013777,0.00289786 -0.00307694,0.00289786l-0.0727843 0c-0.00169924,0 -0.00308305,-0.0012963 -0.00308305,-0.00289786zm0.00616202 -0.0157307l0 0.0128267 0.0666203 0 0 -0.0128267 -0.0196338 0 0 0.00641437c0,0.00159952 -0.0013777,0.00289379 -0.00308101,0.00289379l-0.0182805 0c-0.00170331,0 -0.00308101,-0.00129427 -0.00308101,-0.00289379l0 -0.00641437 -0.0225439 0z"/>
   </g>
   <path id="_199276952" class="fil4" d="M0.713444 0.373271c0,0 0.0337996,-0.0236794 0.0578209,-0.0579816 0.0240233,-0.0342961 0.0156167,-0.0772654 -0.014412,-0.0968687 -0.0300246,-0.0195972 -0.0792903,-0.0104966 -0.0969074,0.0245606 -0.0176131,0.0350531 0.000826216,0.067416 0.0188422,0.0896526 0.0180119,0.0222366 0.0346563,0.0406372 0.0346563,0.0406372zm0.00577944 -0.125446c0.0170188,0 0.0308244,0.0129976 0.0308244,0.0290254 0,0.0160237 -0.0138055,0.0290193 -0.0308244,0.0290193 -0.0170209,0 -0.0308284,-0.0129956 -0.0308284,-0.0290193 0,-0.0160278 0.0138076,-0.0290254 0.0308284,-0.0290254zm0 0.0177128c0.00663008,0 0.0120107,0.00506312 0.0120107,0.0113126 0,0.00624546 -0.00538058,0.0113086 -0.0120107,0.0113086 -0.00663822,0 -0.0120147,-0.00506312 -0.0120147,-0.0113086 0,-0.00624953 0.00537651,-0.0113126 0.0120147,-0.0113126zm-0.0042308 0.0847665c0,0 0.0243958,-0.0170819 0.04173,-0.0418379 0.0173363,-0.0247519 0.0112679,-0.0557594 -0.0103989,-0.0699048 -0.0216709,-0.0141413 -0.0572205,-0.00757229 -0.0699292,0.0177209 -0.0127168,0.0252993 0.000592189,0.0486491 0.0135898,0.0646972 0.0130017,0.0160461 0.0250083,0.0293246 0.0250083,0.0293246z"/>
   <path id="_199276880" class="fil0" d="M0.293498 0.296082l0.0865064 0c0.00597887,0 0.010869,0.00460117 0.010869,0.01023l0 0.0881365c0,0.00562885 -0.00489014,0.0102321 -0.010869,0.0102321l-0.0735495 0 0 -0.0645303 -0.0112842 0 0 0.0645303 -0.00167278 0c-0.00597684,0 -0.0108649,-0.0046032 -0.0108649,-0.0102321l0 -0.0881365c0,-0.00562885 0.00488811,-0.01023 0.0108649,-0.01023zm0 0.116857l0.00167278 0 0 0.0464289 0.0112842 0 0 -0.0464289 0.0735495 0c0.00597887,0 0.010869,0.0045971 0.010869,0.010228l0 0.0881385c0,0.00562478 -0.00489014,0.01023 -0.010869,0.01023l-0.0865064 0c-0.00597684,0 -0.0108649,-0.00460524 -0.0108649,-0.01023l0 -0.0881385c0,-0.00563089 0.00488811,-0.010228 0.0108649,-0.010228z"/>
   <path id="_199276808" class="fil1" d="M0.562509 0.70879l-0.0032723 -0.0213249 -0.00323364 0.0213249 -0.0155353 1.62801e-005 -0.0045218 -0.0477374 -0.00444244 0.0477455 -0.0155394 6.10504e-006 -0.00326416 -0.0213208 -0.00324381 0.0213229 -0.0104946 1.01751e-005c0.00196786,-0.0136204 0.00524627,-0.0363006 0.00531546,-0.0369742 0.00370983,-0.0390601 0.059573,-0.0392819 0.0633602,-3.86653e-005 6.51205e-005,0.00066138 0.00337202,0.0233457 0.00536023,0.0369559l-0.0104885 1.42451e-005zm0.0184006 -0.0380711c-0.00145097,-0.0154641 -0.0100794,-0.0289013 -0.0237588,-0.0358244 0.000219782,-0.00109687 0.000382583,-0.00222224 0.000382583,-0.00337812 -6.10504e-006,-0.00806883 -0.0050387,-0.0149574 -0.012265,-0.0182459l-6.10504e-005 -0.0734885c0,-0.00421859 -0.00362843,-0.00763741 -0.0081136,-0.00763741l-0.00249696 1.01751e-005c-0.00215101,0 -0.00421248,0.000809936 -0.00573467,0.00223241 -0.00151609,0.00143672 -0.00237893,0.00338016 -0.00237079,0.00540296l5.49454e-005 0.0734905c-0.00721209,0.00329469 -0.0122365,0.0101995 -0.0122284,0.0182683 0,0.00115182 0.000166871,0.00227515 0.000392758,0.00338219 -0.0136733,0.00693126 -0.0222895,0.0203725 -0.0237079,0.0358509 -0.000974772,0.0106655 -0.00485758,0.0361337 -0.00710017,0.0504358 -0.000407003,0.00255801 0.000407003,0.00515673 0.00220799,0.00712255 0.00180099,0.00196175 0.00441191,0.00307694 0.00716325,0.00307491l0.0854543 -5.08754e-005c0.00274523,-1.22101e-005 0.00535616,-0.00113757 0.00714697,-0.00309933 0.00179895,-0.00196175 0.00260889,-0.0045564 0.00221206,-0.00711238 -0.00226294,-0.0143102 -0.00618644,-0.0397662 -0.0071775,-0.0504338z"/>
   <g>
    <path id="_199276736" class="fil2" d="M0.584304 0.391694c-0.00783481,0.0104722 -0.0162353,0.0173037 -0.0187832,0.0247722 -0.00170127,0.00580793 -0.00175622,0.0102544 -0.00229957,0.0125601 -0.000828251,0.00226294 -0.000181116,0.00194344 -0.00328451,0.00320718 -0.00284292,0.000958492 -0.0150754,0.00176436 -0.0266444,0.00170534 -0.0115711,5.90154e-005 -0.0237995,-0.00074685 -0.026616,-0.00169924 -0.0031034,-0.00125764 -0.00246847,-0.000946282 -0.00328248,-0.00321329 -0.000543349,-0.00230567 -0.000610504,-0.00675218 -0.00230364,-0.0125601 -0.00251935,-0.0074685 -0.0109484,-0.0143 -0.018771,-0.0247722 -0.00784702,-0.0102789 -0.0150001,-0.0229753 -0.0150001,-0.039058 0,-0.0160441 0.0076191,-0.0306087 0.019642,-0.0412518 0.0120229,-0.010635 0.0284027,-0.017206 0.0455579,-0.0171979l0.00156493 -4.07003e-006c0.0171674,-8.14006e-006 0.0335574,0.00657106 0.045566,0.017202 0.0120208,0.0106431 0.0196501,0.0252118 0.0196501,0.0412518 0,0.0160827 -0.00715308,0.0287792 -0.014996,0.039058zm-0.0638689 -0.064917l-0.00769032 0.0554806 0.0287934 -0.0236489 -0.00526662 0.0400654 0.00732809 -0.00449535 0.0120676 -0.0626398 -0.0334394 0.0303787 0.00207775 -0.0315224 -0.0038706 -0.00361826z"/>
    <polygon id="_199276664" class="fil2" points="0.510315,0.442414 0.556298,0.442414 0.556298,0.43231 0.510315,0.43231 "/>
    <polygon id="_199276592" class="fil2" points="0.510315,0.456024 0.556298,0.456024 0.556298,0.445912 0.510315,0.445912 "/>
    <polygon id="_199276520" class="fil2" points="0.510315,0.469293 0.556298,0.469293 0.556298,0.459195 0.510315,0.459195 "/>
   </g>
   <path id="_199276424" class="fil4" d="M1.15863 0.15006c0.0451346,0 0.0817404,0.0344609 0.0817404,0.076952 0,0.0424972 -0.0366058,0.0769561 -0.0817404,0.0769561 -0.0451305,0 -0.0817404,-0.0344589 -0.0817404,-0.0769561 0,-0.0424911 0.0366099,-0.076952 0.0817404,-0.076952zm0.0289359 0.0385656c0.0127473,0.00852875 0.0210665,0.022548 0.0210665,0.0383865 0,0.0259953 -0.0223892,0.047078 -0.0500023,0.047078 -0.027607,0 -0.0499983,-0.0210828 -0.0499983,-0.047078 0,-0.016213 0.0087119,-0.0305232 0.0219761,-0.0389868l0.00853485 0.0121551c-0.00908227,0.00586084 -0.0150408,0.015692 -0.0150408,0.0268317 0,0.0179529 0.0154641,0.0325114 0.0345281,0.0325114 0.0190661,0 0.0345322,-0.0145585 0.0345322,-0.0325114 0,-0.0109402 -0.00574892,-0.0206147 -0.0145504,-0.0265122l0.00895406 -0.0118743zm-0.0353238 -0.0267665l0.0149126 0 0 0.0602649 -0.0149126 0 0 -0.0602649z"/>
   <path id="_199276352" class="fil1" d="M0.649746 1.00454c-0.0035857,0.00340661 -0.0094384,0.0034351 -0.0130607,5.69804e-005 -0.00363047,-0.00336795 -0.00365489,-0.00888691 -6.91905e-005,-0.0123037 0.00358977,-0.00341475 0.00944654,-0.00343714 0.0130587,-6.30855e-005 0.0036325,0.0033883 0.00366913,0.00888284 7.12255e-005,0.0123098zm0.171678 -0.137284c-0.00266587,-0.000972737 -0.00570211,-0.000370373 -0.00770253,0.00154458l-0.0236123 0.0224564 -0.0344182 -0.0320657 0.0237669 -0.0226009c0.00200652,-0.00189867 0.0026272,-0.00476397 0.0015751,-0.00724669 -0.00104803,-0.00249696 -0.00358163,-0.00417585 -0.00643065,-0.00427964 -0.0143021,-0.000455843 -0.0287629,0.00446482 -0.0396238,0.0147946 -0.014587,0.0138849 -0.0187567,0.0337344 -0.0126578,0.0510809l-0.102221 0.0971923c-0.00603585,0.00575502 -0.00598905,0.0150306 0.000107856,0.0207164l0.0122996 0.0114632c0.00610097,0.00569194 0.0159545,0.00564513 0.0220026,-0.000105821l0.102292 -0.0972615c0.018425,0.00542535 0.0393409,0.00126985 0.0538567,-0.0125418 0.0107652,-0.0102341 0.0158528,-0.0237507 0.0153379,-0.0371004 -0.000111926,-0.00268622 -0.00191902,-0.00506312 -0.00457268,-0.00604603z"/>
   <path id="_199276280" class="fil4" d="M0.710629 1.06892c0,0 -0.0124258,0.033303 -0.0143896,0.0632137 -0.00196175,0.0299168 -0.00064917,0.0333112 -0.00064917,0.0333112l0.066372 0 0 -0.0672328c0,0 0.0010053,-0.0107754 0.0132561,-0.0124746 0.0122508,-0.00170941 0.0603158,0.0013777 0.0622776,0.0013777 0.00195972,0 0.00982505,0.00460524 0.010633,0.0100143 0.000809936,0.00540093 0.000809936,0.00632686 0.000809936,0.00632686l0.0307348 0c0,0 0.000984947,-0.0203501 -0.00752141,-0.0274462 -0.00849822,-0.00708999 -0.0143855,-0.00801592 -0.0281158,-0.00801592 -0.0137323,0 -0.133407,0.000925932 -0.133407,0.000925932zm0.00136346 -0.00555559c0,0 0.00817872,-0.0200388 0.0235451,-0.0262049 0.0153644,-0.00617423 0.101028,-0.0274544 0.101028,-0.0274544 0,0 0.00949131,0.00214694 0.00785312,0.00739524 -0.00163615,0.00525034 -0.0235411,0.0095666 -0.0346583,0.0123424 -0.0111214,0.0027778 -0.0412029,0.00925525 -0.0438179,0.0129569 -0.00261092,0.00369762 -0.0032723,0.0114063 -0.00294263,0.0147966 0.000331707,0.0033944 0.000331707,0.00586288 0.000331707,0.00586288l-0.0513394 0.000305252z"/>
   <g>
    <path id="_199276208" class="fil1" d="M0.833583 1.20719c0,-0.00856538 0.00737286,-0.0155048 0.0164694,-0.0155048 0.00909245,0 0.0164653,0.0069394 0.0164653,0.0155048l0 0.0488688 0.0213412 0c0.00316648,0 0.00618034,-0.00127188 0.00828861,-0.00349209 0.00210828,-0.00222834 0.00310136,-0.00519132 0.00273099,-0.00815634l-0.0124116 -0.0999375 -0.0728332 0 -0.0124136 0.0999477c-0.000368338,0.00296298 0.00062475,0.00592189 0.00272692,0.00815023 0.00209607,0.00222427 0.00511196,0.00348802 0.00827437,0.00348802l0.0213615 0 0 -0.0488688z"/>
    <path id="_199276136" class="fil1" d="M0.859936 1.20719c0,-0.00514045 -0.00443226,-0.00930612 -0.00988407,-0.00930612 -0.00545791,0 -0.00988407,0.00416568 -0.00988407,0.00930612l0 0.0623854 -0.00982505 0 0 0.0625909c0,0.00575502 0.00495933,0.0104233 0.0110786,0.0104233l0.0172569 0c0.00611522,0 0.0110807,-0.00466832 0.0110807,-0.0104233l0 -0.0625909 -0.00982302 0 0 -0.0623854z"/>
   </g>
   <g>
    <path id="_199276040" class="fil5" d="M0.959686 0.0844613c-0.0238239,0 -0.0431464,-0.0182012 -0.0431464,-0.040627 0,-0.0224259 0.0193225,-0.040627 0.0431464,-0.040627 0.0238137,0 0.0431464,0.0182012 0.0431464,0.040627 0,0.0224259 -0.0193326,0.040627 -0.0431464,0.040627zm-0.0662438 -0.0844613l0.132479 0c0.00861422,0.0115528 0.0139195,0.0254601 0.0146094,0.0404907l0.000189256 0 0 0.0591294 0.0354479 0 0 -0.00524627 0.00478432 0c0.00490846,0 0.00888691,0.00375257 0.00888691,0.00837002l0 0.0271288c0,0.00462559 -0.00397845,0.00837205 -0.00888691,0.00837205l-0.00478432 0 0 -0.0281361 -0.0354479 0 0 0.0119191 -0.162069 0 0 -0.0815369 0.000181116 0c0.000691905,-0.0150306 0.00599515,-0.0289379 0.0146094,-0.0404907z"/>
    <path id="_199275968" class="fil5" d="M0.951974 0.0412253l0 -0.000115996c0.00488607,-0.00160766 0.00727925,-0.00472327 0.00727925,-0.00868748 0,-0.00512213 -0.00470902,-0.00932444 -0.0132093,-0.00932444 -0.00513434,0 -0.00990238,0.00138381 -0.0122915,0.0028185l0.00189867 0.006335c0.00165447,-0.000930002 0.00507329,-0.00224462 0.00830897,-0.00224462 0.00391537,0 0.00586898,0.00166464 0.00586898,0.00390723 0,0.00316852 -0.00396624,0.00426132 -0.00708592,0.00432237l-0.00360198 0 0 0.00626988 0.00378716 0c0.00409648,0 0.00801185,0.00166464 0.00801185,0.00535209 0,0.00281443 -0.00244812,0.0050041 -0.00727721,0.0050041 -0.0037892,0 -0.00758043,-0.00149777 -0.0092349,-0.0022955l-0.00189053 0.00655275c0.00231788,0.00138381 0.00666264,0.00264755 0.0118011,0.00264755 0.0100835,0 0.0162557,-0.00483926 0.0162557,-0.011451 0,-0.00489828 -0.00385025,-0.00828047 -0.00862032,-0.00909041z"/>
    <path id="_199275896" class="fil5" d="M0.985108 0.0414044c-0.00145097,0 -0.00265162,0.000295077 -0.00373018,0.000903547 -0.000923897,0.000527069 -0.00181116,0.00127595 -0.00252952,0.00222631l-7.32605e-005 0c-0.000844531,-0.00192919 -0.00284902,-0.00312985 -0.00537447,-0.00312985 -0.00336998,0 -0.00509364,0.00173587 -0.00594224,0.00290804l-0.000126171 0 -0.000270657 -0.00249493 -0.00512824 0c7.93656e-005,0.00162191 0.000148556,0.00357959 0.000148556,0.00588933l0 0.0125662 0.00594224 0 0 -0.010751c0,-0.000459913 3.05252e-005,-0.000982912 0.000242167,-0.00143672 0.000364268,-0.000950352 0.00127595,-0.00208589 0.00283681,-0.00208589 0.00192716,0 0.00281036,0.00158935 0.00281036,0.00393979l0 0.0103338 0.00593614 0 0 -0.0107978c0,-0.000455843 8.34356e-005,-0.00106024 0.000246237,-0.00147132 0.000396828,-0.00109484 0.00139602,-0.00200449 0.00280425,-0.00200449 0.00195972,0 0.00288972,0.00155272 0.00288972,0.0042369l0 0.0100367 0.00593207 0 0 -0.010867c0,-0.00551082 -0.00284088,-0.00800168 -0.0066138,-0.00800168z"/>
   </g>
   <path id="_199275800" class="fil0" d="M1.37978 0.015922c-0.0249941,0 -0.045334,0.0191515 -0.045334,0.0426885l4.07003e-006 0.00594021c0,0.00760688 0.00657513,0.0138015 0.0146562,0.0138015 0.00809529,0 0.0146643,-0.00619458 0.0146643,-0.0138015l2.03501e-006 -0.000268622 -1.42451e-005 -0.000262517 -0.000341882 -0.00468867c0.000136346,-0.00874446 0.0077473,-0.0158365 0.0170839,-0.0158365 0.00942008,0 0.0170799,0.00721209 0.0170799,0.0160888l0 0.0134087 -0.0582523 0.032025 -0.00410259 0.00225887 0 0.00447296 0 0.0681954c0,0.0155638 0.0134392,0.0282338 0.0299534,0.0282338l0.0292106 0c0.0165325,0 0.0299839,-0.01267 0.0299839,-0.0282338l0.000763131 -0.121285c0,-0.0235858 -0.020342,-0.0427373 -0.0453564,-0.0427373zm0.020981 0.0861422l-0.04603 0.0229407 0 0.0506719c0,0 0.00507329,0.0114693 0.0130282,0.012265 0.00795691,0.000795691 0.0174319,-0.000476193 0.0235268,-0.000476193 0.00609283,0 0.0111661,-0.0111193 0.0106574,-0.0170127 -0.000504684,-0.00589747 0.000170941,-0.0671148 0.000170941,-0.0671148l-0.00135328 -0.00127392z"/>
   <g>
    <path id="_199275728" class="fil5" d="M1.4132 0.494372l-0.0233945 -0.0275846 -0.0630142 0.0473365 0.00527883 0.00622714 -0.0508041 0.0381708 -0.00381769 -0.00451773 -0.0683928 0.0513821c-0.00596056,0.00448721 -0.0069333,0.0126578 -0.00217747,0.0182643l0.00930409 0.010983c0.0047599,0.00560647 0.0134433,0.00653647 0.0194059,0.0020574l0.0683887 -0.0513801 -0.00381972 -0.00451366 0.0510015 -0.0383173c0.00344324,0.00313189 0.00880958,0.00357349 0.0126537,0.00068987l0.0130444 -0.00980267 0.00748885 0.00884214 0.0217767 -0.0163595 -0.00749089 -0.00884214 0.0130322 -0.00978842c0.00418399,-0.0031441 0.00487793,-0.00889708 0.00153644,-0.012847z"/>
    <path id="_199275656" class="fil5" d="M1.33159 0.428283l0.00595852 0.0070147 -0.00609894 0.00458489 -0.00595242 -0.00702487 0.00609283 -0.00457471zm0.010751 0.0126822l0.0191312 0.022552 -0.00610301 0.00458692 -0.019121 -0.0225663 0.00609283 -0.00457268zm-0.0154763 0.063464l0.05289 -0.0397316 -0.0392697 -0.0463271c-0.00334149,-0.00394182 -0.00944043,-0.0045971 -0.0136244,-0.00145097l-0.0377292 0.0283478c-0.0041901,0.0031502 -0.0048759,0.00889098 -0.0015344,0.0128409l0.0392676 0.046321z"/>
   </g>
   <path id="_199275560" class="fil0" d="M0.534568 0.105261c-0.00185797,0.000411073 -0.00313799,0.00231178 -0.0045157,0.00265773l-0.000478228 0.000101751 -0.00597277 0.00465204 -0.000132276 -0.000148556c-0.000433458,0.00174401 -0.00215915,0.00207979 -0.0022609,0.0031848 -0.00111315,0.000115996 -0.00122711,0.00184169 -0.00263331,0.00194751l0.000189256 0.000132276 -0.00357349 0.00447296 0 0.000529104c-0.000107856,0.0011742 -0.00401101,0.0064103 -0.00462966,0.00804034 -0.000457878,0.00119455 -0.00154661,0.0027778 -0.00214694,0.00417992 -0.000402933,0.000946282 -0.000683765,0.00112129 -0.00105617,0.00218968 -0.000315427,0.000905582 -0.000327637,0.00162801 -0.0010114,0.00205943l-0.00134514 0.00436307 0.000217747 6.30855e-005c-0.00144079,0.00202077 -0.0033883,0.0165182 -0.0033883,0.0205374l0 0.00212659c0,0.00327637 0.000256412,0.00612132 0.000372408,0.00921251 9.56457e-005,0.00269843 0.00150998,0.00618848 0.00150998,0.00814006l0 0.000533174c0.000881161,0.000331707 0.00248475,0.00767608 0.00300979,0.0090314 0.000582014,0.00147539 0.000972737,0.00300775 0.00157307,0.00453808 0.000492474,0.00126578 0.00218764,0.00283071 0.00218764,0.00377902l0 0.000889301 0.000563699 0c1.62801e-005,0.000592189 0.0038299,0.00652222 0.00440581,0.00718564 0.000925932,0.00108059 0.00178267,0.00200856 0.00271471,0.00311764 0.000484333,0.000569804 0.000832321,0.00103582 0.00133497,0.00157307 0.000486369,0.000522999 0.00108263,0.00100733 0.00146928,0.0014469 0.00163208,0.00183355 0.0108649,0.00985558 0.0130322,0.010401 0.000303217,0.00107042 0.00586288,0.00355924 0.00711034,0.00446482 0.00106431,0.000773306 0.00671555,0.00268011 0.0084331,0.00321532 0.00154661,0.000476193 0.00281036,0.00102768 0.00450756,0.00142451 0.00220392,0.000508754 0.00252749,0.000891336 0.0042715,0.00146725 0.00074278,0.000248272 0.0091596,0.00164633 0.00991866,0.00164633l0.0011274 0 0 0.000356128 0.00244405 0.000217747 0.000757025 -4.07003e-005 0 0.000354093 0.00658531 0.000217747 0.00206554 -4.27353e-005c0.000997157,0 0.00414125,0.000136346 0.00414125,-0.00070615l0 -0.00743594 -0.000225887 -0.00372001c-0.00170534,-0.000791621 -0.00632076,-0.000356128 -0.00880754,-0.000352058 -0.00227311,0 -0.00614167,-0.000466018 -0.00844938,-0.000720395 -0.00196582,-0.000225887 -0.00580793,-0.000950352 -0.00760688,-0.00152016 -0.00151405,-0.000478228 -0.0056431,-0.00201059 -0.00689666,-0.00201059l-0.00561461 -0.00219171c-0.000128206,-0.00108059 -0.00530528,-0.00260889 -0.00604603,-0.00365082l-0.000565734 0c-0.000248272,-0.000347988 -0.00408427,-0.00307084 -0.00484944,-0.00375867 -0.00146521,-0.00132683 -0.00326213,-0.00232602 -0.00463169,-0.00378716 -0.000864881,-0.000923897 -0.00131462,-0.0012556 -0.00196582,-0.00239725 -0.000445668,-0.000781446 -0.00128002,-0.00137363 -0.0019821,-0.00221003 -0.000386653,-0.000455843 -0.000767201,-0.000567769 -0.00114978,-0.00103989 -0.000398863,-0.000498579 -0.000337812,-0.00069801 -0.000801796,-0.00119659 -0.000343917,-0.000370373 -0.00164429,-0.00203908 -0.00173994,-0.00243184l-0.000378513 0.000177046 -0.00075499 -0.00159342 -0.00206961 -0.00416568 -0.00167889 -0.00335777 -0.000197396 8.34356e-005c0,-0.00128613 -0.0016972,-0.00591375 -0.00245016,-0.00619865l-0.00121083 -0.0056431c-0.00118641,-0.0018132 -0.00123322,-0.00841479 -0.00123322,-0.0115324l0 -0.000175011 0.000787551 -0.0118621 0.00175011 -0.00705947 0.00102768 -0.0029813c0.000663415,-0.00123322 0.00206757,-0.00712866 0.00301996,-0.00748885l0 -0.000529104c0,-0.000553524 0.000339847,-0.000502649 0.00075092,-0.00071429l0.00126985 -0.00344935 0.000234027 8.75056e-005 0 -0.000529104 0.000569804 -0.00106635c0.00108059,-0.00067766 0.00141841,-0.00183558 0.00231585,-0.00295484 0.000559629,-0.000687835 0.000156696,-0.000679695 0.000997157,-0.00154254 0.000457878,-0.000470088 0.000921862,-0.000958492 0.00137567,-0.00135735 0.00107856,-0.000954422 0.00158731,-0.00180099 0.00247458,-0.00280629 0.000679695,-0.000773306 0.00200042,-0.00194751 0.00284292,-0.00263738 0.000504684,-0.000425318 0.000814006,-0.000787551 0.00134718,-0.00121083 0.000901512,-0.00071429 0.000712255,-0.000148556 0.00163819,-0.00110908 0.00104396,-0.00108466 0.00199431,-0.00131462 0.00300775,-0.00230771 0.00971109,-0.00953201 0.0326172,-0.0107082 0.045334,-0.00974772 0.0132398,0.00100123 0.0251914,0.00903547 0.0338158,0.0172223 0.000732605,0.000700045 0.000716325,0.000952387 0.00126578,0.00164429 0.000539279,0.000667485 0.000610504,2.64552e-005 0.00142248,0.00149167 0.000478228,0.000883196 0.00175011,0.00275337 0.00263127,0.0031909 4.88404e-005,0.00204519 0.00620476,0.0086366 0.00627802,0.0133965l0.00124543 0.00130444 0 0.00194344c0.0006451,0.000907617 0.00131462,0.00344935 0.00131462,0.0049573l0.000213677 -2.23852e-005 0.00110501 0.00763945 0 0.00920641c0,0.000120066 -0.000563699,0.00392961 -0.000671555,0.00450349 -0.000205536,0.00106024 -0.00065324,0.00371187 -0.00139602,0.00399473l0 0.000712255c0,0.000260482 -0.000671555,0.00154458 -0.000893371,0.00181523 -0.000761095,0.000905582 -4.88404e-005,0.00140213 -0.000991052,0.00172366 0,0.00134514 -0.0013716,0.00380751 -0.00206757,0.00424911l-0.000132276 0.000818076 -0.00137363 0.00272488c-0.000944247,2.03501e-005 -0.00200042,0.00115589 -0.00207164,0.00194547l-0.000559629 0c0,0.00152423 -0.00129223,0.00189053 -0.00233009,0.00276558 -0.000999192,0.000838426 -0.00162191,0.00172162 -0.00272488,0.00239318 -0.00208386,0.00127188 -0.0045564,0.00257836 -0.00661176,0.0038706l-0.0011274 0c-0.000535209,0.000752955 -0.000510789,0.000885231 -0.00188849,0.000877091l-0.000936107 0.000716325c-0.00206961,0.00135328 -0.00807087,0.00195158 -0.0118519,0.00195158l-0.00150998 0c-0.00289379,0 -0.0103501,-0.000814006 -0.0112842,-0.00212863l-0.000940177 0c-0.000818076,-0.000518929 -0.00376274,-0.00160359 -0.00376274,-0.00247458 0,-0.000569804 0.000586084,-0.000541314 0.00112943,-0.000889301l0.00252138 -0.00067766 -7.93656e-005 -0.000207571c0.00111315,0 0.00283071,-0.00126578 0.00337405,-0.00178471 0.000445668,-0.000419213 0.00105617,-0.00063696 0.00168499,-0.000893371 0.00135532,-0.000541314 0.000555559,-0.000588119 0.00123729,-0.00113757 0.00063289,-0.000502649 0.00268825,-0.00172162 0.00300165,-0.00213066 0.000752955,-0.000980877 0.00152219,-0.00155882 0.00218357,-0.00272488 0.000789586,-0.000500614 0.00222427,-0.00212659 0.0022548,-0.00336998l0.000555559 -0.000207571 1.01751e-005 -0.000496544c0,-0.000594224 0.00128816,-0.00281036 0.00149981,-0.00373018 0.000335777,-0.00146521 0.000757025,-0.00264348 0.000757025,-0.00441598 0.000227922,-0.000319497 0.000378513,-0.000311357 0.000378513,-0.00071022l0 -0.0230181c0,-0.00130241 -0.00922879,-0.000555559 -0.0107286,-0.000887266l0 -0.0279733c0,-0.00160766 -0.00235248,-0.00407206 -0.00413515,-0.00407206l-0.00225887 0c-0.000504684,0 -0.000557594,0.000252342 -0.00075092,0.000529104l-0.000942212 0c-0.00172366,0.00242777 -0.00263331,0.00187221 -0.00263331,0.00619865 0,0.00288972 0,0.00578758 0,0.00867323 0,0.00289786 0,0.00578555 0,0.00867934 0,0.00141434 0,0.00283274 0,0.00425115 0,0.000921862 0.000398863,0.0037139 -0.000565734,0.0037139l-0.011854 0c-0.000647135,0 -0.000724465,-0.000128206 -0.00131258,-0.000175011l0 -0.0262069c0,-0.00113147 -0.000380548,-0.00134718 -0.000380548,-0.00247865l-0.00216322 -0.00239928 -0.000846566 -7.52955e-005c-0.000142451,-0.000376478 -0.000431423,-0.00071022 -0.000936107,-0.00071022l-0.00226294 0c-0.00147335,0 -0.00269639,0.00154661 -0.00357349,0.00176843 -2.03501e-005,0.000828251 -6.10504e-005,0.00124543 -0.00075499,0.00141637l0 0.00124339c0,0.000396828 -0.000148556,0.000388688 -0.000374443,0.00070208l-1.42451e-005 0.0269151 -0.0077005 0c-0.00073057,0 -0.00188035,0.000240132 -0.00188035,0.000887266l0 0.0216037 0.000972737 0.00707778 0.000183151 -9.15757e-005 0.00114164 0.00228939c0.000148556,0.000901512 4.27353e-005,0.000866916 0.000602364,0.00145504 0.000588119,0.000614574 0.000260482,0.000512824 0.000573874,0.00122711 0.000409038,0.000927967 0.0011335,0.00127595 0.00159952,0.00203705 0.000522999,0.000850636 0.00264755,0.00365489 0.00358163,0.00388484l0.000565734 0c0.00075906,0.00107652 0.00352261,0.00372204 0.00526458,0.00372204l-8.95406e-005 0.000166871 0.00513434 0.00256005c6.30855e-005,0.00100733 0.00136346,0.00345545 0.00210624,0.00382583l0 0.00071022c0.0010867,0.000103786 0.0028185,0.00375664 0.00414125,0.00389298l0 0.000527069c0.00117217,9.36107e-005 0.00263331,0.00254173 0.00413515,0.00265976l0 0.000531139c0.000818076,1.62801e-005 0.00290804,0.00143265 0.00402119,0.00188442 0.000809936,0.000325602 0.00356535,0.00100123 0.00447093,0.00127595 0.0025397,0.000785516 0.00263738,0.000333742 0.00517708,0.000799761 0.00190884,0.000347988 0.00268011,0.000643065 0.00514452,0.000643065l0.00639809 0 0.00451366 -0.000207571c0.000905582,-0.000533174 0.00346563,-0.00067766 0.00489421,-0.00067766 0.00159138,-0.00100326 0.00296502,-0.0006451 0.00449128,-0.00126374 0.00128206,-0.000512824 0.00269843,-0.00119252 0.00412904,-0.00160563 0.00110705,-0.000319497 0.00696179,-0.0033069 0.00737489,-0.0040395 0.00109687,-2.03501e-005 0.000791621,-0.000179081 0.00132072,-0.00069801 0.000366303,-0.000362233 0.000807901,-0.000374443 0.00131462,-0.000708185 0.000789586,-0.000516894 0.0014062,-0.00129427 0.00210828,-0.0017379 0.000891336,-0.000561664 0.00381972,-0.00292432 0.0039113,-0.00393368 0.00120066,-0.000124136 0.00433865,-0.00453198 0.00526662,-0.00460524l0.000236062 -0.00141027c0.000559629,-0.000217747 0.001046,-0.0012902 0.00122711,-0.00181523 0.000350023,-0.00100326 0.000728535,-0.00101751 0.00120676,-0.00169924 0.000360198,-0.000518929 0.0016565,-0.00330283 0.0016565,-0.00410869l0.000602364 -0.000490439 -0.000223852 -8.75056e-005 0.00163615 -0.00505091c0.00071022,-0.000323567 0.00188035,-0.00714697 0.00214287,-0.00868748 0.000525034,-0.00305863 0.00073464,-0.00652222 0.00073464,-0.0101161l0 -0.00248068c0,-0.00538261 -0.00162598,-0.00999599 -0.00227108,-0.0146847 -0.000242167,-0.00180709 -0.00414125,-0.0110481 -0.00506719,-0.0120514 -0.000527069,-0.000785516 -0.00101751,-0.00286734 -0.00178878,-0.00398252 -0.000586084,-0.000852671 -0.00212659,-0.00249493 -0.00235044,-0.00327637l-0.00131665 -0.00194751 0 -0.000883196c-0.00100326,-0.00063696 -0.0016158,-0.00176639 -0.00236876,-0.00273099 -0.000419213,-0.000533174 -0.00064103,-0.00104396 -0.0010114,-0.00153033 -0.000370373,-0.000492474 -0.000919827,-0.000736675 -0.00139195,-0.00134514 -0.000449738,-0.000573874 -0.00240335,-0.00246847 -0.00248068,-0.00261703 -0.000533174,-0.00101547 4.68053e-005,-0.000638995 -0.000972737,-0.00156696 -0.000820111,-0.000744815 -0.000875056,-0.000305252 -0.00118031,-0.00154458 -0.000327637,-3.66303e-005 -0.00196786,-0.00127392 -0.00245423,-0.00158731 -0.000364268,-0.000240132 -0.00073871,-0.000557594 -0.00115385,-0.000856741 -0.000594224,-0.000437528 -0.000789586,-0.000858776 -0.00107652,-0.00111519 -0.00114775,-0.00100937 -0.00876277,-0.00653647 -0.0101812,-0.00653647l-0.000683765 -3.66303e-005 -0.000445668 -0.00066952 -0.000940177 0c-0.000421248,-0.000596259 -0.00205536,-0.00130851 -0.00291211,-0.00168703 -0.000622714,-0.000272692 -0.00124543,-0.00067359 -0.00159545,-0.000797726 -0.000604399,-0.000209607 -0.00124543,-0.000268622 -0.00190477,-0.000506719 -0.000205536,-7.12255e-005 -0.00384618,-0.000899476 -0.00392961,-0.000909652 -0.000394793,-3.86653e-005 -0.00324992,-0.000803831 -0.00383804,-0.000991052 -0.00427353,-0.0013716 -0.011563,-0.00219171 -0.0172386,-0.00219171l-0.00225887 0c-0.00242777,0 -0.00432034,0.000189256 -0.00658531,0.000177046 -0.00211235,-1.01751e-005 -0.00398049,0.00071022 -0.00620476,0.00071022l-6.10504e-006 0.000335777 -0.00319497 0.000197396c-0.00132072,0.000828251 -0.00778393,0.00197803 -0.00975383,0.0028592 -0.000909652,0.000404968 -0.0017318,0.000404968 -0.00242167,0.000728535 -0.000909652,0.000421248 -0.000934072,0.000801796 -0.00196175,0.0011681 -0.00110705,0.000394793 -0.00317462,0.00176843 -0.0043997,0.00193326l-0.00516894 0.00322346z"/>
   <path id="_199275488" class="fil4" d="M0.223219 0.151676l0.000323567 0.0184372 0.0160095 0 0 0.0760933c0,0 0,0.00422469 0.00415754,0.00452791 0.00416568,0.000301182 0.160443,0.000301182 0.160443,0.000301182 0,0 0.00223852,-0.000293042 0.00367931,-0.00346767 0.00143876,-0.00317259 0.000573874,-0.00231788 0.000573874,-0.00231788l0.000250307 -0.0756211 0.0154071 0 4.07003e-006 -0.0181177 -0.0955195 -0.0645181c0,0 -0.00321736,-0.00178471 -0.00791214,-0.000622714 -0.00469681,0.0011681 -0.00535616,0.00248882 -0.00535616,0.00248882l-0.09206 0.0628168zm0.133035 0.0249879l0 0.0321899c0,0.00572043 -0.00496951,0.0103989 -0.0110481,0.0103989l-0.043126 0c-0.00607248,0 -0.011042,-0.0046785 -0.011042,-0.0103989l0 -0.0321899 0.00660159 0 -0.000150591 -0.00840461 0 -0.000266587c0,-0.0137893 0.0119822,-0.0250714 0.0266261,-0.0250714l2.03501e-006 0c0.014644,0 0.0266241,0.0112821 0.0266241,0.0250714l0 0.000266587 0 0.00840461 0.00551285 0zm-0.032607 0.00841479c0.00425929,0 0.00772288,0.00325399 0.00772288,0.00727314 0,0.00209607 -0.000940177,0.00398456 -0.00245219,0.00531139l0 0.00524423c2.44202e-005,0.000185186 3.66303e-005,0.000372408 3.66303e-005,0.000565734 0,0.00276151 -0.0023769,0.004998 -0.00530732,0.004998 -0.0028999,0 -0.00525441,-0.00218968 -0.00530935,-0.00490642l-7.12255e-005 0 0 -0.00599312c-0.00144486,-0.00132276 -0.00234637,-0.00317462 -0.00234637,-0.00521981 0,-0.00401915 0.00345749,-0.00727314 0.00772695,-0.00727314zm0.0167441 -0.0168194l0 -0.000164836c0,-0.008427 -0.00732198,-0.0153237 -0.016274,-0.0153237l-2.03501e-006 0c-0.0089561,0 -0.0162781,0.00689666 -0.0162781,0.0153237l0 0.000164836 0.000278797 0.00840461 0.0321492 0 0.000126171 -0.00840461zm0.0235146 -0.0757453l0 0.00571229 0.0337487 0.0228491 0 -0.0280974c0,0 -0.000246237,-0.00350023 -0.00284495,-0.00396421 -0.00259464,-0.000463983 -0.0286795,-0.000118031 -0.0286795,-0.000118031 0,0 -0.00296705,0.00128206 -0.00222427,0.00361826zm-0.0398904 0.0249493l-0.0602527 0.0376579 0.000331707 0.0769175 0.11935 0 0.000162801 -0.0754502 -0.0595913 -0.0391252z"/>
   <g>
    <path id="_199275416" class="fil4" d="M1.10758 0.93651l0 -0.0725157c0,-0.00127392 0.00110094,-0.00231178 0.00245626,-0.00231178l0.0298944 0c0.00135328,0 0.00245626,0.00103786 0.00245626,0.00231178l0 0.0732788c0,0.00976604 -0.00708389,0.0177107 -0.0174564,0.0177107 -0.00882586,-2.03501e-006 -0.0173505,-0.010173 -0.0173505,-0.0184739z"/>
    <path id="_199275344" class="fil4" d="M1.09349 0.864128l0 -0.0148739c0,-0.00127799 0.00110501,-0.00231381 0.0024583,-0.00231381l0.0229143 0c0.00135735,0 0.00245423,0.00103582 0.00245423,0.00231381l0 0.00511603 0.00967649 0 0 -0.00511603c0,-0.00127799 0.00110298,-0.00231381 0.00246033,-0.00231381l0.0205821 0c0.00136142,0 0.00246033,0.00103582 0.00246033,0.00231381l0 0.0148719c0,0.00127799 -0.00109891,0.00231178 -0.00246033,0.00231178l-0.0580854 0c-0.00135532,0 -0.00246033,-0.00103379 -0.00246033,-0.00230974zm0.00491456 -0.0125581l0 0.0102422 0.0531729 0 0 -0.0102422 -0.0156696 0 0 0.0051201c0,0.00127595 -0.00109891,0.00231178 -0.00246033,0.00231178l-0.014585 0c-0.00136142,0 -0.00246237,-0.00103582 -0.00246237,-0.00231178l0 -0.0051201 -0.0179956 0z"/>
   </g>
   <path id="_199275248" class="fil1" d="M1.21183 0l0.0846424 0 -0.0011335 0.00664636 -0.0133171 -0.00201263 -0.00214491 0.0125337 -0.0133171 -0.00201263 -0.00214084 0.0125377 -0.0133171 -0.0020228 -0.00212863 0.0125479 -0.0133192 -0.0020167 -0.00214287 0.0125316 -0.0133151 -0.0020167 -0.00210828 0.0123525 -0.0133517 -0.00182134 -0.00200856 0.0117196 -0.0134453 -0.00120676 -0.000991052 0.00578555 -0.0278207 -0.0275134 0.0513597 -0.046032zm0.107441 0l0.0141657 0 -0.00634111 0.0056838 -0.00782463 -0.0056838z"/>
   <path id="_199275176" class="fil1" d="M0.233546 0l0.0806191 0 -0.00186204 0.0109077 -0.013311 -0.00201466 -0.00214491 0.0125357 -0.0133192 -0.0020167 -0.0021388 0.0125377 -0.0133212 -0.0020228 -0.00213066 0.0125438 -0.0133171 -0.00200856 -0.0021388 0.0125337 -0.0133192 -0.00202077 -0.00210828 0.0123525 -0.0133558 -0.00182541 -0.00200245 0.0117217 -0.0134453 -0.00120269 -0.000991052 0.00578148 -0.0278227 -0.0275114 0.0561094 -0.0502913zm0.0916835 0l0.0299229 0 -0.0110908 0.00994105 -0.012322 -0.0089561 -0.00651001 -0.000984947z"/>
   <path id="_199275104" class="fil1" d="M0.810917 0.155416l-0.0021795 -0.0142207 -0.00215305 0.0142207 -0.0103582 1.01751e-005 -0.00301793 -0.0318317 -0.00296095 0.0318337 -0.0103623 2.03501e-006 -0.0021734 -0.0142125 -0.00215915 0.0142207 -0.00700045 2.03501e-006c0.00131462,-0.00908227 0.00350023,-0.0242045 0.00354093,-0.0246501 0.00247458,-0.0260462 0.0397255,-0.0261906 0.0422469,-2.84902e-005 4.68053e-005,0.000443633 0.00224666,0.0155699 0.00357552,0.02464l-0.00699842 1.42451e-005zm0.0122711 -0.0253827c-0.000966632,-0.0103135 -0.00671758,-0.0192757 -0.0158385,-0.023885 0.000144486,-0.00073464 0.000252342,-0.00148556 0.000252342,-0.0022548 -4.07003e-006,-0.00538465 -0.00335981,-0.00997564 -0.00817465,-0.0121653l-3.86653e-005 -0.048997c0,-0.00281646 -0.00242574,-0.00509161 -0.00541517,-0.00509161l-0.00166261 2.03501e-006c-0.00143469,0 -0.00281036,0.000545384 -0.00382379,0.0014937 -0.00100733,0.000954422 -0.00158731,0.00225276 -0.00158121,0.00360401l4.07003e-005 0.048997c-0.00481077,0.00219171 -0.00816448,0.00679898 -0.00816041,0.0121796 0,0.000769236 0.000115996,0.00151609 0.000266587,0.0022548 -0.00911687,0.00462152 -0.0148617,0.0135837 -0.015808,0.0239012 -0.00065324,0.00711441 -0.00323567,0.0240905 -0.00473344,0.0336225 -0.000270657,0.00171348 0.000274727,0.00344731 0.00146928,0.00475583 0.00120473,0.00130648 0.0029467,0.00205333 0.00478025,0.00204722l0.0569743 -3.66303e-005c0.00182744,-4.07003e-006 0.00356942,-0.00075499 0.00476397,-0.00206147 0.00120066,-0.00131258 0.00173994,-0.00304235 0.00147132,-0.00474565 -0.00150591,-0.00953811 -0.00411887,-0.0265081 -0.00478228,-0.0336205z"/>
   <path id="_199275032" class="fil0" d="M0.686335 0l-8.54706e-005 0.00123118c-0.00196175,0.030456 -0.000651205,0.0339054 -0.000651205,0.0339054l0.066374 0 0 -0.0351366 -0.0656374 0z"/>
   <path id="_199274960" class="fil0" d="M0.966359 0.469704c0,0 -0.0100631,0.000545384 -0.0112129,0.00703912 -0.00115182,0.0064978 -0.000575909,0.0563048 -0.000575909,0.0563048l-0.105807 0c0,0 -0.00718564,0.0018946 -0.00459913,0.011099 0.00258854,0.00920234 0.0273119,0.0216546 0.0442799,0.0322082 0.0169618,0.0105577 0.0448517,0.00108466 0.0454256,0.0173282 0.000571839,0.0162394 -0.0209891,0.0251752 -0.0227148,0.0322102 -0.00172162,0.00704115 0,0.0108303 0,0.0108303l0.0684274 0c0,0 0.00402526,0 0.00431423,-0.0073057 0.000284902,-0.00731588 0,-0.0877071 0,-0.0877071 0,0 0.000284902,-0.0027086 0.00503259,-0.00474158 0.00474362,-0.00202687 0.00847991,-0.000675625 0.00847991,-0.00717139 0,-0.00649577 0.000284902,-0.057656 0.000284902,-0.057656 0,0 -0.000858776,-0.00297723 -0.00718564,-0.00297723 -0.00632686,0 -0.0241495,0.000539279 -0.0241495,0.000539279zm-0.10819 0.0451305c0,0 -0.013079,0.00123322 -0.015401,0.00767608 -0.00232602,0.00643879 0.00392147,0.00520353 0.00842496,0.00547622 0.00450552,0.000276762 0.0986595,0.000551489 0.0986595,0.000551489 0,0 0.00217747,-0.0108283 -0.00334149,-0.0128816 -0.00552303,-0.00205333 -0.088342,-0.000822146 -0.088342,-0.000822146z"/>
   <path id="_199274888" class="fil5" d="M0.486582 0l0 0.0575339c0,0.00545791 0.00469885,0.00988407 0.0105027,0.00988407l0.0113411 0c0.00580386,0 0.0104986,-0.00442616 0.0104986,-0.00988407l0 -0.0575339 -0.0323425 0z"/>
   <path id="_199274816" class="fil5" d="M1.45621 0.287425l0.0536267 0 0 -0.00531953c0,-0.0123851 -0.0106513,-0.0224198 -0.0238076,-0.0224198l-0.065906 0 0 0.0277393 0.00806069 0 0.00290193 0.00272895c0.000545384,0.000514859 0.000850636,0.00121694 0.000850636,0.00194751 0,0.000724465 -0.000305252,0.00142451 -0.000852671,0.00193326l-0.00172976 0.00163208c-0.000553524,0.000512824 -0.000858776,0.00121694 -0.000858776,0.00194547 0,0.00073057 0.000305252,0.00142655 0.000852671,0.00193937l0.0017379 0.00163615c0.00113961,0.00107856 0.00113961,0.00280832 0,0.00388484l-0.0017318 0.00163412c-0.00114164,0.00106838 -0.00114164,0.00280222 0,0.0038767l0.0017318 0.00163615c0.000545384,0.000516894 0.000850636,0.0012088 0.000850636,0.00193733 0,0.00073464 -0.000305252,0.00143469 -0.000852671,0.00194547l-0.00180099 0.00169517c-0.00109891,0.00103175 -0.00114164,0.00268011 -0.000109891,0.00377495 0.00179081,0.00187832 0.00361826,0.0039581 0.00361826,0.0039581l-0.012668 0 0 0.00799964 -0.010928 0 0 0.0117339 0.010928 0 0 0.00799557 0.00769439 0 0.00326823 0.00307898c0.00113961,0.00107652 0.00113961,0.00281646 0,0.00388281l-0.00215915 0.00203908c-0.000329672,0.000307287 -0.000425318,0.000771271 -0.000248272,0.00117217 0.000177046,0.000404968 0.000596259,0.00066952 0.00105821,0.00066952l0.0264735 0 0 -0.0108426 0.0124502 0 0 0.0982098c0,0.00602161 0.00517911,0.0109077 0.0115731,0.0109077l0.00848805 0c0.00639402,0 0.0115833,-0.00488607 0.0115833,-0.0109077l0 -0.0982098 0.00953201 0 0 -0.0277291 -0.00953201 0 0 -0.0108019 -0.0316445 0 0 0.0108019 -0.0124502 0 0 -0.0381057z"/>
   <g>
    <polygon id="_199274744" class="fil5" points="0.199954,0.370676 0.16798,0.371632 0.168286,0.380947 0.176763,0.380688 0.179039,0.44834 0.173404,0.455176 0.17994,0.475265 0.194985,0.474814 0.200134,0.454103 0.194077,0.447895 0.191796,0.380238 0.200262,0.379988 "/>
    <path id="_199274672" class="fil5" d="M0.160219 0.309436l0.001976 0.0588852 0.043301 -0.00130037 -0.00201059 -0.0599454c-7.32605e-005,-0.00216526 -0.00106024,-0.00421859 -0.0027493,-0.00571025 -0.00167482,-0.00148149 -0.00391537,-0.00227922 -0.00621493,-0.00221003l-0.0247844 0.000736675c-0.00542942,0.000162801 -0.00969074,0.00443837 -0.00951776,0.00954422z"/>
   </g>
   <path id="_199274576" class="fil1" d="M0.456063 0.626095c0,0 -0.00280629,-0.000940177 -0.00496544,-0.0100652 -0.00190884,-0.00809122 -0.0110461,-0.00613964 -0.0154641,-0.00413922 -0.00318073,0.00143469 -0.00953811,0.00593614 -0.00953811,-0.00539075 0,-0.0113269 -0.00787754,-0.00393165 -0.0134392,-0.00821535 -0.00560443,-0.00430813 -0.00261499,-0.00856131 -0.0050855,-0.0105393 -0.00508957,-0.00407817 -0.0188707,-0.00587916 -0.0188707,-0.00587916l0.0673631 0 0 0.044229zm0.00762113 -0.0304072l0 -0.0209912 -0.14669 0 0 0.0209912 -0.0199147 0 0 0.0621514 0.0856049 0.0129651 0 0.0343673 -0.00773102 0 0 0.0634619 0.0310828 0 0 -0.0634619 -0.00861218 0 0 -0.0455172 -0.0856171 -0.0129691 0 -0.0371126 0.00518725 0 0 0.0209993 0.14669 0 0 -0.0209993 0.00589951 0 0 -0.0138849 -0.00589951 0z"/>
   <path id="_199274504" class="fil5" d="M0.63395 0.818648c0,-0.0163859 -0.0141128,-0.0296787 -0.0315264,-0.0296787l-0.0497561 0 0 0.00495119 -0.0035918 0 0 -0.0116403 -0.0211275 0 0 0.0467585 0.0211275 0 0 -0.0116362 0.0035918 0 0 0.00495119 0.0152097 0 0 0.0960486c0,0.00441395 0.00379734,0.00798743 0.00848601,0.00798743l0.00916571 0c0.00469071,0 0.00848805,-0.00357349 0.00848805,-0.00798743l0 -0.0960486 0.0399331 0 0 -0.00370576z"/>
   <g>
    <path id="_199274432" class="fil5" d="M1.56879 0.0376518c0.00336998,5.69804e-005 0.00605213,0.00268215 0.00598701,0.00585881l-0.000470088 0.0225174c-6.91905e-005,0.00316241 -0.00285513,0.00569397 -0.00622104,0.00563089l-0.00497765 -8.95406e-005 -0.000842496 0.0410422 -0.00604399 -0.000111926 0.000852671 -0.0410442 -0.00497154 -9.36107e-005c-0.00161377,-3.25602e-005 -0.00315631,-0.00066138 -0.00428574,-0.00176232 -0.00111315,-0.00109687 -0.00173383,-0.00257022 -0.00169517,-0.00409852l0.000459913 -0.0225032c3.66303e-005,-0.0015283 0.000716325,-0.00297723 0.00187628,-0.00403543 0.00117217,-0.00105617 0.00273709,-0.00163208 0.00435493,-0.00159545l0.0049634 9.15757e-005 0.000301182 -0.0141088 0.00603178 0.000115996 -0.000284902 0.0140986 0.00496544 8.75056e-005zm0.0199513 -0.0089622c0.000246237,-0.0120188 -0.00989424,-0.0219619 -0.0226721,-0.0221939l-0.00924711 -0.000175011c-0.0127799,-0.000236062 -0.0233294,0.00932851 -0.0235756,0.0213534l-0.0020981 0.101368 0.0554908 0.00102158 0.00210217 -0.101374z"/>
    <path id="_199274360" class="fil5" d="M1.52676 0.0834967l-0.0026679 -4.47703e-005c-0.00189256,-3.45952e-005 -0.00368745,0.000752955 -0.004882,0.00214084 -0.00118031,0.00138788 -0.0016158,0.00321329 -0.00117827,0.00495119l0.00304438 0.0119232 -0.00353889 0.0118234c-0.000508754,0.00171145 -0.000150591,0.0035511 0.000974772,0.00497968 0.00112943,0.00142655 0.00289583,0.00229143 0.00479042,0.00232602l0.00266587 5.08754e-005 0.000791621 -0.0381504z"/>
    <polygon id="_199274288" class="fil5" points="1.53552,0.148509 1.58083,0.179234 1.58175,0.13498 1.53582,0.134144 "/>
   </g>
   <path id="_199136696" class="fil4" d="M0.961498 1.06874c0.00857555,-0.0145768 0.0280934,-0.0198536 0.0435778,-0.0117848 0.0154865,0.00807901 0.0210909,0.0264491 0.0125133,0.04103 -0.0061722,0.0104946 -0.0180058,0.0161662 -0.029929,0.015515l-0.00789586 0.0134291 -0.00750717 0.0024176 0.000447703 0.00957474 -0.00434272 0.00737693 -0.00790807 0.000390723 0.00411276 0.00606841 -0.00407613 0.00692923 -0.0170392 0.00285106 -0.00720802 -0.0154946 0.0271674 -0.0461887c-0.00691091,-0.00916774 -0.00808104,-0.021622 -0.00191291,-0.0321146zm0.0260217 -0.00179895c0.00273709,-0.00464594 0.00895813,-0.00633297 0.013893,-0.00375664 0.00493695,0.00257226 0.00672776,0.0084331 0.00399066,0.013079 -0.00273302,0.00464797 -0.00895406,0.00632686 -0.013891,0.0037546 -0.00493695,-0.00257429 -0.00672165,-0.00842903 -0.0039927,-0.013077z"/>
   <path id="_199136624" class="fil4" d="M0.919572 0.808709c0,0 0.0108222,0.00115996 0.0249534,-0.00928984 0.0141291,-0.0104498 0.0571595,-0.0574546 0.0571595,-0.0574546 0,0 0.0201385,-0.0208569 -0.00279408,-0.0525298 -0.0229326,-0.031677 -0.0596809,-0.0105658 -0.0665999,-0.00500207 -0.00691701,0.00555559 -0.0128654,0.0122976 -0.0128654,0.0122976 0,0 -0.0234902,-0.0310116 -0.0509344,-0.0205964 -0.0274483,0.0104172 -0.0427577,0.0286815 -0.03917,0.0517341 0.00358366,0.0230425 0.0149553,0.0292126 0.0327759,0.0458123 0.0178166,0.0166037 0.0295423,0.0282765 0.0352261,0.0313596 0.00568787,0.00308915 0.00950148,0.00297926 0.0222488,0.00366913zm0.00114368 -0.0222386c0,0 0.00773916,0.000834356 0.0178471,-0.00664229 0.01011,-0.00747664 0.0408834,-0.041091 0.0408834,-0.041091 0,0 0.0164205,-0.0177942 -0.00200245,-0.0375704 -0.0184189,-0.0197803 -0.0366954,0.00109077 -0.0416384,0.00506719 -0.00495323,0.00397438 -0.0171287,0.0151364 -0.0171287,0.0151364 0,0 -0.0279733,-0.0309973 -0.0455192,-0.0245586 -0.0175479,0.00644489 -0.0238361,0.0196481 -0.0193998,0.0329306 0.0044404,0.0132825 0.0131096,0.0198068 0.0258508,0.031675 0.0127453,0.0118743 0.0211296,0.0202219 0.0251976,0.0224238 0.00406392,0.00221206 0.00679898,0.00213473 0.0159097,0.00262924z"/>
   <g>
    <path id="_199136552" class="fil2" d="M1.28003 0.742402c-0.00552099,0.00738507 -0.0114449,0.0121918 -0.0132337,0.0174604 -0.00120269,0.00409038 -0.00123932,0.0072182 -0.00162191,0.00884214 -0.000584049,0.00160156 -0.000126171,0.0013716 -0.00231585,0.00225887 -0.00200449,0.00067766 -0.0106207,0.00124746 -0.0187689,0.00120676 -0.0081543,4.07003e-005 -0.0167685,-0.000529104 -0.0187588,-0.00120066 -0.00218154,-0.000881161 -0.00173587,-0.000663415 -0.00230771,-0.00226497 -0.000386653,-0.00162394 -0.000429388,-0.00475176 -0.00161987,-0.00884214 -0.0017786,-0.00526865 -0.00771474,-0.0100754 -0.0132296,-0.0174604 -0.00553117,-0.00724058 -0.0105658,-0.0161865 -0.0105658,-0.0275154 0,-0.0113045 0.0053643,-0.0215651 0.0138381,-0.0290641 0.00846973,-0.00749292 0.0200083,-0.0121205 0.0320963,-0.0121165l0.00110501 -4.07003e-006c0.0120921,-2.03501e-006 0.0236428,0.00462966 0.0321024,0.0121205 0.00847177,0.00749903 0.0138422,0.0177616 0.0138422,0.0290641 6.10504e-006,0.0113289 -0.0050387,0.0202749 -0.0105617,0.0275154zm-0.0450003 -0.0457349l-0.00541517 0.0390926 0.020283 -0.0166607 -0.00370983 0.0282236 0.00516487 -0.00316445 0.00849822 -0.0441354 -0.0235614 0.0214022 0.00146725 -0.0222081 -0.00272692 -0.00254987z"/>
    <polygon id="_199136480" class="fil2" points="1.2279,0.778143 1.2603,0.778143 1.2603,0.771022 1.2279,0.771022 "/>
    <polygon id="_199136408" class="fil2" points="1.2279,0.787724 1.2603,0.787724 1.2603,0.780605 1.2279,0.780605 "/>
    <polygon id="_199136336" class="fil2" points="1.2279,0.797079 1.2603,0.797079 1.2603,0.789964 1.2279,0.789964 "/>
   </g>
   <g>
    <path id="_199136240" class="fil4" d="M0.966667 1.25057c0.00462152,-0.00617627 0.00957474,-0.0102076 0.0110786,-0.0146094 0.00100326,-0.003429 0.00103582,-0.00604806 0.00135532,-0.00740745 0.000488404,-0.00133497 0.000107856,-0.00114775 0.00193733,-0.00189256 0.00167685,-0.000565734 0.00889098,-0.00103989 0.0157144,-0.00100326 0.0068234,-3.66303e-005 0.0140355,0.000437528 0.0156961,0.00100123 0.00182948,0.000740745 0.00145504,0.000555559 0.0019353,0.0018946 0.000321532,0.00135939 0.000360198,0.00397845 0.00135939,0.00740745 0.00148556,0.00440174 0.0064571,0.0084331 0.0110705,0.0146094 0.00462762,0.00606231 0.00884621,0.0135491 0.00884621,0.0230364 0,0.00945875 -0.00449331,0.0180485 -0.0115833,0.0243266 -0.00709203,0.00627395 -0.0167522,0.0101445 -0.0268683,0.0101425l-0.000923897 2.03501e-006c-0.0101242,2.03501e-006 -0.0197905,-0.00387467 -0.0268724,-0.0101445 -0.00708999,-0.00627802 -0.0115894,-0.0148699 -0.0115894,-0.0243266 0,-0.00948724 0.00421859,-0.0169741 0.00884417,-0.0230364zm0.0376681 0.0382847l0.00453401 -0.032721 -0.0169802 0.013948 0.00310543 -0.0236286 -0.00432034 0.00264959 -0.00711848 0.0369437 0.0197213 -0.0179183 -0.00122508 0.0185919 0.00228329 0.00213473z"/>
    <polygon id="_199136168" class="fil4" points="1.0103,1.22066 0.983185,1.22066 0.983185,1.22662 1.0103,1.22662 "/>
    <polygon id="_199136096" class="fil4" points="1.0103,1.21263 0.983185,1.21263 0.983185,1.21859 1.0103,1.21859 "/>
    <polygon id="_199136024" class="fil4" points="1.0103,1.20481 0.983185,1.20481 0.983185,1.21076 1.0103,1.21076 "/>
   </g>
   <path id="_199135928" class="fil1" d="M1.10547 1.02606l0.00314817 0.0205089 0.0031095 -0.0205089 0.014935 -1.42451e-005 0.00434883 0.0459038 0.00426946 -0.0459079 0.0149431 -8.14006e-006 0.00314003 0.0205028 0.00311764 -0.0205068 0.0100896 -8.14006e-006c-0.00189053,0.0130994 -0.00504277,0.0349066 -0.00510789,0.0355497 -0.00356942,0.0375623 -0.0572816,0.037776 -0.0609243,4.27353e-005 -6.30855e-005,-0.00064103 -0.00324381,-0.0224523 -0.00515469,-0.0355354l0.0100855 -1.83151e-005zm-0.0176945 0.0366099c0.00139602,0.0148699 0.00969278,0.0277881 0.0228471,0.0344467 -0.000211642,0.00105414 -0.000368338,0.00213677 -0.000368338,0.00324992 6.10504e-006,0.00775748 0.00484537,0.0143814 0.0117929,0.0175398l5.69804e-005 0.0706639c0,0.00405578 0.00349005,0.00734437 0.00780225,0.00734437l0.00240335 -1.01751e-005c0.00206757,0 0.00404968,-0.000779411 0.00551285,-0.00214694 0.00145707,-0.00138585 0.00228736,-0.00325195 0.00227922,-0.00519539l-5.29104e-005 -0.0706639c0.0069333,-0.00316852 0.0117665,-0.00980674 0.0117583,-0.0175662 0,-0.00110501 -0.000160766,-0.00218968 -0.000376478,-0.00324788 0.0131482,-0.00666874 0.0214307,-0.0195931 0.0227942,-0.0344752 0.000940177,-0.0102544 0.00467036,-0.0347438 0.00682747,-0.0484944 0.000390723,-0.0024644 -0.000390723,-0.0049634 -0.00212252,-0.00685189 -0.0017318,-0.00188646 -0.00424301,-0.00295688 -0.00688852,-0.00295484l-0.0821658 5.08754e-005c-0.00264145,1.01751e-005 -0.00515266,0.0010928 -0.00687224,0.00297519 -0.0017318,0.00188849 -0.00251121,0.00438342 -0.00212863,0.00684375 0.00217747,0.0137587 0.00594835,0.0382318 0.00690073,0.0484924z"/>
   <path id="_199135856" class="fil0" d="M1.25153 1.00368c0,0 0.029349,-0.0205598 0.0502099,-0.0503463 0.0208589,-0.0297804 0.0135593,-0.0670944 -0.0125153,-0.0841133 -0.0260726,-0.0170188 -0.0688507,-0.0091128 -0.0841499,0.0213229 -0.0152931,0.0304397 0.00071836,0.0585413 0.0163636,0.0778495 0.0156391,0.0193103 0.0300918,0.0352872 0.0300918,0.0352872zm0.00502038 -0.108926c0.0147783,0 0.0267625,0.0112821 0.0267625,0.0251996 0,0.0139154 -0.0119842,0.0251996 -0.0267625,0.0251996 -0.0147823,0 -0.0267706,-0.0112842 -0.0267706,-0.0251996 0,-0.0139175 0.0119883,-0.0251996 0.0267706,-0.0251996zm0 0.0153786c0.00575502,0 0.0104254,0.0043936 0.0104254,0.00982098 0,0.00542128 -0.00467036,0.00981895 -0.0104254,0.00981895 -0.0057652,0 -0.0104335,-0.00439767 -0.0104335,-0.00981895 0,-0.00542738 0.00466832,-0.00982098 0.0104335,-0.00982098zm-0.00367727 0.0736044c0,0 0.0211865,-0.0148353 0.0362355,-0.0363291 0.0150571,-0.0214938 0.00978639,-0.0484171 -0.00902733,-0.0607004 -0.0188178,-0.0122793 -0.0496869,-0.00657513 -0.0607228,0.0153888 -0.011042,0.0219639 0.000514859,0.0422428 0.0118011,0.0561786 0.0112903,0.0139297 0.0217136,0.0254621 0.0217136,0.0254621z"/>
   <g>
    <polygon id="_199135784" class="fil5" points="1.36188,0.691995 1.33605,0.692766 1.3363,0.700287 1.34315,0.700078 1.34499,0.754722 1.34044,0.760245 1.34571,0.776468 1.35787,0.776106 1.36203,0.75938 1.35713,0.754362 1.35529,0.699715 1.36213,0.699514 "/>
    <path id="_199135712" class="fil5" d="M1.32979 0.642529l0.00159545 0.0475603 0.0349738 -0.00105007 -0.00162394 -0.048415c-5.90154e-005,-0.00174808 -0.000856741,-0.00340865 -0.0022202,-0.00461338 -0.00135328,-0.00119659 -0.00316241,-0.00184169 -0.00502038,-0.00178674l-0.0200184 0.000598294c-0.00438546,0.000128206 -0.00782667,0.00358163 -0.00768625,0.0077066z"/>
   </g>
   <path id="_199135616" class="fil0" d="M1.4267 0.567118c-0.00174197,0.000390723 -0.00294467,0.00217543 -0.00423487,0.002499l-0.000447703 9.15757e-005 -0.00560443 0.00436511 -0.000126171 -0.000138381c-0.000404968,0.00163412 -0.00202484,0.00195158 -0.00212252,0.0029874 -0.00104193,0.000111926 -0.00114775,0.00172773 -0.00246847,0.00182948l0.000179081 0.000122101 -0.0033537 0.00419824 0 0.000496544c-0.000103786,0.00109891 -0.00376478,0.00601347 -0.00434476,0.0075438 -0.000429388,0.00111926 -0.00145097,0.00260482 -0.00201263,0.00391944 -0.000378513,0.000887266 -0.0006451,0.00105617 -0.000993087,0.0020574 -0.000295077,0.000846566 -0.000309322,0.00152423 -0.000948317,0.00193123l-0.00126171 0.00409038 0.000205536 6.10504e-005c-0.00135532,0.0018946 -0.00318073,0.0154987 -0.00318073,0.0192696l0 0.00199431c0,0.00307694 0.000238097,0.00574688 0.000347988,0.00864271 8.95406e-005,0.00253563 0.00141841,0.00580386 0.00141841,0.00763945l0 0.000500614c0.000826216,0.000309322 0.00233009,0.00720395 0.0028246,0.0084738 0.000545384,0.00138381 0.000913722,0.0028185 0.00147335,0.00425725 0.000461948,0.00118845 0.00205333,0.00265162 0.00205333,0.00354703l0 0.000836391 0.000531139 0c1.22101e-005,0.000551489 0.0035918,0.00611522 0.00413311,0.00673997 0.000868951,0.00101344 0.00167278,0.00188442 0.0025458,0.00292228 0.000453808,0.000535209 0.000779411,0.000972737 0.00125153,0.00147539 0.000457878,0.000492474 0.00101547,0.000946282 0.00138177,0.00135735 0.00153033,0.00172366 0.0101914,0.00924914 0.0122264,0.00976197 0.000282867,0.00100123 0.00550064,0.00333742 0.00666874,0.00418806 0.000999192,0.000724465 0.00630244,0.00251731 0.00791621,0.00301386 0.00144893,0.000447703 0.00263534,0.000968667 0.00422469,0.00133904 0.00206961,0.000476193 0.00237486,0.000836391 0.00401101,0.00137567 0.00069801,0.000231992 0.00859183,0.00154458 0.00930612,0.00154458l0.00105414 0 0 0.000331707 0.0022955 0.000205536 0.00071022 -3.66303e-005 0 0.000331707 0.0061783 0.000207571 0.00193733 -4.27353e-005c0.000938142,0 0.00388484,0.000126171 0.00388484,-0.00066545l0 -0.006974 -0.000211642 -0.00349209c-0.00159749,-0.000740745 -0.00593003,-0.000335777 -0.00826419,-0.000325602 -0.00213066,0 -0.00575909,-0.000441598 -0.00792638,-0.00067766 -0.00184372,-0.000213677 -0.00544773,-0.000891336 -0.00713476,-0.00142655 -0.00142044,-0.000447703 -0.00529511,-0.00188442 -0.00647135,-0.00188442l-0.00526865 -0.0020574c-0.000122101,-0.00101344 -0.00497968,-0.00244812 -0.00567362,-0.00342493l-0.000531139 0c-0.000231992,-0.000329672 -0.0038299,-0.00288565 -0.00454826,-0.00352668 -0.00137363,-0.0012495 -0.00306066,-0.00218154 -0.00434476,-0.0035511 -0.000814006,-0.000868951 -0.00123525,-0.00118031 -0.00184576,-0.00225276 -0.000419213,-0.00073057 -0.00120269,-0.00128613 -0.00186,-0.00207571 -0.000362233,-0.000427353 -0.000720395,-0.000531139 -0.00107856,-0.000974772 -0.000374443,-0.000463983 -0.000319497,-0.000651205 -0.000752955,-0.00112129 -0.000321532,-0.000345952 -0.00154051,-0.00191088 -0.00163005,-0.00227922l-0.000356128 0.000162801 -0.00071022 -0.0014937 -0.0019414 -0.00390723 -0.00157307 -0.00315224 -0.000187221 7.93656e-005c0,-0.0012088 -0.00159342,-0.00554542 -0.00229753,-0.00582014l-0.00113757 -0.00529307c-0.00111315,-0.0016972 -0.00115589,-0.00789382 -0.00115589,-0.0108181l0 -0.000166871 0.000740745 -0.0111275 0.00164022 -0.00662397 0.000964597 -0.00279611c0.000620679,-0.00115792 0.00193937,-0.00668706 0.00283274,-0.00702487l0 -0.000500614c0,-0.000514859 0.000319497,-0.000470088 0.000704115,-0.000667485l0.00119048 -0.00323364 0.000219782 7.93656e-005 0 -0.000498579 0.000535209 -0.000995122c0.00101547,-0.00064103 0.0013309,-0.00172366 0.0021734,-0.00277373 0.000525034,-0.000647135 0.000146521,-0.000638995 0.000936107,-0.00144893 0.000429388,-0.000441598 0.000864881,-0.000897441 0.00128816,-0.00127595 0.00101344,-0.000895406 0.00149167,-0.00168499 0.00232399,-0.00263127 0.00063696,-0.0007265 0.00187628,-0.00182744 0.00266587,-0.00247661 0.000476193,-0.000396828 0.000763131,-0.00073464 0.00126578,-0.00113147 0.000846566,-0.00066952 0.000667485,-0.000140416 0.00153644,-0.00103989 0.000978842,-0.00102158 0.00187221,-0.00123525 0.00282257,-0.00216526 0.00910873,-0.00894592 0.0306026,-0.0100489 0.0425338,-0.00914943 0.0124217,0.000940177 0.0236326,0.00847584 0.0317279,0.0161601 0.0006858,0.000659345 0.00066952,0.000893371 0.00118845,0.00154254 0.000504684,0.00062882 0.000569804,2.44202e-005 0.00133497,0.00140009 0.000447703,0.000828251 0.00163819,0.00258447 0.00246644,0.00299351 4.47703e-005,0.00191698 0.00582218,0.00810343 0.00589137,0.0125662l0.00116606 0.00122508 0 0.00182744c0.000606434,0.000848601 0.00123525,0.00323567 0.00123525,0.00464797l0.000199431 -1.83151e-005 0.00103786 0.00716325 0 0.00864067c0,0.000111926 -0.000531139,0.00368541 -0.000630855,0.00422062 -0.000191291,0.00100123 -0.000612539,0.00348598 -0.00131055,0.00375257l0 0.00066952c0,0.000242167 -0.000626785,0.00145097 -0.000836391,0.00170127 -0.00071429,0.000850636 -4.68053e-005,0.00131869 -0.000930002,0.00161784 0,0.00126171 -0.00128816,0.00357349 -0.0019414,0.00398456l-0.000124136 0.000769236 -0.00128816 0.00255801c-0.000885231,1.62801e-005 -0.00187425,0.00108466 -0.00194547,0.00182541l-0.000522999 0c0,0.00143062 -0.00121287,0.00177453 -0.00218561,0.00259668 -0.000938142,0.000783481 -0.00152423,0.00161377 -0.00255598,0.00224055 -0.00195565,0.00119455 -0.00427557,0.00241963 -0.00620476,0.00363047l-0.00105821 0c-0.000502649,0.000708185 -0.000478228,0.000832321 -0.00177046,0.000826216l-0.000879126 0.00067359c-0.00194344,0.00126985 -0.00757229,0.00182948 -0.0111193,0.00182948l-0.00141637 0c-0.00271674,0 -0.00971109,-0.000763131 -0.0105882,-0.00199635l-0.000883196 0c-0.000765166,-0.000486369 -0.00352872,-0.00150591 -0.00352872,-0.00232195 0,-0.000537244 0.000547419,-0.000508754 0.00106024,-0.000836391l0.00236265 -0.000634925 -7.32605e-005 -0.000193326c0.001046,0 0.00265569,-0.00118845 0.00316852,-0.00167278 0.000417178,-0.000398863 0.000989017,-0.000600329 0.00157917,-0.000842496 0.00127188,-0.000504684 0.000520964,-0.000553524 0.00115996,-0.00106635 0.000594224,-0.000472123 0.00252138,-0.00161377 0.0028185,-0.00200042 0.00070615,-0.000917792 0.00142655,-0.00146114 0.00204722,-0.00255801 0.000740745,-0.000468053 0.00208793,-0.00199024 0.00211438,-0.00316241l0.000520964 -0.000193326 1.01751e-005 -0.000463983c0,-0.000557594 0.0012088,-0.00263738 0.00140823,-0.00349819 0.000315427,-0.00137363 0.00071022,-0.00248068 0.00071022,-0.00414125 0.000213677,-0.000303217 0.000356128,-0.000297112 0.000356128,-0.000667485l0 -0.0215996c0,-0.00122304 -0.00865899,-0.000520964 -0.0100672,-0.000832321l0 -0.0262456c0,-0.00150795 -0.00220596,-0.00382176 -0.00388077,-0.00382176l-0.00211642 0c-0.000476193,0 -0.000525034,0.000240132 -0.000708185,0.000498579l-0.000883196 0c-0.0016158,0.00227718 -0.00247051,0.00175418 -0.00247051,0.00581607 0,0.00271064 0,0.00542738 0,0.00813802 0,0.00271471 0,0.00542738 0,0.00814209 0,0.00132683 0,0.0026618 0,0.00398659 0,0.000862846 0.000376478,0.00348598 -0.000531139,0.00348598l-0.0111214 0c-0.000606434,0 -0.000679695,-0.000122101 -0.00123118,-0.000162801l0 -0.0245911c0,-0.00105821 -0.000356128,-0.00125967 -0.000356128,-0.00232195l-0.00203094 -0.00225073 -0.000793656 -7.52955e-005c-0.000132276,-0.000350023 -0.000404968,-0.00066545 -0.000879126,-0.00066545l-0.00212252 0c-0.00138381,0 -0.00252952,0.00145504 -0.00335167,0.00166261 -2.03501e-005,0.000775341 -5.69804e-005,0.00116606 -0.000708185,0.00132886l0 0.00116199c0,0.000372408 -0.000138381,0.000370373 -0.000352058,0.00066545l-1.22101e-005 0.0252484 -0.00722837 0c-0.000683765,0 -0.00176232,0.000225887 -0.00176232,0.000832321l0 0.0202687 0.000913722 0.00664229 0.000172976 -8.95406e-005 0.00106838 0.00215101c0.000138381,0.000844531 3.86653e-005,0.000814006 0.000567769,0.00136549 0.000551489,0.000575909 0.000242167,0.000486369 0.000537244,0.00114775 0.000382583,0.000873021 0.00106228,0.00120269 0.00149981,0.00191495 0.000492474,0.000797726 0.00248475,0.003429 0.00335981,0.00364471l0.000531139 0c0.000712255,0.00100733 0.00330486,0.00349616 0.00494102,0.00349616l-8.75056e-005 0.000154661 0.00481891 0.00239928c5.90154e-005,0.000948317 0.00128002,0.00324585 0.00197803,0.00359384l0 0.00066138c0.00101954,0.000103786 0.00264145,0.00352465 0.00388484,0.00365489l0 0.000494509c0.00109891,8.54706e-005 0.00246847,0.002383 0.00388077,0.00249289l0 0.000496544c0.000765166,1.83151e-005 0.00272895,0.00135125 0.00377088,0.00177046 0.00075906,0.000307287 0.00334556,0.000940177 0.0041962,0.00119659 0.00238097,0.00073871 0.00247254,0.000313392 0.00485758,0.00075092 0.00178878,0.000325602 0.00251324,0.000606434 0.00482705,0.000606434l0.00600126 0 0.0042369 -0.000193326c0.000848601,-0.000502649 0.00324992,-0.000638995 0.00459099,-0.000638995 0.0014937,-0.000940177 0.00278187,-0.000602364 0.00421248,-0.00118641 0.00120269,-0.000482298 0.00253359,-0.00111722 0.00387467,-0.00150591 0.00103786,-0.000299147 0.00653036,-0.0031034 0.00691905,-0.0037892 0.00102768,-2.03501e-005 0.00074278,-0.000166871 0.00124136,-0.00065731 0.000341882,-0.000339847 0.000757025,-0.000352058 0.00123118,-0.000663415 0.000740745,-0.000484333 0.00131869,-0.00121287 0.00197803,-0.00163208 0.000836391,-0.000525034 0.00358366,-0.00273913 0.00366913,-0.00368948 0.00112943,-0.000118031 0.00407003,-0.00424911 0.00494305,-0.00431627l0.000219782 -0.00132683c0.000527069,-0.000205536 0.000982912,-0.0012088 0.00115182,-0.00170331 0.000327637,-0.000942212 0.000683765,-0.000954422 0.00113147,-0.00159138 0.000337812,-0.000492474 0.00155475,-0.0031034 0.00155475,-0.00385839l0.000567769 -0.000459913 -0.000213677 -8.34356e-005 0.00153644 -0.00473955c0.00066545,-0.000303217 0.00176436,-0.00670334 0.00200856,-0.00815023 0.000494509,-0.0028653 0.000691905,-0.00611929 0.000691905,-0.00949131l0 -0.00232602c0,-0.00504887 -0.0015283,-0.00937531 -0.0021327,-0.013777 -0.000225887,-0.0016972 -0.00388281,-0.0103643 -0.00475379,-0.0113045 -0.000494509,-0.00073871 -0.000952387,-0.00269436 -0.00167685,-0.00373832 -0.000549454,-0.000803831 -0.00199431,-0.00234434 -0.00220596,-0.00307694l-0.00123525 -0.00182744 0 -0.000826216c-0.000940177,-0.000598294 -0.00151405,-0.00165447 -0.00222224,-0.00256005 -0.000394793,-0.000500614 -0.000600329,-0.000982912 -0.000948317,-0.00143876 -0.000350023,-0.000459913 -0.000862846,-0.00068987 -0.00130444,-0.00126171 -0.000425318,-0.000541314 -0.00225887,-0.00231788 -0.00233213,-0.0024583 -0.000496544,-0.000948317 4.68053e-005,-0.000596259 -0.000909652,-0.00146318 -0.000769236,-0.00070208 -0.000822146,-0.000291007 -0.00110705,-0.00145097 -0.000309322,-3.45952e-005 -0.00184576,-0.00120066 -0.00230567,-0.00149167 -0.000341882,-0.000221817 -0.00068987,-0.000522999 -0.00108059,-0.000803831 -0.000557594,-0.000409038 -0.000740745,-0.000807901 -0.00100937,-0.001046 -0.00107652,-0.000946282 -0.00822146,-0.00613353 -0.00955236,-0.00613353l-0.000643065 -3.45952e-005 -0.000419213 -0.000626785 -0.000879126 0c-0.000394793,-0.000559629 -0.00192919,-0.00122915 -0.00273302,-0.00158121 -0.000584049,-0.000258447 -0.0011681,-0.000634925 -0.00149574,-0.000752955 -0.000567769,-0.000193326 -0.00117013,-0.000248272 -0.00178674,-0.000476193 -0.000195361,-6.30855e-005 -0.00360808,-0.000840461 -0.00368948,-0.000850636 -0.000370373,-3.45952e-005 -0.00304642,-0.000752955 -0.00360198,-0.000930002 -0.00400694,-0.00128613 -0.0108487,-0.00205536 -0.0161743,-0.00205536l-0.00211642 0c-0.00227922,0 -0.00405375,0.000175011 -0.0061783,0.000164836 -0.0019821,-8.14006e-006 -0.00373629,0.00066545 -0.00582421,0.00066545l-2.03501e-006 0.000317462 -0.00299961 0.000183151c-0.00124136,0.000777376 -0.00730367,0.00185797 -0.00915146,0.00268215 -0.000852671,0.000380548 -0.00162394,0.000380548 -0.00227108,0.0006858 -0.000852671,0.000396828 -0.000877091,0.00075092 -0.00184169,0.00109687 -0.00103989,0.000368338 -0.00297926,0.0016565 -0.00412701,0.0018132l-0.00485148 0.00301996z"/>
   <polygon id="_199135544" class="fil3" points="1.72536,0.633732 1.72536,0.711054 1.721,0.710397 1.71886,0.722931 1.70554,0.720918 1.7034,0.733456 1.69008,0.731433 1.68796,0.743983 1.67464,0.741968 1.67249,0.754498 1.65918,0.752483 1.65707,0.764834 1.64372,0.763015 1.64171,0.774732 1.62826,0.773527 1.62727,0.779311 1.59945,0.751798 1.70028,0.661433 1.69712,0.659044 "/>
   <g>
    <path id="_199135472" class="fil0" d="M1.57887 0.610954l0 -0.115056c0,-0.00202687 0.00174401,-0.00367117 0.00389909,-0.00367117l0.0474281 0c0.00215101,0 0.00390316,0.00164429 0.00390316,0.00367117l0 0.116262c0,0.0154966 -0.0112435,0.0281056 -0.0277027,0.0281056 -0.0140009,-8.14006e-006 -0.0275276,-0.0161377 -0.0275276,-0.0293124z"/>
    <path id="_199135400" class="fil0" d="M1.55652 0.496102l0 -0.0235919c0,-0.00202484 0.00175622,-0.00366913 0.00390723,-0.00366913l0.0363535 0c0.00215305,0 0.00389909,0.00164429 0.00389909,0.00366913l0 0.00811971 0.0153501 0 0 -0.00811971c0,-0.00202484 0.00175215,-0.00366913 0.00390519,-0.00366913l0.0326661 0c0.00215101,0 0.00389502,0.00164429 0.00389502,0.00366913l0 0.0235919c0,0.00203094 -0.00174401,0.00367727 -0.00389502,0.00367727l-0.092174 0c-0.00215101,0 -0.00390723,-0.00164633 -0.00390723,-0.00367727zm0.00780835 -0.0199167l0 0.0162496 0.0843636 0 0 -0.0162496 -0.0248618 0 0 0.00812378c0,0.00202484 -0.00174808,0.00366913 -0.00390112,0.00366913l-0.0231524 0c-0.00215305,0 -0.00390112,-0.00164429 -0.00390112,-0.00366913l0 -0.00812378 -0.0285472 0z"/>
   </g>
   <path id="_199135304" class="fil4" d="M1.65078 0.405371c0,0 0.0107489,0.00247051 0.0258325,-0.00610911 0.00988203,-0.00562275 0.0335818,-0.0252138 0.0487488,-0.0380527l0 -0.0363087c-1.83151e-005,0.0115141 -0.00840665,0.0187527 -0.00840665,0.0187527 0,0 -0.0338036,0.029406 -0.0445953,0.0355436 -0.0107917,0.00614167 -0.0184759,0.00436918 -0.0184759,0.00436918 -0.00909041,-0.00160359 -0.0118397,-0.00186407 -0.0157185,-0.00454012 -0.00388281,-0.0026679 -0.0115548,-0.0119374 -0.0232887,-0.0252138 -0.0117278,-0.0132744 -0.0198434,-0.0207714 -0.0231279,-0.0344263 -0.00328044,-0.0136509 0.00418603,-0.0259037 0.0223424,-0.0301162 0.0181544,-0.00421045 0.043472,0.0298048 0.043472,0.0298048 0,0 0.0131869,-0.0095198 0.0185003,-0.0128389 0.00530528,-0.00332114 0.0254621,-0.0216749 0.0421879,9.76807e-005 0.0052015,0.00677049 0.00704115,0.0129386 0.00711034,0.0182236l0 -0.0429592c-0.0202382,-0.011683 -0.0451061,-0.000930002 -0.0509039,0.00269232 -0.0074217,0.00463373 -0.0139765,0.0105638 -0.0139765,0.0105638 0,0 -0.0208223,-0.0334801 -0.0492514,-0.026563 -0.0284312,0.00692108 -0.0453829,0.0230669 -0.0438139,0.0462538 0.00156696,0.0231809 0.0124258,0.0306595 0.028828,0.0492229 0.0164002,0.0185675 0.0271288,0.0315203 0.0325582,0.0352607 0.00542942,0.00374239 0.00925932,0.00409852 0.0219782,0.00634314z"/>
   <path id="_199135232" class="fil4" d="M0.181633 0.543518c-0.0249941,0 -0.045334,0.0191515 -0.045334,0.0426885l4.07003e-006 0.00594021c0,0.00760688 0.00657513,0.0138015 0.0146562,0.0138015 0.00809529,0 0.0146643,-0.00619458 0.0146643,-0.0138015l2.03501e-006 -0.000266587 -1.42451e-005 -0.000262517 -0.000341882 -0.00469274c0.000136346,-0.00874039 0.0077473,-0.0158344 0.0170839,-0.0158344 0.00942008,0 0.0170799,0.00721413 0.0170799,0.0160868l0 0.0134107 -0.0582523 0.032023 -0.00410259 0.0022609 0 0.004475 0 0.0681933c0,0.0155638 0.0134392,0.0282338 0.0299534,0.0282338l0.0292106 0c0.0165325,0 0.0299839,-0.01267 0.0299839,-0.0282338l0.000763131 -0.121285c0,-0.0235858 -0.020342,-0.0427373 -0.0453564,-0.0427373zm0.020981 0.0861422l-0.04603 0.0229407 0 0.0506719c0,0 0.00507329,0.0114693 0.0130282,0.012263 0.00795691,0.000797726 0.0174319,-0.000474158 0.0235268,-0.000474158 0.00609283,0 0.0111661,-0.0111193 0.0106574,-0.0170148 -0.000504684,-0.00589544 0.000170941,-0.0671127 0.000170941,-0.0671127l-0.00135328 -0.00127392z"/>
   <path id="_199135160" class="fil0" d="M1.64958 0.0623793c0,0 -0.0124217,0.0338972 -0.0143876,0.0643492 -0.00196175,0.030454 -0.000651205,0.0339054 -0.000651205,0.0339054l0.066374 0 0 -0.0684355c0,0 0.0010053,-0.0109667 0.0132541,-0.0127026 0.00248475,-0.000354093 0.00644286,-0.000504684 0.0111905,-0.000522999l0 -0.0171715c-0.0362355,0.000266587 -0.0757799,0.000577944 -0.0757799,0.000577944zm0.0757799 -0.0472164l0 0.0128104c-0.00993291,0.00260685 -0.0190762,0.00540703 -0.0204661,0.00740745 -0.00261499,0.00376681 -0.00327027,0.0116138 -0.0029406,0.0150713 0.000325602,0.00344935 0.000325602,0.00596056 0.000325602,0.00596056l-0.0513332 0.000315427c0,0 0.00817669,-0.020401 0.0235411,-0.0266831 0.00709406,-0.00289786 0.0291638,-0.00907006 0.0508733,-0.0148821z"/>
   <path id="_199135088" class="fil6" d="M0.0833684 0.110609c0.0385249,0 0.0697684,0.0294161 0.0697684,0.0656821 0,0.0362721 -0.0312436,0.0656842 -0.0697684,0.0656842 -0.0385188,0 -0.0697664,-0.0294121 -0.0697664,-0.0656842 0,-0.036266 0.0312477,-0.0656821 0.0697664,-0.0656821zm0.024699 0.0329164c0.0108792,0.00728332 0.0179794,0.0192472 0.0179794,0.0327658 0,0.0221878 -0.0191088,0.0401814 -0.0426783,0.0401814 -0.0235614,0 -0.0426743,-0.0179936 -0.0426743,-0.0401814 0,-0.0138401 0.00743594,-0.0260523 0.0187567,-0.0332766l0.00728535 0.0103745c-0.00775137,0.0050041 -0.0128369,0.0133945 -0.0128369,0.0229021 0,0.0153216 0.0131991,0.0277495 0.029469,0.0277495 0.016274,0 0.0294752,-0.0124278 0.0294752,-0.0277495 0,-0.00933461 -0.00490642,-0.0175968 -0.0124197,-0.0226294l0.00764352 -0.0101364zm-0.0301508 -0.022843l0.012729 0 0 0.051435 -0.012729 0 0 -0.051435z"/>
   <path id="_199135016" class="fil2" d="M0.452795 0.803756c0,0 -0.0125153,0.000679695 -0.013946,0.00875463 -0.00143062,0.00808104 -0.000716325,0.0700269 -0.000716325,0.0700269l-0.131592 0c0,0 -0.00893575,0.00236062 -0.00572043,0.0138055 0.00321939,0.0114429 0.0339685,0.0269293 0.0550716,0.0400613 0.021097,0.0131299 0.0557838,0.00134718 0.0564961,0.0215467 0.000712255,0.0201996 -0.0261031,0.0313107 -0.0282501,0.0400613 -0.00214084,0.00875463 0,0.0134718 0,0.0134718l0.0851043 0c0,0 0.00500614,0 0.00536633,-0.00909245 0.000354093,-0.00909041 0,-0.109077 0,-0.109077 0,0 0.000354093,-0.00336998 0.00625767,-0.00589544 0.00589951,-0.00252138 0.0105475,-0.000846566 0.0105475,-0.0089215 0,-0.00808104 0.000354093,-0.0717078 0.000354093,-0.0717078 0,0 -0.00106838,-0.00370169 -0.00893778,-0.00370169 -0.00786737,0 -0.0300348,0.000667485 -0.0300348,0.000667485zm-0.134555 0.0561318c0,0 -0.0162679,0.00153237 -0.0191556,0.00954829 -0.00289176,0.00800982 0.00487793,0.00647135 0.0104783,0.00680916 0.00560443,0.000341882 0.122705,0.0006858 0.122705,0.0006858 0,0 0.00270657,-0.0134677 -0.00415754,-0.0160217 -0.00686817,-0.00255598 -0.10987,-0.00102158 -0.10987,-0.00102158z"/>
   <path id="_199134944" class="fil2" d="M1.56836 0.791883l-0.100937 0.108261c-0.00510382,0.00547826 -0.0140314,0.00602161 -0.0198414,0.00122101l-0.0585901 -0.0484211c-0.005812,-0.0048006 -0.00639605,-0.0132093 -0.00129223,-0.0186835l0.100937 -0.108265c0.00509975,-0.00547215 0.0140314,-0.00601957 0.0198455,-0.0012149l0.0585901 0.0484171c0.00581404,0.00480263 0.00638995,0.0132113 0.00128816,0.0186855zm-0.133648 0.0694021c0.003022,0.002499 0.00332114,0.0068234 0.00066952,0.00966835 -0.00265366,0.00284699 -0.00724872,0.00312782 -0.0102707,0.000630855 -0.003022,-0.00249493 -0.00332318,-0.00682544 -0.000667485,-0.00967446 0.00264755,-0.00284292 0.00724872,-0.00312171 0.0102687,-0.00062475zm0.122038 -0.0731221l-0.0830876 0.0891214c-0.00199431,0.00213473 -0.00547419,0.00233213 -0.00775748,0.000470088l-0.053586 -0.0435493c-0.00228532,-0.00186 -0.00250307,-0.0051669 -0.000510789,-0.0073057l0.0830876 -0.0891194c0.00199024,-0.00213473 0.00547012,-0.00233823 0.00775951,-0.000472123l0.053586 0.0435513c0.00228939,0.00186 0.00250307,0.00516487 0.000508754,0.00730367z"/>
   <g>
    <path id="_199134872" class="fil4" d="M1.3221 1.03054l0.0445343 -0.0575767c0.000787551,-0.00101547 0.00229346,-0.00124339 0.00337405,-0.000500614l0.0237364 0.016272c0.00107449,0.00073871 0.00131462,0.00216322 0.000531139,0.00317666l-0.0450064 0.0581851c-0.00599719,0.00775544 -0.016504,0.0102056 -0.0247397,0.00455843 -0.00700656,-0.00480263 -0.00753159,-0.0175194 -0.00242981,-0.0241149z"/>
    <path id="_199134800" class="fil4" d="M1.35537 0.965397l0.00913315 -0.0118072c0.000785516,-0.00101547 0.00229753,-0.00123525 0.00337405,-0.000496544l0.018191 0.0124767c0.00108059,0.00073871 0.00131869,0.00215915 0.000533174,0.00317055l-0.00314206 0.00406596 0.00768015 0.00526458 0.0031441 -0.00406596c0.000783481,-0.00100937 0.00229753,-0.00122915 0.00336998,-0.000496544l0.0163493 0.0112129c0.00107652,0.000736675 0.00131462,0.00215712 0.000531139,0.00317259l-0.00913111 0.0118051c-0.000787551,0.00101751 -0.0022955,0.00124136 -0.00337202,0.000502649l-0.0461277 -0.0316241c-0.00107652,-0.00074278 -0.00131665,-0.00216729 -0.000533174,-0.00318073zm0.0116179 -0.00728942l-0.00629023 0.00812988 0.0422205 0.0289501 0.00629023 -0.00813192 -0.0124441 -0.00853485 -0.0031441 0.00406799c-0.000783481,0.0010114 -0.00229346,0.00123729 -0.00336998,0.000496544l-0.0115853 -0.00794266c-0.00108059,-0.00074278 -0.00131869,-0.00216322 -0.000535209,-0.00317462l0.0031441 -0.00406799 -0.0142858 -0.00979249z"/>
   </g>
   <path id="_199134704" class="fil6" d="M0.031561 0.0197559c0,0 0.0131889,0.00303217 0.0316974,-0.00749699 0.00419417,-0.00238504 0.0104193,-0.00682544 0.0175337,-0.0122589l-0.0807921 0 0 0.00807697c0.00177453,0.0016972 0.0033069,0.00300572 0.00459303,0.00389502 0.00666264,0.00459506 0.0113615,0.00503056 0.026968,0.00778393z"/>
   <g>
    <path id="_199134632" class="fil0" d="M0.0479531 0.533229l0 -0.0908553c0,-0.00159749 0.00137567,-0.00289786 0.00307694,-0.00289786l0.0374544 0c0.0016972,0 0.00308101,0.00130037 0.00308101,0.00289786l0 0.0918077c0,0.0122426 -0.00887673,0.0221939 -0.0218744,0.0221939 -0.0110562,-2.03501e-006 -0.021738,-0.0127392 -0.021738,-0.0231463z"/>
    <path id="_199134560" class="fil0" d="M0.0303075 0.442538l0 -0.0186306c0,-0.00160156 0.00138381,-0.00289786 0.00308305,-0.00289786l0.0287059 0c0.00170127,0 0.00308101,0.0012963 0.00308101,0.00289786l0 0.00641233 0.0121205 0 0 -0.00641233c0,-0.00160156 0.00138381,-0.00289786 0.00308101,-0.00289786l0.0257958 0c0.00169924,0 0.00307694,0.0012963 0.00307694,0.00289786l0 0.0186306c0,0.00160156 -0.0013777,0.0028999 -0.00307694,0.0028999l-0.0727843 0c-0.00169924,0 -0.00308305,-0.00129834 -0.00308305,-0.0028999zm0.00616202 -0.0157286l0 0.0128287 0.0666203 0 0 -0.0128287 -0.0196338 0 0 0.00641437c0,0.00159749 -0.0013777,0.00289379 -0.00308101,0.00289379l-0.0182805 0c-0.00170331,0 -0.00308101,-0.0012963 -0.00308101,-0.00289379l0 -0.00641437 -0.0225439 0z"/>
   </g>
  </g>
 </g>
</svg>
