<?xml version="1.0" encoding="UTF-8"?>
<!DOCTYPE svg PUBLIC "-//W3C//DTD SVG 1.1//EN" "http://www.w3.org/Graphics/SVG/1.1/DTD/svg11.dtd">
<!-- Creator: CorelDRAW -->
<svg xmlns="http://www.w3.org/2000/svg" xml:space="preserve" width="7.6855mm" height="8.8508mm" style="shape-rendering:geometricPrecision; text-rendering:geometricPrecision; image-rendering:optimizeQuality; fill-rule:evenodd; clip-rule:evenodd"
viewBox="0 0 0.0126256 0.01454"
 xmlns:xlink="http://www.w3.org/1999/xlink">
 <defs>
  <style type="text/css">
   <![CDATA[
    .str0 {stroke:#605D5C;stroke-width:0.000328557}
    .fil0 {fill:#615C5C}
    .fil1 {fill:white}
   ]]>
  </style>
 </defs>
 <g id="图层_x0020_1">
  <metadata id="CorelCorpID_0Corel-Layer"/>
  <g id="_208383928">
   <path id="_208384384" class="fil0" d="M0.00581497 0.0130781l0.000646765 0 0 0.000677978 -0.000649394 0c-3.56485e-005,1.8892e-005 -0.000428767,0.000133723 -0.000853756,0.000480844 -0.000424825,0.000347285 -0.000783774,0.000355335 -0.000987972,0.000227362 -0.000204363,-0.000127809 -0.000177914,-0.000341043 -0.000177914,-0.000341043l0 -0.0016119c0,0 -3.5977e-005,-0.000230647 0.000167071,-0.000387533 0.000203048,-0.000156886 0.000576125,-0.000111217 0.000877741,0.000172821 0.000301616,0.000284202 0.000977458,0.000781474 0.000977458,0.000781474z"/>
   <path id="_208384312" class="fil0" d="M0.00681067 0.0129895l-0.000646601 0 0 0.000766524 0.000649229 0c3.58128e-005,1.8892e-005 0.000428932,0.000133723 0.000853756,0.000480844 0.000424825,0.000347285 0.000783938,0.000355335 0.000988136,0.000227362 0.000204198,-0.000127809 0.00017775,-0.000341043 0.00017775,-0.000341043l0 -0.00133197c0,0 3.61413e-005,-0.000230812 -0.000166907,-0.000387698 -0.000203048,-0.000156886 -0.000481337,-0.000154586 -0.000909118,9.7253e-005 -0.000427782,0.000251675 -0.000946245,0.000488729 -0.000946245,0.000488729z"/>
   <path id="_208384240" class="fil0" d="M0.00587493 0.0129041l0.00087577 0c3.40057e-005,0 6.19331e-005,2.28347e-005 6.19331e-005,5.07621e-005l0 0.000828129c0,2.79274e-005 -2.79274e-005,5.07621e-005 -6.19331e-005,5.07621e-005l-0.00087577 0c-3.40057e-005,0 -6.19331e-005,-2.28347e-005 -6.19331e-005,-5.07621e-005l0 -0.000828129c0,-2.79274e-005 2.79274e-005,-5.07621e-005 6.19331e-005,-5.07621e-005z"/>
   <path id="_208384168" class="fil1" d="M0.00288227 0.00509609c-6.99827e-005,-1.72493e-005 -0.000146865,-3.07201e-005 -0.00023114,-3.82769e-005 -0.000824679,-7.44182e-005 -0.00242032,-0.00109541 -0.00263684,0.000635759 -8.67391e-005,0.000693585 0.000240997,0.00149691 0.000404783,0.00211328 0.000163786,0.000616538 0.000192699,0.00131768 0.00012518,0.00164903 -6.73543e-005,0.00033135 -9.52816e-006,0.000585654 0.000308515,0.000732026 0.000318044,0.000146537 0.00140278,-0.000141937 0.00140278,-0.000141937l0 -1.80707e-006c0.000433039,0.000648244 0.00114765,0.00116063 0.00220216,0.0014146 0,0 -0.000211591,0.000625573 -0.000791823,0.000788045 -0.000580232,0.000162307 -0.00127677,0.000100374 -0.00175154,-0.000281902 -0.000380469,-0.000306544 -0.000512714,-0.000736297 -0.000568569,-0.00101853 -2.08634e-005,-0.000105631 -6.19331e-005,-0.000161815 -0.000105795,-0.000188756 -4.96122e-005,-3.05558e-005 -0.000129616,-3.302e-005 -0.000186621,-5.09264e-006 -7.4254e-005,3.63056e-005 -7.22826e-005,7.7211e-005 -0.000137501,0.000112038 -6.52186e-005,3.49914e-005 -0.000152615,3.18701e-005 -0.000221283,-1.47851e-006 -4.74765e-005,-2.31633e-005 -9.0189e-005,-7.04756e-005 -0.000132737,-9.88958e-005 -8.27965e-005,-5.53619e-005 -0.000282067,-2.67774e-005 -0.000276317,0.000197956 1.1171e-005,0.000442731 0.000161979,0.0016395 0.00150824,0.00235641 0.00165708,0.000882341 0.00369151,0.000294059 0.00453853,-0.000250854 0.000846857,-0.000544912 0.00116901,-0.000977458 0.00133476,-0.00123702 0.000165757,-0.000259396 0.000174957,-0.000311308 0.000174957,-0.000311308 0.000293237,-5.78261e-005 0.000563147,-0.000131916 0.00081088,-0.000220626 0.000293073,-0.000104974 0.000554933,-0.000230154 0.000787388,-0.000372584 0.000394597,-0.000241818 0.000703277,-0.000533741 0.00093606,-0.000859506 8.77248e-005,2.13562e-005 0.00109245,0.000261203 0.00139653,0.000121238 0.000318044,-0.000146372 0.00037587,-0.000400676 0.000308515,-0.000732026 -6.75185e-005,-0.00033135 -3.86055e-005,-0.00103249 0.00012518,-0.00164903 0.00016395,-0.000616374 0.000491522,-0.0014197 0.000404783,-0.00211328 -0.000216519,-0.00173117 -0.00181216,-0.000710177 -0.00263684,-0.000635759 -9.57745e-005,8.70677e-006 -0.000181857,2.46418e-005 -0.000259067,4.55052e-005 -0.00117049,-0.00139045 -0.00304753,-0.00222023 -0.00503777,-0.00138881 -0.000700156,0.000292252 -0.00131259,0.000783281 -0.0017954,0.00138158z"/>
   <path id="_208384096" class="fil0" d="M0.00465204 0.00758787c0.000246254,0 0.000446017,0.000199599 0.000446017,0.000445852 0,0.000246254 -0.000199763,0.000446017 -0.000446017,0.000446017 -0.000246254,0 -0.000445852,-0.000199763 -0.000445852,-0.000446017 0,-0.000246254 0.000199599,-0.000445852 0.000445852,-0.000445852z"/>
   <path id="_208384024" class="fil0" d="M0.00797359 0.00758787c0.000246254,0 0.000446017,0.000199599 0.000446017,0.000445852 0,0.000246254 -0.000199763,0.000446017 -0.000446017,0.000446017 -0.000246254,0 -0.000446017,-0.000199763 -0.000446017,-0.000446017 0,-0.000246254 0.000199763,-0.000445852 0.000446017,-0.000445852z"/>
   <path id="_208383952" class="fil0 str0" d="M0.00368346 0.000164279l0.0053315 0c0.00012978,0 0.000247404,9.00247e-005 0.00023574,0.000198941l-0.000354513 0.0033549 0.00120663 0c0.000116474,0 0.000211591,0.000141608 0.000211591,0.000314922l0 0c0,0.00017315 -9.51174e-005,0.000314922 -0.000211591,0.000314922l-0.00148804 0 -0.00466469 0 -0.00142709 0c-0.000116474,0 -0.000211755,-0.000141773 -0.000211755,-0.000314922l0 0c0,-0.000173314 9.52816e-005,-0.000314922 0.000211755,-0.000314922l0.00116096 0 -0.000236397 -0.0033549c-7.7211e-006,-0.000109245 0.000106124,-0.000198941 0.000235904,-0.000198941z"/>
  </g>
 </g>
</svg>
