<?xml version="1.0" encoding="UTF-8"?>
<!DOCTYPE svg PUBLIC "-//W3C//DTD SVG 1.1//EN" "http://www.w3.org/Graphics/SVG/1.1/DTD/svg11.dtd">
<!-- Creator: CorelDRAW -->
<svg xmlns="http://www.w3.org/2000/svg" xml:space="preserve" width="96.6532mm" height="46.2818mm" style="shape-rendering:geometricPrecision; text-rendering:geometricPrecision; image-rendering:optimizeQuality; fill-rule:evenodd; clip-rule:evenodd"
viewBox="0 0 18.0718 8.65357"
 xmlns:xlink="http://www.w3.org/1999/xlink">
 <defs>
  <style type="text/css">
   <![CDATA[
    .str0 {stroke:#1F1A17;stroke-width:0.0934878}
    .str1 {stroke:#AAA9A9;stroke-width:0.0934878}
    .str2 {stroke:#E3556A;stroke-width:0.0934878}
    .fil2 {fill:none}
    .fil4 {fill:#1F1A17}
    .fil1 {fill:#75C5F0}
    .fil6 {fill:#AAA9A9}
    .fil3 {fill:#C2C1C1}
    .fil8 {fill:#DA251D}
    .fil5 {fill:#EE9A85}
    .fil9 {fill:#FFF500}
    .fil7 {fill:#FFFB9C}
    .fil0 {fill:white}
   ]]>
  </style>
 </defs>
 <g id="图层_x0020_1">
  <metadata id="CorelCorpID_0Corel-Layer"/>
  <polygon class="fil0" points="-0,0 18.0718,0 18.0718,8.65357 -0,8.65357 "/>
  <path class="fil1" d="M6.01592 4.07685l1.01425 0.277584c0,0 0.20285,0.0533815 0.352318,-0.106763 0.149468,-0.160145 0.640579,-0.298937 0.523139,-0.501786 -0.117439,-0.20285 -0.395023,-0.469758 -0.597873,-0.576521 -0.20285,-0.106763 -0.160145,-0.160145 -0.245555,-0.160145 -0.0854105,0 -0.474525,0.0614776 -0.480434,0.128116 -0.00590843,0.0666381 -0.565844,0.939515 -0.565844,0.939515z"/>
  <path class="fil2 str0" d="M13.7925 5.79544l0 1.17875c0,0.0993215 -0.0812596,0.180581 -0.180581,0.180581l-3.21693 0c-0.0993215,0 -0.180581,-0.0812596 -0.180581,-0.180581l0 -3.96014c0,-0.0993215 0.0812596,-0.180581 0.180581,-0.180581l3.21693 0c0.0993402,0 0.180581,0.0812596 0.180581,0.180581l0 1.67102"/>
  <polygon class="fil2 str0" points="10.6011,3.35139 13.4618,3.35139 13.4618,3.3983 10.6011,3.3983 "/>
  <polygon class="fil2 str0" points="10.6011,4.17245 13.4618,4.17245 13.4618,4.21937 10.6011,4.21937 "/>
  <polygon class="fil3 str1" points="10.6011,4.66467 12.4939,4.66467 12.4939,4.78979 10.6011,4.78979 "/>
  <polygon class="fil3 str1" points="10.6011,4.997 12.4939,4.997 12.4939,5.1221 10.6011,5.1221 "/>
  <polygon class="fil3 str1" points="10.6011,5.44301 12.4939,5.44301 12.4939,5.56812 10.6011,5.56812 "/>
  <polygon class="fil3 str1" points="10.6011,5.74797 12.4939,5.74797 12.4939,5.87307 10.6011,5.87307 "/>
  <polygon class="fil3 str1" points="10.6011,6.18196 12.1895,6.18196 12.1895,6.30706 10.6011,6.30706 "/>
  <polygon class="fil3 str1" points="10.6011,6.49473 12.1895,6.49473 12.1895,6.61985 10.6011,6.61985 "/>
  <polygon class="fil2 str0" points="12.5768,6.03696 12.9319,6.37561 12.5772,6.3906 "/>
  <polygon class="fil4" points="12.5855,5.99808 12.6124,5.96985 13.0015,6.34087 12.9746,6.3691 "/>
  <path class="fil5 str0" d="M12.6717 5.90491l1.03422 -1.08448c0.0192772,-0.0202121 0.0515866,-0.0209787 0.0717986,-0.00170148l0.316961 0.302284c0.0202121,0.0192772 0.0209787,0.0515679 0.00170148,0.0717799l-1.03422 1.0845c-0.0192772,0.0202121 -0.0515679,0.0209787 -0.0717799,0.00170148l-0.31698 -0.302284c-0.0202121,-0.0192772 -0.0209787,-0.0515679 -0.00170148,-0.0717986z"/>
  <path class="fil2 str0" d="M13.4084 5.95095l0.632894 -0.663651c0.0100219,-0.0104893 0.0268123,-0.0109007 0.0373016,-0.000878785l1.86976e-005 0c0.010508,0.0100219 0.0109007,0.0268123 0.000878785,0.0373203l-0.632894 0.663651c-0.0100032,0.0104893 -0.0267936,0.0109007 -0.0373016,0.000878785l0 0c-0.010508,-0.0100219 -0.0109007,-0.0268123 -0.000897483,-0.0373203z"/>
  <path class="fil2 str0" d="M13.8613 4.7906l0.0847934 -0.0889256c0.0155751,-0.016323 0.0416582,-0.01694 0.0579998,-0.00136492l0.1783 0.170036c0.016323,0.0155751 0.01694,0.0416582 0.00136492,0.0579998l-0.0847934 0.0889069c-0.0155751,0.016323 -0.0416582,0.0169587 -0.0579811,0.00138362l-0.1783 -0.170054c-0.0163417,-0.0155751 -0.0169587,-0.0416582 -0.00138362,-0.0579811z"/>
  <line class="fil2 str2" x1="12.7638" y1="6.00093" x2="13.7792" y2= "4.93616" />
  <line class="fil2 str2" x1="12.9633" y1="6.19116" x2="13.9787" y2= "5.12639" />
  <polygon class="fil3" points="10.6011,3.49035 13.4618,3.49035 13.4618,4.07061 10.6011,4.07061 "/>
  <path class="fil2 str0" d="M3.65377 4.55301l3.14014 0c0.158443,0 0.288092,0.12963 0.288092,0.288092l0 1.95419c0,0.158443 -0.129649,0.288073 -0.288092,0.288073l-3.14014 0c-0.158462,0 -0.288092,-0.12963 -0.288092,-0.288073l0 -1.95419c0,-0.158462 0.12963,-0.288092 0.288092,-0.288092z"/>
  <line class="fil2 str0" x1="3.42328" y1="5.10997" x2="4.64765" y2= "5.10997" />
  <line class="fil2 str0" x1="5.84802" y1="5.10518" x2="7.082" y2= "5.10518" />
  <line class="fil2 str0" x1="4.64765" y1="4.55301" x2="4.64765" y2= "5.10997" />
  <line class="fil2 str0" x1="5.84802" y1="4.55301" x2="5.84802" y2= "5.10518" />
  <path class="fil2 str0" d="M3.39421 6.91993c0,0 1.53673,0.0338052 2.4058,0.00979752 0.869063,-0.0240077 1.13315,0 1.13315,0"/>
  <path class="fil2 str0" d="M3.74499 4.77388c0,0 -0.0192024,0.134435 0.00480527,0.148833 0.0240077,0.0144158 0.566555,0 0.619375,0 0.0528206,0 0.072023,-0.115233 0.0288129,-0.134435 -0.0432101,-0.0192024 -0.652994,-0.0143971 -0.652994,-0.0143971z"/>
  <path class="fil2 str0" d="M4.72929 4.51939c0,0.0336182 0.0576072,-0.158443 0.105623,-0.196848 0.0480153,-0.0384235 0.689697,0.00648805 0.810595,0.00084139 0.120898,-0.00564666 0.216069,0.216069 0.216069,0.216069"/>
  <path class="fil2 str0" d="M5.25938 4.95633c0.529702,0 0.959278,0.429577 0.959278,0.959278 0,0.529721 -0.429577,0.959297 -0.959278,0.959297 -0.529721,0 -0.959297,-0.429577 -0.959297,-0.959297 0,-0.529702 0.429577,-0.959278 0.959297,-0.959278z"/>
  <path class="fil2 str0" d="M5.25938 5.10518c0.447507,0 0.810446,0.36292 0.810446,0.810427 0,0.447526 -0.362938,0.810446 -0.810446,0.810446 -0.447526,0 -0.810446,-0.36292 -0.810446,-0.810446 0,-0.447507 0.36292,-0.810427 0.810446,-0.810427z"/>
  <path class="fil2 str0" d="M5.25938 5.47008c0.246023,0 0.445526,0.199522 0.445526,0.445526 0,0.246023 -0.199503,0.445544 -0.445526,0.445544 -0.246023,0 -0.445544,-0.199522 -0.445544,-0.445544 0,-0.246004 0.199522,-0.445526 0.445544,-0.445526z"/>
  <path class="fil6" d="M5.62236 5.77257c0,0 -0.321692,0.0192024 -0.39852,0.158443 -0.0768283,0.139241 -0.0672177,0.3121 -0.0672177,0.3121 0,0 0.249669,0.0624125 0.374512,-0.115233 0.124844,-0.177646 0.0912254,-0.35531 0.0912254,-0.35531z"/>
  <path class="fil2 str0" d="M5.95261 6.57863c0,0 0.279529,0.0726213 0.274723,-0.0618328 -0.00480527,-0.134435 -0.103098,-0.185667 -0.103098,-0.185667"/>
  <path class="fil2 str0" d="M6.67387 5.36925c0,0 -0.0672177,0.0912254 0,0.139241 0.0672177,0.0480153 0.0672177,0.0480153 0.0672177,0.0480153 0,0 0.206477,-0.0192024 0.141653,-0.141634 -0.0648245,-0.122432 -0.160855,-0.0936374 -0.20887,-0.0456221z"/>
  <path class="fil2 str0" d="M3.91084 4.39948c0,0 -0.00970404,0.134435 0.00241199,0.148851 0.012116,0.0143971 0.285886,0 0.312548,0 0.026644,0 0.0363294,-0.115233 0.014528,-0.134454 -0.0218014,-0.0192024 -0.329488,-0.0143971 -0.329488,-0.0143971z"/>
  <polyline class="fil2 str0" points="5.4951,4.20001 7.05508,2.45806 8.36024,3.55523 8.26105,3.6693 7.21627,4.87081 "/>
  <path class="fil2 str0" d="M7.24746 6.12398c0,0 0.733188,-0.426398 1.07638,-0.629192 0.343194,-0.202794 0.753979,-0.395192 0.733188,-0.478377 -0.0208104,-0.0832042 -0.769629,-1.32074 -0.769629,-1.32074"/>
  <path class="fil2 str0" d="M7.25787 6.67516l1.64836 -0.0103958c0,0 0.0311875,-0.0312062 0.0311875,-0.182002 0,-0.150796 -0.00519792,-1.27398 -0.00519792,-1.27398"/>
  <path class="fil2 str0" d="M5.89549 3.99722l1.15959 -1.35196c0,0 0.00757251,0.0387787 0.180581,0.180581 0.173009,0.141802 0.926988,0.78139 0.926988,0.78139l-0.930783 1.03998"/>
  <path class="fil2 str0" d="M8.20425 3.82563l0.660379 1.18556c0,0 -1.41958,0.800779 -1.49236,0.86839 -0.0727896,0.0675917 -0.0623938,0.0675917 -0.0623938,0.0675917"/>
  <path class="fil2 str0" d="M7.26307 6.54516c0,0 1.46116,-0.00519792 1.49236,-0.0364042 0.0311875,-0.0311875 -0.00519792,-0.883965 0,-0.956773 0.00519792,-0.0727896 0.00519792,-0.239198 0.00519792,-0.239198"/>
  <path class="fil7 str0" d="M5.35618 2.50446c0,0 -0.0284016,0.13064 -0.0766787,0.181759 -0.0482958,0.0511191 -0.198811,0.127798 -0.198811,0.127798 0,0 0.230036,0.0539612 0.258438,0.195969 0.0284016,0.141989 0.0284016,0.167549 0.0284016,0.167549 0,0 0.0170522,-0.164726 0.127798,-0.249912 0.110764,-0.0852048 0.153357,-0.0994149 0.153357,-0.0994149 0,0 -0.19595,-0.079502 -0.232878,-0.178917 -0.036909,-0.0993962 -0.0596265,-0.144831 -0.0596265,-0.144831z"/>
  <path class="fil8 str0" d="M14.459 3.89431c0,0 -0.017744,0.0815588 -0.0478845,0.113476 -0.0301405,0.0319167 -0.124114,0.0798012 -0.124114,0.0798012 0,0 0.143616,0.033693 0.16136,0.122338 0.0177253,0.0886638 0.0177253,0.104632 0.0177253,0.104632 0,0 0.0106389,-0.102855 0.0798012,-0.15605 0.0691436,-0.0531946 0.0957502,-0.0620572 0.0957502,-0.0620572 0,0 -0.122357,-0.049642 -0.145411,-0.111718 -0.0230541,-0.0620572 -0.0372268,-0.0904214 -0.0372268,-0.0904214z"/>
  <path class="fil2 str0" d="M8.33102 1.64531c0,0 -0.0177253,0.0815775 -0.0478658,0.113494 -0.0301405,0.0319167 -0.124133,0.0797825 -0.124133,0.0797825 0,0 0.143635,0.033693 0.16136,0.122357 0.017744,0.0886451 0.017744,0.104613 0.017744,0.104613 0,0 0.0106389,-0.102837 0.0797825,-0.156031 0.0691623,-0.0531946 0.0957502,-0.0620759 0.0957502,-0.0620759 0,0 -0.122338,-0.049642 -0.145392,-0.111699 -0.0230541,-0.0620572 -0.0372455,-0.0904401 -0.0372455,-0.0904401z"/>
  <path class="fil9" d="M7.31843 5.0484l-0.0213526 0.619226c0,0 1.2171,-0.28826 1.2171,-0.619226 0,-0.330966 -0.0533815,-0.587197 -0.128116,-0.587197 -0.0747342,0 0.0427052,-0.138792 -0.298937,0.0640579 -0.341642,0.20285 -0.768694,0.523139 -0.768694,0.523139z"/>
 </g>
</svg>
