<?xml version="1.0" encoding="utf-8"?>
<!-- Generator: Adobe Illustrator 16.0.4, SVG Export Plug-In . SVG Version: 6.00 Build 0)  -->
<!DOCTYPE svg PUBLIC "-//W3C//DTD SVG 1.1//EN" "http://www.w3.org/Graphics/SVG/1.1/DTD/svg11.dtd">
<svg version="1.1" id="Õ_xBA__x2264__x201E__1" xmlns="http://www.w3.org/2000/svg" xmlns:xlink="http://www.w3.org/1999/xlink"
	 x="0px" y="0px" width="162.434px" height="39.581px" viewBox="0 0 162.434 39.581"
	 style="enable-background:new 0 0 162.434 39.581;" xml:space="preserve">
<style type="text/css">
<![CDATA[
	.st0{fill:#60C9DD;}
	.st1{fill-rule:evenodd;clip-rule:evenodd;fill:#60C9DD;}
]]>
</style>
<g>
	<path class="st1" d="M12.561,16.8c0.251,0.001,0.454,0.205,0.455,0.455c-0.001,0.251-0.204,0.454-0.455,0.455
		c-0.25-0.001-0.454-0.204-0.455-0.455C12.106,17.004,12.31,16.801,12.561,16.8L12.561,16.8z M12.561,18.354
		c0.607,0,1.098-0.492,1.098-1.099c0-0.607-0.491-1.099-1.098-1.099s-1.099,0.492-1.099,1.099
		C11.462,17.861,11.954,18.354,12.561,18.354L12.561,18.354z M16.81,15.336H8.312V4.566h8.498V15.336L16.81,15.336z M16.81,18.412
		V15.98H8.312v2.432H16.81L16.81,18.412z M7.669,3.922v15.133h9.783V3.922H7.669z"/>
	<path class="st1" d="M14.086,14.493c-0.11-0.043-2.54-1.726-2.646-1.801c-0.263-0.255-0.475-0.562-0.535-0.987
		c-0.06-0.424,0.037-0.76,0.293-1.124l0.023-0.033c0.257-0.365,0.487-0.507,0.906-0.593c0.42-0.086,0.863-0.016,1.225,0.239
		c0.106,0.075,2.394,1.714,2.472,1.803l0.25-0.303c-0.081-0.087-2.489-1.801-2.595-1.875c-0.835-0.585-2.018-0.316-2.601,0.509
		l-0.023,0.033c-0.581,0.826-0.437,2.03,0.396,2.62c0.105,0.075,2.53,1.766,2.638,1.812L14.086,14.493z"/>
	<polygon class="st1" points="11.934,13.342 13.937,10.5 14.059,10.326 14.425,10.563 12.295,13.586 	"/>
	<path class="st1" d="M12.571,0c6.294,0,11.398,5.104,11.398,11.397s-5.104,11.397-11.398,11.397
		c-6.293,0-11.397-5.104-11.397-11.397S6.277,0,12.571,0L12.571,0z M12.571,0.97c-5.758,0-10.427,4.669-10.427,10.428
		c0,5.758,4.669,10.427,10.427,10.427c5.758,0,10.428-4.669,10.428-10.427C22.999,5.639,18.329,0.97,12.571,0.97z"/>
	<path class="st0" d="M0,30.865h6.145v0.543H0V30.865L0,30.865z M9.674,29.24v-0.359h0.854v-0.605h0.42v0.605h1.083v0.878h0.408
		v0.359H12.03v1.032h-0.408v-0.148h-0.674v0.55h1.095v0.359h-1.095v0.562h1.163v0.359h-1.163v0.705h-0.42v-0.705H9.452v-0.359h1.076
		V31.91H9.576v-0.359h0.952v-0.55H9.681v-0.358h0.847v-0.525H9.384v-0.359h1.144V29.24H9.674L9.674,29.24z M8.439,31.75
		l-0.353,0.154c0.137,0.435,0.306,0.806,0.503,1.113c-0.188,0.387-0.44,0.719-0.758,0.995c0.145,0.148,0.246,0.27,0.303,0.365
		c0.297-0.29,0.541-0.621,0.733-0.991c0.435,0.487,0.981,0.736,1.641,0.745c0.507,0.037,1.113,0.041,1.818,0.012
		c0.066-0.169,0.127-0.319,0.186-0.451c-0.862,0.048-1.545,0.055-2.052,0.018c-0.563-0.033-1.031-0.281-1.404-0.745
		c0.209-0.539,0.322-1.149,0.341-1.833v-0.353H8.66l0.773-1.49v-0.396H8.265v0.383h0.717l-0.76,1.466v0.42h0.773
		c-0.015,0.511-0.086,0.972-0.216,1.382C8.651,32.315,8.537,32.05,8.439,31.75L8.439,31.75z M6.386,31.366h0.661V30.68H6.726v-0.309
		c-0.043,0.081-0.089,0.158-0.135,0.235c-0.107-0.14-0.205-0.264-0.291-0.371c0.35-0.589,0.607-1.249,0.773-1.979l0.433,0.105
		c-0.077,0.29-0.162,0.569-0.253,0.834H8.13v0.407H7.094c-0.097,0.235-0.202,0.458-0.315,0.668h1.258v0.408H7.468v0.686h0.753v0.408
		H7.468v1.36c0.152-0.119,0.337-0.28,0.556-0.482c0.024,0.153,0.058,0.313,0.099,0.482c-0.203,0.162-0.417,0.333-0.644,0.514
		c-0.115,0.09-0.228,0.195-0.339,0.314l-0.309-0.401c0.145-0.136,0.216-0.311,0.216-0.526v-1.261H6.386V31.366L6.386,31.366z
		 M10.948,30.643h0.674v-0.525h-0.674V30.643L10.948,30.643z M11.622,29.24h-0.674v0.519h0.674V29.24L11.622,29.24z M14.831,30.006
		h1.552v-0.6H14.54V28.98h1.843v-0.674h0.457v0.674h1.941v0.426h-1.941v0.6h1.552v1.774h-0.445v-0.192h-1.107v0.445L17,31.787
		c0.611,0.333,1.197,0.666,1.762,0.995l-0.284,0.438c-0.577-0.391-1.124-0.729-1.639-1.014v1.342h-0.457v-1.595
		c-0.499,0.552-1.07,1.021-1.713,1.403c-0.07-0.106-0.181-0.241-0.333-0.402c0.75-0.37,1.381-0.826,1.892-1.366h-0.952v0.192h-0.445
		V30.006L14.831,30.006z M15.257,33.758c-0.61-0.004-1.041-0.21-1.292-0.618v-2.646h-1.211v0.458h0.735v2.083
		c-0.165,0.153-0.429,0.404-0.792,0.754l0.254,0.514c0.325-0.396,0.573-0.672,0.742-0.829c0.279,0.475,0.77,0.715,1.471,0.724
		c0.981,0.024,2.153,0.033,3.518,0.024c0.071-0.189,0.127-0.353,0.173-0.487C17.482,33.767,16.284,33.775,15.257,33.758
		L15.257,33.758z M17.946,30.408h-1.107v0.779h1.107V30.408L17.946,30.408z M15.276,31.187h1.106v-0.779h-1.106V31.187
		L15.276,31.187z M13.415,28.417c0.21,0.256,0.499,0.646,0.865,1.169l-0.439,0.309c-0.333-0.523-0.607-0.927-0.822-1.212
		L13.415,28.417L13.415,28.417z M21.674,33.777c1.142,0.012,2.329,0.003,3.561-0.025c-0.071,0.165-0.138,0.324-0.205,0.476
		c-1.129,0.017-2.275,0.015-3.436-0.006c-0.689-0.007-1.2-0.243-1.534-0.705c-0.12,0.095-0.36,0.358-0.724,0.791l-0.266-0.525
		c0.255-0.23,0.511-0.455,0.767-0.673v-2.157h-0.705V30.5h1.187v2.702C20.621,33.568,21.073,33.761,21.674,33.777L21.674,33.777z
		 M20.839,29.79v0.451h1.693c-0.091,1.273-0.703,2.214-1.835,2.819c0.119,0.119,0.235,0.255,0.346,0.408
		c0.845-0.466,1.419-1.109,1.725-1.93c0.635,0.573,1.23,1.175,1.786,1.805l0.372-0.414c-0.635-0.651-1.309-1.263-2.021-1.836
		c0.065-0.268,0.106-0.553,0.124-0.854h1.941V29.79H23.04V28.33h-0.495v1.459H20.839L20.839,29.79z M19.708,28.355
		c0.362,0.433,0.675,0.831,0.939,1.193l-0.433,0.309c-0.272-0.413-0.568-0.821-0.891-1.224L19.708,28.355z"/>
	<path class="st0" d="M5.892,39.392c-0.077,0.024-0.17,0.036-0.278,0.036c-0.153,0-0.299-0.037-0.436-0.111
		c-0.137-0.075-0.326-0.25-0.567-0.525c-0.332,0.002-0.603-0.115-0.816-0.353c-0.213-0.237-0.32-0.536-0.32-0.895
		c0-0.401,0.108-0.719,0.324-0.955c0.216-0.235,0.511-0.353,0.886-0.353c0.337,0,0.61,0.116,0.821,0.346
		c0.21,0.231,0.315,0.532,0.315,0.902c0,0.329-0.074,0.604-0.222,0.828c-0.148,0.223-0.358,0.367-0.631,0.433
		c0.138,0.149,0.255,0.251,0.352,0.305c0.097,0.055,0.205,0.083,0.324,0.083c0.098,0,0.181-0.014,0.249-0.043V39.392L5.892,39.392z
		 M3.81,37.518c0,0.299,0.076,0.539,0.229,0.719c0.152,0.181,0.352,0.271,0.597,0.271c0.264,0,0.471-0.087,0.622-0.259
		c0.15-0.173,0.226-0.415,0.226-0.726c0-0.319-0.073-0.565-0.221-0.739c-0.147-0.174-0.349-0.26-0.605-0.26
		c-0.252,0-0.457,0.091-0.613,0.274S3.81,37.221,3.81,37.518L3.81,37.518z M7.731,38.75H7.417v-0.278H7.411
		c-0.118,0.213-0.3,0.319-0.544,0.319c-0.418,0-0.628-0.25-0.628-0.75v-1.056h0.31v1.01c0,0.358,0.138,0.538,0.411,0.538
		c0.137,0,0.247-0.051,0.331-0.151c0.084-0.101,0.126-0.228,0.126-0.38v-1.017h0.314V38.75L7.731,38.75z M8.265,36.362
		c0-0.055,0.02-0.102,0.057-0.14c0.039-0.038,0.084-0.057,0.14-0.057c0.056,0,0.104,0.019,0.143,0.056
		c0.038,0.038,0.058,0.084,0.058,0.141c0,0.055-0.02,0.101-0.058,0.138c-0.039,0.037-0.087,0.055-0.143,0.055
		c-0.057,0-0.104-0.019-0.141-0.055C8.285,36.463,8.265,36.417,8.265,36.362L8.265,36.362z M8.302,38.75v-1.765h0.313v1.765H8.302
		L8.302,38.75z M10.409,38.67c-0.135,0.081-0.298,0.121-0.488,0.121c-0.256,0-0.461-0.082-0.616-0.246
		c-0.156-0.164-0.233-0.376-0.233-0.637c0-0.289,0.084-0.522,0.251-0.7c0.168-0.177,0.392-0.266,0.673-0.266
		c0.162,0,0.3,0.028,0.415,0.086v0.31c-0.125-0.092-0.263-0.137-0.415-0.137c-0.179,0-0.324,0.062-0.437,0.186
		s-0.168,0.289-0.168,0.495c0,0.203,0.053,0.362,0.159,0.478c0.106,0.115,0.249,0.172,0.429,0.172c0.152,0,0.296-0.05,0.431-0.15
		V38.67L10.409,38.67z M12.345,38.75h-0.426l-0.754-0.851h-0.007v0.851h-0.312v-2.612h0.312v1.656h0.007l0.716-0.809h0.402
		l-0.797,0.849L12.345,38.75L12.345,38.75z M13.294,37.543c0-0.399,0.108-0.717,0.324-0.953c0.216-0.236,0.508-0.354,0.878-0.354
		c0.344,0,0.621,0.116,0.83,0.346c0.209,0.231,0.315,0.532,0.315,0.902c0,0.401-0.108,0.719-0.323,0.954
		c-0.215,0.235-0.502,0.353-0.862,0.353c-0.351,0-0.632-0.115-0.844-0.346C13.399,38.214,13.294,37.914,13.294,37.543L13.294,37.543
		z M13.629,37.518c0,0.299,0.076,0.539,0.229,0.719c0.152,0.181,0.352,0.271,0.597,0.271c0.264,0,0.471-0.087,0.622-0.259
		c0.15-0.173,0.225-0.415,0.225-0.726c0-0.319-0.073-0.565-0.221-0.739c-0.147-0.174-0.349-0.26-0.605-0.26
		c-0.252,0-0.457,0.091-0.613,0.274S13.629,37.221,13.629,37.518L13.629,37.518z M17.04,37.294
		c-0.052-0.037-0.124-0.056-0.215-0.056c-0.122,0-0.222,0.057-0.3,0.17c-0.079,0.113-0.119,0.262-0.119,0.447v0.894h-0.312v-1.765
		h0.312v0.359h0.007c0.089-0.26,0.243-0.39,0.462-0.39c0.071,0,0.126,0.008,0.165,0.024V37.294L17.04,37.294z M18.843,38.75H18.53
		v-0.293h-0.007c-0.128,0.223-0.328,0.335-0.6,0.335c-0.223,0-0.401-0.08-0.533-0.239c-0.132-0.159-0.198-0.374-0.198-0.644
		c0-0.292,0.075-0.525,0.224-0.702S17.76,36.943,18,36.943c0.241,0,0.415,0.093,0.523,0.28h0.007v-1.086h0.313V38.75L18.843,38.75z
		 M18.532,37.699c0-0.142-0.047-0.26-0.14-0.355c-0.093-0.095-0.208-0.143-0.344-0.143c-0.166,0-0.297,0.062-0.393,0.186
		s-0.144,0.293-0.144,0.507c0,0.197,0.045,0.352,0.138,0.467c0.092,0.114,0.214,0.171,0.368,0.171c0.151,0,0.274-0.056,0.37-0.169
		c0.096-0.112,0.144-0.251,0.144-0.418V37.699L18.532,37.699z M20.855,37.947H19.62c0.005,0.188,0.057,0.333,0.155,0.437
		c0.098,0.103,0.235,0.154,0.41,0.154c0.198,0,0.379-0.063,0.544-0.19v0.279c-0.155,0.11-0.361,0.165-0.618,0.165
		c-0.255,0-0.454-0.081-0.597-0.242c-0.144-0.162-0.215-0.387-0.215-0.673c0-0.271,0.079-0.494,0.235-0.669
		c0.157-0.176,0.352-0.263,0.585-0.263c0.231,0,0.411,0.074,0.541,0.222c0.129,0.148,0.194,0.356,0.194,0.623V37.947L20.855,37.947z
		 M20.542,37.696c-0.001-0.159-0.039-0.282-0.114-0.37c-0.074-0.087-0.179-0.131-0.314-0.131c-0.125,0-0.232,0.046-0.323,0.139
		c-0.091,0.092-0.148,0.213-0.171,0.362H20.542L20.542,37.696z M22.234,37.294c-0.053-0.037-0.124-0.056-0.215-0.056
		c-0.122,0-0.222,0.057-0.3,0.17c-0.079,0.113-0.118,0.262-0.118,0.447v0.894h-0.312v-1.765H21.6v0.359h0.007
		c0.089-0.26,0.243-0.39,0.462-0.39c0.071,0,0.126,0.008,0.165,0.024V37.294z"/>
	<path class="st0" d="M68.832,33.746c1.244-0.357,2.235-0.938,2.973-1.746c-0.058-0.12-0.125-0.234-0.201-0.343
		c-0.614,0.634-1.462,1.123-2.545,1.464c-0.061-0.139-0.135-0.279-0.221-0.42c1.06-0.292,1.886-0.757,2.475-1.394
		c-0.068-0.069-0.143-0.135-0.223-0.202c-0.545,0.388-1.216,0.705-2.012,0.953C69,31.923,68.907,31.776,68.8,31.62
		c0.983-0.219,1.771-0.586,2.362-1.101h-1.558v-0.445h4.414v0.445h-2.244c-0.105,0.11-0.218,0.218-0.341,0.321
		c0.324,0.261,0.575,0.555,0.754,0.878c0.646-0.314,1.219-0.639,1.719-0.971l0.291,0.396c-0.336,0.203-0.694,0.402-1.073,0.6
		c0.365,0.792,0.957,1.343,1.778,1.657c-0.136,0.157-0.264,0.317-0.384,0.482c-0.805-0.412-1.403-1.057-1.792-1.935
		c-0.117,0.058-0.237,0.117-0.358,0.176c0.235,0.876,0.198,1.514-0.111,1.914c-0.149,0.177-0.433,0.266-0.854,0.266
		c-0.165,0-0.424-0.006-0.779-0.019c-0.025-0.161-0.056-0.332-0.093-0.513c0.322,0.037,0.607,0.055,0.859,0.055
		c0.445,0.026,0.661-0.242,0.65-0.803c-0.006-0.186-0.03-0.364-0.069-0.535c-0.729,0.719-1.702,1.281-2.917,1.685
		C68.992,34.037,68.918,33.895,68.832,33.746L68.832,33.746z M68.968,29.06v1.058h0.494v-0.601h4.68v0.601h0.495V29.06h-2.678
		l0.315-0.192c-0.152-0.223-0.32-0.447-0.506-0.673l-0.433,0.277c0.162,0.209,0.305,0.404,0.426,0.587H68.968L68.968,29.06z
		 M78.661,33.301c-0.004,0.181-0.004,0.345,0,0.488c-0.549,0.157-0.985,0.293-1.311,0.408c-0.124,0.045-0.272,0.113-0.445,0.204
		l-0.272-0.376c0.099-0.083,0.149-0.225,0.149-0.426v-0.479c-0.421,0.245-0.895,0.466-1.422,0.664
		c-0.078-0.147-0.171-0.294-0.278-0.439c1.1-0.354,1.969-0.828,2.606-1.421h-2.526V31.49h2.896c-0.098-0.16-0.196-0.307-0.293-0.445
		l0.396-0.242c0.14,0.207,0.27,0.396,0.389,0.569l-0.197,0.118h2.856v0.433h-2.816c0.171,0.335,0.396,0.625,0.676,0.868
		c0.46-0.221,0.914-0.455,1.361-0.702l0.259,0.452c-0.411,0.162-0.828,0.336-1.252,0.522c0.48,0.305,1.082,0.51,1.802,0.615
		c-0.123,0.165-0.236,0.32-0.339,0.463c-1.335-0.262-2.29-0.918-2.862-1.969c-0.235,0.233-0.501,0.453-0.798,0.658v0.903
		C77.729,33.598,78.203,33.454,78.661,33.301L78.661,33.301z M77.794,30.346h1.342v-0.823h-1.558v-0.426h1.558v-0.834H79.6v0.834
		h1.595v0.426H79.6v0.823h1.385v0.426h-3.19V30.346L77.794,30.346z M76.843,28.25v1.37c-0.513,0.292-1.063,0.589-1.65,0.887
		c0.124,0.21,0.208,0.363,0.253,0.458c0.487-0.287,0.952-0.558,1.397-0.813V31.1h0.458v-2.85H76.843L76.843,28.25z M75.359,28.862
		l0.327-0.321c0.375,0.309,0.657,0.559,0.847,0.748l-0.37,0.359C75.866,29.331,75.598,29.069,75.359,28.862L75.359,28.862z
		 M83.241,30.779c0.536-0.737,0.983-1.576,1.342-2.516l0.476,0.154c-0.165,0.358-0.327,0.693-0.485,1.002h2.896v0.42h-1.354v0.934
		h1.304v0.42h-1.304v0.934h1.304v0.421h-1.304v0.958h1.428v0.42h-3.14v0.421h-0.47V30.59c-0.132,0.218-0.26,0.417-0.384,0.596
		C83.472,31.059,83.369,30.922,83.241,30.779L83.241,30.779z M82.147,31.94c0.359-0.519,0.826-1.292,1.403-2.318l-0.445-0.197
		c-0.163,0.332-0.315,0.633-0.46,0.905c-0.305,0.006-0.531,0.009-0.678,0.009c0.322-0.54,0.655-1.178,1.001-1.917l-0.482-0.173
		c-0.301,0.787-0.649,1.496-1.045,2.127l0.118,0.39c0.23-0.021,0.527-0.043,0.886-0.068c-0.37,0.665-0.672,1.106-0.905,1.323
		l0.092,0.457c0.416-0.074,1.001-0.154,1.756-0.24c0.013-0.095,0.029-0.244,0.05-0.445C82.969,31.846,82.538,31.895,82.147,31.94
		L82.147,31.94z M84.404,33.505h1.243v-0.958h-1.243V33.505L84.404,33.505z M84.404,32.126h1.243v-0.934h-1.243V32.126
		L84.404,32.126z M84.404,30.772h1.243v-0.934h-1.243V30.772L84.404,30.772z M81.479,33.468l0.118,0.463
		c0.519-0.104,1.189-0.241,2.009-0.415c0-0.148,0.006-0.307,0.019-0.476C82.85,33.21,82.134,33.352,81.479,33.468L81.479,33.468z
		 M85.436,28.516c0.227,0.309,0.415,0.596,0.563,0.86l0.407-0.26c-0.152-0.259-0.348-0.54-0.587-0.841L85.436,28.516L85.436,28.516z
		 M90.06,30.024c0.506-0.532,0.893-1.113,1.157-1.743l0.444,0.135c-0.08,0.171-0.165,0.336-0.253,0.495h2.041v0.389
		c-0.287,0.417-0.632,0.783-1.036,1.097c0.412,0.215,0.93,0.376,1.555,0.485c-0.066,0.108-0.138,0.26-0.216,0.458
		c-0.748-0.188-1.327-0.409-1.737-0.665c-0.451,0.287-1.028,0.554-1.73,0.801c-0.078-0.132-0.165-0.266-0.259-0.402
		c0.638-0.168,1.182-0.388,1.632-0.658c-0.279-0.225-0.519-0.475-0.72-0.751c-0.165,0.231-0.341,0.447-0.529,0.649
		C90.315,30.224,90.2,30.128,90.06,30.024L90.06,30.024z M87.803,31.286c0.512-0.906,0.893-1.908,1.144-3.004l0.458,0.086
		c-0.125,0.482-0.264,0.934-0.415,1.357v4.627h-0.439V30.8c-0.171,0.367-0.354,0.704-0.549,1.01
		C87.948,31.646,87.881,31.471,87.803,31.286L87.803,31.286z M93.411,32.448l0.277,0.34c-0.984,0.771-2.122,1.312-3.412,1.625
		c-0.082-0.152-0.165-0.286-0.247-0.402C91.319,33.707,92.446,33.186,93.411,32.448L93.411,32.448z M89.479,33.017v-3.747h0.426
		v3.747H89.479L89.479,33.017z M92.854,31.713c-0.655,0.53-1.498,0.964-2.528,1.297c0.087,0.104,0.18,0.231,0.278,0.383
		c0.985-0.366,1.833-0.815,2.542-1.347L92.854,31.713L92.854,31.713z M92.254,31.082c-0.618,0.437-1.284,0.757-1.997,0.958
		c0.121,0.124,0.213,0.247,0.279,0.372c0.713-0.252,1.385-0.59,2.015-1.014L92.254,31.082L92.254,31.082z M92.886,29.295h-1.704
		c-0.002,0.003-0.004,0.007-0.006,0.012c0.246,0.353,0.531,0.639,0.857,0.856C92.399,29.89,92.683,29.601,92.886,29.295z"/>
	<path class="st0" d="M68.635,38.725v-2.472h0.706c0.374,0,0.686,0.109,0.934,0.327c0.249,0.219,0.373,0.511,0.373,0.878
		c0,0.383-0.124,0.69-0.373,0.921c-0.248,0.231-0.568,0.346-0.959,0.346H68.635L68.635,38.725z M68.954,36.537v1.906h0.359
		c0.313,0,0.559-0.086,0.734-0.257c0.176-0.172,0.264-0.411,0.264-0.72c0-0.309-0.09-0.54-0.271-0.696
		c-0.181-0.155-0.419-0.233-0.713-0.233H68.954L68.954,36.537z M72.348,37.922h-1.235c0.006,0.188,0.057,0.334,0.155,0.437
		c0.098,0.103,0.235,0.154,0.41,0.154c0.198,0,0.379-0.063,0.544-0.19v0.279c-0.155,0.11-0.361,0.165-0.618,0.165
		c-0.255,0-0.454-0.081-0.597-0.242c-0.144-0.162-0.215-0.386-0.215-0.673c0-0.271,0.079-0.494,0.235-0.669s0.352-0.263,0.585-0.263
		c0.231,0,0.412,0.074,0.541,0.222c0.129,0.148,0.194,0.356,0.194,0.623V37.922L72.348,37.922z M72.035,37.672
		c-0.001-0.16-0.039-0.283-0.113-0.37c-0.075-0.087-0.179-0.131-0.314-0.131c-0.125,0-0.232,0.046-0.323,0.139
		c-0.091,0.092-0.148,0.213-0.172,0.362H72.035L72.035,37.672z M73.809,38.646c-0.135,0.081-0.298,0.121-0.488,0.121
		c-0.256,0-0.461-0.082-0.616-0.246c-0.156-0.164-0.233-0.376-0.233-0.637c0-0.289,0.083-0.522,0.251-0.7
		c0.168-0.177,0.392-0.266,0.672-0.266c0.162,0,0.3,0.028,0.415,0.086v0.31c-0.125-0.092-0.263-0.137-0.415-0.137
		c-0.178,0-0.324,0.062-0.436,0.186s-0.168,0.289-0.168,0.496c0,0.203,0.053,0.362,0.159,0.477s0.249,0.172,0.428,0.172
		c0.152,0,0.296-0.05,0.431-0.15V38.646L73.809,38.646z M73.937,37.862c0-0.292,0.081-0.521,0.244-0.69
		c0.163-0.168,0.383-0.252,0.662-0.252c0.265,0,0.473,0.081,0.624,0.243c0.15,0.162,0.226,0.387,0.226,0.672
		c0,0.279-0.08,0.504-0.241,0.675c-0.161,0.171-0.375,0.257-0.646,0.257c-0.264,0-0.474-0.083-0.632-0.249
		C74.015,38.352,73.937,38.133,73.937,37.862L73.937,37.862z M74.256,37.852c0,0.204,0.051,0.363,0.154,0.48s0.24,0.176,0.414,0.176
		c0.179,0,0.315-0.057,0.409-0.171c0.094-0.115,0.141-0.279,0.141-0.492c0-0.215-0.047-0.38-0.141-0.495
		c-0.094-0.115-0.229-0.173-0.409-0.173c-0.175,0-0.314,0.061-0.416,0.18C74.307,37.478,74.256,37.643,74.256,37.852L74.256,37.852z
		 M76.904,37.27c-0.053-0.037-0.125-0.055-0.215-0.055c-0.122,0-0.222,0.057-0.3,0.17c-0.079,0.113-0.118,0.262-0.118,0.447v0.894
		h-0.312V36.96h0.312v0.359h0.006c0.089-0.26,0.244-0.39,0.463-0.39c0.071,0,0.126,0.008,0.165,0.024V37.27L76.904,37.27z
		 M77.073,37.083v0.302c0.174-0.143,0.368-0.214,0.579-0.214c0.238,0,0.357,0.144,0.357,0.432l-0.523,0.074
		c-0.39,0.054-0.586,0.246-0.586,0.576c0,0.157,0.05,0.282,0.152,0.375c0.101,0.093,0.237,0.139,0.409,0.139
		c0.238,0,0.418-0.104,0.541-0.314h0.008v0.273h0.31v-1.136c0-0.446-0.213-0.67-0.639-0.67
		C77.451,36.919,77.249,36.974,77.073,37.083L77.073,37.083z M77.597,37.896l0.413-0.056v0.169c0,0.145-0.044,0.265-0.133,0.361
		c-0.088,0.095-0.2,0.144-0.336,0.144c-0.098,0-0.177-0.027-0.236-0.08c-0.06-0.053-0.089-0.122-0.089-0.206
		c0-0.096,0.027-0.171,0.082-0.223C77.352,37.951,77.452,37.915,77.597,37.896L77.597,37.896z M79.511,38.708
		c-0.068,0.037-0.16,0.056-0.276,0.056c-0.316,0-0.474-0.175-0.474-0.525v-1.02h-0.303V36.96h0.303v-0.425l0.312-0.099v0.523h0.438
		v0.258h-0.438v0.964c0,0.116,0.02,0.199,0.059,0.249c0.04,0.05,0.105,0.075,0.196,0.075c0.07,0,0.132-0.021,0.184-0.06V38.708
		L79.511,38.708z M79.668,36.338c0-0.055,0.019-0.102,0.057-0.14c0.038-0.038,0.084-0.057,0.14-0.057
		c0.056,0,0.104,0.019,0.143,0.056c0.039,0.038,0.058,0.084,0.058,0.141c0,0.055-0.02,0.101-0.058,0.138
		c-0.039,0.037-0.086,0.055-0.143,0.055c-0.057,0-0.104-0.019-0.141-0.055C79.687,36.439,79.668,36.393,79.668,36.338L79.668,36.338
		z M79.705,38.725V36.96h0.312v1.765H79.705L79.705,38.725z M80.284,37.862c0-0.292,0.081-0.521,0.244-0.69
		c0.163-0.168,0.383-0.252,0.662-0.252c0.265,0,0.473,0.081,0.624,0.243c0.15,0.162,0.226,0.387,0.226,0.672
		c0,0.279-0.081,0.504-0.241,0.675c-0.161,0.171-0.376,0.257-0.646,0.257c-0.264,0-0.475-0.083-0.632-0.249
		C80.363,38.352,80.284,38.133,80.284,37.862L80.284,37.862z M80.604,37.852c0,0.204,0.051,0.363,0.154,0.48
		c0.102,0.117,0.24,0.176,0.414,0.176c0.179,0,0.315-0.057,0.409-0.171c0.094-0.115,0.141-0.279,0.141-0.492
		c0-0.215-0.047-0.38-0.141-0.495c-0.094-0.115-0.23-0.173-0.409-0.173c-0.175,0-0.314,0.061-0.416,0.18
		C80.654,37.478,80.604,37.643,80.604,37.852L80.604,37.852z M83.797,38.725h-0.311v-1.004c0-0.362-0.132-0.544-0.397-0.544
		c-0.137,0-0.25,0.051-0.338,0.153c-0.088,0.102-0.132,0.231-0.132,0.388v1.007h-0.312V36.96h0.312v0.292h0.007
		c0.133-0.222,0.326-0.333,0.579-0.333c0.194,0,0.341,0.062,0.442,0.186s0.151,0.305,0.151,0.542V38.725L83.797,38.725z
		 M84.819,38.344c0.157,0.114,0.327,0.17,0.509,0.17c0.244,0,0.366-0.079,0.366-0.239c0-0.068-0.027-0.124-0.08-0.168
		c-0.054-0.044-0.161-0.097-0.324-0.157c-0.195-0.079-0.322-0.156-0.381-0.234c-0.058-0.077-0.088-0.17-0.088-0.28
		c0-0.156,0.066-0.281,0.199-0.375s0.295-0.141,0.489-0.141c0.15,0,0.29,0.025,0.418,0.078v0.302
		c-0.132-0.085-0.281-0.128-0.448-0.128c-0.1,0-0.182,0.022-0.244,0.065c-0.062,0.044-0.094,0.101-0.094,0.172
		c0,0.07,0.022,0.125,0.067,0.165c0.045,0.039,0.146,0.09,0.301,0.151c0.197,0.073,0.33,0.149,0.399,0.229
		c0.069,0.079,0.104,0.176,0.104,0.292c0,0.162-0.066,0.29-0.199,0.382c-0.132,0.094-0.304,0.14-0.515,0.14
		c-0.183,0-0.343-0.034-0.479-0.104V38.344L84.819,38.344z M87.694,37.922h-1.235c0.005,0.188,0.057,0.334,0.154,0.437
		c0.098,0.103,0.235,0.154,0.41,0.154c0.198,0,0.379-0.063,0.544-0.19v0.279c-0.155,0.11-0.361,0.165-0.618,0.165
		c-0.255,0-0.455-0.081-0.598-0.242c-0.143-0.162-0.214-0.386-0.214-0.673c0-0.271,0.079-0.494,0.235-0.669s0.352-0.263,0.585-0.263
		c0.231,0,0.411,0.074,0.541,0.222c0.129,0.148,0.194,0.356,0.194,0.623V37.922L87.694,37.922z M87.382,37.672
		c-0.001-0.16-0.039-0.283-0.114-0.37c-0.074-0.087-0.179-0.131-0.314-0.131c-0.125,0-0.232,0.046-0.323,0.139
		c-0.091,0.092-0.148,0.213-0.171,0.362H87.382L87.382,37.672z M88.883,37.27c-0.052-0.037-0.124-0.055-0.215-0.055
		c-0.122,0-0.222,0.057-0.3,0.17c-0.079,0.113-0.118,0.262-0.118,0.447v0.894h-0.313V36.96h0.313v0.359h0.006
		c0.089-0.26,0.244-0.39,0.462-0.39c0.071,0,0.126,0.008,0.165,0.024V37.27L88.883,37.27z M90.574,36.96l-0.699,1.765H89.56
		l-0.664-1.765h0.342l0.431,1.261c0.035,0.101,0.056,0.186,0.062,0.253h0.008c0.01-0.089,0.029-0.171,0.056-0.247l0.452-1.267
		H90.574L90.574,36.96z M90.655,36.338c0-0.055,0.019-0.102,0.057-0.14c0.038-0.038,0.084-0.057,0.14-0.057
		c0.056,0,0.104,0.019,0.143,0.056c0.039,0.038,0.058,0.084,0.058,0.141c0,0.055-0.02,0.101-0.058,0.138
		c-0.039,0.037-0.086,0.055-0.143,0.055c-0.057,0-0.104-0.019-0.141-0.055C90.674,36.439,90.655,36.393,90.655,36.338L90.655,36.338
		z M90.692,38.725V36.96h0.312v1.765H90.692L90.692,38.725z M92.608,38.646c-0.135,0.081-0.298,0.121-0.488,0.121
		c-0.255,0-0.461-0.082-0.616-0.246s-0.233-0.376-0.233-0.637c0-0.289,0.084-0.522,0.251-0.7c0.168-0.177,0.392-0.266,0.673-0.266
		c0.162,0,0.3,0.028,0.415,0.086v0.31c-0.125-0.092-0.263-0.137-0.415-0.137c-0.179,0-0.324,0.062-0.437,0.186
		c-0.112,0.124-0.168,0.289-0.168,0.496c0,0.203,0.053,0.362,0.158,0.477c0.106,0.115,0.249,0.172,0.429,0.172
		c0.152,0,0.296-0.05,0.431-0.15V38.646L92.608,38.646z M94.292,37.922h-1.235c0.005,0.188,0.057,0.334,0.154,0.437
		c0.098,0.103,0.235,0.154,0.41,0.154c0.198,0,0.379-0.063,0.544-0.19v0.279c-0.155,0.11-0.361,0.165-0.618,0.165
		c-0.255,0-0.455-0.081-0.598-0.242c-0.143-0.162-0.214-0.386-0.214-0.673c0-0.271,0.078-0.494,0.235-0.669
		c0.157-0.175,0.352-0.263,0.585-0.263c0.231,0,0.411,0.074,0.541,0.222c0.13,0.148,0.195,0.356,0.195,0.623V37.922L94.292,37.922z
		 M93.979,37.672c-0.001-0.16-0.039-0.283-0.113-0.37c-0.075-0.087-0.179-0.131-0.314-0.131c-0.125,0-0.232,0.046-0.323,0.139
		c-0.091,0.092-0.148,0.213-0.171,0.362H93.979z"/>
	<path class="st1" d="M82.108,22.709h-1.253c-0.29,0-0.562-0.092-0.77-0.258c-0.221-0.178-0.343-0.428-0.337-0.686l0.272-10.824
		c0.003-0.129,0.109-0.232,0.238-0.232h2.42c0.129,0,0.235,0.103,0.238,0.232l0.297,10.823c0.007,0.258-0.116,0.509-0.336,0.687
		C82.671,22.617,82.398,22.709,82.108,22.709L82.108,22.709z M80.491,11.185l-0.266,10.592c-0.002,0.11,0.054,0.217,0.16,0.303
		c0.12,0.097,0.292,0.153,0.47,0.153h1.253c0.178,0,0.35-0.056,0.471-0.153c0.105-0.085,0.162-0.193,0.159-0.303l-0.291-10.591
		H80.491z"/>
	<path class="st1" d="M82.719,12.221h-2.476c-0.075,0-0.136-0.061-0.136-0.136v-1.203c0-0.075,0.061-0.136,0.136-0.136
		s0.136,0.061,0.136,0.136v1.066h2.203v-1.133c0-0.075,0.061-0.136,0.136-0.136s0.136,0.061,0.136,0.136v1.269
		C82.856,12.16,82.794,12.221,82.719,12.221z"/>
	<path class="st1" d="M80.244,11.083c-0.075,0-0.136-0.061-0.136-0.136v-0.802c0-0.075,0.061-0.136,0.136-0.136h2.476
		c0.075,0,0.137,0.061,0.137,0.136v0.736c0,0.075-0.062,0.136-0.137,0.136s-0.136-0.061-0.136-0.136v-0.6H80.38v0.666
		C80.38,11.021,80.319,11.083,80.244,11.083z"/>
	<path class="st1" d="M82.006,11.231h-1.184c-0.799,0-1.45-0.52-1.45-1.159V6.389c0-0.639,0.651-1.159,1.45-1.159h1.184
		c0.8,0,1.451,0.52,1.451,1.159v0.296c0,0.131-0.106,0.238-0.239,0.238c-0.132,0-0.238-0.106-0.238-0.238V6.389
		c0-0.37-0.446-0.682-0.974-0.682h-1.184c-0.527,0-0.973,0.312-0.973,0.682v3.683c0,0.37,0.446,0.683,0.973,0.683h1.184
		c0.528,0,0.974-0.312,0.974-0.683V9.776c0-0.132,0.106-0.239,0.238-0.239c0.132,0,0.239,0.107,0.239,0.239v0.295
		C83.457,10.711,82.805,11.231,82.006,11.231z"/>
	<path class="st1" d="M84.083,6.943c-0.02,0-0.04-0.003-0.06-0.008c-0.03-0.008-0.061-0.012-0.091-0.012h-0.714
		c-0.132,0-0.238-0.106-0.238-0.238c0-0.131,0.106-0.238,0.238-0.238h0.714c0.071,0,0.142,0.009,0.21,0.027
		c0.128,0.033,0.205,0.162,0.171,0.29C84.286,6.871,84.189,6.943,84.083,6.943z"/>
	<path class="st1" d="M83.932,10.015h-0.714c-0.132,0-0.238-0.106-0.238-0.238c0-0.131,0.106-0.239,0.238-0.239l0.714,0
		c0.031,0,0.062-0.004,0.092-0.012c0.128-0.033,0.257,0.044,0.29,0.171c0.033,0.128-0.044,0.258-0.171,0.291
		C84.074,10.006,84.003,10.015,83.932,10.015z"/>
	<path class="st1" d="M86.508,10.646h-2.425c-0.131,0-0.239-0.107-0.239-0.238V9.757c0-0.132,0.107-0.238,0.239-0.238
		s0.238,0.106,0.238,0.238v0.412h1.949V6.146h-1.949v0.558c0,0.131-0.107,0.238-0.239,0.238c-0.131,0-0.238-0.106-0.238-0.238V5.908
		c0-0.131,0.106-0.238,0.238-0.238h2.426c0.131,0,0.238,0.106,0.238,0.238v4.5C86.747,10.539,86.64,10.646,86.508,10.646z"/>
	<path class="st1" d="M85.569,10.544c-0.075,0-0.136-0.061-0.136-0.136v-4.5c0-0.075,0.061-0.136,0.136-0.136
		c0.075,0,0.136,0.061,0.136,0.136v4.5C85.705,10.482,85.644,10.544,85.569,10.544z"/>
	<path class="st1" d="M75.394,11.185c-0.023,0-0.045-0.003-0.068-0.01c-0.101-0.03-0.17-0.123-0.17-0.228
		c0-2.207,1.208-3.431,2.22-4.069c1.084-0.683,2.155-0.848,2.201-0.855c0.13-0.02,0.252,0.071,0.271,0.201
		c0.02,0.13-0.07,0.251-0.2,0.271l0,0c-0.011,0.001-1.03,0.161-2.03,0.795c-1.105,0.701-1.753,1.681-1.932,2.919
		c0.671-0.727,2.014-1.845,3.927-1.845c0.131,0,0.238,0.106,0.238,0.238s-0.106,0.238-0.238,0.238c-2.521,0-4.002,2.215-4.018,2.238
		C75.548,11.146,75.472,11.185,75.394,11.185z"/>
	<path class="st1" d="M81.306,0c6.293,0,11.397,5.104,11.397,11.397s-5.104,11.397-11.397,11.397s-11.397-5.104-11.397-11.397
		S75.012,0,81.306,0L81.306,0z M81.306,0.97c-5.758,0-10.427,4.669-10.427,10.428c0,5.758,4.669,10.427,10.427,10.427
		s10.427-4.669,10.427-10.427C91.733,5.639,87.063,0.97,81.306,0.97z"/>
	<path class="st1" d="M113.575,19.659h4.521v-0.614h-4.521V19.659L113.575,19.659z M113.575,18.5h4.521v-0.614h-4.521V18.5
		L113.575,18.5z M113.575,17.342h4.521v-0.614h-4.521V17.342L113.575,17.342z M119.529,12.333c-0.567,0.805-1.176,1.331-1.36,1.906
		c-0.124,0.446-0.127,0.788-0.167,0.965c-0.06,0.174-0.013,0.149-0.238,0.247c-0.206,0.074-1.091,0.136-1.929,0.131
		c-0.837,0.004-1.723-0.058-1.927-0.131c-0.225-0.096-0.179-0.072-0.238-0.247c-0.039-0.178-0.044-0.52-0.167-0.965
		c-0.183-0.575-0.793-1.101-1.359-1.906c-0.568-0.791-1.086-1.767-1.086-3.004c0-1.234,0.552-2.354,1.422-3.173
		c0.871-0.818,2.057-1.323,3.299-1.322l0.113,0c1.243,0,2.43,0.505,3.3,1.323c0.87,0.819,1.422,1.939,1.422,3.173
		C120.615,10.566,120.097,11.543,119.529,12.333L119.529,12.333z M115.892,4.22h-0.113c-2.813,0.003-5.326,2.265-5.334,5.109
		c0,1.415,0.598,2.524,1.202,3.362c0.604,0.822,1.223,1.466,1.266,1.71c0.105,0.374,0.103,0.647,0.158,0.928
		c0.037,0.283,0.272,0.609,0.65,0.706c0.398,0.122,1.233,0.157,2.115,0.161c0.883-0.004,1.717-0.04,2.117-0.161
		c0.378-0.096,0.615-0.422,0.65-0.706c0.055-0.28,0.052-0.553,0.156-0.926c0.044-0.246,0.664-0.89,1.269-1.711
		c0.604-0.838,1.202-1.947,1.201-3.362C121.219,6.485,118.708,4.224,115.892,4.22z"/>
	<polygon class="st1" points="115.691,7.017 114.502,10.221 116.241,9.824 115.783,12.081 117.369,8.939 115.295,9.275 	"/>
	<path class="st1" d="M115.836,0c6.293,0,11.397,5.104,11.397,11.397s-5.104,11.397-11.397,11.397s-11.398-5.104-11.398-11.397
		S109.542,0,115.836,0L115.836,0z M115.836,0.97c-5.758,0-10.428,4.669-10.428,10.428c0,5.758,4.669,10.427,10.428,10.427
		c5.758,0,10.427-4.669,10.427-10.427C126.263,5.639,121.594,0.97,115.836,0.97z"/>
	<path class="st0" d="M105.702,28.801h3.673v0.47h-1.36v4.185c0,0.515-0.253,0.774-0.761,0.779
		c-0.305,0.004-0.648,0.002-1.032-0.006c-0.021-0.189-0.054-0.373-0.099-0.55c0.441,0.033,0.77,0.049,0.989,0.049
		c0.264,0,0.396-0.138,0.396-0.415v-4.042h-1.806V28.801L105.702,28.801z M104.904,31.799l-0.336,0.241
		c0.079-0.424,0.118-0.88,0.12-1.366c0.017-0.659,0.028-1.438,0.032-2.337h-0.489c0,0.96-0.01,1.76-0.031,2.399
		c-0.004,1.241-0.321,2.283-0.953,3.128c0.091,0.078,0.214,0.204,0.372,0.377c0.463-0.602,0.776-1.32,0.939-2.154
		c0.336,0.499,0.672,1.01,1.007,1.536L106,33.332C105.633,32.813,105.268,32.301,104.904,31.799L104.904,31.799z M103.248,29.443
		l0.421-0.104c0.165,0.762,0.284,1.343,0.357,1.743l-0.451,0.124C103.494,30.658,103.384,30.07,103.248,29.443L103.248,29.443z
		 M105.388,29.357c-0.145,0.54-0.326,1.109-0.544,1.706c0.095,0.026,0.231,0.073,0.408,0.143c0.198-0.56,0.394-1.126,0.587-1.7
		L105.388,29.357L105.388,29.357z M109.622,32.528h0.853v-3.976h4.434v3.976h0.84v0.445h-6.126V32.528L109.622,32.528z
		 M110.952,32.528h3.479v-0.581h-3.479V32.528L110.952,32.528z M114.431,28.998h-3.479v0.569h3.479V28.998L114.431,28.998z
		 M110.952,30.55h3.479v-0.569h-3.479V30.55L110.952,30.55z M110.952,31.533h3.479v-0.569h-3.479V31.533L110.952,31.533z
		 M113.207,33.548l0.26-0.408c0.721,0.219,1.453,0.465,2.195,0.742l-0.241,0.488C114.86,34.124,114.123,33.849,113.207,33.548
		L113.207,33.548z M111.823,33.104l0.297,0.408c-0.725,0.333-1.458,0.63-2.195,0.889c-0.062-0.136-0.138-0.29-0.229-0.463
		C110.331,33.748,111.04,33.47,111.823,33.104L111.823,33.104z M117.77,30.779c0.536-0.737,0.983-1.576,1.342-2.516l0.476,0.154
		c-0.165,0.358-0.327,0.693-0.485,1.002h2.896v0.42h-1.354v0.934h1.304v0.42h-1.304v0.934h1.304v0.421h-1.304v0.958h1.427v0.42
		h-3.14v0.421h-0.47V30.59c-0.132,0.218-0.26,0.417-0.384,0.596C118,31.059,117.897,30.922,117.77,30.779L117.77,30.779z
		 M116.675,31.94c0.359-0.519,0.826-1.292,1.403-2.318l-0.445-0.197c-0.162,0.332-0.315,0.633-0.46,0.905
		c-0.305,0.006-0.53,0.009-0.677,0.009c0.322-0.54,0.655-1.178,1.001-1.917l-0.482-0.173c-0.301,0.787-0.649,1.496-1.044,2.127
		l0.118,0.39c0.23-0.021,0.526-0.043,0.886-0.068c-0.37,0.665-0.672,1.106-0.905,1.323l0.093,0.457
		c0.416-0.074,1.001-0.154,1.756-0.24c0.012-0.095,0.028-0.244,0.05-0.445C117.498,31.846,117.067,31.895,116.675,31.94
		L116.675,31.94z M118.932,33.505h1.243v-0.958h-1.243V33.505L118.932,33.505z M118.932,32.126h1.243v-0.934h-1.243V32.126
		L118.932,32.126z M118.932,30.772h1.243v-0.934h-1.243V30.772L118.932,30.772z M116.007,33.468l0.118,0.463
		c0.52-0.104,1.189-0.241,2.009-0.415c0-0.148,0.006-0.307,0.019-0.476C117.378,33.21,116.663,33.352,116.007,33.468L116.007,33.468
		z M119.964,28.516c0.227,0.309,0.414,0.596,0.563,0.86l0.407-0.26c-0.152-0.259-0.348-0.54-0.586-0.841L119.964,28.516
		L119.964,28.516z M125.93,28.516l0.408-0.26c0.169,0.198,0.354,0.437,0.556,0.717l-0.399,0.26h1.679v2.75h-0.476v-0.296h-2.38
		c-0.055,1.087-0.35,1.984-0.884,2.689c-0.103-0.107-0.236-0.225-0.401-0.352c0.543-0.668,0.815-1.624,0.815-2.869v-1.922h1.58
		C126.25,28.963,126.084,28.725,125.93,28.516L125.93,28.516z M122.338,31.564l0.062,0.525c0.288-0.095,0.573-0.187,0.853-0.275
		v1.666c0,0.194-0.088,0.291-0.266,0.291c-0.132,0-0.318-0.01-0.562-0.032c0.033,0.166,0.062,0.336,0.086,0.514
		c0.24,0.004,0.428,0.004,0.569,0c0.433-0.004,0.649-0.229,0.649-0.674v-1.913c0.268-0.081,0.532-0.158,0.791-0.232
		c-0.004-0.119-0.007-0.283-0.012-0.488c-0.268,0.08-0.527,0.157-0.779,0.232v-1.289h0.786v-0.427h-0.786V28.3h-0.476v1.162h-0.828
		v0.427h0.828v1.425C122.933,31.404,122.628,31.488,122.338,31.564L122.338,31.564z M125.331,29.679v1.563h2.367v-1.563H125.331z"/>
	<path class="st0" d="M105.883,38.75h-1.304v-2.472h0.319v2.19h0.985V38.75L105.883,38.75z M106.193,36.362
		c0-0.055,0.02-0.102,0.057-0.14c0.039-0.038,0.084-0.057,0.14-0.057c0.056,0,0.104,0.019,0.143,0.056
		c0.039,0.038,0.058,0.084,0.058,0.141c0,0.055-0.02,0.101-0.058,0.138c-0.039,0.037-0.087,0.055-0.143,0.055
		c-0.057,0-0.104-0.019-0.141-0.055C106.213,36.463,106.193,36.417,106.193,36.362L106.193,36.362z M106.23,38.75v-1.765h0.313
		v1.765H106.23L106.23,38.75z M108.65,38.602c0,0.653-0.317,0.979-0.951,0.979c-0.219,0-0.41-0.041-0.572-0.122v-0.302
		c0.197,0.11,0.386,0.165,0.567,0.165c0.429,0,0.644-0.226,0.644-0.677v-0.187h-0.007c-0.134,0.222-0.334,0.333-0.6,0.333
		c-0.222,0-0.399-0.079-0.532-0.237c-0.133-0.159-0.199-0.369-0.199-0.631c0-0.301,0.073-0.54,0.22-0.716
		c0.147-0.176,0.343-0.264,0.587-0.264c0.235,0,0.41,0.093,0.523,0.28h0.007v-0.239h0.312V38.602L108.65,38.602z M108.337,37.699
		c0-0.136-0.045-0.253-0.138-0.351c-0.092-0.098-0.206-0.147-0.341-0.147c-0.17,0-0.303,0.062-0.397,0.188s-0.142,0.296-0.142,0.515
		c0,0.188,0.046,0.339,0.137,0.455c0.092,0.116,0.213,0.174,0.364,0.174c0.152,0,0.277-0.056,0.373-0.166
		c0.097-0.11,0.145-0.251,0.144-0.421V37.699L108.337,37.699z M110.715,38.75h-0.311v-1.015c0-0.356-0.132-0.533-0.396-0.533
		c-0.135,0-0.248,0.052-0.336,0.156c-0.09,0.104-0.134,0.234-0.134,0.392v1h-0.312v-2.612h0.312v1.138h0.006
		c0.135-0.221,0.327-0.332,0.576-0.332c0.397,0,0.595,0.24,0.595,0.72V38.75L110.715,38.75z M112.1,38.732
		c-0.068,0.037-0.16,0.056-0.275,0.056c-0.317,0-0.475-0.175-0.475-0.525v-1.02h-0.303v-0.258h0.303V36.56l0.312-0.099v0.523h0.438
		v0.258h-0.438v0.964c0,0.116,0.02,0.199,0.059,0.249c0.039,0.05,0.104,0.075,0.196,0.075c0.07,0,0.132-0.021,0.184-0.06V38.732
		L112.1,38.732z M112.447,36.362c0-0.055,0.019-0.102,0.057-0.14c0.038-0.038,0.084-0.057,0.14-0.057
		c0.056,0,0.104,0.019,0.143,0.056c0.039,0.038,0.058,0.084,0.058,0.141c0,0.055-0.02,0.101-0.058,0.138
		c-0.039,0.037-0.086,0.055-0.143,0.055c-0.057,0-0.104-0.019-0.141-0.055C112.466,36.463,112.447,36.417,112.447,36.362
		L112.447,36.362z M112.484,38.75v-1.765h0.312v1.765H112.484L112.484,38.75z M114.864,38.75h-0.311v-1.004
		c0-0.363-0.132-0.544-0.397-0.544c-0.137,0-0.25,0.051-0.338,0.153c-0.088,0.102-0.132,0.231-0.132,0.388v1.007h-0.312v-1.765
		h0.312v0.292h0.006c0.133-0.222,0.326-0.333,0.579-0.333c0.194,0,0.341,0.062,0.442,0.186s0.151,0.305,0.151,0.542V38.75
		L114.864,38.75z M116.933,38.602c0,0.653-0.317,0.979-0.951,0.979c-0.219,0-0.41-0.041-0.571-0.122v-0.302
		c0.197,0.11,0.386,0.165,0.566,0.165c0.429,0,0.644-0.226,0.644-0.677v-0.187h-0.007c-0.134,0.222-0.334,0.333-0.6,0.333
		c-0.222,0-0.398-0.079-0.532-0.237c-0.133-0.159-0.199-0.369-0.199-0.631c0-0.301,0.074-0.54,0.22-0.716
		c0.147-0.176,0.342-0.264,0.587-0.264c0.235,0,0.409,0.093,0.523,0.28h0.007v-0.239h0.312V38.602L116.933,38.602z M116.621,37.699
		c0.001-0.136-0.045-0.253-0.137-0.351c-0.093-0.098-0.207-0.147-0.342-0.147c-0.17,0-0.303,0.062-0.397,0.188
		c-0.095,0.125-0.142,0.296-0.142,0.515c0,0.188,0.045,0.339,0.137,0.455c0.091,0.116,0.212,0.174,0.364,0.174
		c0.152,0,0.277-0.056,0.373-0.166c0.097-0.11,0.145-0.251,0.144-0.421V37.699L116.621,37.699z M119.228,37.294
		c-0.052-0.037-0.124-0.056-0.215-0.056c-0.122,0-0.222,0.057-0.3,0.17c-0.079,0.113-0.118,0.262-0.118,0.447v0.894h-0.312v-1.765
		h0.312v0.359h0.006c0.089-0.26,0.244-0.39,0.462-0.39c0.071,0,0.126,0.008,0.165,0.024V37.294L119.228,37.294z M120.937,37.947
		h-1.235c0.006,0.188,0.057,0.333,0.155,0.437c0.098,0.103,0.235,0.154,0.41,0.154c0.198,0,0.379-0.063,0.544-0.19v0.279
		c-0.155,0.11-0.361,0.165-0.618,0.165c-0.255,0-0.455-0.081-0.598-0.242c-0.143-0.162-0.215-0.387-0.215-0.673
		c0-0.271,0.079-0.494,0.235-0.669c0.157-0.176,0.352-0.263,0.585-0.263c0.231,0,0.411,0.074,0.541,0.222
		c0.129,0.148,0.194,0.356,0.194,0.623V37.947L120.937,37.947z M120.624,37.696c-0.001-0.159-0.039-0.282-0.113-0.37
		c-0.075-0.087-0.179-0.131-0.314-0.131c-0.125,0-0.232,0.046-0.323,0.139c-0.091,0.092-0.148,0.213-0.172,0.362H120.624
		L120.624,37.696z M121.682,38.501v1.061h-0.313v-2.577h0.313v0.304h0.006c0.138-0.23,0.34-0.346,0.606-0.346
		c0.225,0,0.402,0.079,0.53,0.237s0.192,0.37,0.192,0.636c0,0.293-0.073,0.53-0.218,0.708s-0.341,0.267-0.586,0.267
		c-0.227,0-0.402-0.097-0.525-0.29H121.682L121.682,38.501z M121.68,38.022c0,0.144,0.046,0.265,0.139,0.363
		c0.092,0.098,0.208,0.147,0.348,0.147c0.166,0,0.296-0.064,0.389-0.191c0.094-0.127,0.141-0.305,0.141-0.53
		c0-0.19-0.043-0.339-0.131-0.447c-0.087-0.108-0.207-0.162-0.357-0.162c-0.154,0-0.281,0.055-0.38,0.165
		c-0.099,0.109-0.148,0.25-0.148,0.421V38.022L121.68,38.022z M123.468,37.107c0.175-0.109,0.378-0.164,0.608-0.164
		c0.425,0,0.639,0.224,0.639,0.67v1.136h-0.31v-0.273h-0.008c-0.123,0.21-0.303,0.314-0.541,0.314c-0.171,0-0.308-0.046-0.409-0.139
		s-0.152-0.218-0.152-0.375c0-0.33,0.196-0.522,0.586-0.576l0.524-0.074c0-0.288-0.12-0.432-0.358-0.432
		c-0.211,0-0.405,0.071-0.579,0.214V37.107L123.468,37.107z M123.991,37.92c-0.145,0.02-0.245,0.055-0.299,0.108
		c-0.055,0.053-0.082,0.127-0.082,0.224c0,0.084,0.029,0.152,0.089,0.206c0.06,0.053,0.139,0.08,0.236,0.08
		c0.136,0,0.249-0.048,0.336-0.144c0.089-0.096,0.133-0.216,0.133-0.361v-0.169L123.991,37.92L123.991,37.92z M125.209,36.362
		c0-0.055,0.02-0.102,0.057-0.14c0.039-0.038,0.084-0.057,0.14-0.057c0.056,0,0.104,0.019,0.143,0.056
		c0.039,0.038,0.058,0.084,0.058,0.141c0,0.055-0.02,0.101-0.058,0.138c-0.039,0.037-0.087,0.055-0.143,0.055
		c-0.057,0-0.104-0.019-0.141-0.055C125.229,36.463,125.209,36.417,125.209,36.362L125.209,36.362z M125.247,38.75v-1.765h0.313
		v1.765H125.247L125.247,38.75z M127.081,37.294c-0.052-0.037-0.124-0.056-0.215-0.056c-0.122,0-0.222,0.057-0.3,0.17
		c-0.079,0.113-0.119,0.262-0.119,0.447v0.894h-0.312v-1.765h0.312v0.359h0.007c0.089-0.26,0.243-0.39,0.462-0.39
		c0.071,0,0.126,0.008,0.165,0.024V37.294z"/>
	<path class="st1" d="M150.363,0c6.293,0,11.397,5.104,11.397,11.397s-5.104,11.397-11.397,11.397
		c-6.294,0-11.397-5.104-11.397-11.397S144.069,0,150.363,0L150.363,0z M150.363,0.97c-5.758,0-10.428,4.669-10.428,10.428
		c0,5.758,4.669,10.427,10.428,10.427c5.758,0,10.427-4.669,10.427-10.427C160.791,5.639,156.121,0.97,150.363,0.97z"/>
	<path class="st0" d="M137.173,31.013h1.613v-1.799h-1.341v-0.489h5.545v0.489h-1.261v1.799h1.527v0.489h-1.527v2.819h-0.507v-2.819
		h-1.932c-0.015,0.754-0.123,1.314-0.325,1.682c-0.202,0.404-0.665,0.81-1.391,1.217c-0.107-0.147-0.225-0.292-0.353-0.433
		c0.631-0.321,1.051-0.657,1.261-1.007c0.188-0.282,0.288-0.768,0.301-1.459h-1.611V31.013L137.173,31.013z M139.294,31.013h1.929
		v-1.799h-1.929V31.013L139.294,31.013z M145.896,30.087h1.484V28.33h0.47v1.757h1.496v2.904h-0.47V30.52h-2.51v2.472h-0.471V30.087
		L145.896,30.087z M145.649,33.004c0.004,0.199,0.015,0.37,0.031,0.513c-0.284,0.14-0.586,0.308-0.908,0.501
		c-0.074,0.041-0.16,0.112-0.26,0.21l-0.328-0.426c0.132-0.124,0.198-0.279,0.198-0.463v-1.342h-0.828V31.57h0.828v-0.834h-0.415
		v-0.427h1.589v0.427h-0.723v0.834h0.815v0.426h-0.815v1.465C145.093,33.322,145.365,33.169,145.649,33.004L145.649,33.004z
		 M147.387,30.853c0,0.519-0.008,0.913-0.025,1.181c-0.041,1.001-0.725,1.663-2.052,1.984c0.115,0.153,0.221,0.298,0.315,0.439
		c0.923-0.272,1.565-0.707,1.929-1.304c0.588,0.375,1.17,0.787,1.743,1.236l0.334-0.415c-0.598-0.42-1.23-0.834-1.898-1.243
		c0.091-0.247,0.134-0.874,0.13-1.879H147.387L147.387,30.853z M143.479,30.191c0.095,0.132,0.181,0.272,0.261,0.421
		c0.206-0.302,0.398-0.618,0.58-0.953h1.342v-0.426h-1.12c0.127-0.255,0.248-0.521,0.358-0.798l-0.463-0.154
		C144.19,28.998,143.872,29.635,143.479,30.191L143.479,30.191z M148.357,29.696l0.383,0.272c0.305-0.379,0.579-0.746,0.822-1.101
		l-0.439-0.253C148.905,28.97,148.65,29.331,148.357,29.696L148.357,29.696z M145.68,28.868c0.252,0.331,0.495,0.691,0.73,1.083
		l0.427-0.272c-0.264-0.38-0.524-0.728-0.779-1.045L145.68,28.868L145.68,28.868z M152.561,28.652h3.054
		c-0.02,0.334-0.037,0.598-0.05,0.792c-0.033,0.64-0.359,0.951-0.977,0.94c-0.168-0.004-0.435-0.013-0.796-0.025
		c-0.025-0.16-0.052-0.323-0.081-0.488c0.305,0.038,0.579,0.06,0.823,0.068c0.354,0.013,0.545-0.157,0.575-0.507
		c0.012-0.106,0.022-0.224,0.031-0.353h-2.108v1.781h2.609v0.365c-0.166,0.723-0.467,1.353-0.906,1.889
		c0.357,0.337,0.799,0.6,1.326,0.788c-0.14,0.165-0.259,0.313-0.358,0.445c-0.507-0.237-0.937-0.532-1.289-0.884
		c-0.315,0.311-0.685,0.584-1.109,0.822c-0.079-0.136-0.164-0.272-0.254-0.409c0.412-0.21,0.768-0.461,1.066-0.754
		c-0.402-0.515-0.667-1.135-0.794-1.86h-0.29v3.072h-0.47V28.652L152.561,28.652z M150.305,28.628h1.743v5.014
		c0,0.411-0.191,0.618-0.575,0.618c-0.21,0-0.405-0.006-0.586-0.019c-0.017-0.124-0.041-0.27-0.075-0.439
		c0.211,0.033,0.392,0.05,0.545,0.05c0.169,0,0.253-0.084,0.253-0.253v-1.422h-0.865c0.013,0.948-0.158,1.671-0.513,2.17
		c-0.091-0.12-0.205-0.235-0.341-0.346c0.276-0.425,0.415-1.026,0.415-1.805V28.628L150.305,28.628z M155.151,31.261h-1.406
		c0.127,0.593,0.355,1.098,0.683,1.514C154.767,32.345,155.009,31.84,155.151,31.261L155.151,31.261z M150.743,31.793h0.865V30.6
		h-0.865V31.793L150.743,31.793z M151.608,29.03h-0.865v1.187h0.865V29.03L151.608,29.03z M158.013,28.207l0.464,0.198
		c-0.093,0.152-0.189,0.301-0.291,0.445h3.345v0.414c-0.383,0.467-0.908,0.873-1.573,1.221c0.692,0.252,1.518,0.407,2.476,0.467
		c-0.132,0.186-0.248,0.358-0.346,0.519c-1.074-0.143-1.975-0.382-2.702-0.721c-0.817,0.348-1.807,0.624-2.966,0.826
		c-0.071-0.127-0.155-0.272-0.254-0.434c1.033-0.158,1.929-0.383,2.689-0.673c-0.47-0.287-0.846-0.625-1.128-1.017
		c-0.32,0.378-0.673,0.729-1.061,1.054c-0.124-0.132-0.237-0.244-0.34-0.333C157.083,29.571,157.647,28.916,158.013,28.207
		L158.013,28.207z M156.715,31.83v0.439h1.712c-0.219,0.779-0.919,1.36-2.102,1.743c0.107,0.14,0.208,0.278,0.303,0.415
		c1.316-0.447,2.083-1.167,2.302-2.158h2.062c-0.016,0.35-0.043,0.68-0.081,0.989c-0.037,0.347-0.229,0.523-0.58,0.532
		c-0.309-0.004-0.702-0.026-1.175-0.067c0.037,0.19,0.068,0.361,0.093,0.513c0.486,0.021,0.852,0.029,1.094,0.025
		c0.626-0.004,0.973-0.298,1.039-0.878c0.037-0.297,0.076-0.814,0.117-1.552h-2.494c0.028-0.2,0.056-0.423,0.083-0.667h-0.501
		c-0.02,0.245-0.045,0.467-0.074,0.667H156.715L156.715,31.83z M160.869,29.258h-2.76c0.333,0.397,0.759,0.726,1.28,0.983
		C159.984,29.962,160.478,29.635,160.869,29.258z"/>
	<path class="st0" d="M140.464,37.743c0,0.699-0.317,1.048-0.951,1.048c-0.607,0-0.911-0.337-0.911-1.011v-1.502h0.319v1.487
		c0,0.495,0.208,0.743,0.623,0.743c0.401,0,0.602-0.24,0.602-0.719v-1.511h0.319V37.743L140.464,37.743z M142.541,38.75h-0.311
		v-1.004c0-0.363-0.132-0.544-0.398-0.544c-0.137,0-0.25,0.051-0.338,0.153c-0.088,0.102-0.132,0.231-0.132,0.388v1.007h-0.313
		v-1.765h0.313v0.292h0.006c0.133-0.222,0.326-0.333,0.579-0.333c0.194,0,0.341,0.062,0.442,0.186
		c0.101,0.124,0.151,0.305,0.151,0.542V38.75L142.541,38.75z M143.077,38.75v-2.612h0.312v2.612H143.077L143.077,38.75z
		 M143.846,37.886c0-0.292,0.081-0.521,0.244-0.69c0.163-0.168,0.383-0.252,0.662-0.252c0.265,0,0.473,0.081,0.624,0.243
		c0.15,0.162,0.226,0.386,0.226,0.672c0,0.279-0.081,0.504-0.241,0.675s-0.376,0.257-0.646,0.257c-0.264,0-0.474-0.083-0.632-0.249
		C143.924,38.376,143.846,38.157,143.846,37.886L143.846,37.886z M144.165,37.876c0,0.204,0.051,0.363,0.154,0.48
		c0.102,0.117,0.24,0.176,0.414,0.176c0.179,0,0.315-0.057,0.409-0.171c0.094-0.115,0.141-0.279,0.141-0.492
		c0-0.215-0.047-0.38-0.141-0.495c-0.094-0.115-0.23-0.172-0.409-0.172c-0.175,0-0.314,0.061-0.416,0.18
		C144.216,37.502,144.165,37.667,144.165,37.876L144.165,37.876z M147.276,38.67c-0.135,0.081-0.298,0.121-0.488,0.121
		c-0.256,0-0.461-0.082-0.616-0.246c-0.156-0.164-0.233-0.376-0.233-0.637c0-0.289,0.084-0.522,0.251-0.7s0.392-0.266,0.672-0.266
		c0.162,0,0.3,0.028,0.415,0.086v0.31c-0.125-0.092-0.263-0.137-0.415-0.137c-0.179,0-0.324,0.062-0.436,0.186
		s-0.168,0.289-0.168,0.495c0,0.203,0.053,0.362,0.159,0.478c0.106,0.115,0.249,0.172,0.428,0.172c0.152,0,0.296-0.05,0.431-0.15
		V38.67L147.276,38.67z M149.212,38.75h-0.427l-0.754-0.851h-0.006v0.851h-0.312v-2.612h0.312v1.656h0.006l0.716-0.809h0.402
		l-0.797,0.849L149.212,38.75L149.212,38.75z M150.206,38.285c0.076,0.066,0.176,0.121,0.303,0.163
		c0.126,0.042,0.247,0.064,0.361,0.064c0.346,0,0.52-0.123,0.52-0.37c0-0.069-0.019-0.131-0.056-0.187
		c-0.037-0.055-0.088-0.104-0.153-0.147c-0.065-0.042-0.187-0.107-0.366-0.196c-0.248-0.124-0.411-0.238-0.49-0.344
		c-0.079-0.106-0.118-0.227-0.118-0.363c0-0.206,0.083-0.369,0.248-0.488c0.165-0.121,0.373-0.181,0.624-0.181
		c0.246,0,0.426,0.029,0.541,0.089v0.348c-0.149-0.103-0.337-0.155-0.565-0.155c-0.151,0-0.274,0.031-0.37,0.095
		c-0.095,0.063-0.143,0.151-0.143,0.264c0,0.1,0.033,0.181,0.099,0.245c0.066,0.062,0.209,0.148,0.429,0.256
		c0.243,0.116,0.413,0.232,0.509,0.348c0.097,0.116,0.146,0.247,0.146,0.391c0,0.217-0.079,0.384-0.236,0.5
		c-0.157,0.116-0.376,0.174-0.656,0.174c-0.098,0-0.212-0.014-0.342-0.041c-0.13-0.026-0.226-0.06-0.285-0.101V38.285
		L150.206,38.285z M153.621,37.947h-1.235c0.005,0.188,0.057,0.333,0.154,0.437c0.098,0.103,0.235,0.154,0.41,0.154
		c0.198,0,0.379-0.063,0.544-0.19v0.279c-0.155,0.11-0.361,0.165-0.618,0.165c-0.255,0-0.454-0.081-0.598-0.242
		c-0.143-0.162-0.214-0.387-0.214-0.673c0-0.271,0.079-0.494,0.235-0.669c0.157-0.176,0.352-0.263,0.585-0.263
		c0.231,0,0.411,0.074,0.541,0.222c0.13,0.148,0.195,0.356,0.195,0.623V37.947L153.621,37.947z M153.308,37.696
		c-0.001-0.159-0.038-0.282-0.113-0.37c-0.074-0.087-0.179-0.131-0.314-0.131c-0.125,0-0.232,0.046-0.323,0.139
		c-0.091,0.092-0.148,0.213-0.171,0.362H153.308L153.308,37.696z M155,37.294c-0.053-0.037-0.125-0.056-0.215-0.056
		c-0.122,0-0.222,0.057-0.3,0.17c-0.079,0.113-0.118,0.262-0.118,0.447v0.894h-0.312v-1.765h0.312v0.359h0.006
		c0.089-0.26,0.244-0.39,0.462-0.39c0.072,0,0.126,0.008,0.165,0.024V37.294L155,37.294z M156.881,36.985l-0.699,1.765h-0.316
		l-0.664-1.765h0.342l0.431,1.26c0.035,0.102,0.056,0.186,0.062,0.254h0.008c0.01-0.089,0.029-0.171,0.056-0.247l0.452-1.267
		H156.881L156.881,36.985z M157.152,36.362c0-0.055,0.02-0.102,0.057-0.14c0.038-0.038,0.084-0.057,0.14-0.057
		c0.056,0,0.104,0.019,0.143,0.056c0.039,0.038,0.058,0.084,0.058,0.141c0,0.055-0.02,0.101-0.058,0.138
		c-0.039,0.037-0.087,0.055-0.143,0.055c-0.057,0-0.103-0.019-0.141-0.055C157.171,36.463,157.152,36.417,157.152,36.362
		L157.152,36.362z M157.189,38.75v-1.765h0.312v1.765H157.189L157.189,38.75z M159.296,38.67c-0.135,0.081-0.298,0.121-0.488,0.121
		c-0.255,0-0.461-0.082-0.616-0.246s-0.233-0.376-0.233-0.637c0-0.289,0.084-0.522,0.251-0.7c0.168-0.177,0.393-0.266,0.673-0.266
		c0.162,0,0.3,0.028,0.415,0.086v0.31c-0.125-0.092-0.263-0.137-0.415-0.137c-0.179,0-0.324,0.062-0.436,0.186
		s-0.168,0.289-0.168,0.495c0,0.203,0.053,0.362,0.158,0.478c0.106,0.115,0.249,0.172,0.429,0.172c0.152,0,0.296-0.05,0.431-0.15
		V38.67L159.296,38.67z M161.169,37.947h-1.235c0.006,0.188,0.057,0.333,0.155,0.437c0.098,0.103,0.235,0.154,0.41,0.154
		c0.198,0,0.379-0.063,0.544-0.19v0.279c-0.155,0.11-0.361,0.165-0.618,0.165c-0.255,0-0.455-0.081-0.598-0.242
		c-0.143-0.162-0.215-0.387-0.215-0.673c0-0.271,0.079-0.494,0.235-0.669c0.157-0.176,0.352-0.263,0.585-0.263
		c0.231,0,0.412,0.074,0.541,0.222c0.129,0.148,0.194,0.356,0.194,0.623V37.947L161.169,37.947z M160.856,37.696
		c-0.001-0.159-0.039-0.282-0.113-0.37c-0.075-0.087-0.179-0.131-0.314-0.131c-0.125,0-0.232,0.046-0.323,0.139
		c-0.091,0.092-0.148,0.213-0.172,0.362H160.856z"/>
	<path class="st1" d="M152.119,17.11l-2.518-2.517c0.292-0.2,0.644-0.317,1.022-0.318c1.001,0.002,1.811,0.811,1.813,1.812
		C152.435,16.468,152.318,16.819,152.119,17.11L152.119,17.11z M150.624,17.9c0.374-0.001,0.722-0.115,1.011-0.309l-2.515-2.514
		c-0.194,0.288-0.309,0.636-0.309,1.009C148.813,17.087,149.624,17.898,150.624,17.9L150.624,17.9z M150.624,13.593
		c-1.378,0-2.495,1.117-2.495,2.494c0,1.378,1.117,2.495,2.495,2.495c1.377,0,2.495-1.116,2.495-2.495
		C153.119,14.709,152,13.593,150.624,13.593L150.624,13.593z M153.619,17.712l0.062-10.628c0-1.689-1.368-3.057-3.058-3.057
		c-1.688,0-3.057,1.368-3.057,3.057v0.52c0,0.292,0.237,0.527,0.527,0.527c0.291,0,0.527-0.235,0.527-0.527l-0.03-0.435
		c0-1.156,0.937-2.092,2.092-2.092c1.156,0,2.092,0.936,2.092,2.091v1.566l-5.144,3.003v5.974c0,0.989,0.801,1.789,1.789,1.789
		h2.409C152.818,19.5,153.619,18.701,153.619,17.712L153.619,17.712z M150.624,3.343c-2.061,0-3.739,1.678-3.739,3.74l0,0.52
		c0,0.667,0.542,1.209,1.209,1.209c0.667,0,1.209-0.543,1.209-1.209l0-0.023l-0.001-0.023l-0.028-0.411
		c0.012-0.766,0.639-1.387,1.409-1.387c0.777,0,1.409,0.632,1.409,1.41v1.174l-4.805,2.805l-0.338,0.198v0.392v5.974
		c0,1.363,1.109,2.473,2.471,2.473h2.41c1.363,0,2.473-1.11,2.473-2.473l0.063-10.625C154.365,5.021,152.687,3.343,150.624,3.343z"
		/>
	<path class="st1" d="M46.779,0c6.294,0,11.397,5.104,11.397,11.397s-5.104,11.397-11.397,11.397
		c-6.293,0-11.397-5.104-11.397-11.397S40.485,0,46.779,0L46.779,0z M46.779,0.97c-5.758,0-10.427,4.669-10.427,10.428
		c0,5.758,4.669,10.427,10.427,10.427c5.758,0,10.428-4.669,10.428-10.427C57.207,5.639,52.537,0.97,46.779,0.97z"/>
	<path class="st0" d="M37.004,28.3h0.501v0.993c0.177,0.482,0.38,0.929,0.609,1.344c0.456-0.379,0.91-0.833,1.363-1.36l0.415,0.372
		c-0.483,0.504-0.992,0.975-1.528,1.412c0.544,0.862,1.21,1.562,1.997,2.1c-0.173,0.173-0.313,0.327-0.421,0.463
		c-1.083-0.853-1.895-1.909-2.435-3.168v2.89c0,0.614-0.294,0.921-0.884,0.921c-0.182,0-0.45-0.001-0.804-0.005
		c-0.02-0.153-0.054-0.339-0.099-0.557c0.331,0.034,0.598,0.049,0.804,0.049c0.321,0,0.482-0.154,0.482-0.463V28.3L37.004,28.3z
		 M34.364,30.278h1.639c-0.268,1.072-0.868,2.098-1.799,3.079c0.11,0.091,0.237,0.216,0.376,0.378
		c0.927-0.964,1.566-2.123,1.917-3.475v-0.451h-2.133V30.278L34.364,30.278z M40.874,29.091h2.281V28.3h0.513v0.791h2.287v3.475
		h-2.287v0.724c0,0.251,0.132,0.376,0.396,0.376h1.447c0.281,0,0.452-0.093,0.514-0.278c0.065-0.202,0.113-0.492,0.142-0.872
		c0.12,0.054,0.291,0.118,0.514,0.192c-0.05,0.329-0.106,0.612-0.167,0.847c-0.103,0.387-0.384,0.581-0.841,0.581h-1.645
		c-0.581,0-0.871-0.284-0.871-0.853v-0.717h-1.769v0.426h-0.513V29.091L40.874,29.091z M45.442,32.102v-1.057h-1.774v1.057H45.442
		L45.442,32.102z M41.387,32.102h1.769v-1.057h-1.769V32.102L41.387,32.102z M45.442,29.555h-1.774v1.051h1.774V29.555
		L45.442,29.555z M41.387,30.606h1.769v-1.051h-1.769V30.606L41.387,30.606z M48.712,30.779c0.536-0.737,0.983-1.576,1.342-2.516
		l0.476,0.154c-0.165,0.358-0.327,0.693-0.485,1.002h2.896v0.42h-1.354v0.934h1.304v0.42h-1.304v0.934h1.304v0.421h-1.304v0.958
		h1.428v0.42h-3.14v0.421h-0.469V30.59c-0.132,0.218-0.261,0.417-0.384,0.596C48.943,31.059,48.84,30.922,48.712,30.779
		L48.712,30.779z M47.618,31.94c0.359-0.519,0.826-1.292,1.403-2.318l-0.445-0.197c-0.163,0.332-0.316,0.633-0.46,0.905
		c-0.305,0.006-0.53,0.009-0.677,0.009c0.322-0.54,0.655-1.178,1.001-1.917l-0.482-0.173c-0.301,0.787-0.649,1.496-1.044,2.127
		l0.118,0.39c0.23-0.021,0.526-0.043,0.886-0.068c-0.37,0.665-0.672,1.106-0.905,1.323l0.093,0.457
		c0.416-0.074,1.001-0.154,1.756-0.24c0.013-0.095,0.028-0.244,0.05-0.445C48.44,31.846,48.01,31.895,47.618,31.94L47.618,31.94z
		 M49.875,33.505h1.243v-0.958h-1.243V33.505L49.875,33.505z M49.875,32.126h1.243v-0.934h-1.243V32.126L49.875,32.126z
		 M49.875,30.772h1.243v-0.934h-1.243V30.772L49.875,30.772z M46.951,33.468l0.118,0.463c0.519-0.104,1.189-0.241,2.009-0.415
		c0-0.148,0.006-0.307,0.019-0.476C48.321,33.21,47.606,33.352,46.951,33.468L46.951,33.468z M50.907,28.516
		c0.227,0.309,0.414,0.596,0.563,0.86l0.407-0.26c-0.152-0.259-0.348-0.54-0.586-0.841L50.907,28.516L50.907,28.516z M55.532,30.024
		c0.506-0.532,0.893-1.113,1.156-1.743l0.444,0.135c-0.08,0.171-0.165,0.336-0.253,0.495h2.041v0.389
		c-0.287,0.417-0.632,0.783-1.036,1.097c0.413,0.215,0.931,0.376,1.555,0.485c-0.066,0.108-0.138,0.26-0.216,0.458
		c-0.748-0.188-1.327-0.409-1.737-0.665c-0.451,0.287-1.028,0.554-1.73,0.801c-0.078-0.132-0.165-0.266-0.26-0.402
		c0.638-0.168,1.183-0.388,1.632-0.658c-0.279-0.225-0.519-0.475-0.721-0.751c-0.165,0.231-0.341,0.447-0.529,0.649
		C55.787,30.224,55.672,30.128,55.532,30.024L55.532,30.024z M53.275,31.286c0.512-0.906,0.893-1.908,1.144-3.004l0.458,0.086
		c-0.125,0.482-0.264,0.934-0.415,1.357v4.627h-0.439V30.8c-0.171,0.367-0.354,0.704-0.55,1.01
		C53.419,31.646,53.353,31.471,53.275,31.286L53.275,31.286z M58.882,32.448l0.277,0.34c-0.984,0.771-2.122,1.312-3.412,1.625
		c-0.082-0.152-0.164-0.286-0.247-0.402C56.791,33.707,57.918,33.186,58.882,32.448L58.882,32.448z M54.95,33.017v-3.747h0.426
		v3.747H54.95L54.95,33.017z M58.325,31.713c-0.655,0.53-1.498,0.964-2.528,1.297c0.086,0.104,0.18,0.231,0.277,0.383
		c0.985-0.366,1.833-0.815,2.542-1.347L58.325,31.713L58.325,31.713z M57.726,31.082c-0.618,0.437-1.284,0.757-1.997,0.958
		c0.12,0.124,0.213,0.247,0.278,0.372c0.713-0.252,1.385-0.59,2.015-1.014L57.726,31.082L57.726,31.082z M58.357,29.295h-1.704
		c-0.002,0.003-0.004,0.007-0.007,0.012c0.246,0.353,0.531,0.639,0.857,0.856C57.871,29.89,58.154,29.601,58.357,29.295z"/>
	<path class="st0" d="M39.587,36.277l-0.692,2.472h-0.372l-0.498-1.781c-0.022-0.081-0.035-0.166-0.04-0.255h-0.006
		c-0.007,0.088-0.021,0.172-0.045,0.252l-0.503,1.784h-0.368l-0.717-2.472h0.353l0.504,1.868c0.022,0.084,0.036,0.168,0.041,0.253
		h0.009c0.006-0.064,0.023-0.148,0.053-0.253l0.534-1.868h0.314l0.511,1.882c0.017,0.062,0.031,0.141,0.042,0.236h0.006
		c0.006-0.069,0.021-0.15,0.046-0.243l0.485-1.875H39.587L39.587,36.277z M39.835,37.107c0.175-0.109,0.378-0.164,0.608-0.164
		c0.425,0,0.639,0.224,0.639,0.67v1.136h-0.31v-0.273h-0.008c-0.123,0.21-0.303,0.314-0.541,0.314c-0.171,0-0.308-0.046-0.409-0.139
		s-0.152-0.218-0.152-0.375c0-0.33,0.196-0.522,0.586-0.576l0.524-0.074c0-0.288-0.12-0.432-0.358-0.432
		c-0.211,0-0.405,0.071-0.579,0.214V37.107L39.835,37.107z M40.358,37.92c-0.145,0.02-0.245,0.055-0.299,0.108
		c-0.055,0.053-0.082,0.127-0.082,0.224c0,0.084,0.029,0.152,0.089,0.206c0.06,0.053,0.138,0.08,0.236,0.08
		c0.136,0,0.249-0.048,0.336-0.144c0.089-0.096,0.133-0.216,0.133-0.361v-0.169L40.358,37.92L40.358,37.92z M42.462,38.732
		c-0.068,0.037-0.16,0.056-0.275,0.056c-0.316,0-0.475-0.175-0.475-0.525v-1.02H41.41v-0.258h0.303V36.56l0.312-0.099v0.523h0.438
		v0.258h-0.438v0.964c0,0.116,0.02,0.199,0.059,0.249c0.039,0.05,0.104,0.075,0.196,0.075c0.07,0,0.132-0.021,0.184-0.06V38.732
		L42.462,38.732z M44.259,37.947h-1.235c0.005,0.188,0.057,0.333,0.155,0.437c0.098,0.103,0.235,0.154,0.41,0.154
		c0.198,0,0.379-0.063,0.544-0.19v0.279c-0.155,0.11-0.361,0.165-0.618,0.165c-0.255,0-0.454-0.081-0.597-0.242
		c-0.144-0.162-0.215-0.387-0.215-0.673c0-0.271,0.079-0.494,0.235-0.669c0.157-0.176,0.352-0.263,0.585-0.263
		c0.231,0,0.411,0.074,0.541,0.222c0.129,0.148,0.194,0.356,0.194,0.623V37.947L44.259,37.947z M43.947,37.696
		c-0.001-0.159-0.039-0.282-0.114-0.37c-0.074-0.087-0.179-0.131-0.314-0.131c-0.125,0-0.232,0.046-0.323,0.139
		c-0.091,0.092-0.148,0.213-0.171,0.362H43.947L43.947,37.696z M45.638,37.294c-0.053-0.037-0.124-0.056-0.215-0.056
		c-0.122,0-0.222,0.057-0.3,0.17c-0.079,0.113-0.118,0.262-0.118,0.447v0.894h-0.312v-1.765h0.312v0.359h0.007
		c0.089-0.26,0.243-0.39,0.462-0.39c0.072,0,0.126,0.008,0.165,0.024V37.294L45.638,37.294z M46.63,38.368
		c0.158,0.114,0.328,0.17,0.51,0.17c0.243,0,0.365-0.079,0.365-0.239c0-0.068-0.026-0.124-0.08-0.168
		c-0.053-0.044-0.161-0.097-0.324-0.157c-0.195-0.079-0.322-0.156-0.381-0.234c-0.058-0.077-0.087-0.17-0.087-0.28
		c0-0.156,0.066-0.281,0.199-0.375s0.295-0.141,0.489-0.141c0.15,0,0.289,0.025,0.418,0.078v0.301
		c-0.132-0.085-0.281-0.127-0.449-0.127c-0.1,0-0.181,0.022-0.244,0.065c-0.062,0.044-0.094,0.101-0.094,0.172
		c0,0.07,0.022,0.125,0.067,0.165c0.045,0.039,0.146,0.09,0.301,0.151c0.197,0.073,0.33,0.149,0.399,0.228
		c0.069,0.079,0.104,0.176,0.104,0.292c0,0.162-0.066,0.289-0.199,0.382c-0.132,0.094-0.304,0.14-0.515,0.14
		c-0.183,0-0.343-0.034-0.479-0.104V38.368L46.63,38.368z M49.695,37.947H48.46c0.005,0.188,0.057,0.333,0.155,0.437
		c0.098,0.103,0.235,0.154,0.41,0.154c0.198,0,0.379-0.063,0.544-0.19v0.279c-0.155,0.11-0.361,0.165-0.618,0.165
		c-0.255,0-0.454-0.081-0.598-0.242c-0.143-0.162-0.214-0.387-0.214-0.673c0-0.271,0.079-0.494,0.235-0.669
		c0.157-0.176,0.352-0.263,0.585-0.263c0.231,0,0.411,0.074,0.541,0.222c0.129,0.148,0.194,0.356,0.194,0.623V37.947L49.695,37.947z
		 M49.383,37.696c-0.001-0.159-0.039-0.282-0.114-0.37c-0.074-0.087-0.179-0.131-0.314-0.131c-0.125,0-0.232,0.046-0.323,0.139
		c-0.091,0.092-0.148,0.213-0.171,0.362H49.383L49.383,37.696z M51.074,37.294c-0.053-0.037-0.125-0.056-0.215-0.056
		c-0.122,0-0.222,0.057-0.3,0.17c-0.079,0.113-0.118,0.262-0.118,0.447v0.894h-0.312v-1.765h0.312v0.359h0.006
		c0.089-0.26,0.244-0.39,0.462-0.39c0.072,0,0.126,0.008,0.165,0.024V37.294L51.074,37.294z M52.956,36.985l-0.699,1.765h-0.316
		l-0.664-1.765h0.342l0.431,1.26c0.035,0.102,0.056,0.186,0.062,0.254h0.008c0.01-0.089,0.029-0.171,0.056-0.247l0.452-1.267H52.956
		L52.956,36.985z M53.227,36.362c0-0.055,0.019-0.102,0.057-0.14c0.038-0.038,0.084-0.057,0.14-0.057s0.104,0.019,0.143,0.056
		c0.039,0.038,0.058,0.084,0.058,0.141c0,0.055-0.02,0.101-0.058,0.138c-0.039,0.037-0.087,0.055-0.143,0.055
		c-0.057,0-0.104-0.019-0.141-0.055C53.246,36.463,53.227,36.417,53.227,36.362L53.227,36.362z M53.264,38.75v-1.765h0.312v1.765
		H53.264L53.264,38.75z M55.37,38.67c-0.135,0.081-0.298,0.121-0.488,0.121c-0.256,0-0.461-0.082-0.617-0.246
		c-0.155-0.164-0.233-0.376-0.233-0.637c0-0.289,0.084-0.522,0.251-0.7s0.392-0.266,0.672-0.266c0.162,0,0.3,0.028,0.415,0.086v0.31
		c-0.125-0.092-0.263-0.137-0.415-0.137c-0.179,0-0.324,0.062-0.436,0.186s-0.168,0.289-0.168,0.495
		c0,0.203,0.053,0.362,0.158,0.478c0.106,0.115,0.249,0.172,0.429,0.172c0.152,0,0.296-0.05,0.431-0.15V38.67L55.37,38.67z
		 M57.243,37.947h-1.234c0.005,0.188,0.057,0.333,0.154,0.437c0.098,0.103,0.235,0.154,0.41,0.154c0.198,0,0.379-0.063,0.544-0.19
		v0.279c-0.155,0.11-0.361,0.165-0.618,0.165c-0.255,0-0.455-0.081-0.598-0.242c-0.143-0.162-0.215-0.387-0.215-0.673
		c0-0.271,0.079-0.494,0.235-0.669c0.157-0.176,0.352-0.263,0.585-0.263c0.231,0,0.412,0.074,0.541,0.222
		c0.129,0.148,0.194,0.356,0.194,0.623V37.947L57.243,37.947z M56.931,37.696c-0.001-0.159-0.039-0.282-0.113-0.37
		c-0.075-0.087-0.179-0.131-0.314-0.131c-0.125,0-0.232,0.046-0.323,0.139c-0.091,0.092-0.148,0.213-0.171,0.362H56.931z"/>
	<path class="st1" d="M42.509,4.579c-0.87,2.079-1.021,4.677,0,6.741c0.815,1.647,0.719,2.82,0.378,4.334
		c-0.341,1.515-0.655,2.391-0.655,2.391l1.022,0.01c0,0,1.169-2.684,0.816-4.855c-0.354-2.171-1.103-2.957-1.259-4.185
		c-0.156-1.228,0.209-2.965,0.45-3.709c0.241-0.745,0.293-0.727,0.293-0.727H42.509z"/>
	<path class="st1" d="M50.019,4.528c-0.87,2.079-1.021,4.677,0,6.741c0.815,1.647,0.718,2.82,0.377,4.334s-0.655,2.391-0.655,2.391
		l1.022,0.01c0,0,1.17-2.684,0.816-4.855c-0.354-2.171-1.103-2.957-1.259-4.185C50.164,7.736,50.53,6,50.771,5.255
		c0.24-0.745,0.293-0.727,0.293-0.727H50.019z"/>
	<polygon class="st1" points="46.953,4.528 44.539,11.482 46.727,11.374 46.309,17.904 48.817,10.152 46.669,10.195 	"/>
</g>
</svg>
