<?xml version="1.0" encoding="UTF-8"?>
<!DOCTYPE svg PUBLIC "-//W3C//DTD SVG 1.1//EN" "http://www.w3.org/Graphics/SVG/1.1/DTD/svg11.dtd">
<!-- Creator: CorelDRAW -->
<svg xmlns="http://www.w3.org/2000/svg" xml:space="preserve" width="96.6532mm" height="46.2818mm" style="shape-rendering:geometricPrecision; text-rendering:geometricPrecision; image-rendering:optimizeQuality; fill-rule:evenodd; clip-rule:evenodd"
viewBox="0 0 18.0718 8.65357"
 xmlns:xlink="http://www.w3.org/1999/xlink">
 <defs>
  <style type="text/css">
   <![CDATA[
    .str1 {stroke:#141516;stroke-width:0.0934878;stroke-linecap:square}
    .str0 {stroke:#1F1A17;stroke-width:0.0934878}
    .fil4 {fill:none}
    .fil3 {fill:#B6DDC7}
    .fil1 {fill:#FFF500}
    .fil0 {fill:white}
    .fil2 {fill:#48B6D3}
   ]]>
  </style>
 </defs>
 <g id="图层_x0020_1">
  <metadata id="CorelCorpID_0Corel-Layer"/>
  <polygon class="fil0" points="-0,0 18.0718,0 18.0718,8.65357 -0,8.65357 "/>
  <path class="fil1" d="M6.05769 3.87913c-0.0222501,0.0190715 -0.178001,0.155751 -0.092179,0.216144 0.0858218,0.0603931 1.13167,-0.105249 1.40493,-0.0985362 0.273265,0.00671243 2.1519,-0.0127143 2.21547,-0.0699289 0.0635717,-0.0572145 0.136679,-0.222501 0.0667503,-0.238394 -0.0699289,-0.0158929 -1.6813,0.158798 -1.86929,0.182937 -0.187985,0.0241386 -1.72569,0.00777819 -1.72569,0.00777819z"/>
  <path class="fil2" d="M5.30732 4.87668c0,0 1.12958,0.283231 1.96014,0.508387 0.830564,0.225156 1.52909,0.334705 1.78141,0.204215 0.252324,-0.13049 0.551148,-0.178749 0.275565,-0.227512 -0.275583,-0.0487632 -1.23185,0.0232972 -1.54176,-0.232841 -0.309912,-0.256138 -0.468711,-0.314362 -0.453229,-0.554962 0.0154816,-0.2406 0.0923473,-0.303368 0.0852235,-0.337622 -0.00712377,-0.0342539 -2.02459,0.441917 -2.04273,0.479032 -0.0181366,0.0371147 -0.0646188,0.161304 -0.0646188,0.161304z"/>
  <path class="fil3" d="M12.1502 3.5623c-0.0562984,-0.00158929 -0.0614589,2.40563 0.0401437,2.62497 0.101603,0.219341 0.570537,0.171943 0.805005,0.148496 0.234467,-0.0234467 0.53763,-1.09927 0.468112,-1.87437 -0.0695175,-0.775107 0.0320663,-0.882824 -0.155489,-0.954866 -0.187555,-0.0720417 -1.15777,0.0557748 -1.15777,0.0557748z"/>
  <path class="fil4 str0" d="M5.37194 4.71538c0,0 1.27923,-0.340053 1.95934,-0.49657 0.680105,-0.156536 1.5815,-0.156536 2.06189,0.172709 0.480396,0.329264 0.399417,1.13891 -0.545165,1.23067 -0.944582,0.0917489 -2.22922,-0.313072 -2.86075,-0.469608 -0.63151,-0.156517 -0.669298,-0.188901 -0.669298,-0.188901 0,0 -0.156536,0.167324 -0.253689,0.350841 -0.0971525,0.183517 -0.350841,0.286073 -0.518184,0.0323842 -0.167324,-0.253689 -0.0593648,-0.523569 -0.215901,-0.79345 -0.156536,-0.269881 -0.0485763,-0.404821 0.291476,-0.372437 0.340053,0.0323842 0.653106,0.437205 0.701682,0.485781 0.048595,0.0485763 0.048595,0.0485763 0.048595,0.0485763z"/>
  <path class="fil4 str0" d="M7.53327 4.1781c-0.377279,0.981454 0.528617,1.01369 1.26375,1.10673 0.426398,0.0539799 0.711648,0.0584299 0.711648,0.0584299"/>
  <path class="fil4 str0" d="M7.69427 4.15336c0,0 -0.163286,-0.414955 -0.039134,-0.420359 0.0290934,-0.00125274 0.0467065,0.0211656 0.0565975,0.0562423 0.00594583,0.0210348 0.00912441,0.0466317 0.0103398,0.0743976 0.00201934,0.0462765 -0.00138362,0.0985922 -0.00643196,0.145897 -0.00839521,0.0788663 -0.0213713,0.143822 -0.0213713,0.143822z"/>
  <path class="fil4 str0" d="M7.7209 4.01203c-0.0223436,-0.0023372 1.63819,0.0365163 1.85914,-0.0416208 0.22093,-0.0781558 0.414936,-0.433802 -0.404167,-0.307164 -0.819103,0.126639 -1.45673,0.217303 -1.45673,0.217303"/>
  <path class="fil4 str0" d="M7.5954 3.89549c0,0 -1.5897,-0.132023 -1.6813,-0.0107698 -0.0916181,0.121235 -0.148197,0.385282 0.336799,0.272124 0.484996,-0.113158 1.37683,-0.137408 1.37683,-0.137408"/>
  <path class="fil4 str0" d="M4.86757 4.52646c0.165586,0 0.299872,0.134286 0.299872,0.29989 0,0.165586 -0.134286,0.299872 -0.299872,0.299872 -0.165604,0 -0.29989,-0.134286 -0.29989,-0.299872 0,-0.165604 0.134286,-0.29989 0.29989,-0.29989z"/>
  <path class="fil4 str0" d="M7.68193 4.28432c0,0 -0.0734814,0.0389096 -0.0815588,0.243648 -0.0145841,0.370081 0.433036,0.541631 0.944994,0.612457 0.586486,0.0811287 1.11858,-0.00832042 0.944526,-0.404615 -0.12662,-0.288279 -0.339791,-0.406279 -0.822094,-0.503264 -0.482285,-0.097003 -0.967879,0.00295421 -0.985866,0.0517736z"/>
  <path class="fil4 str0" d="M11.0165 3.45718c0,0 -0.0245499,0.112971 -0.0663016,0.157172 -0.0417517,0.044201 -0.171924,0.110521 -0.171924,0.110521 0,0 0.198923,0.0466504 0.223492,0.169456 0.0245499,0.122787 0.0245499,0.144887 0.0245499,0.144887 0,0 0.0147337,-0.142438 0.110521,-0.216106 0.0957876,-0.0736871 0.132622,-0.0859527 0.132622,-0.0859527 0,0 -0.169456,-0.0687696 -0.201391,-0.154722 -0.0319167,-0.0859527 -0.0515679,-0.125255 -0.0515679,-0.125255z"/>
  <path class="fil4 str0" d="M5.17193 5.99659c0,0 -0.0120225,0.0552887 -0.032459,0.0769218 -0.0204177,0.0216331 -0.0841203,0.054092 -0.0841203,0.054092 0,0 0.0973582,0.0228297 0.109362,0.0829237 0.0120225,0.060094 0.0120225,0.0709199 0.0120225,0.0709199 0,0 0.00293552,-0.0838025 0.0498103,-0.119851 0.0468748,-0.0360676 0.076847,-0.0472861 0.076847,-0.0472861 0,0 -0.0905897,-0.0143597 -0.106221,-0.0564292 -0.0156312,-0.0420695 -0.0252417,-0.0612906 -0.0252417,-0.0612906z"/>
  <path class="fil4 str0" d="M10.8809 4.189c0,0 -0.0211843,0.097433 -0.0571958,0.135557 -0.0360115,0.038143 -0.148272,0.0953389 -0.148272,0.0953389 0,0 0.171588,0.0402372 0.192753,0.146159 0.0211843,0.105922 0.0211843,0.124975 0.0211843,0.124975 0,0 0.00517922,-0.147673 0.0877851,-0.211226 0.0826245,-0.063553 0.135426,-0.083335 0.135426,-0.083335 0,0 -0.159658,-0.0252978 -0.1872,-0.0994336 -0.0275228,-0.0741545 -0.0444815,-0.108035 -0.0444815,-0.108035z"/>
  <path class="fil4 str1" d="M15.3384 3.40999l-0.0280089 0.0269993 -0.0198755 0.0345718c-0.0219883,0.0126769 -0.0247556,0.0125087 -0.0479032,0.0205299 -0.031468,0.000673112 -0.0278781,0.00119664 -0.0547465,0.0136679 -0.021764,0.0275789 -0.0167343,0.0240264 -0.0273732,0.0547465 0.00749772,0.0186789 0.00938618,0.0206047 0.0136866,0.0410412l0.0273732 0.0273732c0.0151637,0.00286073 0.0246434,0.00684331 0.0410598,0.00684331l0.32846 0c0.0216705,0 0.0370025,-0.015762 0.0547465,-0.0273732 0.0146589,-0.0158742 0.0273732,-0.0259522 0.0273732,-0.0478845l0 -0.0410598c0,-0.0119103 -0.00345905,-0.0171644 -0.00684331,-0.0273545l-0.0273732 -0.0273732c-0.0204551,-0.00430044 -0.022381,-0.00618889 -0.0410598,-0.0136866l-0.0479032 0c-0.0168091,-0.00603931 -0.0117421,-0.0038143 -0.0273732,-0.00684331l-0.0273732 -0.0273732c-0.0168091,-0.00603931 -0.0117234,-0.0038143 -0.0273732,-0.00682461 -0.0293178,-0.0209039 -0.0235402,-0.0136866 -0.0615711,-0.0136866 -0.0179871,0.00620759 -0.0284951,0.0100219 -0.0479219,0.0136866z"/>
  <path class="fil4 str1" d="M12.7586 3.60839c-0.0335247,0.0371895 -0.0205299,0.100312 -0.0205299,0.150515 0,0.0468748 -0.0092179,0.109138 0.00684331,0.150515 0.0275228,0.0106763 0.0614589,0.0106763 0.088963,0 0.0189032,-0.0487072 0.00684331,-0.216686 0.00684331,-0.280501 -0.0339735,-0.0306079 -0.0356189,-0.0205299 -0.0821197,-0.0205299z"/>
  <path class="fil4 str1" d="M12.7381 5.35984l0 0.273658c0.0151263,0.0119477 0.0207356,0.0205299 0.0410598,0.0205299l0.0205299 0c0.0203243,0 0.0259335,-0.00858218 0.0410598,-0.0205299l0 -0.273658c-0.0151263,-0.011929 -0.0207356,-0.0205299 -0.0410598,-0.0205299l-0.0205299 0c-0.0205112,0 -0.0257278,0.00871306 -0.0410598,0.0205299z"/>
  <path class="fil4 str1" d="M12.3207 5.33931c-0.00972273,0.0122843 -0.0122095,0.0148272 -0.0205486,0.0273732l0 0.266814c0.0333938,0.0301031 0.0296356,0.0205299 0.0752764,0.0205299 0.0146776,-0.0158742 0.0273732,-0.0259522 0.0273732,-0.0478845l0 -0.205243c0,-0.0301218 -0.00755382,-0.0396014 -0.0273732,-0.0615898l-0.0547278 0z"/>
  <path class="fil4 str1" d="M13.2034 5.33931c-0.0335247,0.0371895 -0.0205299,0.100312 -0.0205299,0.150515 0,0.0487258 -0.00989101,0.114298 0.00684331,0.157359 0.0275041,0.0106763 0.0374138,0.00684331 0.0684331,0.00684331 0.0487632,-0.054092 0.0205299,-0.212928 0.0205299,-0.287344 -0.00830172,-0.0129387 -0.0105267,-0.0149767 -0.0205299,-0.0273732l-0.0547465 0z"/>
  <path class="fil4 str1" d="M12.3207 3.60839c-0.0335434,0.0371895 -0.0205486,0.100312 -0.0205486,0.150515 0,0.0508387 -0.0103024,0.115775 0.0137053,0.157359l0.0684331 0c0.0151637,-0.0206608 0.0205112,-0.0270367 0.0205112,-0.0547278l0 -0.205262c0,-0.0219322 -0.0126956,-0.0319915 -0.0273732,-0.0478845l-0.0547278 0z"/>
  <path class="fil4 str1" d="M12.7586 4.77147c-0.0465382,0.051624 -0.0205299,0.195969 -0.0205299,0.266814 0.012303,0.00972273 0.0148646,0.0121721 0.0273732,0.0205299l0.0547465 0c0.0465382,-0.051624 0.0205299,-0.195969 0.0205299,-0.266833 -0.0339735,-0.0305892 -0.0356189,-0.0205112 -0.0821197,-0.0205112z"/>
  <path class="fil4 str1" d="M13.2034 3.60839c-0.0335247,0.0371895 -0.0205299,0.100312 -0.0205299,0.150515 0,0.0468748 -0.0092179,0.109138 0.00684331,0.150515 0.0279529,0.0108446 0.0435653,0.00684331 0.0752764,0.00684331 0.0321224,-0.0556813 0.0136866,-0.214742 0.0136866,-0.287344 -0.0333938,-0.0301031 -0.0296356,-0.0205299 -0.0752764,-0.0205299z"/>
  <path class="fil4 str1" d="M12.526 5.05881c-0.0383861,0.0425744 -0.0346092,0.219809 -0.0136866,0.273658 0.0275228,0.0106763 0.0614402,0.0106763 0.088963,0 0.0198755,-0.0511939 0.00684331,-0.189892 0.00684331,-0.253128 -0.0339735,-0.0306079 -0.0356189,-0.0205299 -0.0821197,-0.0205299z"/>
  <path class="fil4 str1" d="M12.7586 4.2036c-0.0383861,0.0425744 -0.0345905,0.219809 -0.0136866,0.273676 0.0275228,0.0106763 0.0614589,0.0106763 0.088963,0 0.0198755,-0.0512126 0.00684331,-0.189911 0.00684331,-0.253146 -0.0339735,-0.0306079 -0.0356189,-0.0205299 -0.0821197,-0.0205299z"/>
  <path class="fil4 str1" d="M12.9708 3.93679l0 0.246284c0.0339735,0.0306079 0.0356376,0.0205299 0.0821384,0.0205299 0.0394519,-0.043771 0.0354693,-0.230896 0.00682461,-0.280501 -0.0099845,-0.00358993 -0.0155938,-0.00684331 -0.0273732,-0.00684331l-0.0205299 0c-0.0205112,0 -0.0257278,0.00871306 -0.0410598,0.0205299z"/>
  <path class="fil4 str1" d="M12.9913 5.05881c-0.045809,0.0508013 -0.0205486,0.190322 -0.0205486,0.25999 0.0299161,0.0269432 0.0590843,0.0279342 0.0958063,0.0136679 0.0198755,-0.0511939 0.00684331,-0.189892 0.00684331,-0.253128 -0.0339548,-0.0306079 -0.0356189,-0.0205299 -0.082101,-0.0205299z"/>
  <path class="fil4 str1" d="M12.9913 5.65403c-0.045809,0.0508013 -0.0205486,0.190322 -0.0205486,0.25999 0.0299161,0.0269432 0.0590843,0.0279342 0.0958063,0.0136679 0.0198755,-0.0511939 0.00684331,-0.189892 0.00684331,-0.253128 -0.0339548,-0.0306079 -0.0356189,-0.0205299 -0.082101,-0.0205299z"/>
  <path class="fil4 str1" d="M12.745 5.94822c-0.0202495,0.0521849 -0.00684331,0.195427 -0.00684331,0.25999 0.0154255,0.00908702 0.0146215,0.0136866 0.0342165,0.0136866l0.0342165 0c0.0199129,0 0.0186041,-0.00467439 0.0342165,-0.0136866 0,-0.0645627 0.0134249,-0.207805 -0.00684331,-0.25999 -0.0449489,-0.0174448 -0.0594769,0 -0.088963,0z"/>
  <path class="fil4 str1" d="M12.3207 5.93453c-0.0465569,0.051624 -0.0205486,0.195988 -0.0205486,0.266833 0.0314493,0.0283268 0.0497729,0.0263823 0.088963,0.0136866 0.00910571,-0.0154068 0.0136866,-0.0146028 0.0136866,-0.0342165l0 -0.184713c0,-0.0301218 -0.00755382,-0.0396014 -0.0273732,-0.0615898l-0.0547278 0z"/>
  <path class="fil4 str1" d="M12.3207 4.77147c-0.0465569,0.051624 -0.0205486,0.195969 -0.0205486,0.266814 0.0314493,0.0283455 0.0497729,0.026401 0.088963,0.0136866 0.0092179,-0.0198007 0.0136866,-0.0237085 0.0136866,-0.0478845l0 -0.184732c0,-0.0219322 -0.0126956,-0.0320102 -0.0273732,-0.0478845l-0.0547278 0z"/>
  <path class="fil4 str1" d="M12.3207 4.2036c-0.0394706,0.043771 -0.035488,0.230896 -0.00684331,0.28052l0.0684331 0c0.0119103,-0.0151263 0.0205112,-0.0207356 0.0205112,-0.0410598l0 -0.184713c0,-0.0277098 -0.0053475,-0.0340857 -0.0205112,-0.0547465l-0.0615898 0z"/>
  <path class="fil4 str1" d="M12.5123 5.66087c-0.0133127,0.0342913 -0.0133127,0.232523 0,0.266814 0.0275228,0.010695 0.0614402,0.010695 0.088963,0 0.0133127,-0.0342913 0.0133127,-0.232523 0,-0.266814 -0.0449676,-0.0174448 -0.0594769,0 -0.088963,0z"/>
  <path class="fil4 str1" d="M12.9708 4.50464l0 0.246303c0.0344035,0.0310006 0.0417517,0.0205299 0.088963,0.0205299 0.00910571,-0.0154255 0.0136866,-0.0146028 0.0136866,-0.0342165l0 -0.212086c0,-0.0199129 -0.00467439,-0.0186041 -0.0136866,-0.0342165 -0.0099845,-0.00358993 -0.0155938,-0.00682461 -0.0273732,-0.00682461l-0.0205299 0c-0.0205112,0 -0.0257278,0.00869437 -0.0410598,0.0205112z"/>
  <path class="fil4 str1" d="M13.2034 5.93453c-0.0388535,0.0431166 -0.034871,0.225941 -0.0136866,0.28052 0.0275041,0.0106763 0.0374138,0.00684331 0.0684331,0.00684331 0.0457903,-0.0508013 0.0205299,-0.190322 0.0205299,-0.25999 -0.00830172,-0.0129387 -0.0105267,-0.0149767 -0.0205299,-0.0273732l-0.0547465 0z"/>
  <path class="fil4 str1" d="M12.5055 3.93679l0 0.246284c0.0333938,0.0301031 0.0296356,0.0205299 0.0752764,0.0205299 0.0129387,-0.00828302 0.0149767,-0.010508 0.0273732,-0.0205299l0 -0.246284c-0.0151263,-0.011929 -0.0207356,-0.0205299 -0.0410598,-0.0205299l-0.0205299 0c-0.0205112,0 -0.0257465,0.00871306 -0.0410598,0.0205299z"/>
  <path class="fil4 str1" d="M12.5055 4.50464l0 0.246303c0.0335621,0.030234 0.065778,0.0281211 0.10265,0.00684331l0 -0.253146c-0.0206608,-0.0151637 -0.0270367,-0.0205112 -0.0547465,-0.0205112l-0.00684331 0c-0.0205112,0 -0.0257465,0.00869437 -0.0410598,0.0205112z"/>
  <path class="fil4 str1" d="M13.1897 4.77831c-0.0202682,0.0521662 -0.00684331,0.195427 -0.00684331,0.259971 0.0333938,0.0300844 0.0296356,0.0205299 0.0752764,0.0205299 0.0457903,-0.0508013 0.0205299,-0.190322 0.0205299,-0.259971 -0.00830172,-0.0129574 -0.0105267,-0.0149767 -0.0205299,-0.0273732 -0.0188845,0 -0.0659276,0.00684331 -0.0684331,0.00684331z"/>
  <path class="fil4 str1" d="M13.1897 4.21045c-0.0133127,0.03431 -0.0133127,0.232523 0,0.266833 0.0275228,0.0106763 0.0545969,0.0106763 0.0821197,0 0.0195016,-0.0502404 0.00684331,-0.184395 0.00684331,-0.246303 -0.00830172,-0.0129574 -0.0105267,-0.0149767 -0.0205299,-0.0273732 -0.0188845,0 -0.0659276,0.00684331 -0.0684331,0.00684331z"/>
  <path class="fil4 str1" d="M9.11037 6.89921c0.140026,0 2.13739,0.0148833 2.20442,-0.00684331l0 -0.362602c0.0324777,0.0105267 0.0595143,0.00682461 0.0957876,0.00682461 0.0270554,-0.00875046 0.0249425,-0.00682461 0.0542603,-0.00777819l0.0278594 -0.012733c0.0180058,-0.0176131 0.0218201,-0.0212217 0.0410598,-0.0341978 0.011069,-0.0207169 0.0220631,-0.0413029 0.0342165,-0.0615898l0 -0.567845c-0.0139484,-0.0176692 -0.0164913,-0.0228858 -0.0273732,-0.0410598 -0.0215583,-0.0198942 -0.0237646,-0.0212965 -0.0479032,-0.0342165 -0.0138923,-0.00660024 -0.0195763,-0.00860088 -0.0342165,-0.0136679l-0.437953 0c-0.011929,0.0151076 -0.0205112,0.0207169 -0.0205112,0.0410412l0 0.499449 0 0.0410412c0.00820823,0.0253539 0.00684331,0.0195763 0.00684331,0.0479032 0.00663763,0.0200812 0.00517922,0.0125835 0.00682461,0.0341978 0.0222688,0.0281585 0.00648805,0.00084139 0.0136866,0.0273732 0.00972273,0.0122843 0.0121721,0.0148459 0.0205299,0.0273732l0.0273732 0.0273545c0.0190902,0.0076473 0.0352449,0.0137801 0.0547465,0.0205299l0.0273732 0c0.0284016,0.0091992 0.0304957,0.00682461 0.0615898,0.00682461l0.0615898 0c0.0119103,0 0.0171644,-0.00345905 0.0273545,-0.00682461l0 -0.0615898c0,-0.0174635 0.00198194,-0.0191837 0.00686201,-0.0341978 -0.00822693,-0.0253539 -0.00686201,-0.0195763 -0.00686201,-0.0478845 -0.0302901,-0.0023372 -0.0144719,0.00164539 -0.0410412,-0.0136866 -0.0394332,-0.00388909 -0.0828115,-0.0565227 -0.10265,-0.0889443"/>
  <path class="fil4 str1" d="M11.2121 6.12611c0.023428,0.00809604 0.0423687,0.0185293 0.0684331,0.0205299 0.0164539,-0.0507826 0.00684331,-0.14657 0.00684331,-0.205243"/>
  <path class="fil4 str1" d="M11.2806 6.14664c0.010265,0.019782 0.000729205,0.0102463 0.0205112,0.0205299 0.0179871,-0.00622629 0.0284951,-0.0100219 0.0479032,-0.0137053 0.012303,-0.00970404 0.0148646,-0.0121534 0.0273732,-0.0205112 0.0158181,-0.0236524 0.00441262,-0.0121534 0.0273732,-0.0273732"/>
  <path class="fil4 str1" d="M11.4448 6.27662c-0.00957315,0.012116 -0.0123778,0.0146402 -0.0205299,0.0273732l-0.0479032 0.0478845c-0.0216331,0.00409477 -0.0331134,0.00959185 -0.0547278,0.0136866 -0.014098,-0.036292 -0.00684331,-0.0886451 -0.00684331,-0.129985 -0.00631978,-0.0194829 -0.0120412,-0.0470244 -0.0137053,-0.0684144"/>
  <path class="fil4 str1" d="M11.3079 6.3861c0.0133314,-0.0133314 0.00856348,-0.0069368 0.0137053,-0.0205299"/>
  <path class="fil4 str1" d="M12.0949 6.40661l1.36174 0c0.027205,-0.0838399 0.00684331,-1.28235 0.00684331,-1.47778 0,-0.494887 0,-0.989774 0,-1.48464 -0.0239142,-0.017557 -0.0133127,-0.0109194 -0.0410598,-0.0205299l-0.0478845 0c-0.0596826,0.019352 -0.533161,0.00684331 -0.636409,0.00684331 -0.097003,0 -0.585065,-0.0130696 -0.63639,0.00684331 -0.0273171,0.0703589 -0.00684331,2.6538 -0.00684331,2.96927l0 0.444703c-0.0112559,0.0325338 -0.00226241,0.0200625 -0.0273732,0.0479032 -0.105043,0 -0.704188,0.0119851 -0.752708,-0.00684331"/>
  <path class="fil4 str1" d="M14.4967 6.50924c0.0261018,0.0156312 0.0338052,0.0177627 0.0615898,0.0273545l0 0.0479032c-0.00985362,0.0304022 -0.00684331,0.0419199 -0.00684331,0.0752577l0 0.0273732c0.0235028,0.00183236 0.0123217,-0.000261766 0.0342165,0.00682461l0.0342165 0c0.0284016,-0.0091992 0.030477,-0.00682461 0.0615898,-0.00682461 0.0237459,-0.0160612 0.0332817,-0.0264384 0.0535124,-0.0485202l0.014902 -0.0267375c0.00185106,-0.0235028 -0.000243068,-0.0123404 0.00684331,-0.0342165l0 -0.410486c-0.0532694,-0.048034 -0.207319,-0.0205299 -0.280557,-0.0205299 -0.0254287,0.00878785 -0.0440702,0.0175944 -0.0684331,0.0273545 -0.0111437,0.0166782 -0.0125648,0.0181927 -0.0273732,0.0342165 -0.004637,0.0245686 -0.0136679,0.0370586 -0.0136679,0.0615711l0 0.28052c0,0.0212778 0.00525402,0.0342913 0.00777819,0.0542416l0.012733 0.0278407 0.0479032 0.0479032c0.0311875,0.0100967 0.0477536,0.00684331 0.0821197,0.00684331 0.0200812,0.00663763 0.0125835,0.00517922 0.0342165,0.00682461 0,0.0558496 0.0117047,0.150646 -0.00684331,0.198419 0.0444628,0.0144158 0.687734,0.0144158 0.732197,0l0 -0.355777 0.102631 0c0.0311127,0 0.0331882,0.00237459 0.0615898,-0.00682461l0.0342165 0c0.0219135,-0.0172952 0.032272,-0.0207543 0.0547465,-0.0342165 0.0305144,-0.0311875 0.0281585,-0.0354506 0.0479032,-0.0684144 0.00185106,-0.0234841 -0.000261766,-0.0123217 0.00684331,-0.0341978 0,-0.095395 0.0128639,-0.571809 -0.00684331,-0.622591 -0.0491559,-0.0190902 -0.36621,-0.00684331 -0.444796,-0.00684331 -0.0186976,0.00749772 -0.0206234,0.00936748 -0.0410598,0.0136679 -0.0126769,0.0102276 -0.0215583,0.0171083 -0.0342165,0.0273732 -0.010882,0.018174 -0.0134249,0.0233907 -0.0273732,0.0410598 -0.00469309,0.0222875 -0.0136866,0.0305144 -0.0136866,0.0478845l0 0.499449c0,0.0377317 0.0217266,0.0662081 0.0410598,0.0957689 0.0265692,0.0245312 0.0336182,0.0242881 0.0615898,0.0410598l0.0342165 0c0.0284016,0.0091992 0.0304957,0.00682461 0.0615898,0.00682461l0.0273732 0c0.0119103,0 0.0171644,-0.00345905 0.0273732,-0.00682461 0.012303,-0.0379561 0.00684331,-0.0874111 0.00684331,-0.130004 0.0266253,-0.00203803 0.0250734,-0.0030664 0.0479032,-0.0136679 0.013107,-0.0068807 0.0216144,-0.012303 0.0342165,-0.0205299 0.0237459,-0.0237646 0.0450237,-0.041359 0.0615711,-0.0684144"/>
  <path class="fil4 str1" d="M15.3726 6.12611c-0.0178375,0.0263075 -0.0358058,0.0280463 -0.0684144,0.0342165l0 -0.0342165c-0.00878785,-0.0270554 -0.00684331,-0.0249425 -0.00684331,-0.0547278l0 -0.0273732c0.00603931,-0.0168091 0.0038143,-0.0117234 0.00684331,-0.0273732 -0.00287942,-0.0152011 -0.00560927,-0.024793 -0.00684331,-0.0410412"/>
  <path class="fil4 str1" d="M15.3042 6.16032c-0.0068994,0.0253352 0.00216892,0.0125087 -0.0205299,0.0273545 -0.0229606,-0.0168465 -0.0191837,-0.0150889 -0.0479032,-0.0205112 -0.0160425,-0.0160425 -0.0115551,-0.0109942 -0.0273732,-0.0205299"/>
  <path class="fil4 str1" d="M15.1468 6.29715l0.0684331 0.0684144c0.0194081,0.00366472 0.0299161,0.00746033 0.0479032,0.0136679 0.00660024,-0.0160799 0.00832042,-0.0245125 0.0136866,-0.0410412l0 -0.109456c0.00783428,-0.0241573 0.00624499,-0.0141541 0.00684331,-0.0410598"/>
  <line class="fil4 str1" x1="15.2768" y1="6.39976" x2="15.2632" y2= "6.37923" />
  <path class="fil4 str1" d="M14.6131 6.5024c-0.0141915,0.00882525 0.00241199,0.00684331 -0.0205299,0.00684331 -0.0270367,-0.0468187 -0.00330947,-0.0513996 -0.0205299,-0.0957876"/>
  <path class="fil4 str1" d="M14.5583 6.53659c0.0282333,-0.00878785 0.0108259,0.00084139 0.0342165,-0.0273545"/>
  <path class="fil4 str1" d="M13.4566 6.40661c0.0196511,0.050633 0.00684331,0.389994 0.00684331,0.472076 0.0550643,0.0496233 0.443487,0.0205299 0.540603,0.0205299 0.0908889,0 0.486249,0.0142475 0.540584,-0.00684331"/>
  <path class="fil4 str1" d="M16.1373 6.90101c-0.35718,0.00287942 -0.820935,0.00673112 -0.860499,-0.00863827"/>
  <path class="fil4 str1" d="M7.18704 2.69924l-0.0280089 0.0269993 -0.0198755 0.0345718c-0.0219883,0.0126769 -0.0247556,0.0125087 -0.0479032,0.0205112 -0.031468,0.00069181 -0.0278781,0.00119664 -0.0547465,0.0136866 -0.021764,0.0275789 -0.0167343,0.0240264 -0.0273732,0.0547278 0.00749772,0.0186976 0.00938618,0.0206234 0.0136866,0.0410598l0.0273732 0.0273732c0.0151637,0.00286073 0.0246434,0.00684331 0.0410598,0.00684331l0.32846 0c0.0216705,0 0.0370025,-0.0157807 0.0547465,-0.0273732 0.0146589,-0.0158929 0.0273732,-0.0259709 0.0273732,-0.0479032l0 -0.0410412c0,-0.0119103 -0.00345905,-0.0171644 -0.00684331,-0.0273732l-0.0273732 -0.0273732c-0.0204551,-0.00428174 -0.022381,-0.0061702 -0.0410598,-0.0136679l-0.0479032 0c-0.0168091,-0.00605801 -0.0117421,-0.003833 -0.0273732,-0.00684331l-0.0273732 -0.0273732c-0.0168091,-0.00603931 -0.0117234,-0.0038143 -0.0273732,-0.00682461 -0.0293178,-0.0209039 -0.0235402,-0.0137053 -0.0615898,-0.0137053 -0.0179684,0.00622629 -0.0284764,0.0100219 -0.0479032,0.0137053z"/>
  <path class="fil4 str1" d="M2.90323 6.48245c0.0261018,0.0156312 0.0338052,0.0177627 0.0615898,0.0273732l0 0.0478845c-0.00985362,0.0304022 -0.00684331,0.0419199 -0.00684331,0.0752577l0 0.0273732c0.0235028,0.00185106 0.0123217,-0.000261766 0.0342165,0.00684331l0.0342165 0c0.0284016,-0.0092179 0.0304957,-0.00684331 0.0615898,-0.00684331 0.0237459,-0.0160612 0.0332817,-0.0264384 0.0535124,-0.0485202l0.014902 -0.0267375c0.00185106,-0.0235028 -0.000243068,-0.0123404 0.00684331,-0.0342165l0 -0.410486c-0.0532694,-0.0480153 -0.207319,-0.0205299 -0.280557,-0.0205299 -0.0254287,0.00880655 -0.0440702,0.0175944 -0.0684331,0.0273545 -0.0111437,0.0166969 -0.0125648,0.0181927 -0.0273732,0.0342165 -0.004637,0.0245686 -0.0136679,0.0370586 -0.0136679,0.0615711l0 0.28052c0,0.0212778 0.00527271,0.0342913 0.00777819,0.0542416l0.0127517 0.0278594 0.0478845 0.0478845c0.0312062,0.0101154 0.0477536,0.00684331 0.0821197,0.00684331 0.0200812,0.00665633 0.0125835,0.00517922 0.0342165,0.00684331 0,0.0558309 0.0117047,0.150628 -0.00684331,0.1984 0.0444628,0.0144158 0.687734,0.0144158 0.732197,0l0 -0.355759 0.10265 0c0.031094,0 0.0331695,0.00235589 0.0615711,-0.00684331l0.0342165 0c0.0219135,-0.0172765 0.032272,-0.0207356 0.0547465,-0.0342165 0.0305144,-0.0311688 0.0281585,-0.0354506 0.0479032,-0.0684144 0.00185106,-0.0234841 -0.000261766,-0.0123217 0.00684331,-0.0341978 0,-0.0953763 0.0128639,-0.571809 -0.00684331,-0.622591 -0.0491559,-0.0190715 -0.36621,-0.00684331 -0.444796,-0.00684331 -0.0186976,0.00749772 -0.0206047,0.00936748 -0.0410598,0.0136866 -0.0126769,0.0102089 -0.0215583,0.0171083 -0.0341978,0.0273732 -0.0109007,0.0181553 -0.0134249,0.023372 -0.0273732,0.0410412 -0.00469309,0.0222875 -0.0137053,0.0305144 -0.0137053,0.0478845l0 0.499449c0,0.0377317 0.0217266,0.0662081 0.0410785,0.0957689 0.0265692,0.0245312 0.0335995,0.0243068 0.0615711,0.0410598l0.0342165 0c0.0284016,0.0091992 0.0304957,0.00684331 0.0615898,0.00684331l0.0273732 0c0.0119103,0 0.0171644,-0.00345905 0.0273732,-0.00684331 0.012303,-0.0379561 0.00684331,-0.0874111 0.00684331,-0.129985 0.0266253,-0.00205673 0.0250734,-0.0030664 0.0479032,-0.0136866 0.013107,-0.0068807 0.0216144,-0.012303 0.0342165,-0.0205299 0.0237459,-0.0237459 0.0450237,-0.041359 0.0615898,-0.0684144"/>
  <path class="fil4 str1" d="M3.77911 6.09931c-0.0178375,0.0263075 -0.0358058,0.0280463 -0.0684144,0.0342165l0 -0.0342165c-0.00876916,-0.0270367 -0.00684331,-0.0249425 -0.00684331,-0.0547278l0 -0.0273732c0.00603931,-0.0168091 0.0038143,-0.0117234 0.00684331,-0.0273545 -0.00287942,-0.0152198 -0.00560927,-0.0248117 -0.00684331,-0.0410598"/>
  <path class="fil4 str1" d="M3.7107 6.13353c-0.0068994,0.0253352 0.00216892,0.0125087 -0.0205299,0.0273545 -0.0229606,-0.0168465 -0.0191837,-0.0150889 -0.0479032,-0.0205112 -0.0160425,-0.0160425 -0.0115551,-0.0109942 -0.0273732,-0.0205299"/>
  <path class="fil4 str1" d="M3.5533 6.27036l0.0684331 0.0684144c0.0194081,0.00366472 0.0299161,0.00746033 0.0479032,0.0136866 0.00660024,-0.0160986 0.00832042,-0.0245312 0.0136866,-0.0410412l0 -0.109474c0.00783428,-0.0241573 0.00626368,-0.0141541 0.00684331,-0.0410598"/>
  <line class="fil4 str1" x1="3.68333" y1="6.37299" x2="3.66964" y2= "6.35246" />
  <path class="fil4 str1" d="M3.01956 6.4756c-0.0141915,0.00884395 0.00241199,0.00684331 -0.0205299,0.00684331 -0.0270367,-0.0468187 -0.00329077,-0.0513996 -0.0205299,-0.0957876"/>
  <path class="fil4 str1" d="M2.96482 6.50982c0.0282333,-0.00880655 0.0108446,0.000822693 0.0342165,-0.0273732"/>
  <path class="fil4 str1" d="M1.86994 6.85191c0.055083,0.0496233 0.443487,0.0205112 0.540603,0.0205112 0.0908889,0 0.486249,0.0142475 0.540584,-0.00684331"/>
  <path class="fil4 str1" d="M9.11035 6.89921c-1.0649,0.00286073 -5.30902,-0.0182675 -5.42702,-0.0336369"/>
  <path class="fil4 str0" d="M7.12201 5.46281c0.0046183,-0.0203429 -0.140007,0.441805 -0.140007,0.441805"/>
  <line class="fil4 str0" x1="8.81435" y1="5.62524" x2="8.90789" y2= "5.96372" />
  <path class="fil4 str0" d="M6.68023 5.89723c0,0 -0.105791,0.0902344 -0.0466691,0.168016 0.059103,0.0777819 1.85431,0.264458 2.33033,0.124451 0.47604,-0.140007 0.4947,-0.211563 0.33291,-0.224016 -0.16179,-0.0124339 -0.541351,0.065348 -1.43741,0.0217827 -0.896043,-0.0435653 -1.17916,-0.0902344 -1.17916,-0.0902344z"/>
 </g>
</svg>
