<?xml version="1.0" encoding="UTF-8"?>
<!DOCTYPE svg PUBLIC "-//W3C//DTD SVG 1.1//EN" "http://www.w3.org/Graphics/SVG/1.1/DTD/svg11.dtd">
<!-- Creator: CorelDRAW -->
<svg xmlns="http://www.w3.org/2000/svg" xml:space="preserve" width="96.8532mm" height="46.4818mm" style="shape-rendering:geometricPrecision; text-rendering:geometricPrecision; image-rendering:optimizeQuality; fill-rule:evenodd; clip-rule:evenodd"
viewBox="0 0 18.1276 8.69978"
 xmlns:xlink="http://www.w3.org/1999/xlink">
 <defs>
  <style type="text/css">
   <![CDATA[
    .str1 {stroke:#1F1A17;stroke-width:0.0374331}
    .str0 {stroke:white;stroke-width:0.0374331}
    .str2 {stroke:#141516;stroke-width:0.0935826;stroke-linecap:square}
    .fil3 {fill:none}
    .fil7 {fill:#1F1A17}
    .fil1 {fill:#75C5F0}
    .fil16 {fill:#A2A3A8}
    .fil14 {fill:#E4E4E7}
    .fil13 {fill:#E4E6E8}
    .fil11 {fill:#ECECEE}
    .fil12 {fill:#F0F1F2}
    .fil15 {fill:#F1EFF0}
    .fil10 {fill:#F3F5F6}
    .fil6 {fill:#F8F7F7}
    .fil5 {fill:#F8F7F8}
    .fil8 {fill:#F8F9FA}
    .fil9 {fill:#FBFDFF}
    .fil4 {fill:#FFF974}
    .fil0 {fill:white}
    .fil2 {fill:#48B6D3}
   ]]>
  </style>
 </defs>
 <g id="图层_x0020_1">
  <metadata id="CorelCorpID_0Corel-Layer"/>
  <polygon class="fil0 str0" points="0.0187165,0.0187165 18.1088,0.0187165 18.1088,8.68106 0.0187165,8.68106 "/>
  <polygon class="fil1" points="11.7999,5.27574 10.1957,4.44368 9.50835,4.80116 9.50835,5.83276 11.7486,5.83276 11.7486,5.34441 "/>
  <path class="fil2 str1" d="M5.05331 3.01194c-0.0265588,-0.0685961 -0.637185,0.419774 -0.637185,0.419774l-0.0674544 2.35375 1.40926 0.00750533 0.0262219 -2.34999 -0.730843 -0.431042z"/>
  <path class="fil3 str2" d="M12.0322 4.99089c-0.0182673,0.0122032 -0.0199144,0.0138128 -0.0374705,0.0299839l0 0.764589c0.0510961,0.0460614 0.177601,0.0224785 0.247376,0.0224785 0.067941,0 0.197871,0.0109866 0.254863,-0.00748661 0.0100882,-0.0216925 0.0149919,-0.0259785 0.0149919,-0.0524624l0 -0.70464c0,-0.024032 -0.0139251,-0.0350561 -0.0299839,-0.0524624l-0.449777 0z"/>
  <path class="fil3 str2" d="M10.1057 5.09584c-0.0291042,0.0168074 -0.0117914,0.0124278 -0.0449758,0.0149919 -0.0193529,0.0152727 -0.0250614,0.0180614 -0.0449758,0.0299839l-0.0524624 0.0524624c-0.0122219,0.0182673 -0.0137941,0.0199331 -0.0300026,0.0374892 -0.00875933,0.0253422 -0.00857217,0.028393 -0.0224785,0.0524624 -0.000655078,0.0294785 0.00108556,0.0185106 -0.00750533,0.0449758l0 0.457263c0.0538474,0.048532 0.196168,0.0224785 0.269874,0.0224785 0.0693822,0 0.221098,0.010762 0.27736,-0.00748661 0.00995719,-0.0168823 0.0149919,-0.0160026 0.0149919,-0.0374892l0 -0.419756c0,-0.0363288 -0.0225908,-0.0657324 -0.0299839,-0.104962 -0.0106684,-0.0134759 -0.0133262,-0.0162834 -0.0224973,-0.0299839l-0.0672859 -0.0677164 -0.0451443 -0.0297218c-0.0332031,-0.00256416 -0.0158716,0.0018155 -0.0449945,-0.0149919 -0.0321176,-0.00247058 -0.0534357,-0.0149919 -0.0824463,-0.0149919 -0.0208876,0 -0.03704,0.0126524 -0.0674731,0.0149919z"/>
  <path class="fil3 str2" d="M13.6822 1.36425c-0.0416817,0.0138128 -0.0599303,0.0214304 -0.0989356,0.0395667 -0.0379384,0.0199144 -0.0625694,0.0355801 -0.0989543,0.0593688l-0.0989356 0.0989543c-0.0239946,0.0374518 -0.0304705,0.0432913 -0.0594063,0.0791522 -0.00889035,0.0425052 -0.00481015,0.0340454 -0.0197647,0.0791522 -0.00576469,0.0749971 -0.0259973,0.125962 -0.0395855,0.19789 0.0190721,0.0587699 0.0345694,0.112898 0.0395855,0.178106 0.0174812,0.0486443 0.0110615,0.0339331 0.0197647,0.0791709 0.0281309,0.0355614 0.0352058,0.0429731 0.0594063,0.0791522l0.138521 0.138502c0.0758019,0.0262593 0.179005,0.0791709 0.257259,0.0791709l0.118738 0c0.0421871,0 0.130379,-0.0466042 0.19789,-0.0593688 0.0355801,-0.0281122 0.0429919,-0.0351684 0.0791709,-0.0593688l0.0989356 -0.0989356c0.0239759,-0.0374331 0.0304518,-0.04331 0.0593688,-0.0791522 0.018155,-0.0861522 0.0593875,-0.128096 0.0593875,-0.217692l0 -0.0989356c0,-0.0742859 -0.0304331,-0.135639 -0.0593875,-0.197909 -0.0198957,-0.0379197 -0.0355614,-0.0625319 -0.0593688,-0.0989356l-0.0989356 -0.0989543c-0.0525747,-0.0314812 -0.0676415,-0.0388181 -0.118738,-0.0791709 -0.0425052,-0.00889035 -0.0340454,-0.00481015 -0.0791522,-0.0197647l-0.0791709 0c-0.09435,-0.0306015 -0.115575,0 -0.217692,0z"/>
  <path class="fil3 str2" d="M10.8179 5.40316l-0.0300026 0.0299839 0 0.344833 0.0300026 0.0299652 0.164911 0c0.015778,-0.00522191 0.0227031,-0.00810426 0.0374705,-0.0149732 0.0196898,-0.0606977 0.00750533,-0.27985 0.00750533,-0.359825l-0.0299839 -0.0299839 -0.179903 0z"/>
  <path class="fil3 str2" d="M11.2002 5.40316c-0.0463047,0.0513582 -0.0224973,0.300606 -0.0224973,0.382304 0.042524,0.0383314 0.177283,0.0349625 0.224879,0.00750533l0 -0.367312c-0.0455186,-0.0410453 -0.14058,-0.0224973 -0.202382,-0.0224973z"/>
  <path class="fil3 str2" d="M11.2526 4.43619l-0.0299839 0.0299652 0 0.097457c0.0240882,0.0217112 0.0344758,0.0299839 0.0674731,0.0299839l0.374798 0c0.0299839,0 0.0421309,-0.00460427 0.0674731,-0.0149919 0.0103877,-0.0253422 0.0149919,-0.0374892 0.0149919,-0.0674731l0 -0.0224785c0,-0.0218235 -0.00512833,-0.0203823 -0.0149919,-0.0374705 -0.064048,-0.0369839 -0.383502,-0.0149919 -0.479761,-0.0149919z"/>
  <path class="fil3 str2" d="M12.0322 4.08387c-0.0182673,0.0122219 -0.0199144,0.0138128 -0.0374705,0.0299839l0 0.104944c0.0562244,0.0506844 0.399785,0.0224973 0.494734,0.0224973 0.0130829,-0.0165641 0.0224973,-0.0227219 0.0224973,-0.0449758l0 -0.0599865c0,-0.0240133 -0.0139251,-0.0350561 -0.0299839,-0.0524624l-0.449777 0z"/>
  <path class="fil3 str2" d="M11.2227 4.11386l0 0.104944c0.0520319,0.0468849 0.183796,0.0224973 0.254882,0.0224973 0.0705426,0 0.207379,0.0167326 0.262368,-0.0150107 0.000692512,-0.0320988 0.00748661,-0.0359919 0.00748661,-0.0674544 0,-0.0265026 -0.00490373,-0.03077 -0.0149919,-0.0524811 -0.0165641,-0.0130641 -0.0227031,-0.0224785 -0.0449758,-0.0224785l-0.412288 0c-0.0240507,0 -0.0350561,0.0139251 -0.0524811,0.0299839z"/>
  <path class="fil3 str2" d="M11.2452 3.38674c-0.0348127,0.0386309 -0.0224973,0.0661816 -0.0224973,0.119936l0.0374892 0.0374892 0.441878 -0.000692512 0.0378823 -0.0218048 0 -0.11243c-0.0562432,-0.0506844 -0.399785,-0.0224973 -0.494753,-0.0224973z"/>
  <path class="fil3 str2" d="M11.2227 3.75405l0 0.104944c0.0174064,0.0160588 0.0284491,0.0299839 0.0524811,0.0299839l0.38979 0c0.0299839,0 0.0421309,-0.00460427 0.0674731,-0.0149919 0.0103877,-0.0253422 0.0149919,-0.0375079 0.0149919,-0.0674731l0 -0.0224785c0,-0.0218235 -0.00512833,-0.0203823 -0.0149919,-0.0374892 -0.0168823,-0.00995719 -0.0160026,-0.0149919 -0.0374705,-0.0149919l-0.427298 0c-0.0224598,0 -0.0281871,0.00954543 -0.0449758,0.0224973z"/>
  <path class="fil3 str2" d="M12.0172 3.73155c-0.0349999,0.0388555 -0.0224785,0.0730693 -0.0224785,0.127441l0.0299839 0.0299839 0.449777 0c0.0272513,-0.0188288 0.0186417,-0.0102192 0.0374705,-0.0374892l0 -0.0899516 -0.0299839 -0.0299839 -0.464769 0z"/>
  <path class="fil3 str2" d="M12.0172 4.43619c-0.010631,0.0134385 -0.0133449,0.0162272 -0.0224785,0.0299652 0,0.0372459 -0.00505346,0.0801255 0.00750533,0.112449 0.0218796,0.0084973 0.03004,0.00771121 0.0524624,0.0149919l0.0299839 0 0.374817 0c0.0218048,0 0.0203823,-0.00512833 0.0374705,-0.0149919 0.0230962,-0.0399972 0.0149919,-0.0638795 0.0149919,-0.112449l-0.0299839 -0.0299652 -0.464769 0z"/>
  <path class="fil3 str2" d="M12.0023 3.39424c-0.01327,0.0341951 -0.00750533,0.0806682 -0.00750533,0.119936 0.0176123,0.0162272 0.0192967,0.0176871 0.0374705,0.0299839l0.449777 0c0.0162272,-0.0176123 0.0177058,-0.0192967 0.0299839,-0.0374892l0 -0.0899516 -0.0299839 -0.0299839c-0.158529,0 -0.328494,0.00750533 -0.479742,0.00750533z"/>
  <path class="fil3 str2" d="M6.44011 4.18131c-0.0106497,0.0134572 -0.0133636,0.0162459 -0.0224973,0.0300026l0 0.254844 0.0299839 0.0300026 0.172398 0c0.018286,-0.0122219 0.0199331,-0.0137754 0.0374892,-0.0300026l0 -0.254844 -0.0299839 -0.0300026 -0.18739 0z"/>
  <path class="fil3 str2" d="M7.8044 4.18131c-0.0192406,0.0262219 -0.0119599,0.0145802 -0.0224785,0.0449758l0 0.239871 0.0299839 0.0300026 0.179903 0c0.0509838,-0.0565801 0.0224973,-0.214716 0.0224973,-0.292352 -0.0464919,-0.0418876 -0.146756,-0.0224973 -0.209906,-0.0224973z"/>
  <path class="fil3 str2" d="M7.12974 4.18131l-0.0299839 0.0300026 0 0.254844 0.0299839 0.0300026 0.172417 0c0.0141871,-0.00909623 0.0164144,-0.0115294 0.0299839,-0.0224973l0 -0.269855c-0.0455373,-0.0410453 -0.140599,-0.0224973 -0.202401,-0.0224973z"/>
  <path class="fil3 str2" d="M5.00834 5.08084c-0.0160775,0.0173877 -0.0299839,0.0284304 -0.0299839,0.0524624l0 0.314831c0,0.0222727 0.00941441,0.0284304 0.0224785,0.0449758l0.104944 0c0.0463047,-0.0513394 0.0224973,-0.300587 0.0224973,-0.382285 -0.00909623,-0.0141871 -0.0115294,-0.0163957 -0.0224973,-0.0299839l-0.0974382 0z"/>
  <path class="fil3 str2" d="M5.43562 5.08084c-0.0217112,0.0240695 -0.0299839,0.0344571 -0.0299839,0.0674544l0 0.299839c0,0.0222727 0.00941441,0.0284304 0.0224785,0.0449758 0.0500106,0 0.0868821,0.00842244 0.127441,-0.0149919l0 -0.374798c-0.0386309,-0.0348127 -0.0661816,-0.0224785 -0.119936,-0.0224785z"/>
  <path class="fil3 str2" d="M4.57355 5.08084c-0.0166203,0.0226283 -0.0224785,0.0296283 -0.0224785,0.0599678l0 0.307325c0,0.0222727 0.0093957,0.0284304 0.0224785,0.0449758 0.0372459,0 0.0801067,0.00505346 0.112449,-0.00748661 0.0084973,-0.0218983 0.00771121,-0.03004 0.0149919,-0.0524811l0 -0.0299839 0 -0.239871c0,-0.0233208 -0.00578341,-0.0375641 -0.00750533,-0.0599678 -0.0386309,-0.0348127 -0.0661816,-0.0224785 -0.119936,-0.0224785z"/>
  <path class="fil3 str2" d="M4.98584 3.39424l-0.0449758 0.0224785 -0.0374705 0.0374892c-0.00909623,0.0141871 -0.0115294,0.0163957 -0.0224973,0.0299839 -0.00336897,0.0160962 -0.00183422,0.0128957 -0.00750533,0.0299839 0,0.0316684 -0.00318181,0.0249491 0.00750533,0.0524624 0.0557004,0.0216176 0.256173,0.00750533 0.329841,0.00750533 0.0206818,-0.0372459 0.00748661,-0.0332967 0.00748661,-0.082465 -0.0190909,-0.0282432 -0.0346069,-0.0420935 -0.0599678,-0.0674544 -0.0141871,-0.00907752 -0.0164144,-0.0115481 -0.0299839,-0.0224973 -0.0161149,-0.00336897 -0.0128957,-0.00183422 -0.0299839,-0.00748661 -0.0257352,-0.00202138 -0.0135133,0.000262031 -0.0374892,-0.00750533 -0.0325293,0.000711228 -0.0402218,0.00750533 -0.0749597,0.00750533z"/>
  <path class="fil3 str2" d="M5.00834 3.83651l-0.0299839 0.0299652 0 0.194895c0.0388368,0.0350186 0.0730506,0.0224973 0.127422,0.0224973 0.0435721,-0.0483261 0.0224973,-0.159072 0.0224973,-0.224879 -0.0386309,-0.0348127 -0.0661816,-0.0224785 -0.119936,-0.0224785z"/>
  <path class="fil3 str2" d="M5.00834 4.33125l-0.0299839 0.0299839 0 0.18739 0.0299839 0.0299839 0.0974382 0c0.0435721,-0.0483261 0.0224973,-0.159072 0.0224973,-0.224879 -0.0386309,-0.0348127 -0.0661816,-0.0224785 -0.119936,-0.0224785z"/>
  <path class="fil3 str2" d="M5.42811 3.83651c-0.0166203,0.0226283 -0.0224785,0.0296095 -0.0224785,0.059949l0 0.127441c0,0.0303395 0.00585827,0.0373208 0.0224785,0.0599678 0.0500106,0 0.0868821,0.00842244 0.127441,-0.0149919l0 -0.209887c-0.0388368,-0.0350186 -0.0730693,-0.0224785 -0.127441,-0.0224785z"/>
  <path class="fil3 str2" d="M5.42811 4.33125c-0.0130641,0.0165641 -0.0224785,0.0227031 -0.0224785,0.0449758l0 0.149919c0,0.024032 0.0139064,0.0350561 0.0299839,0.0524624 0.0492993,0 0.0796388,0.00827271 0.119936,-0.0149919l0 -0.209887c-0.0388368,-0.0349999 -0.0730693,-0.0224785 -0.127441,-0.0224785z"/>
  <path class="fil3 str2" d="M4.57355 4.33125c-0.0130829,0.0165641 -0.0224785,0.0227031 -0.0224785,0.0449758l0 0.142414c0,0.0303582 0.00585827,0.0373395 0.0224785,0.0599678l0.104944 0c0.0125962,-0.0218048 0.0224973,-0.040278 0.0224973,-0.0674731l0 -0.11243c0,-0.0329972 -0.00829142,-0.0433849 -0.0299839,-0.0674544l-0.097457 0z"/>
  <path class="fil3 str2" d="M4.57355 3.83651c-0.0166203,0.0226283 -0.0224785,0.0296095 -0.0224785,0.059949l0 0.142433c0,0.0222727 0.0093957,0.0284117 0.0224785,0.0449758 0.0372459,0 0.0801067,0.00505346 0.112449,-0.00748661 0.0084973,-0.0218983 0.00771121,-0.03004 0.0149919,-0.0524811l0 -0.0299839 0 -0.0899516c0,-0.0329972 -0.00829142,-0.0433849 -0.0299839,-0.0674544l-0.097457 0z"/>
  <line class="fil3 str2" x1="13.8207" y1="2.96717" x2="13.8207" y2= "2.84843" />
  <path class="fil3 str2" d="M6.21522 4.86345c-0.00333154,0.015909 -0.00116042,0.0123716 -0.00748661,0.0299839l0 0.89203c-0.0165641,0.0130829 -0.0227219,0.0224785 -0.0449945,0.0224785l-0.367312 0c-0.0218048,0 -0.0203823,-0.00510961 -0.0374705,-0.0149732l0 -0.877038c-0.00728073,-0.0224411 -0.00649463,-0.0305828 -0.0149919,-0.0524811m-1.39429 0l1.39429 0c0.00900265,-0.0226844 0.00748661,-0.00754276 0.00748661,-0.0374705 0.0096203,-0.029647 0.00750533,-0.0273261 0.00750533,-0.0599678l0 -0.757102 0 -0.217374c-0.0180427,-0.0556442 -0.00750533,-0.160607 -0.00750533,-0.224898 -0.00662565,-0.0184171 -0.00417379,-0.0128395 -0.00748661,-0.0299839m-1.3793 -0.00748661c0.0166577,-0.00314438 0.0271764,-0.00613902 0.044433,-0.00853474l0.0305267 -0.0139625c0.106478,-0.0982805 0.276331,-0.172024 0.382304,-0.269855 0.030171,-0.0127647 0.0188101,-0.00582084 0.0449758,-0.0299839 0.0326229,-0.0137941 0.025024,-0.010631 0.0524624,-0.0374705 0.0338769,-0.0143181 0.0574972,-0.0351122 0.0899703,-0.0524811 0.0145989,-0.00677538 0.0270641,-0.0149919 0.0449758,-0.0149919 0.0210374,0 0.0794329,0.0433475 0.0974382,0.0599678 0.0301898,0.0127647 0.0188288,0.00583956 0.0449945,0.0299839 0.0326229,0.0137941 0.025024,0.0106497 0.0524624,0.0374892 0.030171,0.012746 0.0188101,0.00582084 0.0449758,0.0299839 0.056449,0.0238636 0.104719,0.0794891 0.164911,0.104944 0.0284866,0.026278 0.0565426,0.0458368 0.0899703,0.0599678l0.0299652 0.0299839c0.0316684,0.0133823 0.04054,0.0201203 0.0674731,0.0449758 0.0265026,0.0108556 0.0146738,0.00449197 0.0374892,0.0224785l0.0294411 0.00104813 0.0305267 0.0139438c0.00617645,-0.0190909 0.0149919,-0.0463421 0.0149919,-0.0674544 0,-0.0233395 -0.00578341,-0.0375828 -0.00750533,-0.0599678 -0.0638982,-0.0518261 -0.135264,-0.0873875 -0.194895,-0.142433 -0.0301898,-0.0127647 -0.0188101,-0.00583956 -0.0449758,-0.0299839 -0.0301898,-0.0127647 -0.0188101,-0.00582084 -0.0449758,-0.0299839 -0.0301149,-0.0127272 -0.0715159,-0.0435159 -0.097457,-0.0674544 -0.030171,-0.0127647 -0.0188101,-0.00583956 -0.0449758,-0.0299839 -0.0310507,-0.013139 -0.114976,-0.0721148 -0.142433,-0.097457 -0.033802,-0.0142994 -0.0892778,-0.05454 -0.127422,-0.0749597 -0.021262,0.00402405 -0.0327726,0.00817912 -0.0524811,0.0149919 -0.0261657,0.0241443 -0.0147861,0.0172192 -0.0449758,0.0299839 -0.0261657,0.0241443 -0.0147861,0.0172192 -0.0449758,0.0299839 -0.0322486,0.0297593 -0.150743,0.111944 -0.187409,0.127441l-0.0299839 0.0299839c-0.030171,0.0127647 -0.0188101,0.00583956 -0.0449758,0.0299839 -0.0308636,0.0130454 -0.0488501,0.0283555 -0.0749597,0.0524624 -0.0500854,0.0211871 -0.151155,0.100321 -0.202401,0.134927 -0.0160588,0.0174064 -0.0299839,0.0284491 -0.0299839,0.0524811l0 0.0449758c0,0.0265026 0.00490373,0.03077 0.0149919,0.0524624 -0.0084973,0.0218983 -0.00771121,0.03004 -0.0149919,0.0524811 0,0.174756 -0.0184171,1.1944 0.00750533,1.27431 -0.0219545,0.067679 -0.00750533,0.78746 -0.00750533,0.922014 -0.0134759,0.0106497 -0.0162834,0.0133262 -0.0299839,0.0224785l-0.322336 0c-0.0361978,0.011754 -0.0716843,0.00750533 -0.112449,0.00750533 -0.0346443,0.0112299 -0.105187,0.0271202 -0.142414,0.0299839 -0.0263903,0.0152165 -0.0354491,0.0200267 -0.0674731,0.0224973 -0.026016,0.0155909 -0.0370587,0.0235641 -0.0674731,0.0299839 -0.0308261,0.0243689 -0.000898393,0.00709356 -0.0299652,0.0149919 -0.0294972,0.023901 -0.0412887,0.0314625 -0.0749597,0.0449758 -0.0308074,0.0284304 -0.0788714,0.0672485 -0.112449,0.0899516l-0.0374892 0.0374705c-0.0174438,0.0240507 -0.00617645,0.0125588 -0.0299839,0.0299839 -0.0188475,0.0278876 -0.0518261,0.0723955 -0.0749597,0.097457 -0.0131764,0.031163 -0.0302646,0.055064 -0.0524624,0.0824463 -0.0133636,0.0633367 -0.0899703,0.206518 -0.0899703,0.27736l0 0.299839c0,0.0233208 0.00578341,0.0375641 0.00750533,0.0599678 0.0139064,0.0240695 0.0137192,0.0271202 0.0224785,0.0524624 0.00104813,0.0475587 0.0398475,0.121639 0.0599865,0.164911 0.0106123,0.0198582 0.0216363,0.0391737 0.0299652,0.0599865 0.024163,0.026147 0.0172379,0.0147861 0.0300026,0.0449758 0.0246122,0.0251363 0.0488127,0.0548394 0.0674544,0.0824463l0.097457 0.0974382c0.0465854,0.0314999 0.12555,0.0813795 0.164911,0.112449 0.0262031,0.00696255 0.0378448,0.0137379 0.0599678,0.0299839 0.0366657,0.00692512 0.168262,0.0464731 0.209906,0.0599678 0.0294598,0.000636362 0.0184919,-0.00108556 0.0449758,0.00750533l1.71661 0c0.0184358,0.00662565 0.0128583,0.00417379 0.0300026,0.00748661m2.57869 -2.78852c0.00175935,-0.00310694 0.0132139,-0.0268769 0.0149732,-0.0299839 0,-0.0469598 0.00761763,-0.0582833 -0.0149732,-0.0974382m-2.00149 0l2.00149 0c0.0228154,-0.0588448 0.00748661,-0.650455 0.00748661,-0.764608m5.81702 1.889c-0.0396416,0.0154037 -0.627509,0.0154037 -0.667151,0m-0.584704 -1.77655l1.41678 0c0.0264652,0.00859089 0.0154973,0.00685025 0.0449758,0.00748661 0.0305828,0.00993848 0.0605292,0.0129706 0.0899516,0.0224973 0.0316871,0.000692512 0.0531549,0.00945185 0.0824463,0.0149919 0.0249304,0.017762 0.0873313,0.037302 0.119954,0.0524624 0.0308261,0.016508 0.0661816,0.0392673 0.0974382,0.0524811 0.0227593,0.0209999 0.0503849,0.0433662 0.0749597,0.0599678l0.0300026 0.0299839c0.032155,0.0217299 0.0535667,0.0460801 0.0824463,0.0749597 0.0547458,0.0810051 0.131989,0.174962 0.149919,0.269855 0.0192406,0.0262031 0.0119786,0.0145802 0.0224973,0.0449758 0.00194652,0.0252299 0.00555881,0.0272513 0.00748661,0.0524811 0.0200828,0.0347753 0.0110428,0.0321176 0.0224973,0.0674544l0 0.0299839 0 0.217392 0 0.0374705c-0.00900265,0.027794 -0.00750533,0.0214491 -0.00750533,0.0524811 -0.0160588,0.0278502 -0.0217299,0.0482512 -0.0233582,0.0819971l-0.0291042 0.0529303c-0.00306951,0.0391175 0.00643849,0.00739303 -0.0149919,0.0374892 -0.0127834,0.060679 -0.0830827,0.147842 -0.119936,0.202382l-0.0300026 0.0299839c-0.0174438,0.0240507 -0.00615774,0.0125588 -0.0299839,0.0299839 -0.0174438,0.0240507 -0.00615774,0.0125588 -0.0299652,0.0299839l-0.0300026 0.0299839c-0.100358,0.0678287 -0.158885,0.0945185 -0.254863,0.149919 -0.0337646,0.0026016 -0.0322299,0.00587699 -0.0599678,0.0224973 -0.036048,0.000786094 -0.0657886,0.0115294 -0.097457,0.0224785l-0.0299839 0c-0.0432539,0.0140187 -0.189112,0.0140187 -0.232384,0 0.0101631,-0.0313315 0.0101631,-0.0211497 0,-0.0524811l0 -0.142414m0.00750533 0l0.0819971 -0.000879677 0.0529303 -0.0291042c0.0160588,-0.0174064 0.0299839,-0.0284491 0.0299839,-0.0524624l0 -0.329841c0,-0.0130454 -0.00378074,-0.0187914 -0.00748661,-0.0299839l-0.0374892 -0.0374705c-0.0232834,-0.00754276 -0.0366844,-0.00744918 -0.0599678,-0.0149919l-0.224879 0c-0.0130829,0.0165641 -0.0224973,0.0227031 -0.0224973,0.0449758l0 0.307325 0 0.0299839c0.00859089,0.0264839 0.00686897,0.015516 0.00750533,0.0449758 0.0142246,0.0210748 0.0181925,0.0252673 0.0374705,0.0449758 0.0150481,0.00733688 0.0301149,0.0148796 0.0449758,0.0224973l0.0899516 0 0.00750533 0c0,-0.0466416 0.00598929,-0.100845 -0.00750533,-0.142433 0.00460427,-0.00196524 0.0251924,-0.0126898 0.0299839,-0.0149732m-0.0899516 -0.00750533c0.016901,0.00997591 0.0160026,0.0149919 0.0374892,0.0149919l0.0224785 0 0 -0.119936m-5.22483 0.404782c-0.0019278,-0.0246871 0.000149732,-0.0144117 -0.00748661,-0.0374892 0.0156283,-0.0402593 0.013139,-0.116866 0,-0.157406l-0.0524811 0c-0.0277753,-0.00900265 -0.0214491,-0.00750533 -0.0520881,-0.00819784l-0.0378635 -0.021786c-0.022516,-0.0243876 -0.0220294,-0.0266898 -0.0374892,-0.0524811 -0.000636362,-0.0294598 0.00108556,-0.0184919 -0.00748661,-0.0449758l0 -0.0299839 0 -0.284847c0,-0.024032 0.0139251,-0.0350561 0.0299839,-0.0524624l0.239871 0c0.0220106,0.00728073 0.0137941,0.00567111 0.0374892,0.00748661l0.0449758 0.0449758c0.00692512,0.0200267 0.0149919,0.0368716 0.0149919,0.0599678l0 0.27736c0,0.0249117 -0.0221229,0.0555132 -0.0374705,0.0749597 -0.0240882,0.0139064 -0.0271202,0.0137192 -0.0524811,0.0224785 -0.0233582,0.000524063 -0.0313502,0.00351871 -0.0524811,0.00750533 -0.0149545,-0.00290106 -0.0224973,-0.00466042 -0.0374705,-0.00750533 0.00314438,-0.0166016 0.00748661,-0.0269892 0.00748661,-0.0449758l0 -0.0299839c0,-0.0233208 -0.00576469,-0.0375641 -0.00748661,-0.059949 0.0202513,-0.00943313 0.0218796,-0.0106497 0.0449758,-0.0150107m-0.0749784 0c0.0161711,0.00698126 0.0020401,0.00750533 0.0300026,0.00750533l0 -0.0749597c0,-0.0363101 0.00711228,-0.00172192 0,-0.0374705m2.89352 0.449758l0 -0.457263m1.07195 -2.17385c0.0499357,0.154018 -0.0349438,0.767995 0.0149919,0.922014 -0.0194465,0.059949 -0.0172005,1.73225 0,1.77655 0.0423181,0.0164144 0.537876,0.0151791 0.584704,0 -0.000636362,-0.0294785 0.00108556,-0.0185106 -0.00750533,-0.0449758l0 -0.0299839 0 -0.172417 0 -0.0299652c0.00859089,-0.0264839 0.00686897,-0.015516 0.00750533,-0.0449758l0.0824463 0c0.0441149,0 0.0845426,-0.0162834 0.119954,-0.0374892 0.021786,-0.0236015 0.0233395,-0.0260347 0.0374705,-0.0524811 0.0100882,-0.0216925 0.0150107,-0.0259598 0.0150107,-0.0524624l0 -0.449758c0,-0.0287112 -0.0126711,-0.0504598 -0.0224973,-0.0749597l-0.0299839 -0.0299839c-0.0141871,-0.00907752 -0.0164144,-0.0115294 -0.0299839,-0.0224973 -0.0214117,-0.00404277 -0.0397352,-0.00842244 -0.0599678,-0.0149919l-0.367312 0c-0.0543902,0.0603234 -0.0224973,0.485806 -0.0224973,0.592191 0.00859089,0.0264652 0.00685025,0.0154973 0.00748661,0.0449758 0.0204759,0.0302646 0.0403341,0.047802 0.0681656,0.0736308l0.0292914 0.0163208c0.022385,0.00172192 0.036647,0.00750533 0.0599678,0.00750533l0.104944 0c0.00314438,-0.0166203 0.00750533,-0.0270079 0.00750533,-0.0449945l0 -0.11243c-0.0301149,-0.00568982 -0.0340079,-0.00750533 -0.0599678,-0.0224973 -0.038425,-0.00378074 -0.0478956,-0.0204572 -0.0674731,-0.0524624m0.209887 0.0449758c-0.0279812,0.00967644 -0.0515827,0.0201203 -0.0824463,0.0224785l0 -0.104944c0,-0.0347379 -0.0067941,-0.0424304 -0.00750533,-0.0749597 0.0319304,-0.0148235 0.0572164,-0.0206818 0.0899516,-0.0374705m-0.194895 -0.0224973c0.0230588,0.0368528 0.061933,0.0491683 0.104944,0.0524811l0 -0.187409m-7.15883 -1.02696c0.0537726,-0.0174251 1.96269,-0.0174251 2.01646,0 0.0301149,-0.00568982 0.0340079,-0.00750533 0.0599678,-0.0224785 0.0136818,-0.0294224 0.0142433,-0.0255106 0.0149919,-0.0599678l-0.0299839 -0.0299839c-0.022385,-0.00172192 -0.036647,-0.00750533 -0.0599678,-0.00750533l-1.9865 0c-0.0326603,0 -0.0561309,0.00731816 -0.0824463,0.0224973l0 0.0599678 0.0299839 0.0299839c0.0257352,0.00202138 0.0135133,-0.000280748 0.0374892,0.00748661l0 0.734624c0.00660693,0.0184171 0.00417379,0.0128395 0.00748661,0.0299839 -0.0113235,0.034925 -0.00748661,0.0587325 -0.00748661,0.0974382 0.00660693,0.0184358 0.00417379,0.0128583 0.00748661,0.0299839l2.00149 0c0.0218422,0.0674169 0.00748661,0.780835 0.00748661,0.914527 0.0174064,0.0160588 0.0284491,0.0299652 0.0524624,0.0299652l0.479761 0c0.0233208,0 0.0375828,-0.00576469 0.0599678,-0.00748661 0.015909,0.00333154 0.0123903,0.00116042 0.0299839,0.00748661l0.637185 0c0.0106497,-0.0134759 0.0133262,-0.0162647 0.0224785,-0.0299652l0 -0.839567c0.00859089,-0.0264652 0.00685025,-0.0154973 0.00750533,-0.0449758m1.44677 -1.73158c0.022385,-0.0017032 0.0366282,-0.00748661 0.059949,-0.00748661l1.67915 0 0.0299839 0c0.0264652,0.00857217 0.0154973,0.00685025 0.0449758,0.00748661 0.029647,-0.000636362 0.0323234,-0.00537164 0.0599678,-0.00748661 0.0348315,-0.0386309 0.0224973,-0.0661816 0.0224973,-0.119936 -0.0165641,-0.0130829 -0.0227219,-0.0224973 -0.0449758,-0.0224973l-1.88904 0c-0.0222727,0 -0.0284117,0.00941441 -0.0449758,0.0224973l0 0.0974382c0.0295721,0.0233582 0.0437592,0.0291416 0.082465,0.0299839 0,0.125644 0.0141684,0.866163 -0.00750533,0.922014m0 0.704621c0.0125775,0.0208502 0.0109866,0.0184732 0.0299839,0.0374892 0.0501229,0.0300213 0.29209,0.155385 0.337328,0.164911 0.0356924,0.0281684 0.0617458,0.0317807 0.097457,0.0599678 0.0325668,0.00685025 0.0335775,0.00915238 0.0599678,0.0299839 0.0476148,0.0100321 0.284978,0.130435 0.322336,0.164911l0 0.0599678c-0.0345694,0.0311443 -0.0202326,0.0224785 -0.0674731,0.0224785 -0.0184171,0.00664437 -0.0128395,0.0041925 -0.0299839,0.00750533 -0.0301898,-0.0127647 -0.0188101,-0.00583956 -0.0449758,-0.0299839 -0.11885,-0.0250427 -0.353405,-0.199836 -0.472255,-0.224879 -0.0263716,-0.0208315 -0.027401,-0.0231336 -0.0599678,-0.0299839 -0.0138877,-0.0112112 -0.0236203,-0.018754 -0.0374892,-0.0299839 -0.0348502,-0.00344384 -0.0322299,-0.00748661 -0.0599678,-0.0299839 -0.0348689,-0.00344384 -0.0322299,-0.00748661 -0.0599678,-0.0299839 -0.0426924,-0.00900265 -0.2479,-0.113272 -0.284847,-0.142433 -0.0337833,-0.00711228 -0.0622699,-0.0231149 -0.0899703,-0.0449758 -0.0325668,-0.00686897 -0.0335962,-0.0091711 -0.0599678,-0.0299839 -0.0402593,-0.00847859 -0.101706,-0.0412325 -0.134927,-0.0674544 -0.0325855,-0.00686897 -0.0335962,-0.0091711 -0.0599678,-0.0299839 -0.0417379,-0.00879677 -0.0953233,-0.0436657 -0.142433,-0.0599678 -0.0472592,0.0163582 -0.0755961,0.0287486 -0.119936,0.0524624 -0.175767,0.085572 -0.346087,0.194521 -0.532223,0.254863l-0.0299839 0c-0.0114732,-0.0353555 -0.0114732,-0.0770934 0,-0.11243 0.0195775,-0.0128021 0.0335213,-0.0221229 0.0524624,-0.0374892 0.0329598,-0.00694383 0.039024,-0.0147673 0.0674731,-0.0299839 0.00458555,-0.00196524 0.0251737,-0.0127085 0.0299839,-0.0149919 0.00479143,-0.0027139 0.0247994,-0.0122593 0.0299839,-0.0149919 0.00458555,-0.00196524 0.0251924,-0.0127085 0.0299839,-0.0149919 0.00479143,-0.0027139 0.0247994,-0.0122593 0.0299839,-0.0149919 0.0727699,-0.0354304 0.273636,-0.151473 0.337328,-0.164911 0.0138877,-0.0111925 0.0236203,-0.0187352 0.0374892,-0.0299839 0.0304331,-0.00233957 0.0465854,-0.0149919 0.0674544,-0.0149919 0.0157967,0 0.0396603,0.0111551 0.0599678,0.0149919 0.0214117,0.0157032 0.0235828,0.0142807 0.0449945,0.0299839 0.0273261,0.00576469 0.0287486,0.00980746 0.0524624,0.0224785 0.0387245,0.018024 0.0775426,0.0324357 0.112449,0.0599865 0.0421496,0.00887163 0.0448261,0.0279625 0.0899516,0.0374705 0.0268769,0.0212058 0.0419812,0.0305267 0.0749597,0.0374892 0.0226657,0.0178743 0.0428421,0.026016 0.0674731,0.0374705 0.0405587,0.0217112 0.0818848,0.0503849 0.127422,0.0599678 0.0193529,0.0152727 0.0250614,0.0180614 0.0449758,0.0299839l0.0299839 0c0.0186604,0.00606415 0.0338208,0.0089465 0.0524811,0.0149919 0.00333154,-0.015909 0.00116042,-0.0123716 0.00750533,-0.0299839 0,-0.110353 0.0133636,-0.610271 -0.00750533,-0.674637l-0.622194 0c-0.0219919,-0.00728073 -0.0137754,-0.00567111 -0.0374705,-0.00748661 -0.0761763,-0.0439838 -0.123735,-0.0491683 -0.217392,-0.112449l-0.0449758 -0.0449758c-0.0142246,-0.0210561 -0.0181925,-0.0252673 -0.0374705,-0.0449758 -0.0122219,-0.0182673 -0.0137754,-0.0199144 -0.0299839,-0.0374705 -0.00834757,-0.0208128 -0.0193716,-0.0401282 -0.0300026,-0.0599865 -0.0129893,-0.0279625 -0.0199705,-0.0535293 -0.0299839,-0.0824463 -0.000598929,-0.0278502 -0.0141684,-0.0867885 -0.0224785,-0.112449l0 -0.0524624c-0.0117353,-0.0361978 -0.00750533,-0.0716843 -0.00750533,-0.112449 -0.0183796,-0.0306951 -0.0270828,-0.0448822 -0.0299839,-0.0824463 -0.0250801,-0.0317807 -0.0505159,-0.0825773 -0.0749597,-0.119936l-0.0674731 -0.0674731c-0.0786281,-0.0531549 -0.112262,-0.0690827 -0.18739,-0.11243 -0.0234518,-0.00179679 -0.0536416,-0.00808554 -0.0749784,-0.0149919l-0.0374705 0c-0.0640292,-0.0207566 -0.557715,-0.00750533 -0.667151,-0.00750533 -0.103633,0 -0.619311,0.0139812 -0.674656,-0.00750533m-0.832081 0c-0.0537351,0.0208689 -0.30551,0.00750533 -0.382304,0.00750533m0.382304 -0.292352c0.000636362,0.0294972 -0.00108556,0.0185294 0.00748661,0.0449758l0 0.0299839 0 0.149938c0,0.0233208 -0.00576469,0.0375828 -0.00748661,0.059949 0.0492432,0.0159839 0.782837,0.0159839 0.832081,0 -0.00335026,-0.015909 -0.00116042,-0.0123529 -0.00750533,-0.0299652 0.00544651,-0.0163957 0.00750533,-0.0184171 0.00750533,-0.0374892l0 -0.0599678c0,-0.019147 -0.00217112,-0.0210374 -0.00750533,-0.0374892 0.00729945,-0.0219919 0.00567111,-0.0137754 0.00750533,-0.0374705l0.0824463 0c0.0242192,0 0.0416068,-0.0154973 0.060679,-0.0295908l0.021786 -0.0378635 0 -0.0524811c0.0104813,-0.0323047 0.00748661,-0.0396229 0.00748661,-0.0749597 -0.0180427,-0.0556442 -0.00748661,-0.160588 -0.00748661,-0.224879 -0.0159278,-0.0235641 -0.0234331,-0.0309384 -0.0449758,-0.0524624 -0.0214117,-0.00406149 -0.0397352,-0.00844115 -0.0599678,-0.0150107l-0.224898 0c-0.0468849,0.0520319 -0.0224785,0.31382 -0.0224785,0.397296 0.00729945,0.0220106 0.00567111,0.0137941 0.00748661,0.0374892l0.0456683 0.0436469 0.0293101 0.0163208c0.0324545,0 0.0312566,0.00363101 0.0599678,-0.00750533 0.034401,0.0123716 0.0123903,0.00359357 0.0299652,0 0.0103315,-0.0105561 0.0150107,-0.00288235 0.0150107,-0.0299839l0 -0.0149919 0 -0.0374892c-0.00902137,-0.0277566 -0.00750533,-0.0214304 -0.00750533,-0.0524624 0.015778,-0.00731816 0.0296283,-0.0136256 0.0449758,-0.0224973m-0.097457 0c0.025024,0.0116417 0.0233021,0.0127647 0.0524811,0.0150107l0 -0.097457m-0.817089 0.157406c0.0321176,0.000711228 0.0360293,0.00750533 0.0674731,0.00750533 0.0233395,0 0.0375828,-0.00576469 0.0599678,-0.00750533 0.0184171,-0.00660693 0.0128583,-0.00417379 0.0299839,-0.00748661 0.0134759,-0.0106497 0.0162834,-0.0133262 0.0299839,-0.0224785l0.0374892 -0.0374892c0.00692512,-0.0200267 0.0149919,-0.0368716 0.0149919,-0.0599678l0 -0.42728c0,-0.0230962 -0.00806682,-0.0399411 -0.0149919,-0.0599678l-0.0524811 -0.0524624c-0.0244999,-0.00795452 -0.0469411,-0.0149919 -0.0749597,-0.0149919l-0.314831 0c-0.0222727,0 -0.0284304,0.00941441 -0.0449758,0.0224785l0 0.524737c0.00857217,0.0264652 0.00685025,0.0154973 0.00853474,0.044433l0.0139438 0.0305267 0.029516 0.0308636 0.0529491 0.0290855c0.0294785,0.000655078 0.0185106,-0.00106684 0.0449758,0.00750533l0.0299839 0 0.0299839 0c0.0264652,-0.00857217 0.0154973,-0.00685025 0.0449758,-0.00750533l0.00748661 0 0 -0.104925c-0.0100695,-0.0311256 -0.00748661,-0.033409 -0.00748661,-0.0674731 0.0375079,-0.027532 0.0557378,-0.0195588 0.097457,-0.0524624m-0.202401 0c0.0181925,0.0103502 0.0124839,0.0049786 0.0299839,0.0224785 0.0285427,0.00218983 0.0492806,0.0136069 0.0749597,0.0224973l0 -0.0300026c0.00542779,-0.016377 0.00748661,-0.0183983 0.00748661,-0.0374705l0 -0.0299839c-0.0100695,-0.0311069 -0.00748661,-0.033409 -0.00748661,-0.0674544"/>
  <path class="fil3 str2" d="M13.8405 0.968449c-0.0282058,-0.0726388 -0.0198021,-0.0549143 -0.0198021,-0.138521"/>
  <line class="fil3 str2" x1="13.1874" y1="1.26529" x2="13.0291" y2= "1.10699" />
  <path class="fil3 str2" d="M14.4737 1.24551c0.0710105,-0.0434411 0.096596,-0.0767939 0.158323,-0.138521"/>
  <line class="fil3 str2" x1="12.8708" y1="1.89855" x2="12.752" y2= "1.89855" />
  <path class="fil3 str2" d="M14.7706 1.91833c0.104457,-0.04054 0.0638234,-0.000954543 0.158323,-0.0197834"/>
  <line class="fil3 str2" x1="14.6321" y1="2.70989" x2="14.4737" y2= "2.55161" />
  <line class="fil3 str2" x1="13.1083" y1="2.63076" x2="13.1083" y2= "2.61096" />
  <path class="fil3 str2" d="M6.38763 5.76297l0 -0.532204c0.00776736,-0.0239572 0.0178181,-0.0577966 0.0224785,-0.082465 0.0162272,-0.0176123 0.0177058,-0.0192967 0.0300026,-0.0374705 0.0182486,-0.0122219 0.0199144,-0.0137754 0.0374705,-0.0299839 0.0266898,-0.0107059 0.0470908,-0.0203449 0.0749597,-0.0299839 0.0310694,-0.000692512 0.0335962,-0.00750533 0.0599678,-0.00750533 0.0282994,0 0.0201951,-0.000542779 0.0449758,0.00750533 0.029647,0.000636362 0.0323422,0.00537164 0.0598367,0.00769249l0.0676041 0.0447699c0.032155,0.0328849 0.038556,0.0467165 0.0599678,0.082465 0,0.0984864 -0.0119599,0.517213 0.00748661,0.57718 0.0141871,0.00909623 0.0164144,0.0115481 0.0299839,0.0224973l0.0749597 0c0.0162459,-0.0176123 0.0177058,-0.0192967 0.0300026,-0.0374705l0 -0.517231c0.00720586,-0.0222727 0.0130829,-0.0427673 0.015254,-0.0672859l0.0297218 -0.045163c0.0228716,-0.0185481 0.0445828,-0.0339143 0.0674544,-0.0524624 0.021262,-0.00402405 0.0327914,-0.00817912 0.0524811,-0.0149919 0.0310694,-0.000692512 0.0335962,-0.00750533 0.0599678,-0.00750533 0.0282994,0 0.0201951,-0.000542779 0.0449758,0.00750533 0.0465293,0.00101069 0.0583394,0.0142807 0.097457,0.0299839 0.0176123,0.0162272 0.0192967,0.0177058 0.0374705,0.0299839l0.0299839 0.0299839c0.008385,0.0209064 0.0151042,0.0385935 0.0224973,0.0599678l0 0.524718c0.0116417,0.0336523 0.00613902,0.0297593 0.0299839,0.0599678l0.0749597 0c0.0182673,-0.0122032 0.0199144,-0.0137754 0.0374705,-0.0299839l0 -0.524718c0.0103315,-0.0318368 0.00716843,-0.0420186 0.0224973,-0.0749597 0.00754276,-0.0143743 0.0134759,-0.0236951 0.0224973,-0.0374892 0.0175561,-0.0142246 0.0275133,-0.0213743 0.0449758,-0.0374705 0.0266711,-0.0107059 0.0470908,-0.0203449 0.0749597,-0.0299839 0.0310694,-0.000692512 0.0335962,-0.00750533 0.0599678,-0.00750533 0.0282807,0 0.0201951,-0.000542779 0.0449758,0.00750533l0.0368528 0.00123529 0.0606041 0.0287486c0.0175935,0.0162272 0.0192967,0.0177058 0.0374705,0.0299839 0.0212433,0.0230026 0.0290106,0.0355614 0.0449758,0.0599678 0.00232085,0.0301149 0.00437967,0.026016 0.0149919,0.0524624l0 0.532223"/>
  <path class="fil3 str2" d="M4.13128 7.32215c0,-0.0699249 -0.0132326,-0.253965 0.00748661,-0.307344l0.119936 0c0.0197085,-0.00681282 0.0312192,-0.0109679 0.0524811,-0.0149732 0.0134759,-0.0106497 0.0162834,-0.0133449 0.0299839,-0.0224973 0.027532,-0.0298154 0.0524811,-0.0716843 0.0524811,-0.112449l0 -0.427261c0,-0.0252673 -0.0143556,-0.0589571 -0.0224973,-0.082465l-0.0524624 -0.0524624c-0.0161149,-0.00338769 -0.0128957,-0.00183422 -0.0299839,-0.00750533 -0.0360667,-0.00277005 -0.052818,-0.0149919 -0.0899516,-0.0149919l-0.292371 0c-0.022254,0 -0.028393,0.00941441 -0.0449758,0.0224973l0.000280748 0.606996 0.0297218 0.0451443 0.0449758 0.0449945c0.0269144,0.00507218 0.0405961,0.0149732 0.0674544,0.0149732l0.127441 0 0 -0.149919c0.0456309,-0.0335026 0.0755961,-0.0156844 0.104944,-0.059949m-0.194895 0.0224785c0.0298529,0.0103315 0.0600801,0.0196524 0.0899516,0.0299839l0 -0.187409c-0.0369464,-0.0127834 -0.0618394,-0.0192032 -0.097457,-0.0374705m0.187409 0c-0.0307513,0.015778 -0.0534544,0.0271764 -0.0899516,0.0299839 -0.000505346,-0.0233582 -0.00351871,-0.0313502 -0.00748661,-0.0524811 0.0121657,-0.0375641 0.00748661,-0.0850292 0.00748661,-0.127422"/>
  <path class="fil3 str2" d="M4.80594 7.32215c0,-0.0554009 -0.0115481,-0.130847 0.00750533,-0.179903l0.0895586 -0.000711228 0.0378635 -0.0217673c0.017893,-0.0193903 0.0374892,-0.0407084 0.0374892,-0.0674731l0 -0.314831c0,-0.0130454 -0.00379946,-0.0188101 -0.00750533,-0.0299839l-0.0449758 -0.0449758c-0.0186604,-0.00606415 -0.0338208,-0.0089465 -0.0524811,-0.0149919l-0.224879 0c-0.0477833,0.0530052 -0.0224785,0.333641 -0.021786,0.419381l0.021786 0.0378635c0.0174438,0.0161149 0.0274197,0.0232459 0.0449758,0.0374892l0.112449 0 -0.000673795 -0.141085 -0.0293101 -0.0163395m0.0899516 -0.00748661c-0.0228903,0.0093957 -0.0335587,0.0129706 -0.0599678,0.0149919l0 -0.0899516"/>
  <path class="fil3 str2" d="M13.7437 4.08067l0 -0.179922c0.0313502,-0.0121657 0.0612592,-0.00748661 0.097457,-0.00748661 0.0212433,-0.0167887 0.0312005,-0.0207005 0.0524624,-0.0374892 0.0100695,-0.01677 0.0224973,-0.031425 0.0224973,-0.0524624l0 -0.314831c0,-0.0130454 -0.00379946,-0.0188101 -0.00750533,-0.0299839l-0.0449758 -0.0449758c-0.0186417,-0.00606415 -0.0338208,-0.0089465 -0.0524624,-0.0149919l-0.224898 0 -0.0299839 0.0299839 -0.00132887 0.36048 0.0163395 0.0293101c0.00370587,0.0376764 0.000280748,0.0221042 0.0299652,0.0524811 0.0141871,0.00907752 0.0164144,0.0115294 0.0299839,0.0224785l0.112449 0 0 -0.142414c-0.0291603,-0.0022647 -0.0274571,-0.00336897 -0.0524624,-0.0150107m0.11243 -0.00748661c-0.0228903,0.0093957 -0.0335587,0.0129706 -0.0599678,0.0149919l0 -0.097457"/>
  <path class="fil3 str2" d="M14.2507 7.19589c-0.0344758,0.00265775 -0.0373769,0.0104251 -0.0674731,0.0224973l-0.0435908 0.0456683 -0.0238823 0.0442646c-0.0383876,0.0345881 -0.0593314,0.0224973 -0.111981,0.0233582l-0.0529491 0.0291042c-0.0154599,0.0257914 -0.0299839,0.0502164 -0.0299839,0.082465l0 0.00748661c0,0.0322299 0.014524,0.0566549 0.0299839,0.0824463 0.0255481,0.0236015 0.0474838,0.0374705 0.082465,0.0374705l0.532261 0c0.0257165,0 0.0540346,-0.0237887 0.0749597,-0.0374705 0.0207941,-0.0212433 0.0524811,-0.0535854 0.0524811,-0.0824463l0 -0.0674544c0,-0.0237326 -0.0172754,-0.0405213 -0.0299839,-0.0599678l-0.0299839 -0.0299839c-0.0213743,-0.00739303 -0.0390614,-0.0140935 -0.0599865,-0.0224785l-0.0974382 0c-0.0288047,-0.0188288 -0.0406897,-0.026278 -0.0674731,-0.0524624 -0.0201016,-0.00806682 -0.0793581,-0.0374892 -0.097457,-0.0374892l-0.0224973 0c-0.0244251,0 -0.0193529,0.00632619 -0.0374705,0.0149919z"/>
  <path class="fil4" d="M13.8396 1.46294c0.263173,0 0.476616,0.213443 0.476616,0.476616 0,0.263173 -0.213443,0.476616 -0.476616,0.476616 -0.263173,0 -0.476616,-0.213443 -0.476616,-0.476616 0,-0.263173 0.213443,-0.476616 0.476616,-0.476616z"/>
  <path class="fil5" d="M10.7518 7.50604l0 0.079096c-0.0311817,0.0164331 -0.0467913,0.0316309 -0.0951923,0.0316309l-0.142751 0c-0.0437405,0 -0.206219,-0.276612 -0.206219,-0.363812l0 -0.0316309c0,-0.10193 0.11973,-0.237269 0.222072,-0.237269l0.126898 0c0.109061,0 0.237943,0.149133 0.237943,0.253085 0,0.104644 -0.0818661,0.228229 -0.142751,0.2689zm-0.380713 0.347996l0.0158716 -0.0316309c0.0519571,0.0239572 0.0576469,0.0220668 0.063449,-0.0474651l-0.0382191 -0.00277005 0.0699437 -0.123772 0.237943 0 0 0.0474651 0 0.0158155 0 0.0474464 0 0.0316309 0 0.0474651 -0.162366 0.0261096 0.130623 0.0371523c0.23916,-0.00531549 0.444162,-0.270866 0.444162,-0.537801l0 -0.0316309c0,-0.235491 -0.255593,-0.490373 -0.491739,-0.490373l-0.0793206 0c-0.26409,0 -0.507592,0.271315 -0.507592,0.537819 0,0.198489 0.15793,0.437518 0.317245,0.474539z"/>
  <path class="fil6" d="M6.72288 7.02676l0.015647 0.289451 0.104756 0.00254545 -0.104756 0.408732 -0.0339705 -0.000280748 0.0180989 -0.173727 0 -0.173989 -0.106029 -0.00329411 0.106254 -0.349438zm-0.380919 -0.0110802l0.126898 0.0474464 0.0317245 -0.0632619 0.063449 0c-0.0156096,0.0668367 -0.0475774,0.114433 -0.0475774,0.189804l0 0.0158155c0,0.118083 0.0793019,0.176927 0.0793019,0.30055l0 0.0316309c0,0.0767003 -0.0210187,0.197553 -0.0951735,0.205638l0 -0.0474464 -0.063449 0.0948928 -0.0475961 0c0.0470533,0.064048 0.217767,0.126542 0.333117,0.126542 0.267628,0 0.413935,-0.171462 0.507611,-0.347996l-0.0436095 0.00297593 -0.0650586 0.0690078 -0.0341015 -0.00870319 0 -0.110727 -0.0158529 0 -0.000505346 0.183123 -0.0629437 0.00670052 0 -0.110727c-0.0583207,0.0916361 0.0186604,0.139476 -0.111045,0.142358 0.00707485,-0.084842 0.0475961,-0.150518 0.0475961,-0.237269 0,-0.112093 -0.063449,-0.14451 -0.063449,-0.284716l0 -0.0632806c0,-0.104494 -0.00172192,-0.156021 0.0951735,-0.158173l0 0.0316309 0.0317245 -0.0158155 0.00190909 0.0813795 0.0475774 -0.0362165 0.0449571 0.0311443 0.064179 -0.0130454c-0.071834,-0.106965 -0.222558,-0.237269 -0.396566,-0.237269l-0.0475961 0c-0.171275,0 -0.313221,0.0735185 -0.380694,0.174008z"/>
  <path class="fil6" d="M8.46756 7.90148l0.0475774 0 0 -0.537801 -0.0199518 0.00643849 -0.0276256 -0.117165c-0.171518,0 -0.177601,0.102024 -0.269668,0.126542l0 -0.0474464c0,-0.107059 0.0536416,-0.18155 0.123286,-0.225048 0.0339331,-0.0212058 0.219058,-0.107133 0.257408,-0.107133l0.0317245 0c0.0858527,0 0.0798447,0.0446951 0.126898,0.0790773 0.00945185,-0.0352432 0.00370587,-0.0474464 0.0475961,-0.0474464l0.0951735 0c0.0479517,0 0.0438715,0.0186229 0.0475961,0.0632806l0.0769249 0.0150107 0.0182486 -0.0308448c-0.063318,-0.119318 -0.230138,-0.237269 -0.412437,-0.237269l-0.0475774 0c-0.235173,0 -0.507611,0.236539 -0.507611,0.442908l0 0.126542c0,0.312136 0.208764,0.392916 0.412437,0.490354z"/>
  <path class="fil6" d="M12.7822 7.79075l-0.0628501 0 -0.0164518 -0.711808 0 0.680177c-0.0387619,0.0577031 -0.0940693,0.0949115 -0.190366,0.0949115l-0.0793019 0c-0.0996842,0 -0.190347,-0.0420373 -0.190347,-0.142358l0.00359357 -0.357954 0.281927 -0.16405 0 -0.0632619c0,-0.0364411 -0.0110428,-0.0474651 -0.0475961,-0.0474651l-0.063449 0 0 0.0632806c0,0.0380881 -0.0569731,0.0949115 -0.0951735,0.0949115 -0.0371336,0 -0.063449,-0.0262593 -0.063449,-0.0632806l0 -0.0949115c0,-0.0795265 0.0788714,-0.158173 0.158623,-0.158173l0.111045 0c0.109099,0 0.125663,0.0705426 0.174494,0.126542l0.000898393 -0.059818 0.0638608 -0.0189598 -0.00220855 0.0511148 0.0481389 0.0268021 0.047933 -0.0149545c-0.0607726,-0.0904944 -0.226769,-0.189823 -0.380713,-0.189823l-0.0475774 0c-0.268339,0 -0.507611,0.238617 -0.507611,0.506188l0 0.0632619c0,0.26643 0.251269,0.50617 0.507611,0.50617 0.137435,0 0.295047,-0.0462485 0.34897,-0.126542z"/>
  <path class="fil7" d="M12.8615 7.0315c0.0667431,0.076588 0.126898,0.175056 0.126898,0.316365l0 0.0790773c0,0.147337 -0.107414,0.311686 -0.206219,0.363812 -0.0539223,0.0802939 -0.211534,0.126542 -0.34897,0.126542 -0.256342,0 -0.507611,-0.23974 -0.507611,-0.50617l0 -0.0632619c0,-0.267571 0.239272,-0.506188 0.507611,-0.506188l0.0475774 0c0.153943,0 0.31994,0.0993286 0.380713,0.189823zm-1.0152 0.316365l0 0.0790773c0,0.299876 0.298622,0.56945 0.602766,0.56945 0.310938,0 0.618656,-0.270379 0.618656,-0.56945l0 -0.0632619c0,-0.309946 -0.275863,-0.601081 -0.57106,-0.601081l-0.0158716 0c-0.347828,0 -0.63449,0.244681 -0.63449,0.585266z"/>
  <path class="fil7" d="M6.34196 7.01568c0.0674731,-0.100489 0.209419,-0.174008 0.380694,-0.174008l0.0475961 0c0.174008,0 0.324732,0.130304 0.396566,0.237269 0.0552512,0.0633929 0.0951735,0.187034 0.0951735,0.30055 0,0.0690453 -0.0262031,0.123623 -0.0317245,0.189804 -0.0936762,0.176534 -0.239983,0.347996 -0.507611,0.347996 -0.11535,0 -0.286063,-0.0624945 -0.333117,-0.126542 -0.106609,-0.0711977 -0.2062,-0.249753 -0.2062,-0.427074 0,-0.13285 0.0798447,-0.295403 0.158623,-0.347996zm-0.22209 0.2689l0 0.189823c0,0.25228 0.32271,0.521985 0.586932,0.521985 0.368135,0 0.634509,-0.279007 0.634509,-0.648528 0,-0.292783 -0.289283,-0.585266 -0.586932,-0.585266 -0.317002,0 -0.634509,0.242398 -0.634509,0.521985z"/>
  <path class="fil7" d="M10.6883 7.90148c-0.0874249,0.0553261 -0.268376,-0.0050909 -0.317245,-0.0474464 -0.159315,-0.0370213 -0.317245,-0.27605 -0.317245,-0.474539 0,-0.266505 0.243502,-0.537819 0.507592,-0.537819l0.0793206 0c0.236146,0 0.491739,0.254882 0.491739,0.490373l0 0.0316309c0,0.266935 -0.205002,0.532485 -0.444162,0.537801zm-0.697939 -0.601081l0 0.158192c0,0.272232 0.314625,0.537801 0.602766,0.537801l0.0158716 0c0.329954,0 0.602784,-0.293531 0.602784,-0.632712l0 -0.0158155c0,-0.315673 -0.293625,-0.585266 -0.618656,-0.585266 -0.298416,0 -0.602766,0.263416 -0.602766,0.537801z"/>
  <path class="fil7" d="M8.56274 7.42694c0,-0.0525934 0.0284678,-0.0463234 0.0793019,-0.0474464l0 0.537801 -0.0793019 0 0 -0.490354zm-0.0475961 -0.332162c0,-0.0364598 0.0110428,-0.0474651 0.0475961,-0.0474651l0.063449 0c0.0520507,0 0.0595186,0.0319117 0.063449,0.079096l0.0475774 0c0.0479705,0 0.0438715,-0.0186229 0.0475961,-0.0632806l0.0317245 0 0 0.237269c-0.0673421,-0.0179304 -0.0277566,-0.0316309 -0.0793206,-0.0316309l-0.0158529 0c-0.0706736,0 -0.0244999,0.0632806 -0.0951735,0.0632806l-0.063449 0c-0.0365534,0 -0.0475961,-0.011024 -0.0475961,-0.0474651l0 -0.189804zm-0.253796 0.173989c0.0195962,-0.0838688 0.114901,-0.150593 0.206219,-0.158173l0 0.0948928 -0.0475961 0c-0.0758768,0 -0.0950612,0.0463608 -0.158623,0.0632806zm0.206219 0.632712l0.0309197 0.0181925 -0.018024 0.0439464 -0.0604918 0.00114171 0.158623 0.0316309c0.251588,0.0399224 0.585116,-0.262874 0.602784,-0.474539l-0.0182486 -0.0308448 -0.0452004 -0.000786094c-0.10427,0.163863 -0.145764,0.387825 -0.42829,0.411258l-0.0197085 -0.490167 0.00383689 -0.0160026c0,-0.0549704 0.0281309,-0.0222352 0.0475961,-0.0949115 0.0247994,0.0284678 0.0189598,0.0474651 0.063449,0.0474651l0.0951735 0c0.0783661,0 0.0475961,-0.177695 0.0475961,-0.253085 -0.00372459,-0.0446576 0.000355614,-0.0632806 -0.0475961,-0.0632806l-0.0951735 0c-0.0438903,0 -0.0381443,0.0122032 -0.0475961,0.0474464 -0.0470533,-0.0343823 -0.0410453,-0.0790773 -0.126898,-0.0790773l-0.0317245 0c-0.0383502,0 -0.223475,0.0859276 -0.257408,0.107133 -0.0696442,0.0434972 -0.123286,0.117989 -0.123286,0.225048l0 0.0474464c0.0920666,-0.0245187 0.0981495,-0.126542 0.269668,-0.126542l0.0276256 0.117165 0.0199518 -0.00643849 0 0.537801 -0.0475774 0z"/>
  <path class="fil8" d="M8.92758 7.09478c0,0.0753902 0.03077,0.253085 -0.0475961,0.253085l-0.0951735 0c-0.0444892,0 -0.0386496,-0.0189973 -0.063449,-0.0474651 -0.0194652,0.0726763 -0.0475961,0.0399411 -0.0475961,0.0949115l-0.00383689 0.0160026 0.0197085 0.490167c0.282526,-0.0234331 0.324021,-0.247395 0.42829,-0.411258 0,-0.199368 0.000224598,-0.301823 -0.0951735,-0.411277l-0.0182486 0.0308448 -0.0769249 -0.0150107z"/>
  <path class="fil7" d="M8.41997 7.96476l0.0604918 -0.00114171 0.018024 -0.0439464 -0.0309197 -0.0181925c-0.203673,-0.0974382 -0.412437,-0.178219 -0.412437,-0.490354l0 -0.126542c0,-0.206368 0.272438,-0.442908 0.507611,-0.442908l0.0475774 0c0.182299,0 0.349119,0.117952 0.412437,0.237269 0.0953981,0.109454 0.0951735,0.211909 0.0951735,0.411277l0.0452004 0.000786094 0.0182486 0.0308448c0.00829142,-0.0354678 0.0158716,-0.0363662 0.0158716,-0.079096l0 -0.0790773c0,-0.328606 -0.278876,-0.601081 -0.602784,-0.601081 -0.324226,0 -0.618656,0.258924 -0.618656,0.56945l0 0.0948928c0,0.237793 0.237756,0.520694 0.444162,0.537819z"/>
  <path class="fil8" d="M6.38954 7.79075l0.0475961 0 0.063449 -0.0948928c0.0015909,-0.0711228 0.0317245,-0.132101 0.0317245,-0.189823 0,-0.0870319 -0.0892404,-0.234499 -0.081211,-0.300831l0.017762 -0.142077 -0.126898 -0.0474464c-0.0787779,0.0525934 -0.158623,0.215146 -0.158623,0.347996 0,0.17732 0.0995906,0.355876 0.2062,0.427074z"/>
  <path class="fil7" d="M12.3063 7.17386c0,-0.109024 0.0358421,-0.189804 0.142751,-0.189804l0.0475961 0c0.0784035,0 0.14277,0.064179 0.14277,0.142358l0 0.56945c0,0.0368716 -0.0423368,0.0790773 -0.0793206,0.0790773l-0.158623 0c-0.0428421,0 -0.0437405,-0.00754276 -0.0793206,-0.0158155 -0.00829142,-0.0354678 -0.0158529,-0.0363662 -0.0158529,-0.079096l0 -0.2689c0,-0.0509277 0.237756,-0.178705 0.285521,-0.189804l0 -0.110727c0,-0.0512646 -0.068933,-0.0949115 -0.126898,-0.0949115 -0.0606415,0 -0.0951735,0.0468288 -0.0951735,0.110727l0 0.0474464 -0.063449 0zm0.396566 -0.0949115l0 -0.0316309c-0.0488314,-0.0559998 -0.0653955,-0.126542 -0.174494,-0.126542l-0.111045 0c-0.0797511,0 -0.158623,0.0786468 -0.158623,0.158173l0 0.0949115c0,0.0370213 0.0263154,0.0632806 0.063449,0.0632806 0.0382004,0 0.0951735,-0.0568234 0.0951735,-0.0949115l0 -0.0632806 0.063449 0c0.0365534,0 0.0475961,0.011024 0.0475961,0.0474651l0 0.0632619 -0.281927 0.16405 -0.00359357 0.357954c0,0.100321 0.0906629,0.142358 0.190347,0.142358l0.0793019 0c0.0962965,0 0.151604,-0.0372085 0.190366,-0.0949115l0 -0.680177z"/>
  <path class="fil9" d="M12.7029 7.04732l0 0.0316309 0.0164518 0.711808 0.0628501 0c0.0988045,-0.0521255 0.206219,-0.216475 0.206219,-0.363812l0 -0.0790773c0,-0.14131 -0.0601549,-0.239777 -0.126898,-0.316365l-0.047933 0.0149545 -0.0481389 -0.0268021 0.00220855 -0.0511148 -0.0638608 0.0189598 -0.000898393 0.059818z"/>
  <path class="fil8" d="M6.97647 7.0315c-0.0236203,0.0371149 -0.0317245,0.0801067 -0.0317245,0.142358l0 0.0632806c0,0.113272 0.063449,0.159914 0.063449,0.363812l0 0.110727 0.0629437 -0.00670052 0.000505346 -0.183123 0.0158529 0 0 0.110727 0.0341015 0.00870319 0.0650586 -0.0690078 0.0436095 -0.00297593c0.00552138,-0.0661816 0.0317245,-0.120759 0.0317245,-0.189804 0,-0.113516 -0.0399224,-0.237157 -0.0951735,-0.30055l-0.064179 0.0130454 -0.0449571 -0.0311443 -0.0475774 0.0362165 -0.00190909 -0.0813795 -0.0317245 0.0158155z"/>
  <path class="fil10" d="M10.5989 7.46149l0.0100882 -0.161449 -0.135676 0.0126524 0.104008 -0.233751 0.000524063 0.145877 0.1502 -0.0152727 -0.129144 0.251943zm-0.227799 -0.224355c0,0.167925 0.115893,0.168505 0.126898,0.300531l0.206219 0c0.00316309,-0.141815 0.111045,-0.123398 0.111045,-0.253085l0 -0.0632619c0,-0.0767565 -0.103671,-0.174008 -0.158641,-0.174008l-0.0951735 0c-0.0845051,0 -0.190347,0.119505 -0.190347,0.189823z"/>
  <path class="fil11" d="M12.4967 7.74331l-0.0317245 0c-0.0767378,0 -0.126898,-0.0500293 -0.126898,-0.126542l0 -0.0316309c0,-0.0523127 0.0738554,-0.110727 0.126898,-0.110727 0.0797324,0 0.14277,0.0687645 0.14277,0.142358 0,0.0477084 -0.0646843,0.126542 -0.111045,0.126542zm-0.190347 -0.56945l0.063449 0 0 -0.0474464c0,-0.0638982 0.034532,-0.110727 0.0951735,-0.110727 0.0579651,0 0.126898,0.0436469 0.126898,0.0949115l0 0.110727c-0.0477646,0.0110989 -0.285521,0.138877 -0.285521,0.189804l0 0.2689c0,0.0427298 0.00756148,0.0436282 0.0158529,0.079096 0.0355801,0.00827271 0.0364785,0.0158155 0.0793206,0.0158155l0.158623 0c0.0369839,0 0.0793206,-0.0422058 0.0793206,-0.0790773l0 -0.56945c0,-0.0781789 -0.0643661,-0.142358 -0.14277,-0.142358l-0.0475961 0c-0.106909,0 -0.142751,0.0807805 -0.142751,0.189804z"/>
  <path class="fil7" d="M10.3711 7.23714c0,-0.070318 0.105842,-0.189823 0.190347,-0.189823l0.0951735 0c0.0549704,0 0.158641,0.0972511 0.158641,0.174008l0 0.0632619c0,0.129687 -0.107882,0.11127 -0.111045,0.253085l-0.206219 0c-0.0110053,-0.132026 -0.126898,-0.132607 -0.126898,-0.300531zm0.380713 0.2689c0.0608849,-0.040671 0.142751,-0.164256 0.142751,-0.2689 0,-0.103952 -0.128882,-0.253085 -0.237943,-0.253085l-0.126898 0c-0.102342,0 -0.222072,0.135339 -0.222072,0.237269l0 0.0316309c0,0.0872003 0.162478,0.363812 0.206219,0.363812l0.142751 0c0.0484009,0 0.0640105,-0.0151978 0.0951923,-0.0316309l0 -0.079096z"/>
  <path class="fil12" d="M8.51514 7.09478l0 0.189804c0,0.0364411 0.0110428,0.0474651 0.0475961,0.0474651l0.063449 0c0.0706736,0 0.0244999,-0.0632806 0.0951735,-0.0632806l0.0158529 0c0.051564,0 0.0119786,0.0137005 0.0793206,0.0316309l0 -0.237269 -0.0317245 0c-0.00372459,0.0446576 0.000374331,0.0632806 -0.0475961,0.0632806l-0.0475774 0c-0.00393047,-0.0471844 -0.0113984,-0.079096 -0.063449,-0.079096l-0.063449 0c-0.0365534,0 -0.0475961,0.0110053 -0.0475961,0.0474651z"/>
  <polygon class="fil7" points="6.61663,7.3762 6.72266,7.3795 6.72266,7.55349 6.70456,7.72721 6.73853,7.72749 6.84329,7.31876 6.73853,7.31622 6.72288,7.02676 "/>
  <path class="fil7" d="M6.46886 7.06313l-0.017762 0.142077c-0.00802939,0.0663314 0.081211,0.213799 0.081211,0.300831 0,0.0577218 -0.0301336,0.1187 -0.0317245,0.189823l0 0.0474464c0.0741549,-0.00808554 0.0951735,-0.128938 0.0951735,-0.205638l0 -0.0316309c0,-0.123623 -0.0793019,-0.182467 -0.0793019,-0.30055l0 -0.0158155c0,-0.0753715 0.0319678,-0.122968 0.0475774,-0.189804l-0.063449 0 -0.0317245 0.0632619z"/>
  <path class="fil7" d="M7.0082 7.60095c0,-0.203898 -0.063449,-0.250539 -0.063449,-0.363812l0 -0.0632806c0,-0.0622512 0.00810426,-0.105243 0.0317245,-0.142358l0 -0.0316309c-0.0968955,0.0021524 -0.0951735,0.053679 -0.0951735,0.158173l0 0.0632806c0,0.140206 0.063449,0.172623 0.063449,0.284716 0,0.0867511 -0.0405213,0.152427 -0.0475961,0.237269 0.129706,-0.00288235 0.0527245,-0.0507218 0.111045,-0.142358z"/>
  <path class="fil10" d="M8.56274 7.42694l0 0.490354 0.0793019 0 0 -0.537801c-0.0508341,0.00112299 -0.0793019,-0.00514705 -0.0793019,0.0474464z"/>
  <path class="fil7" d="M12.4649 7.71168c-0.0382004,0 -0.0951735,-0.0568234 -0.0951735,-0.0949115l0 -0.0474651c0.068802,0.00572726 0.112599,0.0816415 0.142751,0.126561 -0.0418127,0.020663 0.0130641,0.0158155 -0.0475774,0.0158155zm-0.0513394 -0.18608l0.0830639 -0.00374331c0.0371336,0 0.063449,0.0262406 0.063449,0.0632806l-0.00376202 0.0828206 -0.142751 -0.142358zm0.0830639 0.217711c0.0463608,0 0.111045,-0.078834 0.111045,-0.126542 0,-0.0735934 -0.0630373,-0.142358 -0.14277,-0.142358 -0.0530426,0 -0.126898,0.0584143 -0.126898,0.110727l0 0.0316309c0,0.0765132 0.0501603,0.126542 0.126898,0.126542l0.0317245 0z"/>
  <path class="fil13" d="M10.3711 7.85404c0.0488689,0.0423555 0.22982,0.102772 0.317245,0.0474464l-0.130623 -0.0371523 0.162366 -0.0261096 -0.237943 0 0 -0.0474651 0 -0.0316309 0 -0.0474464 0.237943 0 0 -0.0158155 -0.237943 0 0 -0.0474651 -0.0699437 0.123772 0.0382191 0.00277005c-0.00580212,0.0695319 -0.0114919,0.0714223 -0.063449,0.0474651l-0.0158716 0.0316309z"/>
  <polygon class="fil7" points="10.728,7.20955 10.5778,7.22482 10.5773,7.07895 10.4733,7.3127 10.609,7.30004 10.5989,7.46149 "/>
  <path class="fil11" d="M8.26134 7.26877c0.0635613,-0.0169197 0.0827458,-0.0632806 0.158623,-0.0632806l0.0475961 0 0 -0.0948928c-0.0913179,0.00758019 -0.186622,0.0743046 -0.206219,0.158173z"/>
  <polygon class="fil7" points="10.7201,7.69586 10.7201,7.6484 10.4821,7.6484 10.4821,7.69586 "/>
  <polygon class="fil7" points="10.7201,7.83822 10.7201,7.79075 10.4821,7.79075 10.4821,7.83822 "/>
  <polygon class="fil7" points="10.4821,7.75912 10.7201,7.75912 10.7201,7.71168 10.4821,7.71168 "/>
  <path class="fil14" d="M12.3698 7.61677c0,0.0380881 0.0569731,0.0949115 0.0951735,0.0949115 0.0606415,0 0.00576469,0.00484758 0.0475774,-0.0158155 -0.0301523,-0.0449197 -0.073949,-0.120834 -0.142751,-0.126561l0 0.0474651z"/>
  <path class="fil15" d="M12.5564 7.66796l0.00376202 -0.0828206c0,-0.03704 -0.0263154,-0.0632806 -0.063449,-0.0632806l-0.0830639 0.00374331 0.142751 0.142358z"/>
  <polygon class="fil16" points="10.4821,7.79075 10.7201,7.79075 10.7201,7.75912 10.4821,7.75912 "/>
 </g>
</svg>
